<?xml version="1.0" encoding="UTF-8"?><svg xmlns="http://www.w3.org/2000/svg" xmlns:xlink="http://www.w3.org/1999/xlink" contentScriptType="text/ecmascript" width="112.5" zoomAndPan="magnify" contentStyleType="text/css" viewBox="0 0 112.5 112.499997" height="112.499997" preserveAspectRatio="xMidYMid meet" version="1.0"><defs><clipPath id="clip-0"><path d="M 56 7.902344 L 58 7.902344 L 58 39 L 56 39 Z M 56 7.902344 " clip-rule="nonzero"/></clipPath><clipPath id="clip-1"><path d="M 24.1875 48 L 88.6875 48 L 88.6875 112.003906 L 24.1875 112.003906 Z M 24.1875 48 " clip-rule="nonzero"/></clipPath><clipPath id="clip-2"><path d="M 7 7.113281 L 105 7.113281 L 105 95.613281 L 7 95.613281 Z M 7 7.113281 " clip-rule="nonzero"/></clipPath><clipPath id="clip-3"><path d="M 106 66 L 112.003906 66 L 112.003906 86 L 106 86 Z M 106 66 " clip-rule="nonzero"/></clipPath></defs><g clip-path="url(#clip-0)"><path fill="rgb(92.158508%, 59.999084%, 12.939453%)" d="M 56.03125 -0.0078125 L 56.03125 38.273438 L 57.480469 38.273438 L 57.480469 -0.0078125 L 56.03125 -0.0078125 " fill-opacity="1" fill-rule="nonzero"/></g><path fill="rgb(92.158508%, 59.999084%, 12.939453%)" d="M 54.320312 41.050781 C 54.320312 39.734375 55.394531 38.667969 56.71875 38.667969 C 58.042969 38.667969 59.117188 39.734375 59.117188 41.050781 C 59.117188 42.371094 58.042969 43.4375 56.71875 43.4375 C 55.394531 43.4375 54.320312 42.371094 54.320312 41.050781 Z M 58.769531 43.71875 C 59.578125 43.105469 60.097656 42.140625 60.097656 41.050781 C 60.097656 39.195312 58.585938 37.691406 56.71875 37.691406 C 54.851562 37.691406 53.335938 39.195312 53.335938 41.050781 C 53.335938 42.140625 53.859375 43.105469 54.664062 43.71875 L 52.414062 43.71875 L 52.414062 49.664062 L 61.246094 49.664062 L 61.246094 43.71875 L 58.769531 43.71875 " fill-opacity="1" fill-rule="nonzero"/><g clip-path="url(#clip-1)"><path fill="rgb(87.838745%, 32.548523%, 21.958923%)" d="M 88.636719 80.480469 C 88.636719 98.167969 74.214844 112.507812 56.421875 112.507812 C 38.628906 112.507812 24.207031 98.167969 24.207031 80.480469 C 24.207031 62.789062 38.628906 48.453125 56.421875 48.453125 C 74.214844 48.453125 88.636719 62.789062 88.636719 80.480469 " fill-opacity="1" fill-rule="nonzero"/></g><path fill="rgb(87.838745%, 32.548523%, 21.958923%)" d="M 76.632812 64.75 C 76.632812 64.511719 76.261719 64.511719 76.261719 64.75 C 76.261719 64.988281 76.632812 64.988281 76.632812 64.75 " fill-opacity="1" fill-rule="nonzero"/><path fill="rgb(87.838745%, 32.548523%, 21.958923%)" d="M 72.550781 65.492188 C 72.550781 65.25 72.179688 65.25 72.179688 65.492188 C 72.179688 65.726562 72.550781 65.726562 72.550781 65.492188 " fill-opacity="1" fill-rule="nonzero"/><path fill="rgb(87.838745%, 32.548523%, 21.958923%)" d="M 64.882812 70.652344 C 64.882812 70.417969 64.511719 70.417969 64.511719 70.652344 C 64.511719 70.890625 64.882812 70.890625 64.882812 70.652344 " fill-opacity="1" fill-rule="nonzero"/><path fill="rgb(87.838745%, 32.548523%, 21.958923%)" d="M 73.417969 75.328125 C 73.417969 75.089844 73.046875 75.089844 73.046875 75.328125 C 73.046875 75.566406 73.417969 75.566406 73.417969 75.328125 " fill-opacity="1" fill-rule="nonzero"/><path fill="rgb(87.838745%, 32.548523%, 21.958923%)" d="M 65.5 64.875 C 65.5 64.636719 65.128906 64.636719 65.128906 64.875 C 65.128906 65.113281 65.5 65.113281 65.5 64.875 " fill-opacity="1" fill-rule="nonzero"/><path fill="rgb(87.838745%, 32.548523%, 21.958923%)" d="M 67.851562 59.214844 C 67.851562 58.980469 67.480469 58.980469 67.480469 59.214844 C 67.480469 59.457031 67.851562 59.457031 67.851562 59.214844 " fill-opacity="1" fill-rule="nonzero"/><path fill="rgb(87.838745%, 32.548523%, 21.958923%)" d="M 69.210938 68.6875 C 69.210938 68.449219 68.839844 68.449219 68.839844 68.6875 C 68.839844 68.925781 69.210938 68.925781 69.210938 68.6875 " fill-opacity="1" fill-rule="nonzero"/><path fill="rgb(87.838745%, 32.548523%, 21.958923%)" d="M 73.292969 69.054688 C 73.292969 68.816406 72.921875 68.816406 72.921875 69.054688 C 72.921875 69.292969 73.292969 69.292969 73.292969 69.054688 " fill-opacity="1" fill-rule="nonzero"/><path fill="rgb(87.838745%, 32.548523%, 21.958923%)" d="M 80.714844 68.6875 C 80.714844 68.449219 80.34375 68.449219 80.34375 68.6875 C 80.34375 68.925781 80.714844 68.925781 80.714844 68.6875 " fill-opacity="1" fill-rule="nonzero"/><path fill="rgb(87.838745%, 32.548523%, 21.958923%)" d="M 82.820312 76.800781 C 82.820312 76.566406 82.449219 76.566406 82.449219 76.800781 C 82.449219 77.039062 82.820312 77.039062 82.820312 76.800781 " fill-opacity="1" fill-rule="nonzero"/><path fill="rgb(87.838745%, 32.548523%, 21.958923%)" d="M 80.59375 77.417969 C 80.59375 77.179688 80.21875 77.179688 80.21875 77.417969 C 80.21875 77.65625 80.59375 77.65625 80.59375 77.417969 " fill-opacity="1" fill-rule="nonzero"/><path fill="rgb(87.838745%, 32.548523%, 21.958923%)" d="M 78.734375 69.425781 C 78.734375 69.1875 78.367188 69.1875 78.367188 69.425781 C 78.367188 69.660156 78.734375 69.660156 78.734375 69.425781 " fill-opacity="1" fill-rule="nonzero"/><path fill="rgb(87.838745%, 32.548523%, 21.958923%)" d="M 80.839844 71.636719 C 80.839844 71.398438 80.46875 71.398438 80.46875 71.636719 C 80.46875 71.875 80.839844 71.875 80.839844 71.636719 " fill-opacity="1" fill-rule="nonzero"/><path fill="rgb(87.838745%, 32.548523%, 21.958923%)" d="M 76.632812 72.992188 C 76.632812 72.75 76.261719 72.75 76.261719 72.992188 C 76.261719 73.230469 76.632812 73.230469 76.632812 72.992188 " fill-opacity="1" fill-rule="nonzero"/><path fill="rgb(87.838745%, 32.548523%, 21.958923%)" d="M 73.167969 58.355469 C 73.167969 58.121094 72.796875 58.121094 72.796875 58.355469 C 72.796875 58.59375 73.167969 58.59375 73.167969 58.355469 " fill-opacity="1" fill-rule="nonzero"/><path fill="rgb(87.838745%, 32.548523%, 21.958923%)" d="M 68.964844 61.800781 C 68.964844 61.5625 68.59375 61.5625 68.59375 61.800781 C 68.59375 62.039062 68.964844 62.039062 68.964844 61.800781 " fill-opacity="1" fill-rule="nonzero"/><path fill="rgb(87.838745%, 32.548523%, 21.958923%)" d="M 73.417969 68.195312 C 73.417969 67.957031 73.046875 67.957031 73.046875 68.195312 C 73.046875 68.433594 73.417969 68.433594 73.417969 68.195312 " fill-opacity="1" fill-rule="nonzero"/><path fill="rgb(87.838745%, 32.548523%, 21.958923%)" d="M 78.734375 62.046875 C 78.734375 61.804688 78.367188 61.804688 78.367188 62.046875 C 78.367188 62.28125 78.734375 62.28125 78.734375 62.046875 " fill-opacity="1" fill-rule="nonzero"/><path fill="rgb(87.838745%, 32.548523%, 21.958923%)" d="M 74.035156 59.707031 C 74.035156 59.472656 73.664062 59.472656 73.664062 59.707031 C 73.664062 59.949219 74.035156 59.949219 74.035156 59.707031 " fill-opacity="1" fill-rule="nonzero"/><path fill="rgb(87.838745%, 32.548523%, 21.958923%)" d="M 72.429688 61.800781 C 72.429688 61.5625 72.058594 61.5625 72.058594 61.800781 C 72.058594 62.039062 72.429688 62.039062 72.429688 61.800781 " fill-opacity="1" fill-rule="nonzero"/><path fill="rgb(87.838745%, 32.548523%, 21.958923%)" d="M 69.148438 54.972656 C 69.148438 54.734375 68.777344 54.734375 68.777344 54.972656 C 68.777344 55.210938 69.148438 55.210938 69.148438 54.972656 " fill-opacity="1" fill-rule="nonzero"/><path fill="rgb(87.838745%, 32.548523%, 21.958923%)" d="M 63.460938 57.804688 C 63.460938 57.566406 63.085938 57.566406 63.085938 57.804688 C 63.085938 58.042969 63.460938 58.042969 63.460938 57.804688 " fill-opacity="1" fill-rule="nonzero"/><path fill="rgb(87.838745%, 32.548523%, 21.958923%)" d="M 64.265625 61 C 64.265625 60.761719 63.894531 60.761719 63.894531 61 C 63.894531 61.238281 64.265625 61.238281 64.265625 61 " fill-opacity="1" fill-rule="nonzero"/><path fill="rgb(87.838745%, 32.548523%, 21.958923%)" d="M 66.796875 57.003906 C 66.796875 56.765625 66.429688 56.765625 66.429688 57.003906 C 66.429688 57.242188 66.796875 57.242188 66.796875 57.003906 " fill-opacity="1" fill-rule="nonzero"/><path fill="rgb(87.838745%, 32.548523%, 21.958923%)" d="M 71.992188 58.910156 C 71.992188 58.671875 71.625 58.671875 71.625 58.910156 C 71.625 59.148438 71.992188 59.148438 71.992188 58.910156 " fill-opacity="1" fill-rule="nonzero"/><path fill="rgb(87.838745%, 32.548523%, 21.958923%)" d="M 70.015625 64.566406 C 70.015625 64.328125 69.644531 64.328125 69.644531 64.566406 C 69.644531 64.804688 70.015625 64.804688 70.015625 64.566406 " fill-opacity="1" fill-rule="nonzero"/><path fill="rgb(87.838745%, 32.548523%, 21.958923%)" d="M 66.210938 80.277344 C 66.210938 80.039062 65.839844 80.039062 65.839844 80.277344 C 65.839844 80.515625 66.210938 80.515625 66.210938 80.277344 " fill-opacity="1" fill-rule="nonzero"/><path fill="rgb(87.838745%, 32.548523%, 21.958923%)" d="M 68.71875 73.238281 C 68.71875 72.996094 68.34375 72.996094 68.34375 73.238281 C 68.34375 73.472656 68.71875 73.472656 68.71875 73.238281 " fill-opacity="1" fill-rule="nonzero"/><path fill="rgb(87.838745%, 32.548523%, 21.958923%)" d="M 71.066406 79.261719 C 71.066406 79.023438 70.695312 79.023438 70.695312 79.261719 C 70.695312 79.5 71.066406 79.5 71.066406 79.261719 " fill-opacity="1" fill-rule="nonzero"/><path fill="rgb(87.838745%, 32.548523%, 21.958923%)" d="M 76.820312 80.371094 C 76.820312 80.132812 76.449219 80.132812 76.449219 80.371094 C 76.449219 80.605469 76.820312 80.605469 76.820312 80.371094 " fill-opacity="1" fill-rule="nonzero"/><path fill="rgb(87.838745%, 32.548523%, 21.958923%)" d="M 76.695312 77.355469 C 76.695312 77.117188 76.324219 77.117188 76.324219 77.355469 C 76.324219 77.59375 76.695312 77.59375 76.695312 77.355469 " fill-opacity="1" fill-rule="nonzero"/><path fill="rgb(87.838745%, 32.548523%, 21.958923%)" d="M 81.582031 73.851562 C 81.582031 73.613281 81.210938 73.613281 81.210938 73.851562 C 81.210938 74.089844 81.582031 74.089844 81.582031 73.851562 " fill-opacity="1" fill-rule="nonzero"/><path fill="rgb(87.838745%, 32.548523%, 21.958923%)" d="M 83.5 73.113281 C 83.5 72.875 83.128906 72.875 83.128906 73.113281 C 83.128906 73.351562 83.5 73.351562 83.5 73.113281 " fill-opacity="1" fill-rule="nonzero"/><path fill="rgb(87.838745%, 32.548523%, 21.958923%)" d="M 82.878906 65.492188 C 82.878906 65.25 82.507812 65.25 82.507812 65.492188 C 82.507812 65.726562 82.878906 65.726562 82.878906 65.492188 " fill-opacity="1" fill-rule="nonzero"/><path fill="rgb(87.838745%, 32.548523%, 21.958923%)" d="M 79.726562 64.257812 C 79.726562 64.023438 79.355469 64.023438 79.355469 64.257812 C 79.355469 64.496094 79.726562 64.496094 79.726562 64.257812 " fill-opacity="1" fill-rule="nonzero"/><path fill="rgb(87.838745%, 32.548523%, 21.958923%)" d="M 79.292969 65.859375 C 79.292969 65.617188 78.921875 65.617188 78.921875 65.859375 C 78.921875 66.09375 79.292969 66.09375 79.292969 65.859375 " fill-opacity="1" fill-rule="nonzero"/><path fill="rgb(87.838745%, 32.548523%, 21.958923%)" d="M 83.871094 69.546875 C 83.871094 69.308594 83.5 69.308594 83.5 69.546875 C 83.5 69.785156 83.871094 69.785156 83.871094 69.546875 " fill-opacity="1" fill-rule="nonzero"/><path fill="rgb(87.838745%, 32.548523%, 21.958923%)" d="M 85.789062 75.019531 C 85.789062 74.78125 85.417969 74.78125 85.417969 75.019531 C 85.417969 75.257812 85.789062 75.257812 85.789062 75.019531 " fill-opacity="1" fill-rule="nonzero"/><path fill="rgb(87.838745%, 32.548523%, 21.958923%)" d="M 84.984375 78.894531 C 84.984375 78.65625 84.609375 78.65625 84.609375 78.894531 C 84.609375 79.132812 84.984375 79.132812 84.984375 78.894531 " fill-opacity="1" fill-rule="nonzero"/><path fill="rgb(87.838745%, 32.548523%, 21.958923%)" d="M 82.632812 83.382812 C 82.632812 83.144531 82.261719 83.144531 82.261719 83.382812 C 82.261719 83.621094 82.632812 83.621094 82.632812 83.382812 " fill-opacity="1" fill-rule="nonzero"/><path fill="rgb(87.838745%, 32.548523%, 21.958923%)" d="M 74.28125 80.613281 C 74.28125 80.378906 73.910156 80.378906 73.910156 80.613281 C 73.910156 80.855469 74.28125 80.855469 74.28125 80.613281 " fill-opacity="1" fill-rule="nonzero"/><path fill="rgb(87.838745%, 32.548523%, 21.958923%)" d="M 68.34375 74.652344 C 68.34375 74.414062 67.972656 74.414062 67.972656 74.652344 C 67.972656 74.886719 68.34375 74.886719 68.34375 74.652344 " fill-opacity="1" fill-rule="nonzero"/><path fill="rgb(87.838745%, 32.548523%, 21.958923%)" d="M 63.085938 75.449219 C 63.085938 75.210938 62.71875 75.210938 62.71875 75.449219 C 62.71875 75.6875 63.085938 75.6875 63.085938 75.449219 " fill-opacity="1" fill-rule="nonzero"/><path fill="rgb(87.838745%, 32.548523%, 21.958923%)" d="M 59.871094 81.230469 C 59.871094 80.992188 59.503906 80.992188 59.503906 81.230469 C 59.503906 81.46875 59.871094 81.46875 59.871094 81.230469 " fill-opacity="1" fill-rule="nonzero"/><path fill="rgb(87.838745%, 32.548523%, 21.958923%)" d="M 58.078125 67.273438 C 58.078125 67.03125 57.707031 67.03125 57.707031 67.273438 C 57.707031 67.511719 58.078125 67.511719 58.078125 67.273438 " fill-opacity="1" fill-rule="nonzero"/><path fill="rgb(87.838745%, 32.548523%, 21.958923%)" d="M 58.945312 52.699219 C 58.945312 52.460938 58.574219 52.460938 58.574219 52.699219 C 58.574219 52.9375 58.945312 52.9375 58.945312 52.699219 " fill-opacity="1" fill-rule="nonzero"/><path fill="rgb(87.838745%, 32.548523%, 21.958923%)" d="M 63.460938 53.007812 C 63.460938 52.769531 63.085938 52.769531 63.085938 53.007812 C 63.085938 53.242188 63.460938 53.242188 63.460938 53.007812 " fill-opacity="1" fill-rule="nonzero"/><path fill="rgb(87.838745%, 32.548523%, 21.958923%)" d="M 67.605469 54.113281 C 67.605469 53.875 67.234375 53.875 67.234375 54.113281 C 67.234375 54.351562 67.605469 54.351562 67.605469 54.113281 " fill-opacity="1" fill-rule="nonzero"/><path fill="rgb(87.838745%, 32.548523%, 21.958923%)" d="M 60.863281 55.28125 C 60.863281 55.042969 60.492188 55.042969 60.492188 55.28125 C 60.492188 55.519531 60.863281 55.519531 60.863281 55.28125 " fill-opacity="1" fill-rule="nonzero"/><path fill="rgb(87.838745%, 32.548523%, 21.958923%)" d="M 57.957031 61.429688 C 57.957031 61.191406 57.582031 61.191406 57.582031 61.429688 C 57.582031 61.667969 57.957031 61.667969 57.957031 61.429688 " fill-opacity="1" fill-rule="nonzero"/><path fill="rgb(87.838745%, 32.548523%, 21.958923%)" d="M 61.972656 63.089844 C 61.972656 62.855469 61.605469 62.855469 61.605469 63.089844 C 61.605469 63.328125 61.972656 63.328125 61.972656 63.089844 " fill-opacity="1" fill-rule="nonzero"/><path fill="rgb(87.838745%, 32.548523%, 21.958923%)" d="M 62.160156 70.777344 C 62.160156 70.539062 61.789062 70.539062 61.789062 70.777344 C 61.789062 71.015625 62.160156 71.015625 62.160156 70.777344 " fill-opacity="1" fill-rule="nonzero"/><path fill="rgb(87.838745%, 32.548523%, 21.958923%)" d="M 58.203125 74.222656 C 58.203125 73.984375 57.832031 73.984375 57.832031 74.222656 C 57.832031 74.457031 58.203125 74.457031 58.203125 74.222656 " fill-opacity="1" fill-rule="nonzero"/><path fill="rgb(87.838745%, 32.548523%, 21.958923%)" d="M 63.460938 77.296875 C 63.460938 77.054688 63.085938 77.054688 63.085938 77.296875 C 63.085938 77.53125 63.460938 77.53125 63.460938 77.296875 " fill-opacity="1" fill-rule="nonzero"/><path fill="rgb(87.838745%, 32.548523%, 21.958923%)" d="M 68.039062 78.15625 C 68.039062 77.917969 67.664062 77.917969 67.664062 78.15625 C 67.664062 78.394531 68.039062 78.394531 68.039062 78.15625 " fill-opacity="1" fill-rule="nonzero"/><path fill="rgb(87.838745%, 32.548523%, 21.958923%)" d="M 69.953125 76.433594 C 69.953125 76.195312 69.582031 76.195312 69.582031 76.433594 C 69.582031 76.671875 69.953125 76.671875 69.953125 76.433594 " fill-opacity="1" fill-rule="nonzero"/><path fill="rgb(87.838745%, 32.548523%, 21.958923%)" d="M 72.429688 72.929688 C 72.429688 72.691406 72.058594 72.691406 72.058594 72.929688 C 72.058594 73.167969 72.429688 73.167969 72.429688 72.929688 " fill-opacity="1" fill-rule="nonzero"/><path fill="rgb(87.838745%, 32.548523%, 21.958923%)" d="M 73.046875 77.972656 C 73.046875 77.734375 72.675781 77.734375 72.675781 77.972656 C 72.675781 78.210938 73.046875 78.210938 73.046875 77.972656 " fill-opacity="1" fill-rule="nonzero"/><path fill="rgb(87.838745%, 32.548523%, 21.958923%)" d="M 81.148438 79.9375 C 81.148438 79.699219 80.777344 79.699219 80.777344 79.9375 C 80.777344 80.175781 81.148438 80.175781 81.148438 79.9375 " fill-opacity="1" fill-rule="nonzero"/><path fill="rgb(87.838745%, 32.548523%, 21.958923%)" d="M 83.5 81.167969 C 83.5 80.929688 83.128906 80.929688 83.128906 81.167969 C 83.128906 81.40625 83.5 81.40625 83.5 81.167969 " fill-opacity="1" fill-rule="nonzero"/><path fill="rgb(87.838745%, 32.548523%, 21.958923%)" d="M 85.476562 83.507812 C 85.476562 83.265625 85.105469 83.265625 85.105469 83.507812 C 85.105469 83.742188 85.476562 83.742188 85.476562 83.507812 " fill-opacity="1" fill-rule="nonzero"/><path fill="rgb(87.838745%, 32.548523%, 21.958923%)" d="M 58.046875 71.023438 C 58.046875 70.785156 57.675781 70.785156 57.675781 71.023438 C 57.675781 71.261719 58.046875 71.261719 58.046875 71.023438 " fill-opacity="1" fill-rule="nonzero"/><path fill="rgb(87.838745%, 32.548523%, 21.958923%)" d="M 64.589844 73.511719 C 64.589844 73.273438 64.214844 73.273438 64.214844 73.511719 C 64.214844 73.75 64.589844 73.75 64.589844 73.511719 " fill-opacity="1" fill-rule="nonzero"/><path fill="rgb(87.838745%, 32.548523%, 21.958923%)" d="M 62.222656 66.917969 C 62.222656 66.679688 61.851562 66.679688 61.851562 66.917969 C 61.851562 67.152344 62.222656 67.152344 62.222656 66.917969 " fill-opacity="1" fill-rule="nonzero"/><path fill="rgb(87.838745%, 32.548523%, 21.958923%)" d="M 66.953125 67.472656 C 66.953125 67.234375 66.582031 67.234375 66.582031 67.472656 C 66.582031 67.710938 66.953125 67.710938 66.953125 67.472656 " fill-opacity="1" fill-rule="nonzero"/><path fill="rgb(87.838745%, 32.548523%, 21.958923%)" d="M 68.113281 64.796875 C 68.113281 64.558594 67.742188 64.558594 67.742188 64.796875 C 67.742188 65.035156 68.113281 65.035156 68.113281 64.796875 " fill-opacity="1" fill-rule="nonzero"/><path fill="rgb(87.838745%, 32.548523%, 21.958923%)" d="M 61.292969 59.585938 C 61.292969 59.347656 60.925781 59.347656 60.925781 59.585938 C 60.925781 59.824219 61.292969 59.824219 61.292969 59.585938 " fill-opacity="1" fill-rule="nonzero"/><path fill="rgb(87.838745%, 32.548523%, 21.958923%)" d="M 66.488281 61.800781 C 66.488281 61.5625 66.121094 61.5625 66.121094 61.800781 C 66.121094 62.039062 66.488281 62.039062 66.488281 61.800781 " fill-opacity="1" fill-rule="nonzero"/><path fill="rgb(87.838745%, 32.548523%, 21.958923%)" d="M 70.804688 57.050781 C 70.804688 56.808594 70.433594 56.808594 70.433594 57.050781 C 70.433594 57.289062 70.804688 57.289062 70.804688 57.050781 " fill-opacity="1" fill-rule="nonzero"/><path fill="rgb(87.838745%, 32.548523%, 21.958923%)" d="M 76.046875 59.90625 C 76.046875 59.671875 75.675781 59.671875 75.675781 59.90625 C 75.675781 60.148438 76.046875 60.148438 76.046875 59.90625 " fill-opacity="1" fill-rule="nonzero"/><path fill="rgb(87.838745%, 32.548523%, 21.958923%)" d="M 75.027344 63.964844 C 75.027344 63.730469 74.65625 63.730469 74.65625 63.964844 C 74.65625 64.203125 75.027344 64.203125 75.027344 63.964844 " fill-opacity="1" fill-rule="nonzero"/><path fill="rgb(87.838745%, 32.548523%, 21.958923%)" d="M 60.878906 52.023438 C 60.878906 51.785156 60.503906 51.785156 60.503906 52.023438 C 60.503906 52.261719 60.878906 52.261719 60.878906 52.023438 " fill-opacity="1" fill-rule="nonzero"/><path fill="rgb(87.838745%, 32.548523%, 21.958923%)" d="M 75.675781 69.777344 C 75.675781 69.539062 75.304688 69.539062 75.304688 69.777344 C 75.304688 70.015625 75.675781 70.015625 75.675781 69.777344 " fill-opacity="1" fill-rule="nonzero"/><path fill="rgb(87.838745%, 32.548523%, 21.958923%)" d="M 75.535156 66.597656 C 75.535156 66.355469 75.164062 66.355469 75.164062 66.597656 C 75.164062 66.832031 75.535156 66.832031 75.535156 66.597656 " fill-opacity="1" fill-rule="nonzero"/><path fill="rgb(87.838745%, 32.548523%, 21.958923%)" d="M 60.304688 73.421875 C 60.304688 73.183594 59.933594 73.183594 59.933594 73.421875 C 59.933594 73.660156 60.304688 73.660156 60.304688 73.421875 " fill-opacity="1" fill-rule="nonzero"/><path fill="rgb(87.838745%, 32.548523%, 21.958923%)" d="M 59.871094 66.902344 C 59.871094 66.664062 59.503906 66.664062 59.503906 66.902344 C 59.503906 67.140625 59.871094 67.140625 59.871094 66.902344 " fill-opacity="1" fill-rule="nonzero"/><path fill="rgb(87.838745%, 32.548523%, 21.958923%)" d="M 59.5625 63.707031 C 59.5625 63.46875 59.191406 63.46875 59.191406 63.707031 C 59.191406 63.941406 59.5625 63.941406 59.5625 63.707031 " fill-opacity="1" fill-rule="nonzero"/><path fill="rgb(87.838745%, 32.548523%, 21.958923%)" d="M 59.5625 59.523438 C 59.5625 59.285156 59.191406 59.285156 59.191406 59.523438 C 59.191406 59.761719 59.5625 59.761719 59.5625 59.523438 " fill-opacity="1" fill-rule="nonzero"/><path fill="rgb(87.838745%, 32.548523%, 21.958923%)" d="M 63.894531 68.503906 C 63.894531 68.261719 63.519531 68.261719 63.519531 68.503906 C 63.519531 68.738281 63.894531 68.738281 63.894531 68.503906 " fill-opacity="1" fill-rule="nonzero"/><path fill="rgb(87.838745%, 32.548523%, 21.958923%)" d="M 78.117188 59.585938 C 78.117188 59.347656 77.746094 59.347656 77.746094 59.585938 C 77.746094 59.824219 78.117188 59.824219 78.117188 59.585938 " fill-opacity="1" fill-rule="nonzero"/><path fill="rgb(87.838745%, 32.548523%, 21.958923%)" d="M 73.417969 55.832031 C 73.417969 55.597656 73.046875 55.597656 73.046875 55.832031 C 73.046875 56.074219 73.417969 56.074219 73.417969 55.832031 " fill-opacity="1" fill-rule="nonzero"/><path fill="rgb(87.838745%, 32.548523%, 21.958923%)" d="M 70.507812 54.113281 C 70.507812 53.875 70.140625 53.875 70.140625 54.113281 C 70.140625 54.351562 70.507812 54.351562 70.507812 54.113281 " fill-opacity="1" fill-rule="nonzero"/><path fill="rgb(87.838745%, 32.548523%, 21.958923%)" d="M 66.738281 51.839844 C 66.738281 51.601562 66.367188 51.601562 66.367188 51.839844 C 66.367188 52.074219 66.738281 52.074219 66.738281 51.839844 " fill-opacity="1" fill-rule="nonzero"/><path fill="rgb(87.838745%, 32.548523%, 21.958923%)" d="M 65.253906 55.773438 C 65.253906 55.535156 64.882812 55.535156 64.882812 55.773438 C 64.882812 56.011719 65.253906 56.011719 65.253906 55.773438 " fill-opacity="1" fill-rule="nonzero"/><path fill="rgb(87.838745%, 32.548523%, 21.958923%)" d="M 76.632812 95.160156 C 76.632812 95.394531 76.261719 95.394531 76.261719 95.160156 C 76.261719 94.917969 76.632812 94.917969 76.632812 95.160156 " fill-opacity="1" fill-rule="nonzero"/><path fill="rgb(87.838745%, 32.548523%, 21.958923%)" d="M 72.550781 94.421875 C 72.550781 94.660156 72.179688 94.660156 72.179688 94.421875 C 72.179688 94.179688 72.550781 94.179688 72.550781 94.421875 " fill-opacity="1" fill-rule="nonzero"/><path fill="rgb(87.838745%, 32.548523%, 21.958923%)" d="M 64.882812 89.253906 C 64.882812 89.492188 64.511719 89.492188 64.511719 89.253906 C 64.511719 89.015625 64.882812 89.015625 64.882812 89.253906 " fill-opacity="1" fill-rule="nonzero"/><path fill="rgb(87.838745%, 32.548523%, 21.958923%)" d="M 73.417969 84.582031 C 73.417969 84.820312 73.046875 84.820312 73.046875 84.582031 C 73.046875 84.34375 73.417969 84.34375 73.417969 84.582031 " fill-opacity="1" fill-rule="nonzero"/><path fill="rgb(87.838745%, 32.548523%, 21.958923%)" d="M 65.5 95.035156 C 65.5 95.273438 65.128906 95.273438 65.128906 95.035156 C 65.128906 94.796875 65.5 94.796875 65.5 95.035156 " fill-opacity="1" fill-rule="nonzero"/><path fill="rgb(87.838745%, 32.548523%, 21.958923%)" d="M 67.851562 100.691406 C 67.851562 100.929688 67.480469 100.929688 67.480469 100.691406 C 67.480469 100.453125 67.851562 100.453125 67.851562 100.691406 " fill-opacity="1" fill-rule="nonzero"/><path fill="rgb(87.838745%, 32.548523%, 21.958923%)" d="M 69.210938 91.222656 C 69.210938 91.460938 68.839844 91.460938 68.839844 91.222656 C 68.839844 90.984375 69.210938 90.984375 69.210938 91.222656 " fill-opacity="1" fill-rule="nonzero"/><path fill="rgb(87.838745%, 32.548523%, 21.958923%)" d="M 73.292969 90.855469 C 73.292969 91.089844 72.921875 91.089844 72.921875 90.855469 C 72.921875 90.613281 73.292969 90.613281 73.292969 90.855469 " fill-opacity="1" fill-rule="nonzero"/><path fill="rgb(87.838745%, 32.548523%, 21.958923%)" d="M 80.714844 91.222656 C 80.714844 91.460938 80.34375 91.460938 80.34375 91.222656 C 80.34375 90.984375 80.714844 90.984375 80.714844 91.222656 " fill-opacity="1" fill-rule="nonzero"/><path fill="rgb(87.838745%, 32.548523%, 21.958923%)" d="M 82.820312 83.105469 C 82.820312 83.34375 82.449219 83.34375 82.449219 83.105469 C 82.449219 82.867188 82.820312 82.867188 82.820312 83.105469 " fill-opacity="1" fill-rule="nonzero"/><path fill="rgb(87.838745%, 32.548523%, 21.958923%)" d="M 80.59375 82.492188 C 80.59375 82.726562 80.21875 82.726562 80.21875 82.492188 C 80.21875 82.253906 80.59375 82.253906 80.59375 82.492188 " fill-opacity="1" fill-rule="nonzero"/><path fill="rgb(87.838745%, 32.548523%, 21.958923%)" d="M 78.734375 90.484375 C 78.734375 90.722656 78.367188 90.722656 78.367188 90.484375 C 78.367188 90.246094 78.734375 90.246094 78.734375 90.484375 " fill-opacity="1" fill-rule="nonzero"/><path fill="rgb(87.838745%, 32.548523%, 21.958923%)" d="M 80.839844 88.273438 C 80.839844 88.507812 80.46875 88.507812 80.46875 88.273438 C 80.46875 88.035156 80.839844 88.035156 80.839844 88.273438 " fill-opacity="1" fill-rule="nonzero"/><path fill="rgb(87.838745%, 32.548523%, 21.958923%)" d="M 76.632812 86.917969 C 76.632812 87.15625 76.261719 87.15625 76.261719 86.917969 C 76.261719 86.679688 76.632812 86.679688 76.632812 86.917969 " fill-opacity="1" fill-rule="nonzero"/><path fill="rgb(87.838745%, 32.548523%, 21.958923%)" d="M 73.167969 101.554688 C 73.167969 101.792969 72.796875 101.792969 72.796875 101.554688 C 72.796875 101.316406 73.167969 101.316406 73.167969 101.554688 " fill-opacity="1" fill-rule="nonzero"/><path fill="rgb(87.838745%, 32.548523%, 21.958923%)" d="M 68.964844 98.109375 C 68.964844 98.347656 68.59375 98.347656 68.59375 98.109375 C 68.59375 97.871094 68.964844 97.871094 68.964844 98.109375 " fill-opacity="1" fill-rule="nonzero"/><path fill="rgb(87.838745%, 32.548523%, 21.958923%)" d="M 73.417969 91.714844 C 73.417969 91.953125 73.046875 91.953125 73.046875 91.714844 C 73.046875 91.476562 73.417969 91.476562 73.417969 91.714844 " fill-opacity="1" fill-rule="nonzero"/><path fill="rgb(87.838745%, 32.548523%, 21.958923%)" d="M 78.734375 97.863281 C 78.734375 98.101562 78.367188 98.101562 78.367188 97.863281 C 78.367188 97.625 78.734375 97.625 78.734375 97.863281 " fill-opacity="1" fill-rule="nonzero"/><path fill="rgb(87.838745%, 32.548523%, 21.958923%)" d="M 74.035156 100.199219 C 74.035156 100.4375 73.664062 100.4375 73.664062 100.199219 C 73.664062 99.964844 74.035156 99.964844 74.035156 100.199219 " fill-opacity="1" fill-rule="nonzero"/><path fill="rgb(87.838745%, 32.548523%, 21.958923%)" d="M 72.429688 98.109375 C 72.429688 98.347656 72.058594 98.347656 72.058594 98.109375 C 72.058594 97.871094 72.429688 97.871094 72.429688 98.109375 " fill-opacity="1" fill-rule="nonzero"/><path fill="rgb(87.838745%, 32.548523%, 21.958923%)" d="M 69.148438 104.9375 C 69.148438 105.171875 68.777344 105.171875 68.777344 104.9375 C 68.777344 104.695312 69.148438 104.695312 69.148438 104.9375 " fill-opacity="1" fill-rule="nonzero"/><path fill="rgb(87.838745%, 32.548523%, 21.958923%)" d="M 63.460938 102.105469 C 63.460938 102.34375 63.085938 102.34375 63.085938 102.105469 C 63.085938 101.867188 63.460938 101.867188 63.460938 102.105469 " fill-opacity="1" fill-rule="nonzero"/><path fill="rgb(87.838745%, 32.548523%, 21.958923%)" d="M 64.265625 98.910156 C 64.265625 99.148438 63.894531 99.148438 63.894531 98.910156 C 63.894531 98.671875 64.265625 98.671875 64.265625 98.910156 " fill-opacity="1" fill-rule="nonzero"/><path fill="rgb(87.838745%, 32.548523%, 21.958923%)" d="M 66.796875 102.90625 C 66.796875 103.144531 66.429688 103.144531 66.429688 102.90625 C 66.429688 102.667969 66.796875 102.667969 66.796875 102.90625 " fill-opacity="1" fill-rule="nonzero"/><path fill="rgb(87.838745%, 32.548523%, 21.958923%)" d="M 71.992188 101 C 71.992188 101.238281 71.625 101.238281 71.625 101 C 71.625 100.761719 71.992188 100.761719 71.992188 101 " fill-opacity="1" fill-rule="nonzero"/><path fill="rgb(87.838745%, 32.548523%, 21.958923%)" d="M 70.015625 95.34375 C 70.015625 95.578125 69.644531 95.578125 69.644531 95.34375 C 69.644531 95.105469 70.015625 95.105469 70.015625 95.34375 " fill-opacity="1" fill-rule="nonzero"/><path fill="rgb(87.838745%, 32.548523%, 21.958923%)" d="M 65.191406 79.722656 C 65.191406 79.960938 64.820312 79.960938 64.820312 79.722656 C 64.820312 79.484375 65.191406 79.484375 65.191406 79.722656 " fill-opacity="1" fill-rule="nonzero"/><path fill="rgb(87.838745%, 32.548523%, 21.958923%)" d="M 68.71875 86.671875 C 68.71875 86.910156 68.34375 86.910156 68.34375 86.671875 C 68.34375 86.433594 68.71875 86.433594 68.71875 86.671875 " fill-opacity="1" fill-rule="nonzero"/><path fill="rgb(87.838745%, 32.548523%, 21.958923%)" d="M 76.695312 82.554688 C 76.695312 82.789062 76.324219 82.789062 76.324219 82.554688 C 76.324219 82.3125 76.695312 82.3125 76.695312 82.554688 " fill-opacity="1" fill-rule="nonzero"/><path fill="rgb(87.838745%, 32.548523%, 21.958923%)" d="M 81.582031 86.054688 C 81.582031 86.296875 81.210938 86.296875 81.210938 86.054688 C 81.210938 85.820312 81.582031 85.820312 81.582031 86.054688 " fill-opacity="1" fill-rule="nonzero"/><path fill="rgb(87.838745%, 32.548523%, 21.958923%)" d="M 83.5 86.792969 C 83.5 87.035156 83.128906 87.035156 83.128906 86.792969 C 83.128906 86.558594 83.5 86.558594 83.5 86.792969 " fill-opacity="1" fill-rule="nonzero"/><path fill="rgb(87.838745%, 32.548523%, 21.958923%)" d="M 82.878906 94.421875 C 82.878906 94.660156 82.507812 94.660156 82.507812 94.421875 C 82.507812 94.179688 82.878906 94.179688 82.878906 94.421875 " fill-opacity="1" fill-rule="nonzero"/><path fill="rgb(87.838745%, 32.548523%, 21.958923%)" d="M 79.726562 95.648438 C 79.726562 95.886719 79.355469 95.886719 79.355469 95.648438 C 79.355469 95.414062 79.726562 95.414062 79.726562 95.648438 " fill-opacity="1" fill-rule="nonzero"/><path fill="rgb(87.838745%, 32.548523%, 21.958923%)" d="M 79.292969 94.050781 C 79.292969 94.289062 78.921875 94.289062 78.921875 94.050781 C 78.921875 93.8125 79.292969 93.8125 79.292969 94.050781 " fill-opacity="1" fill-rule="nonzero"/><path fill="rgb(87.838745%, 32.548523%, 21.958923%)" d="M 83.871094 90.363281 C 83.871094 90.597656 83.5 90.597656 83.5 90.363281 C 83.5 90.125 83.871094 90.125 83.871094 90.363281 " fill-opacity="1" fill-rule="nonzero"/><path fill="rgb(87.838745%, 32.548523%, 21.958923%)" d="M 85.789062 84.886719 C 85.789062 85.125 85.417969 85.125 85.417969 84.886719 C 85.417969 84.648438 85.789062 84.648438 85.789062 84.886719 " fill-opacity="1" fill-rule="nonzero"/><path fill="rgb(87.838745%, 32.548523%, 21.958923%)" d="M 68.34375 85.257812 C 68.34375 85.496094 67.972656 85.496094 67.972656 85.257812 C 67.972656 85.019531 68.34375 85.019531 68.34375 85.257812 " fill-opacity="1" fill-rule="nonzero"/><path fill="rgb(87.838745%, 32.548523%, 21.958923%)" d="M 63.085938 84.460938 C 63.085938 84.695312 62.71875 84.695312 62.71875 84.460938 C 62.71875 84.21875 63.085938 84.21875 63.085938 84.460938 " fill-opacity="1" fill-rule="nonzero"/><path fill="rgb(87.838745%, 32.548523%, 21.958923%)" d="M 59.871094 78.679688 C 59.871094 78.917969 59.503906 78.917969 59.503906 78.679688 C 59.503906 78.4375 59.871094 78.4375 59.871094 78.679688 " fill-opacity="1" fill-rule="nonzero"/><path fill="rgb(87.838745%, 32.548523%, 21.958923%)" d="M 58.078125 92.636719 C 58.078125 92.875 57.707031 92.875 57.707031 92.636719 C 57.707031 92.398438 58.078125 92.398438 58.078125 92.636719 " fill-opacity="1" fill-rule="nonzero"/><path fill="rgb(87.838745%, 32.548523%, 21.958923%)" d="M 58.945312 107.210938 C 58.945312 107.449219 58.574219 107.449219 58.574219 107.210938 C 58.574219 106.972656 58.945312 106.972656 58.945312 107.210938 " fill-opacity="1" fill-rule="nonzero"/><path fill="rgb(87.838745%, 32.548523%, 21.958923%)" d="M 58.636719 108.777344 C 58.636719 109.015625 58.261719 109.015625 58.261719 108.777344 C 58.261719 108.542969 58.636719 108.542969 58.636719 108.777344 " fill-opacity="1" fill-rule="nonzero"/><path fill="rgb(87.838745%, 32.548523%, 21.958923%)" d="M 63.460938 106.902344 C 63.460938 107.140625 63.085938 107.140625 63.085938 106.902344 C 63.085938 106.664062 63.460938 106.664062 63.460938 106.902344 " fill-opacity="1" fill-rule="nonzero"/><path fill="rgb(87.838745%, 32.548523%, 21.958923%)" d="M 67.605469 105.796875 C 67.605469 106.035156 67.234375 106.035156 67.234375 105.796875 C 67.234375 105.558594 67.605469 105.558594 67.605469 105.796875 " fill-opacity="1" fill-rule="nonzero"/><path fill="rgb(87.838745%, 32.548523%, 21.958923%)" d="M 60.863281 104.628906 C 60.863281 104.863281 60.492188 104.863281 60.492188 104.628906 C 60.492188 104.386719 60.863281 104.386719 60.863281 104.628906 " fill-opacity="1" fill-rule="nonzero"/><path fill="rgb(87.838745%, 32.548523%, 21.958923%)" d="M 57.957031 98.476562 C 57.957031 98.714844 57.582031 98.714844 57.582031 98.476562 C 57.582031 98.238281 57.957031 98.238281 57.957031 98.476562 " fill-opacity="1" fill-rule="nonzero"/><path fill="rgb(87.838745%, 32.548523%, 21.958923%)" d="M 61.972656 96.816406 C 61.972656 97.054688 61.605469 97.054688 61.605469 96.816406 C 61.605469 96.578125 61.972656 96.578125 61.972656 96.816406 " fill-opacity="1" fill-rule="nonzero"/><path fill="rgb(87.838745%, 32.548523%, 21.958923%)" d="M 62.160156 89.132812 C 62.160156 89.371094 61.789062 89.371094 61.789062 89.132812 C 61.789062 88.894531 62.160156 88.894531 62.160156 89.132812 " fill-opacity="1" fill-rule="nonzero"/><path fill="rgb(87.838745%, 32.548523%, 21.958923%)" d="M 58.203125 85.6875 C 58.203125 85.925781 57.832031 85.925781 57.832031 85.6875 C 57.832031 85.449219 58.203125 85.449219 58.203125 85.6875 " fill-opacity="1" fill-rule="nonzero"/><path fill="rgb(87.838745%, 32.548523%, 21.958923%)" d="M 63.460938 82.613281 C 63.460938 82.851562 63.085938 82.851562 63.085938 82.613281 C 63.085938 82.375 63.460938 82.375 63.460938 82.613281 " fill-opacity="1" fill-rule="nonzero"/><path fill="rgb(87.838745%, 32.548523%, 21.958923%)" d="M 68.039062 81.753906 C 68.039062 81.992188 67.664062 81.992188 67.664062 81.753906 C 67.664062 81.515625 68.039062 81.515625 68.039062 81.753906 " fill-opacity="1" fill-rule="nonzero"/><path fill="rgb(87.838745%, 32.548523%, 21.958923%)" d="M 69.953125 83.472656 C 69.953125 83.714844 69.582031 83.714844 69.582031 83.472656 C 69.582031 83.238281 69.953125 83.238281 69.953125 83.472656 " fill-opacity="1" fill-rule="nonzero"/><path fill="rgb(87.838745%, 32.548523%, 21.958923%)" d="M 72.429688 86.980469 C 72.429688 87.21875 72.058594 87.21875 72.058594 86.980469 C 72.058594 86.742188 72.429688 86.742188 72.429688 86.980469 " fill-opacity="1" fill-rule="nonzero"/><path fill="rgb(87.838745%, 32.548523%, 21.958923%)" d="M 73.046875 81.9375 C 73.046875 82.175781 72.675781 82.175781 72.675781 81.9375 C 72.675781 81.699219 73.046875 81.699219 73.046875 81.9375 " fill-opacity="1" fill-rule="nonzero"/><path fill="rgb(87.838745%, 32.548523%, 21.958923%)" d="M 58.046875 88.886719 C 58.046875 89.125 57.675781 89.125 57.675781 88.886719 C 57.675781 88.648438 58.046875 88.648438 58.046875 88.886719 " fill-opacity="1" fill-rule="nonzero"/><path fill="rgb(87.838745%, 32.548523%, 21.958923%)" d="M 64.589844 86.394531 C 64.589844 86.632812 64.214844 86.632812 64.214844 86.394531 C 64.214844 86.15625 64.589844 86.15625 64.589844 86.394531 " fill-opacity="1" fill-rule="nonzero"/><path fill="rgb(87.838745%, 32.548523%, 21.958923%)" d="M 62.222656 92.988281 C 62.222656 93.230469 61.851562 93.230469 61.851562 92.988281 C 61.851562 92.753906 62.222656 92.753906 62.222656 92.988281 " fill-opacity="1" fill-rule="nonzero"/><path fill="rgb(87.838745%, 32.548523%, 21.958923%)" d="M 66.953125 92.4375 C 66.953125 92.675781 66.582031 92.675781 66.582031 92.4375 C 66.582031 92.199219 66.953125 92.199219 66.953125 92.4375 " fill-opacity="1" fill-rule="nonzero"/><path fill="rgb(87.838745%, 32.548523%, 21.958923%)" d="M 68.113281 95.113281 C 68.113281 95.351562 67.742188 95.351562 67.742188 95.113281 C 67.742188 94.871094 68.113281 94.871094 68.113281 95.113281 " fill-opacity="1" fill-rule="nonzero"/><path fill="rgb(87.838745%, 32.548523%, 21.958923%)" d="M 61.292969 100.324219 C 61.292969 100.558594 60.925781 100.558594 60.925781 100.324219 C 60.925781 100.085938 61.292969 100.085938 61.292969 100.324219 " fill-opacity="1" fill-rule="nonzero"/><path fill="rgb(87.838745%, 32.548523%, 21.958923%)" d="M 66.488281 98.109375 C 66.488281 98.347656 66.121094 98.347656 66.121094 98.109375 C 66.121094 97.871094 66.488281 97.871094 66.488281 98.109375 " fill-opacity="1" fill-rule="nonzero"/><path fill="rgb(87.838745%, 32.548523%, 21.958923%)" d="M 70.804688 102.859375 C 70.804688 103.097656 70.433594 103.097656 70.433594 102.859375 C 70.433594 102.621094 70.804688 102.621094 70.804688 102.859375 " fill-opacity="1" fill-rule="nonzero"/><path fill="rgb(87.838745%, 32.548523%, 21.958923%)" d="M 76.046875 100 C 76.046875 100.238281 75.675781 100.238281 75.675781 100 C 75.675781 99.761719 76.046875 99.761719 76.046875 100 " fill-opacity="1" fill-rule="nonzero"/><path fill="rgb(87.838745%, 32.548523%, 21.958923%)" d="M 75.027344 95.941406 C 75.027344 96.179688 74.65625 96.179688 74.65625 95.941406 C 74.65625 95.703125 75.027344 95.703125 75.027344 95.941406 " fill-opacity="1" fill-rule="nonzero"/><path fill="rgb(87.838745%, 32.548523%, 21.958923%)" d="M 60.878906 107.886719 C 60.878906 108.125 60.503906 108.125 60.503906 107.886719 C 60.503906 107.648438 60.878906 107.648438 60.878906 107.886719 " fill-opacity="1" fill-rule="nonzero"/><path fill="rgb(87.838745%, 32.548523%, 21.958923%)" d="M 75.675781 90.128906 C 75.675781 90.367188 75.304688 90.367188 75.304688 90.128906 C 75.304688 89.894531 75.675781 89.894531 75.675781 90.128906 " fill-opacity="1" fill-rule="nonzero"/><path fill="rgb(87.838745%, 32.548523%, 21.958923%)" d="M 75.535156 93.3125 C 75.535156 93.550781 75.164062 93.550781 75.164062 93.3125 C 75.164062 93.074219 75.535156 93.074219 75.535156 93.3125 " fill-opacity="1" fill-rule="nonzero"/><path fill="rgb(87.838745%, 32.548523%, 21.958923%)" d="M 60.304688 86.488281 C 60.304688 86.726562 59.933594 86.726562 59.933594 86.488281 C 59.933594 86.25 60.304688 86.25 60.304688 86.488281 " fill-opacity="1" fill-rule="nonzero"/><path fill="rgb(87.838745%, 32.548523%, 21.958923%)" d="M 59.871094 93.003906 C 59.871094 93.242188 59.503906 93.242188 59.503906 93.003906 C 59.503906 92.769531 59.871094 92.769531 59.871094 93.003906 " fill-opacity="1" fill-rule="nonzero"/><path fill="rgb(87.838745%, 32.548523%, 21.958923%)" d="M 59.5625 96.203125 C 59.5625 96.441406 59.191406 96.441406 59.191406 96.203125 C 59.191406 95.964844 59.5625 95.964844 59.5625 96.203125 " fill-opacity="1" fill-rule="nonzero"/><path fill="rgb(87.838745%, 32.548523%, 21.958923%)" d="M 59.5625 100.386719 C 59.5625 100.621094 59.191406 100.621094 59.191406 100.386719 C 59.191406 100.144531 59.5625 100.144531 59.5625 100.386719 " fill-opacity="1" fill-rule="nonzero"/><path fill="rgb(87.838745%, 32.548523%, 21.958923%)" d="M 63.894531 91.40625 C 63.894531 91.644531 63.519531 91.644531 63.519531 91.40625 C 63.519531 91.167969 63.894531 91.167969 63.894531 91.40625 " fill-opacity="1" fill-rule="nonzero"/><path fill="rgb(87.838745%, 32.548523%, 21.958923%)" d="M 78.117188 100.324219 C 78.117188 100.558594 77.746094 100.558594 77.746094 100.324219 C 77.746094 100.085938 78.117188 100.085938 78.117188 100.324219 " fill-opacity="1" fill-rule="nonzero"/><path fill="rgb(87.838745%, 32.548523%, 21.958923%)" d="M 73.417969 104.074219 C 73.417969 104.3125 73.046875 104.3125 73.046875 104.074219 C 73.046875 103.835938 73.417969 103.835938 73.417969 104.074219 " fill-opacity="1" fill-rule="nonzero"/><path fill="rgb(87.838745%, 32.548523%, 21.958923%)" d="M 70.507812 105.796875 C 70.507812 106.035156 70.140625 106.035156 70.140625 105.796875 C 70.140625 105.558594 70.507812 105.558594 70.507812 105.796875 " fill-opacity="1" fill-rule="nonzero"/><path fill="rgb(87.838745%, 32.548523%, 21.958923%)" d="M 66.738281 108.070312 C 66.738281 108.308594 66.367188 108.308594 66.367188 108.070312 C 66.367188 107.832031 66.738281 107.832031 66.738281 108.070312 " fill-opacity="1" fill-rule="nonzero"/><path fill="rgb(87.838745%, 32.548523%, 21.958923%)" d="M 65.253906 104.132812 C 65.253906 104.371094 64.882812 104.371094 64.882812 104.132812 C 64.882812 103.898438 65.253906 103.898438 65.253906 104.132812 " fill-opacity="1" fill-rule="nonzero"/><path fill="rgb(87.838745%, 32.548523%, 21.958923%)" d="M 36.863281 95.160156 C 36.863281 95.394531 37.234375 95.394531 37.234375 95.160156 C 37.234375 94.917969 36.863281 94.917969 36.863281 95.160156 " fill-opacity="1" fill-rule="nonzero"/><path fill="rgb(87.838745%, 32.548523%, 21.958923%)" d="M 40.945312 94.421875 C 40.945312 94.660156 41.316406 94.660156 41.316406 94.421875 C 41.316406 94.179688 40.945312 94.179688 40.945312 94.421875 " fill-opacity="1" fill-rule="nonzero"/><path fill="rgb(87.838745%, 32.548523%, 21.958923%)" d="M 48.617188 89.253906 C 48.617188 89.492188 48.988281 89.492188 48.988281 89.253906 C 48.988281 89.015625 48.617188 89.015625 48.617188 89.253906 " fill-opacity="1" fill-rule="nonzero"/><path fill="rgb(87.838745%, 32.548523%, 21.958923%)" d="M 40.082031 84.582031 C 40.082031 84.820312 40.449219 84.820312 40.449219 84.582031 C 40.449219 84.34375 40.082031 84.34375 40.082031 84.582031 " fill-opacity="1" fill-rule="nonzero"/><path fill="rgb(87.838745%, 32.548523%, 21.958923%)" d="M 47.996094 95.035156 C 47.996094 95.273438 48.367188 95.273438 48.367188 95.035156 C 48.367188 94.796875 47.996094 94.796875 47.996094 95.035156 " fill-opacity="1" fill-rule="nonzero"/><path fill="rgb(87.838745%, 32.548523%, 21.958923%)" d="M 45.648438 100.691406 C 45.648438 100.929688 46.019531 100.929688 46.019531 100.691406 C 46.019531 100.453125 45.648438 100.453125 45.648438 100.691406 " fill-opacity="1" fill-rule="nonzero"/><path fill="rgb(87.838745%, 32.548523%, 21.958923%)" d="M 44.285156 91.222656 C 44.285156 91.460938 44.65625 91.460938 44.65625 91.222656 C 44.65625 90.984375 44.285156 90.984375 44.285156 91.222656 " fill-opacity="1" fill-rule="nonzero"/><path fill="rgb(87.838745%, 32.548523%, 21.958923%)" d="M 40.203125 90.855469 C 40.203125 91.089844 40.574219 91.089844 40.574219 90.855469 C 40.574219 90.613281 40.203125 90.613281 40.203125 90.855469 " fill-opacity="1" fill-rule="nonzero"/><path fill="rgb(87.838745%, 32.548523%, 21.958923%)" d="M 32.78125 91.222656 C 32.78125 91.460938 33.152344 91.460938 33.152344 91.222656 C 33.152344 90.984375 32.78125 90.984375 32.78125 91.222656 " fill-opacity="1" fill-rule="nonzero"/><path fill="rgb(87.838745%, 32.548523%, 21.958923%)" d="M 30.679688 83.105469 C 30.679688 83.34375 31.050781 83.34375 31.050781 83.105469 C 31.050781 82.867188 30.679688 82.867188 30.679688 83.105469 " fill-opacity="1" fill-rule="nonzero"/><path fill="rgb(87.838745%, 32.548523%, 21.958923%)" d="M 32.90625 82.492188 C 32.90625 82.726562 33.277344 82.726562 33.277344 82.492188 C 33.277344 82.253906 32.90625 82.253906 32.90625 82.492188 " fill-opacity="1" fill-rule="nonzero"/><path fill="rgb(87.838745%, 32.548523%, 21.958923%)" d="M 34.761719 90.484375 C 34.761719 90.722656 35.132812 90.722656 35.132812 90.484375 C 35.132812 90.246094 34.761719 90.246094 34.761719 90.484375 " fill-opacity="1" fill-rule="nonzero"/><path fill="rgb(87.838745%, 32.548523%, 21.958923%)" d="M 32.65625 88.273438 C 32.65625 88.507812 33.027344 88.507812 33.027344 88.273438 C 33.027344 88.035156 32.65625 88.035156 32.65625 88.273438 " fill-opacity="1" fill-rule="nonzero"/><path fill="rgb(87.838745%, 32.548523%, 21.958923%)" d="M 36.863281 86.917969 C 36.863281 87.15625 37.234375 87.15625 37.234375 86.917969 C 37.234375 86.679688 36.863281 86.679688 36.863281 86.917969 " fill-opacity="1" fill-rule="nonzero"/><path fill="rgb(87.838745%, 32.548523%, 21.958923%)" d="M 40.328125 101.554688 C 40.328125 101.792969 40.699219 101.792969 40.699219 101.554688 C 40.699219 101.316406 40.328125 101.316406 40.328125 101.554688 " fill-opacity="1" fill-rule="nonzero"/><path fill="rgb(87.838745%, 32.548523%, 21.958923%)" d="M 44.53125 98.109375 C 44.53125 98.347656 44.90625 98.347656 44.90625 98.109375 C 44.90625 97.871094 44.53125 97.871094 44.53125 98.109375 " fill-opacity="1" fill-rule="nonzero"/><path fill="rgb(87.838745%, 32.548523%, 21.958923%)" d="M 40.082031 91.714844 C 40.082031 91.953125 40.449219 91.953125 40.449219 91.714844 C 40.449219 91.476562 40.082031 91.476562 40.082031 91.714844 " fill-opacity="1" fill-rule="nonzero"/><path fill="rgb(87.838745%, 32.548523%, 21.958923%)" d="M 34.761719 97.863281 C 34.761719 98.101562 35.132812 98.101562 35.132812 97.863281 C 35.132812 97.625 34.761719 97.625 34.761719 97.863281 " fill-opacity="1" fill-rule="nonzero"/><path fill="rgb(87.838745%, 32.548523%, 21.958923%)" d="M 39.460938 100.199219 C 39.460938 100.4375 39.832031 100.4375 39.832031 100.199219 C 39.832031 99.964844 39.460938 99.964844 39.460938 100.199219 " fill-opacity="1" fill-rule="nonzero"/><path fill="rgb(87.838745%, 32.548523%, 21.958923%)" d="M 41.070312 98.109375 C 41.070312 98.347656 41.441406 98.347656 41.441406 98.109375 C 41.441406 97.871094 41.070312 97.871094 41.070312 98.109375 " fill-opacity="1" fill-rule="nonzero"/><path fill="rgb(87.838745%, 32.548523%, 21.958923%)" d="M 44.347656 104.9375 C 44.347656 105.171875 44.71875 105.171875 44.71875 104.9375 C 44.71875 104.695312 44.347656 104.695312 44.347656 104.9375 " fill-opacity="1" fill-rule="nonzero"/><path fill="rgb(87.838745%, 32.548523%, 21.958923%)" d="M 50.039062 102.105469 C 50.039062 102.34375 50.410156 102.34375 50.410156 102.105469 C 50.410156 101.867188 50.039062 101.867188 50.039062 102.105469 " fill-opacity="1" fill-rule="nonzero"/><path fill="rgb(87.838745%, 32.548523%, 21.958923%)" d="M 49.234375 98.910156 C 49.234375 99.148438 49.605469 99.148438 49.605469 98.910156 C 49.605469 98.671875 49.234375 98.671875 49.234375 98.910156 " fill-opacity="1" fill-rule="nonzero"/><path fill="rgb(87.838745%, 32.548523%, 21.958923%)" d="M 46.699219 102.90625 C 46.699219 103.144531 47.070312 103.144531 47.070312 102.90625 C 47.070312 102.667969 46.699219 102.667969 46.699219 102.90625 " fill-opacity="1" fill-rule="nonzero"/><path fill="rgb(87.838745%, 32.548523%, 21.958923%)" d="M 41.503906 101 C 41.503906 101.238281 41.875 101.238281 41.875 101 C 41.875 100.761719 41.503906 100.761719 41.503906 101 " fill-opacity="1" fill-rule="nonzero"/><path fill="rgb(87.838745%, 32.548523%, 21.958923%)" d="M 43.484375 95.34375 C 43.484375 95.578125 43.851562 95.578125 43.851562 95.34375 C 43.851562 95.105469 43.484375 95.105469 43.484375 95.34375 " fill-opacity="1" fill-rule="nonzero"/><path fill="rgb(87.838745%, 32.548523%, 21.958923%)" d="M 47.285156 79.632812 C 47.285156 79.867188 47.65625 79.867188 47.65625 79.632812 C 47.65625 79.394531 47.285156 79.394531 47.285156 79.632812 " fill-opacity="1" fill-rule="nonzero"/><path fill="rgb(87.838745%, 32.548523%, 21.958923%)" d="M 44.78125 86.671875 C 44.78125 86.910156 45.152344 86.910156 45.152344 86.671875 C 45.152344 86.433594 44.78125 86.433594 44.78125 86.671875 " fill-opacity="1" fill-rule="nonzero"/><path fill="rgb(87.838745%, 32.548523%, 21.958923%)" d="M 42.429688 80.648438 C 42.429688 80.882812 42.800781 80.882812 42.800781 80.648438 C 42.800781 80.410156 42.429688 80.410156 42.429688 80.648438 " fill-opacity="1" fill-rule="nonzero"/><path fill="rgb(87.838745%, 32.548523%, 21.958923%)" d="M 36.679688 79.539062 C 36.679688 79.777344 37.050781 79.777344 37.050781 79.539062 C 37.050781 79.300781 36.679688 79.300781 36.679688 79.539062 " fill-opacity="1" fill-rule="nonzero"/><path fill="rgb(87.838745%, 32.548523%, 21.958923%)" d="M 36.800781 82.554688 C 36.800781 82.789062 37.171875 82.789062 37.171875 82.554688 C 37.171875 82.3125 36.800781 82.3125 36.800781 82.554688 " fill-opacity="1" fill-rule="nonzero"/><path fill="rgb(87.838745%, 32.548523%, 21.958923%)" d="M 31.917969 86.054688 C 31.917969 86.296875 32.289062 86.296875 32.289062 86.054688 C 32.289062 85.820312 31.917969 85.820312 31.917969 86.054688 " fill-opacity="1" fill-rule="nonzero"/><path fill="rgb(87.838745%, 32.548523%, 21.958923%)" d="M 30 86.792969 C 30 87.035156 30.371094 87.035156 30.371094 86.792969 C 30.371094 86.558594 30 86.558594 30 86.792969 " fill-opacity="1" fill-rule="nonzero"/><path fill="rgb(87.838745%, 32.548523%, 21.958923%)" d="M 30.617188 94.421875 C 30.617188 94.660156 30.988281 94.660156 30.988281 94.421875 C 30.988281 94.179688 30.617188 94.179688 30.617188 94.421875 " fill-opacity="1" fill-rule="nonzero"/><path fill="rgb(87.838745%, 32.548523%, 21.958923%)" d="M 33.773438 95.648438 C 33.773438 95.886719 34.140625 95.886719 34.140625 95.648438 C 34.140625 95.414062 33.773438 95.414062 33.773438 95.648438 " fill-opacity="1" fill-rule="nonzero"/><path fill="rgb(87.838745%, 32.548523%, 21.958923%)" d="M 34.203125 94.050781 C 34.203125 94.289062 34.574219 94.289062 34.574219 94.050781 C 34.574219 93.8125 34.203125 93.8125 34.203125 94.050781 " fill-opacity="1" fill-rule="nonzero"/><path fill="rgb(87.838745%, 32.548523%, 21.958923%)" d="M 29.628906 90.363281 C 29.628906 90.597656 30 90.597656 30 90.363281 C 30 90.125 29.628906 90.125 29.628906 90.363281 " fill-opacity="1" fill-rule="nonzero"/><path fill="rgb(87.838745%, 32.548523%, 21.958923%)" d="M 27.710938 84.886719 C 27.710938 85.125 28.082031 85.125 28.082031 84.886719 C 28.082031 84.648438 27.710938 84.648438 27.710938 84.886719 " fill-opacity="1" fill-rule="nonzero"/><path fill="rgb(87.838745%, 32.548523%, 21.958923%)" d="M 28.511719 81.015625 C 28.511719 81.253906 28.882812 81.253906 28.882812 81.015625 C 28.882812 80.777344 28.511719 80.777344 28.511719 81.015625 " fill-opacity="1" fill-rule="nonzero"/><path fill="rgb(87.838745%, 32.548523%, 21.958923%)" d="M 30.867188 76.527344 C 30.867188 76.761719 31.234375 76.761719 31.234375 76.527344 C 31.234375 76.289062 30.867188 76.289062 30.867188 76.527344 " fill-opacity="1" fill-rule="nonzero"/><path fill="rgb(87.838745%, 32.548523%, 21.958923%)" d="M 39.214844 79.292969 C 39.214844 79.53125 39.585938 79.53125 39.585938 79.292969 C 39.585938 79.054688 39.214844 79.054688 39.214844 79.292969 " fill-opacity="1" fill-rule="nonzero"/><path fill="rgb(87.838745%, 32.548523%, 21.958923%)" d="M 45.152344 85.257812 C 45.152344 85.496094 45.523438 85.496094 45.523438 85.257812 C 45.523438 85.019531 45.152344 85.019531 45.152344 85.257812 " fill-opacity="1" fill-rule="nonzero"/><path fill="rgb(87.838745%, 32.548523%, 21.958923%)" d="M 50.410156 84.460938 C 50.410156 84.695312 50.78125 84.695312 50.78125 84.460938 C 50.78125 84.21875 50.410156 84.21875 50.410156 84.460938 " fill-opacity="1" fill-rule="nonzero"/><path fill="rgb(87.838745%, 32.548523%, 21.958923%)" d="M 53.625 78.679688 C 53.625 78.917969 53.996094 78.917969 53.996094 78.679688 C 53.996094 78.4375 53.625 78.4375 53.625 78.679688 " fill-opacity="1" fill-rule="nonzero"/><path fill="rgb(87.838745%, 32.548523%, 21.958923%)" d="M 55.417969 92.636719 C 55.417969 92.875 55.789062 92.875 55.789062 92.636719 C 55.789062 92.398438 55.417969 92.398438 55.417969 92.636719 " fill-opacity="1" fill-rule="nonzero"/><path fill="rgb(87.838745%, 32.548523%, 21.958923%)" d="M 54.554688 107.210938 C 54.554688 107.449219 54.925781 107.449219 54.925781 107.210938 C 54.925781 106.972656 54.554688 106.972656 54.554688 107.210938 " fill-opacity="1" fill-rule="nonzero"/><path fill="rgb(87.838745%, 32.548523%, 21.958923%)" d="M 55.667969 109.515625 C 55.667969 109.753906 56.039062 109.753906 56.039062 109.515625 C 56.039062 109.277344 55.667969 109.277344 55.667969 109.515625 " fill-opacity="1" fill-rule="nonzero"/><path fill="rgb(87.838745%, 32.548523%, 21.958923%)" d="M 50.039062 106.902344 C 50.039062 107.140625 50.410156 107.140625 50.410156 106.902344 C 50.410156 106.664062 50.039062 106.664062 50.039062 106.902344 " fill-opacity="1" fill-rule="nonzero"/><path fill="rgb(87.838745%, 32.548523%, 21.958923%)" d="M 45.894531 105.796875 C 45.894531 106.035156 46.265625 106.035156 46.265625 105.796875 C 46.265625 105.558594 45.894531 105.558594 45.894531 105.796875 " fill-opacity="1" fill-rule="nonzero"/><path fill="rgb(87.838745%, 32.548523%, 21.958923%)" d="M 52.636719 104.628906 C 52.636719 104.863281 53.007812 104.863281 53.007812 104.628906 C 53.007812 104.386719 52.636719 104.386719 52.636719 104.628906 " fill-opacity="1" fill-rule="nonzero"/><path fill="rgb(87.838745%, 32.548523%, 21.958923%)" d="M 55.542969 98.476562 C 55.542969 98.714844 55.914062 98.714844 55.914062 98.476562 C 55.914062 98.238281 55.542969 98.238281 55.542969 98.476562 " fill-opacity="1" fill-rule="nonzero"/><path fill="rgb(87.838745%, 32.548523%, 21.958923%)" d="M 51.523438 96.816406 C 51.523438 97.054688 51.894531 97.054688 51.894531 96.816406 C 51.894531 96.578125 51.523438 96.578125 51.523438 96.816406 " fill-opacity="1" fill-rule="nonzero"/><path fill="rgb(87.838745%, 32.548523%, 21.958923%)" d="M 51.335938 89.132812 C 51.335938 89.371094 51.707031 89.371094 51.707031 89.132812 C 51.707031 88.894531 51.335938 88.894531 51.335938 89.132812 " fill-opacity="1" fill-rule="nonzero"/><path fill="rgb(87.838745%, 32.548523%, 21.958923%)" d="M 55.296875 85.6875 C 55.296875 85.925781 55.667969 85.925781 55.667969 85.6875 C 55.667969 85.449219 55.296875 85.449219 55.296875 85.6875 " fill-opacity="1" fill-rule="nonzero"/><path fill="rgb(87.838745%, 32.548523%, 21.958923%)" d="M 50.039062 82.613281 C 50.039062 82.851562 50.410156 82.851562 50.410156 82.613281 C 50.410156 82.375 50.039062 82.375 50.039062 82.613281 " fill-opacity="1" fill-rule="nonzero"/><path fill="rgb(87.838745%, 32.548523%, 21.958923%)" d="M 45.460938 81.753906 C 45.460938 81.992188 45.832031 81.992188 45.832031 81.753906 C 45.832031 81.515625 45.460938 81.515625 45.460938 81.753906 " fill-opacity="1" fill-rule="nonzero"/><path fill="rgb(87.838745%, 32.548523%, 21.958923%)" d="M 43.542969 83.472656 C 43.542969 83.714844 43.914062 83.714844 43.914062 83.472656 C 43.914062 83.238281 43.542969 83.238281 43.542969 83.472656 " fill-opacity="1" fill-rule="nonzero"/><path fill="rgb(87.838745%, 32.548523%, 21.958923%)" d="M 41.070312 86.980469 C 41.070312 87.21875 41.441406 87.21875 41.441406 86.980469 C 41.441406 86.742188 41.070312 86.742188 41.070312 86.980469 " fill-opacity="1" fill-rule="nonzero"/><path fill="rgb(87.838745%, 32.548523%, 21.958923%)" d="M 40.449219 81.9375 C 40.449219 82.175781 40.820312 82.175781 40.820312 81.9375 C 40.820312 81.699219 40.449219 81.699219 40.449219 81.9375 " fill-opacity="1" fill-rule="nonzero"/><path fill="rgb(87.838745%, 32.548523%, 21.958923%)" d="M 32.347656 79.96875 C 32.347656 80.207031 32.722656 80.207031 32.722656 79.96875 C 32.722656 79.730469 32.347656 79.730469 32.347656 79.96875 " fill-opacity="1" fill-rule="nonzero"/><path fill="rgb(87.838745%, 32.548523%, 21.958923%)" d="M 30 78.742188 C 30 78.976562 30.371094 78.976562 30.371094 78.742188 C 30.371094 78.5 30 78.5 30 78.742188 " fill-opacity="1" fill-rule="nonzero"/><path fill="rgb(87.838745%, 32.548523%, 21.958923%)" d="M 28.019531 76.402344 C 28.019531 76.640625 28.390625 76.640625 28.390625 76.402344 C 28.390625 76.164062 28.019531 76.164062 28.019531 76.402344 " fill-opacity="1" fill-rule="nonzero"/><path fill="rgb(87.838745%, 32.548523%, 21.958923%)" d="M 55.449219 88.886719 C 55.449219 89.125 55.820312 89.125 55.820312 88.886719 C 55.820312 88.648438 55.449219 88.648438 55.449219 88.886719 " fill-opacity="1" fill-rule="nonzero"/><path fill="rgb(87.838745%, 32.548523%, 21.958923%)" d="M 48.910156 86.394531 C 48.910156 86.632812 49.277344 86.632812 49.277344 86.394531 C 49.277344 86.15625 48.910156 86.15625 48.910156 86.394531 " fill-opacity="1" fill-rule="nonzero"/><path fill="rgb(87.838745%, 32.548523%, 21.958923%)" d="M 51.277344 92.988281 C 51.277344 93.230469 51.644531 93.230469 51.644531 92.988281 C 51.644531 92.753906 51.277344 92.753906 51.277344 92.988281 " fill-opacity="1" fill-rule="nonzero"/><path fill="rgb(87.838745%, 32.548523%, 21.958923%)" d="M 46.542969 92.4375 C 46.542969 92.675781 46.914062 92.675781 46.914062 92.4375 C 46.914062 92.199219 46.542969 92.199219 46.542969 92.4375 " fill-opacity="1" fill-rule="nonzero"/><path fill="rgb(87.838745%, 32.548523%, 21.958923%)" d="M 45.382812 95.113281 C 45.382812 95.351562 45.753906 95.351562 45.753906 95.113281 C 45.753906 94.871094 45.382812 94.871094 45.382812 95.113281 " fill-opacity="1" fill-rule="nonzero"/><path fill="rgb(87.838745%, 32.548523%, 21.958923%)" d="M 52.203125 100.324219 C 52.203125 100.558594 52.574219 100.558594 52.574219 100.324219 C 52.574219 100.085938 52.203125 100.085938 52.203125 100.324219 " fill-opacity="1" fill-rule="nonzero"/><path fill="rgb(87.838745%, 32.548523%, 21.958923%)" d="M 47.007812 98.109375 C 47.007812 98.347656 47.378906 98.347656 47.378906 98.109375 C 47.378906 97.871094 47.007812 97.871094 47.007812 98.109375 " fill-opacity="1" fill-rule="nonzero"/><path fill="rgb(87.838745%, 32.548523%, 21.958923%)" d="M 42.691406 102.859375 C 42.691406 103.097656 43.0625 103.097656 43.0625 102.859375 C 43.0625 102.621094 42.691406 102.621094 42.691406 102.859375 " fill-opacity="1" fill-rule="nonzero"/><path fill="rgb(87.838745%, 32.548523%, 21.958923%)" d="M 37.453125 100 C 37.453125 100.238281 37.820312 100.238281 37.820312 100 C 37.820312 99.761719 37.453125 99.761719 37.453125 100 " fill-opacity="1" fill-rule="nonzero"/><path fill="rgb(87.838745%, 32.548523%, 21.958923%)" d="M 38.472656 95.941406 C 38.472656 96.179688 38.84375 96.179688 38.84375 95.941406 C 38.84375 95.703125 38.472656 95.703125 38.472656 95.941406 " fill-opacity="1" fill-rule="nonzero"/><path fill="rgb(87.838745%, 32.548523%, 21.958923%)" d="M 52.621094 107.886719 C 52.621094 108.125 52.992188 108.125 52.992188 107.886719 C 52.992188 107.648438 52.621094 107.648438 52.621094 107.886719 " fill-opacity="1" fill-rule="nonzero"/><path fill="rgb(87.838745%, 32.548523%, 21.958923%)" d="M 37.820312 90.128906 C 37.820312 90.367188 38.195312 90.367188 38.195312 90.128906 C 38.195312 89.894531 37.820312 89.894531 37.820312 90.128906 " fill-opacity="1" fill-rule="nonzero"/><path fill="rgb(87.838745%, 32.548523%, 21.958923%)" d="M 37.960938 93.3125 C 37.960938 93.550781 38.332031 93.550781 38.332031 93.3125 C 38.332031 93.074219 37.960938 93.074219 37.960938 93.3125 " fill-opacity="1" fill-rule="nonzero"/><path fill="rgb(87.838745%, 32.548523%, 21.958923%)" d="M 53.191406 86.488281 C 53.191406 86.726562 53.5625 86.726562 53.5625 86.488281 C 53.5625 86.25 53.191406 86.25 53.191406 86.488281 " fill-opacity="1" fill-rule="nonzero"/><path fill="rgb(87.838745%, 32.548523%, 21.958923%)" d="M 53.625 93.003906 C 53.625 93.242188 53.996094 93.242188 53.996094 93.003906 C 53.996094 92.769531 53.625 92.769531 53.625 93.003906 " fill-opacity="1" fill-rule="nonzero"/><path fill="rgb(87.838745%, 32.548523%, 21.958923%)" d="M 53.933594 96.203125 C 53.933594 96.441406 54.304688 96.441406 54.304688 96.203125 C 54.304688 95.964844 53.933594 95.964844 53.933594 96.203125 " fill-opacity="1" fill-rule="nonzero"/><path fill="rgb(87.838745%, 32.548523%, 21.958923%)" d="M 53.933594 100.386719 C 53.933594 100.621094 54.304688 100.621094 54.304688 100.386719 C 54.304688 100.144531 53.933594 100.144531 53.933594 100.386719 " fill-opacity="1" fill-rule="nonzero"/><path fill="rgb(87.838745%, 32.548523%, 21.958923%)" d="M 49.605469 91.40625 C 49.605469 91.644531 49.976562 91.644531 49.976562 91.40625 C 49.976562 91.167969 49.605469 91.167969 49.605469 91.40625 " fill-opacity="1" fill-rule="nonzero"/><path fill="rgb(87.838745%, 32.548523%, 21.958923%)" d="M 35.378906 100.324219 C 35.378906 100.558594 35.75 100.558594 35.75 100.324219 C 35.75 100.085938 35.378906 100.085938 35.378906 100.324219 " fill-opacity="1" fill-rule="nonzero"/><path fill="rgb(87.838745%, 32.548523%, 21.958923%)" d="M 40.082031 104.074219 C 40.082031 104.3125 40.449219 104.3125 40.449219 104.074219 C 40.449219 103.835938 40.082031 103.835938 40.082031 104.074219 " fill-opacity="1" fill-rule="nonzero"/><path fill="rgb(87.838745%, 32.548523%, 21.958923%)" d="M 42.988281 105.796875 C 42.988281 106.035156 43.359375 106.035156 43.359375 105.796875 C 43.359375 105.558594 42.988281 105.558594 42.988281 105.796875 " fill-opacity="1" fill-rule="nonzero"/><path fill="rgb(87.838745%, 32.548523%, 21.958923%)" d="M 46.757812 108.070312 C 46.757812 108.308594 47.132812 108.308594 47.132812 108.070312 C 47.132812 107.832031 46.757812 107.832031 46.757812 108.070312 " fill-opacity="1" fill-rule="nonzero"/><path fill="rgb(87.838745%, 32.548523%, 21.958923%)" d="M 48.242188 104.132812 C 48.242188 104.371094 48.617188 104.371094 48.617188 104.132812 C 48.617188 103.898438 48.242188 103.898438 48.242188 104.132812 " fill-opacity="1" fill-rule="nonzero"/><path fill="rgb(87.838745%, 32.548523%, 21.958923%)" d="M 36.863281 64.75 C 36.863281 64.511719 37.234375 64.511719 37.234375 64.75 C 37.234375 64.988281 36.863281 64.988281 36.863281 64.75 " fill-opacity="1" fill-rule="nonzero"/><path fill="rgb(87.838745%, 32.548523%, 21.958923%)" d="M 40.945312 65.492188 C 40.945312 65.25 41.316406 65.25 41.316406 65.492188 C 41.316406 65.726562 40.945312 65.726562 40.945312 65.492188 " fill-opacity="1" fill-rule="nonzero"/><path fill="rgb(87.838745%, 32.548523%, 21.958923%)" d="M 48.617188 70.652344 C 48.617188 70.417969 48.988281 70.417969 48.988281 70.652344 C 48.988281 70.890625 48.617188 70.890625 48.617188 70.652344 " fill-opacity="1" fill-rule="nonzero"/><path fill="rgb(87.838745%, 32.548523%, 21.958923%)" d="M 40.082031 75.328125 C 40.082031 75.089844 40.449219 75.089844 40.449219 75.328125 C 40.449219 75.566406 40.082031 75.566406 40.082031 75.328125 " fill-opacity="1" fill-rule="nonzero"/><path fill="rgb(87.838745%, 32.548523%, 21.958923%)" d="M 47.996094 64.875 C 47.996094 64.636719 48.367188 64.636719 48.367188 64.875 C 48.367188 65.113281 47.996094 65.113281 47.996094 64.875 " fill-opacity="1" fill-rule="nonzero"/><path fill="rgb(87.838745%, 32.548523%, 21.958923%)" d="M 45.648438 59.214844 C 45.648438 58.980469 46.019531 58.980469 46.019531 59.214844 C 46.019531 59.457031 45.648438 59.457031 45.648438 59.214844 " fill-opacity="1" fill-rule="nonzero"/><path fill="rgb(87.838745%, 32.548523%, 21.958923%)" d="M 44.285156 68.6875 C 44.285156 68.449219 44.65625 68.449219 44.65625 68.6875 C 44.65625 68.925781 44.285156 68.925781 44.285156 68.6875 " fill-opacity="1" fill-rule="nonzero"/><path fill="rgb(87.838745%, 32.548523%, 21.958923%)" d="M 40.203125 69.054688 C 40.203125 68.816406 40.574219 68.816406 40.574219 69.054688 C 40.574219 69.292969 40.203125 69.292969 40.203125 69.054688 " fill-opacity="1" fill-rule="nonzero"/><path fill="rgb(87.838745%, 32.548523%, 21.958923%)" d="M 32.78125 68.6875 C 32.78125 68.449219 33.152344 68.449219 33.152344 68.6875 C 33.152344 68.925781 32.78125 68.925781 32.78125 68.6875 " fill-opacity="1" fill-rule="nonzero"/><path fill="rgb(87.838745%, 32.548523%, 21.958923%)" d="M 30.679688 76.800781 C 30.679688 76.566406 31.050781 76.566406 31.050781 76.800781 C 31.050781 77.039062 30.679688 77.039062 30.679688 76.800781 " fill-opacity="1" fill-rule="nonzero"/><path fill="rgb(87.838745%, 32.548523%, 21.958923%)" d="M 32.90625 77.417969 C 32.90625 77.179688 33.277344 77.179688 33.277344 77.417969 C 33.277344 77.65625 32.90625 77.65625 32.90625 77.417969 " fill-opacity="1" fill-rule="nonzero"/><path fill="rgb(87.838745%, 32.548523%, 21.958923%)" d="M 34.761719 69.425781 C 34.761719 69.1875 35.132812 69.1875 35.132812 69.425781 C 35.132812 69.660156 34.761719 69.660156 34.761719 69.425781 " fill-opacity="1" fill-rule="nonzero"/><path fill="rgb(87.838745%, 32.548523%, 21.958923%)" d="M 32.65625 71.636719 C 32.65625 71.398438 33.027344 71.398438 33.027344 71.636719 C 33.027344 71.875 32.65625 71.875 32.65625 71.636719 " fill-opacity="1" fill-rule="nonzero"/><path fill="rgb(87.838745%, 32.548523%, 21.958923%)" d="M 36.863281 72.992188 C 36.863281 72.75 37.234375 72.75 37.234375 72.992188 C 37.234375 73.230469 36.863281 73.230469 36.863281 72.992188 " fill-opacity="1" fill-rule="nonzero"/><path fill="rgb(87.838745%, 32.548523%, 21.958923%)" d="M 40.328125 58.355469 C 40.328125 58.121094 40.699219 58.121094 40.699219 58.355469 C 40.699219 58.59375 40.328125 58.59375 40.328125 58.355469 " fill-opacity="1" fill-rule="nonzero"/><path fill="rgb(87.838745%, 32.548523%, 21.958923%)" d="M 44.53125 61.800781 C 44.53125 61.5625 44.90625 61.5625 44.90625 61.800781 C 44.90625 62.039062 44.53125 62.039062 44.53125 61.800781 " fill-opacity="1" fill-rule="nonzero"/><path fill="rgb(87.838745%, 32.548523%, 21.958923%)" d="M 40.082031 68.195312 C 40.082031 67.957031 40.449219 67.957031 40.449219 68.195312 C 40.449219 68.433594 40.082031 68.433594 40.082031 68.195312 " fill-opacity="1" fill-rule="nonzero"/><path fill="rgb(87.838745%, 32.548523%, 21.958923%)" d="M 34.761719 62.046875 C 34.761719 61.804688 35.132812 61.804688 35.132812 62.046875 C 35.132812 62.28125 34.761719 62.28125 34.761719 62.046875 " fill-opacity="1" fill-rule="nonzero"/><path fill="rgb(87.838745%, 32.548523%, 21.958923%)" d="M 39.460938 59.707031 C 39.460938 59.472656 39.832031 59.472656 39.832031 59.707031 C 39.832031 59.949219 39.460938 59.949219 39.460938 59.707031 " fill-opacity="1" fill-rule="nonzero"/><path fill="rgb(87.838745%, 32.548523%, 21.958923%)" d="M 41.070312 61.800781 C 41.070312 61.5625 41.441406 61.5625 41.441406 61.800781 C 41.441406 62.039062 41.070312 62.039062 41.070312 61.800781 " fill-opacity="1" fill-rule="nonzero"/><path fill="rgb(87.838745%, 32.548523%, 21.958923%)" d="M 44.347656 54.972656 C 44.347656 54.734375 44.71875 54.734375 44.71875 54.972656 C 44.71875 55.210938 44.347656 55.210938 44.347656 54.972656 " fill-opacity="1" fill-rule="nonzero"/><path fill="rgb(87.838745%, 32.548523%, 21.958923%)" d="M 50.039062 57.804688 C 50.039062 57.566406 50.410156 57.566406 50.410156 57.804688 C 50.410156 58.042969 50.039062 58.042969 50.039062 57.804688 " fill-opacity="1" fill-rule="nonzero"/><path fill="rgb(87.838745%, 32.548523%, 21.958923%)" d="M 49.234375 61 C 49.234375 60.761719 49.605469 60.761719 49.605469 61 C 49.605469 61.238281 49.234375 61.238281 49.234375 61 " fill-opacity="1" fill-rule="nonzero"/><path fill="rgb(87.838745%, 32.548523%, 21.958923%)" d="M 46.699219 57.003906 C 46.699219 56.765625 47.070312 56.765625 47.070312 57.003906 C 47.070312 57.242188 46.699219 57.242188 46.699219 57.003906 " fill-opacity="1" fill-rule="nonzero"/><path fill="rgb(87.838745%, 32.548523%, 21.958923%)" d="M 41.503906 58.910156 C 41.503906 58.671875 41.875 58.671875 41.875 58.910156 C 41.875 59.148438 41.503906 59.148438 41.503906 58.910156 " fill-opacity="1" fill-rule="nonzero"/><path fill="rgb(87.838745%, 32.548523%, 21.958923%)" d="M 43.484375 64.566406 C 43.484375 64.328125 43.851562 64.328125 43.851562 64.566406 C 43.851562 64.804688 43.484375 64.804688 43.484375 64.566406 " fill-opacity="1" fill-rule="nonzero"/><path fill="rgb(87.838745%, 32.548523%, 21.958923%)" d="M 48.308594 80.183594 C 48.308594 79.945312 48.679688 79.945312 48.679688 80.183594 C 48.679688 80.421875 48.308594 80.421875 48.308594 80.183594 " fill-opacity="1" fill-rule="nonzero"/><path fill="rgb(87.838745%, 32.548523%, 21.958923%)" d="M 44.78125 73.238281 C 44.78125 72.996094 45.152344 72.996094 45.152344 73.238281 C 45.152344 73.472656 44.78125 73.472656 44.78125 73.238281 " fill-opacity="1" fill-rule="nonzero"/><path fill="rgb(87.838745%, 32.548523%, 21.958923%)" d="M 36.800781 77.355469 C 36.800781 77.117188 37.171875 77.117188 37.171875 77.355469 C 37.171875 77.59375 36.800781 77.59375 36.800781 77.355469 " fill-opacity="1" fill-rule="nonzero"/><path fill="rgb(87.838745%, 32.548523%, 21.958923%)" d="M 31.917969 73.851562 C 31.917969 73.613281 32.289062 73.613281 32.289062 73.851562 C 32.289062 74.089844 31.917969 74.089844 31.917969 73.851562 " fill-opacity="1" fill-rule="nonzero"/><path fill="rgb(87.838745%, 32.548523%, 21.958923%)" d="M 30 73.113281 C 30 72.875 30.371094 72.875 30.371094 73.113281 C 30.371094 73.351562 30 73.351562 30 73.113281 " fill-opacity="1" fill-rule="nonzero"/><path fill="rgb(87.838745%, 32.548523%, 21.958923%)" d="M 30.617188 65.492188 C 30.617188 65.25 30.988281 65.25 30.988281 65.492188 C 30.988281 65.726562 30.617188 65.726562 30.617188 65.492188 " fill-opacity="1" fill-rule="nonzero"/><path fill="rgb(87.838745%, 32.548523%, 21.958923%)" d="M 33.773438 64.257812 C 33.773438 64.023438 34.140625 64.023438 34.140625 64.257812 C 34.140625 64.496094 33.773438 64.496094 33.773438 64.257812 " fill-opacity="1" fill-rule="nonzero"/><path fill="rgb(87.838745%, 32.548523%, 21.958923%)" d="M 34.203125 65.859375 C 34.203125 65.617188 34.574219 65.617188 34.574219 65.859375 C 34.574219 66.09375 34.203125 66.09375 34.203125 65.859375 " fill-opacity="1" fill-rule="nonzero"/><path fill="rgb(87.838745%, 32.548523%, 21.958923%)" d="M 29.628906 69.546875 C 29.628906 69.308594 30 69.308594 30 69.546875 C 30 69.785156 29.628906 69.785156 29.628906 69.546875 " fill-opacity="1" fill-rule="nonzero"/><path fill="rgb(87.838745%, 32.548523%, 21.958923%)" d="M 27.710938 75.019531 C 27.710938 74.78125 28.082031 74.78125 28.082031 75.019531 C 28.082031 75.257812 27.710938 75.257812 27.710938 75.019531 " fill-opacity="1" fill-rule="nonzero"/><path fill="rgb(87.838745%, 32.548523%, 21.958923%)" d="M 45.152344 74.652344 C 45.152344 74.414062 45.523438 74.414062 45.523438 74.652344 C 45.523438 74.886719 45.152344 74.886719 45.152344 74.652344 " fill-opacity="1" fill-rule="nonzero"/><path fill="rgb(87.838745%, 32.548523%, 21.958923%)" d="M 50.410156 75.449219 C 50.410156 75.210938 50.78125 75.210938 50.78125 75.449219 C 50.78125 75.6875 50.410156 75.6875 50.410156 75.449219 " fill-opacity="1" fill-rule="nonzero"/><path fill="rgb(87.838745%, 32.548523%, 21.958923%)" d="M 53.625 81.230469 C 53.625 80.992188 53.996094 80.992188 53.996094 81.230469 C 53.996094 81.46875 53.625 81.46875 53.625 81.230469 " fill-opacity="1" fill-rule="nonzero"/><path fill="rgb(87.838745%, 32.548523%, 21.958923%)" d="M 55.417969 67.273438 C 55.417969 67.03125 55.789062 67.03125 55.789062 67.273438 C 55.789062 67.511719 55.417969 67.511719 55.417969 67.273438 " fill-opacity="1" fill-rule="nonzero"/><path fill="rgb(87.838745%, 32.548523%, 21.958923%)" d="M 54.554688 52.699219 C 54.554688 52.460938 54.925781 52.460938 54.925781 52.699219 C 54.925781 52.9375 54.554688 52.9375 54.554688 52.699219 " fill-opacity="1" fill-rule="nonzero"/><path fill="rgb(87.838745%, 32.548523%, 21.958923%)" d="M 50.039062 53.007812 C 50.039062 52.769531 50.410156 52.769531 50.410156 53.007812 C 50.410156 53.242188 50.039062 53.242188 50.039062 53.007812 " fill-opacity="1" fill-rule="nonzero"/><path fill="rgb(87.838745%, 32.548523%, 21.958923%)" d="M 45.894531 54.113281 C 45.894531 53.875 46.265625 53.875 46.265625 54.113281 C 46.265625 54.351562 45.894531 54.351562 45.894531 54.113281 " fill-opacity="1" fill-rule="nonzero"/><path fill="rgb(87.838745%, 32.548523%, 21.958923%)" d="M 52.636719 55.28125 C 52.636719 55.042969 53.007812 55.042969 53.007812 55.28125 C 53.007812 55.519531 52.636719 55.519531 52.636719 55.28125 " fill-opacity="1" fill-rule="nonzero"/><path fill="rgb(87.838745%, 32.548523%, 21.958923%)" d="M 56.71875 55.898438 C 56.71875 55.65625 57.089844 55.65625 57.089844 55.898438 C 57.089844 56.136719 56.71875 56.136719 56.71875 55.898438 " fill-opacity="1" fill-rule="nonzero"/><path fill="rgb(87.838745%, 32.548523%, 21.958923%)" d="M 54.121094 56.878906 C 54.121094 56.640625 54.492188 56.640625 54.492188 56.878906 C 54.492188 57.117188 54.121094 57.117188 54.121094 56.878906 " fill-opacity="1" fill-rule="nonzero"/><path fill="rgb(87.838745%, 32.548523%, 21.958923%)" d="M 55.542969 61.429688 C 55.542969 61.191406 55.914062 61.191406 55.914062 61.429688 C 55.914062 61.667969 55.542969 61.667969 55.542969 61.429688 " fill-opacity="1" fill-rule="nonzero"/><path fill="rgb(87.838745%, 32.548523%, 21.958923%)" d="M 51.523438 63.089844 C 51.523438 62.855469 51.894531 62.855469 51.894531 63.089844 C 51.894531 63.328125 51.523438 63.328125 51.523438 63.089844 " fill-opacity="1" fill-rule="nonzero"/><path fill="rgb(87.838745%, 32.548523%, 21.958923%)" d="M 51.335938 70.777344 C 51.335938 70.539062 51.707031 70.539062 51.707031 70.777344 C 51.707031 71.015625 51.335938 71.015625 51.335938 70.777344 " fill-opacity="1" fill-rule="nonzero"/><path fill="rgb(87.838745%, 32.548523%, 21.958923%)" d="M 55.296875 74.222656 C 55.296875 73.984375 55.667969 73.984375 55.667969 74.222656 C 55.667969 74.457031 55.296875 74.457031 55.296875 74.222656 " fill-opacity="1" fill-rule="nonzero"/><path fill="rgb(87.838745%, 32.548523%, 21.958923%)" d="M 50.039062 77.296875 C 50.039062 77.054688 50.410156 77.054688 50.410156 77.296875 C 50.410156 77.53125 50.039062 77.53125 50.039062 77.296875 " fill-opacity="1" fill-rule="nonzero"/><path fill="rgb(87.838745%, 32.548523%, 21.958923%)" d="M 45.460938 78.15625 C 45.460938 77.917969 45.832031 77.917969 45.832031 78.15625 C 45.832031 78.394531 45.460938 78.394531 45.460938 78.15625 " fill-opacity="1" fill-rule="nonzero"/><path fill="rgb(87.838745%, 32.548523%, 21.958923%)" d="M 43.542969 76.433594 C 43.542969 76.195312 43.914062 76.195312 43.914062 76.433594 C 43.914062 76.671875 43.542969 76.671875 43.542969 76.433594 " fill-opacity="1" fill-rule="nonzero"/><path fill="rgb(87.838745%, 32.548523%, 21.958923%)" d="M 41.070312 72.929688 C 41.070312 72.691406 41.441406 72.691406 41.441406 72.929688 C 41.441406 73.167969 41.070312 73.167969 41.070312 72.929688 " fill-opacity="1" fill-rule="nonzero"/><path fill="rgb(87.838745%, 32.548523%, 21.958923%)" d="M 40.449219 77.972656 C 40.449219 77.734375 40.820312 77.734375 40.820312 77.972656 C 40.820312 78.210938 40.449219 78.210938 40.449219 77.972656 " fill-opacity="1" fill-rule="nonzero"/><path fill="rgb(87.838745%, 32.548523%, 21.958923%)" d="M 55.449219 71.023438 C 55.449219 70.785156 55.820312 70.785156 55.820312 71.023438 C 55.820312 71.261719 55.449219 71.261719 55.449219 71.023438 " fill-opacity="1" fill-rule="nonzero"/><path fill="rgb(87.838745%, 32.548523%, 21.958923%)" d="M 48.910156 73.511719 C 48.910156 73.273438 49.277344 73.273438 49.277344 73.511719 C 49.277344 73.75 48.910156 73.75 48.910156 73.511719 " fill-opacity="1" fill-rule="nonzero"/><path fill="rgb(87.838745%, 32.548523%, 21.958923%)" d="M 51.277344 66.917969 C 51.277344 66.679688 51.644531 66.679688 51.644531 66.917969 C 51.644531 67.152344 51.277344 67.152344 51.277344 66.917969 " fill-opacity="1" fill-rule="nonzero"/><path fill="rgb(87.838745%, 32.548523%, 21.958923%)" d="M 46.542969 67.472656 C 46.542969 67.234375 46.914062 67.234375 46.914062 67.472656 C 46.914062 67.710938 46.542969 67.710938 46.542969 67.472656 " fill-opacity="1" fill-rule="nonzero"/><path fill="rgb(87.838745%, 32.548523%, 21.958923%)" d="M 45.382812 64.796875 C 45.382812 64.558594 45.753906 64.558594 45.753906 64.796875 C 45.753906 65.035156 45.382812 65.035156 45.382812 64.796875 " fill-opacity="1" fill-rule="nonzero"/><path fill="rgb(87.838745%, 32.548523%, 21.958923%)" d="M 52.203125 59.585938 C 52.203125 59.347656 52.574219 59.347656 52.574219 59.585938 C 52.574219 59.824219 52.203125 59.824219 52.203125 59.585938 " fill-opacity="1" fill-rule="nonzero"/><path fill="rgb(87.838745%, 32.548523%, 21.958923%)" d="M 47.007812 61.800781 C 47.007812 61.5625 47.378906 61.5625 47.378906 61.800781 C 47.378906 62.039062 47.007812 62.039062 47.007812 61.800781 " fill-opacity="1" fill-rule="nonzero"/><path fill="rgb(87.838745%, 32.548523%, 21.958923%)" d="M 42.691406 57.050781 C 42.691406 56.808594 43.0625 56.808594 43.0625 57.050781 C 43.0625 57.289062 42.691406 57.289062 42.691406 57.050781 " fill-opacity="1" fill-rule="nonzero"/><path fill="rgb(87.838745%, 32.548523%, 21.958923%)" d="M 37.453125 59.90625 C 37.453125 59.671875 37.820312 59.671875 37.820312 59.90625 C 37.820312 60.148438 37.453125 60.148438 37.453125 59.90625 " fill-opacity="1" fill-rule="nonzero"/><path fill="rgb(87.838745%, 32.548523%, 21.958923%)" d="M 38.472656 63.964844 C 38.472656 63.730469 38.84375 63.730469 38.84375 63.964844 C 38.84375 64.203125 38.472656 64.203125 38.472656 63.964844 " fill-opacity="1" fill-rule="nonzero"/><path fill="rgb(87.838745%, 32.548523%, 21.958923%)" d="M 52.621094 52.023438 C 52.621094 51.785156 52.992188 51.785156 52.992188 52.023438 C 52.992188 52.261719 52.621094 52.261719 52.621094 52.023438 " fill-opacity="1" fill-rule="nonzero"/><path fill="rgb(87.838745%, 32.548523%, 21.958923%)" d="M 37.820312 69.777344 C 37.820312 69.539062 38.195312 69.539062 38.195312 69.777344 C 38.195312 70.015625 37.820312 70.015625 37.820312 69.777344 " fill-opacity="1" fill-rule="nonzero"/><path fill="rgb(87.838745%, 32.548523%, 21.958923%)" d="M 37.960938 66.597656 C 37.960938 66.355469 38.332031 66.355469 38.332031 66.597656 C 38.332031 66.832031 37.960938 66.832031 37.960938 66.597656 " fill-opacity="1" fill-rule="nonzero"/><path fill="rgb(87.838745%, 32.548523%, 21.958923%)" d="M 53.191406 73.421875 C 53.191406 73.183594 53.5625 73.183594 53.5625 73.421875 C 53.5625 73.660156 53.191406 73.660156 53.191406 73.421875 " fill-opacity="1" fill-rule="nonzero"/><path fill="rgb(87.838745%, 32.548523%, 21.958923%)" d="M 53.625 66.902344 C 53.625 66.664062 53.996094 66.664062 53.996094 66.902344 C 53.996094 67.140625 53.625 67.140625 53.625 66.902344 " fill-opacity="1" fill-rule="nonzero"/><path fill="rgb(87.838745%, 32.548523%, 21.958923%)" d="M 53.933594 63.707031 C 53.933594 63.46875 54.304688 63.46875 54.304688 63.707031 C 54.304688 63.941406 53.933594 63.941406 53.933594 63.707031 " fill-opacity="1" fill-rule="nonzero"/><path fill="rgb(87.838745%, 32.548523%, 21.958923%)" d="M 53.933594 59.523438 C 53.933594 59.285156 54.304688 59.285156 54.304688 59.523438 C 54.304688 59.761719 53.933594 59.761719 53.933594 59.523438 " fill-opacity="1" fill-rule="nonzero"/><path fill="rgb(87.838745%, 32.548523%, 21.958923%)" d="M 49.605469 68.503906 C 49.605469 68.261719 49.976562 68.261719 49.976562 68.503906 C 49.976562 68.738281 49.605469 68.738281 49.605469 68.503906 " fill-opacity="1" fill-rule="nonzero"/><path fill="rgb(87.838745%, 32.548523%, 21.958923%)" d="M 35.378906 59.585938 C 35.378906 59.347656 35.75 59.347656 35.75 59.585938 C 35.75 59.824219 35.378906 59.824219 35.378906 59.585938 " fill-opacity="1" fill-rule="nonzero"/><path fill="rgb(87.838745%, 32.548523%, 21.958923%)" d="M 40.082031 55.832031 C 40.082031 55.597656 40.449219 55.597656 40.449219 55.832031 C 40.449219 56.074219 40.082031 56.074219 40.082031 55.832031 " fill-opacity="1" fill-rule="nonzero"/><path fill="rgb(87.838745%, 32.548523%, 21.958923%)" d="M 42.988281 54.113281 C 42.988281 53.875 43.359375 53.875 43.359375 54.113281 C 43.359375 54.351562 42.988281 54.351562 42.988281 54.113281 " fill-opacity="1" fill-rule="nonzero"/><path fill="rgb(87.838745%, 32.548523%, 21.958923%)" d="M 46.757812 51.839844 C 46.757812 51.601562 47.132812 51.601562 47.132812 51.839844 C 47.132812 52.074219 46.757812 52.074219 46.757812 51.839844 " fill-opacity="1" fill-rule="nonzero"/><path fill="rgb(87.838745%, 32.548523%, 21.958923%)" d="M 48.242188 55.773438 C 48.242188 55.535156 48.617188 55.535156 48.617188 55.773438 C 48.617188 56.011719 48.242188 56.011719 48.242188 55.773438 " fill-opacity="1" fill-rule="nonzero"/><g clip-path="url(#clip-2)"><path fill="rgb(12.548828%, 12.548828%, 12.548828%)" d="M 104.734375 63.667969 C 105.0625 59.039062 105.925781 35.726562 91.753906 20.390625 C 83.390625 11.339844 71.5 6.894531 56.402344 7.191406 C 41.316406 6.90625 29.417969 11.34375 21.054688 20.390625 C 7.242188 35.335938 7.710938 57.863281 8.050781 63.28125 C 7.847656 64.03125 7.742188 64.820312 7.742188 65.632812 L 7.742188 86.421875 C 7.742188 91.464844 11.832031 95.550781 16.878906 95.550781 L 23.222656 95.550781 C 28.269531 95.550781 32.359375 91.464844 32.359375 86.421875 L 32.359375 65.632812 C 32.359375 60.59375 28.269531 56.503906 23.222656 56.503906 L 16.878906 56.503906 C 16.191406 56.503906 15.519531 56.585938 14.875 56.730469 C 15.21875 48.4375 17.234375 34.597656 26.113281 25.011719 C 33.101562 17.464844 43.289062 13.761719 56.335938 14.039062 L 56.472656 14.039062 C 69.527344 13.777344 79.707031 17.464844 86.695312 25.011719 C 95.585938 34.605469 97.59375 48.46875 97.9375 56.757812 C 97.253906 56.59375 96.542969 56.503906 95.8125 56.503906 L 89.464844 56.503906 C 84.421875 56.503906 80.332031 60.59375 80.332031 65.632812 L 80.332031 86.421875 C 80.332031 91.464844 84.421875 95.550781 89.464844 95.550781 L 95.8125 95.550781 C 100.855469 95.550781 104.949219 91.464844 104.949219 86.421875 L 104.949219 65.632812 C 104.949219 64.957031 104.875 64.300781 104.734375 63.667969 Z M 104.734375 63.667969 " fill-opacity="1" fill-rule="nonzero"/></g><path fill="rgb(12.548828%, 12.548828%, 12.548828%)" d="M 5.519531 66.140625 L 0 69.371094 L 0 81.734375 L 5.519531 85.347656 " fill-opacity="1" fill-rule="nonzero"/><g clip-path="url(#clip-3)"><path fill="rgb(12.548828%, 12.548828%, 12.548828%)" d="M 106.980469 66.140625 L 112.5 69.371094 L 112.5 81.734375 L 106.980469 85.347656 " fill-opacity="1" fill-rule="nonzero"/></g></svg>