<?xml version="1.0" encoding="UTF-8"?><svg xmlns="http://www.w3.org/2000/svg" xmlns:xlink="http://www.w3.org/1999/xlink" contentScriptType="text/ecmascript" width="112.5" zoomAndPan="magnify" contentStyleType="text/css" viewBox="0 0 112.5 112.499997" height="112.499997" preserveAspectRatio="xMidYMid meet" version="1.0"><defs><clipPath id="clip-0"><path d="M 47 1 L 85 1 L 85 67 L 47 67 Z M 47 1 " clip-rule="nonzero"/></clipPath><clipPath id="clip-1"><path d="M 36.382812 57.644531 L 67.109375 0.0859375 L 85.636719 9.972656 L 54.90625 67.535156 Z M 36.382812 57.644531 " clip-rule="nonzero"/></clipPath><clipPath id="clip-2"><path d="M 36.382812 57.644531 L 67.109375 0.0859375 L 85.636719 9.972656 L 54.90625 67.535156 Z M 36.382812 57.644531 " clip-rule="nonzero"/></clipPath><clipPath id="clip-3"><path d="M 36.382812 57.644531 L 67.109375 0.0859375 L 85.636719 9.972656 L 54.90625 67.535156 Z M 36.382812 57.644531 " clip-rule="nonzero"/></clipPath><clipPath id="clip-4"><path d="M 53 60 L 57 60 L 57 64 L 53 64 Z M 53 60 " clip-rule="nonzero"/></clipPath><clipPath id="clip-5"><path d="M 36.382812 57.644531 L 67.109375 0.0859375 L 85.636719 9.972656 L 54.90625 67.535156 Z M 36.382812 57.644531 " clip-rule="nonzero"/></clipPath><clipPath id="clip-6"><path d="M 36.382812 57.644531 L 67.109375 0.0859375 L 85.636719 9.972656 L 54.90625 67.535156 Z M 36.382812 57.644531 " clip-rule="nonzero"/></clipPath><clipPath id="clip-7"><path d="M 36.382812 57.644531 L 67.109375 0.0859375 L 85.636719 9.972656 L 54.90625 67.535156 Z M 36.382812 57.644531 " clip-rule="nonzero"/></clipPath><clipPath id="clip-8"><path d="M 52 58 L 56 58 L 56 61 L 52 61 Z M 52 58 " clip-rule="nonzero"/></clipPath><clipPath id="clip-9"><path d="M 36.382812 57.644531 L 67.109375 0.0859375 L 85.636719 9.972656 L 54.90625 67.535156 Z M 36.382812 57.644531 " clip-rule="nonzero"/></clipPath><clipPath id="clip-10"><path d="M 36.382812 57.644531 L 67.109375 0.0859375 L 85.636719 9.972656 L 54.90625 67.535156 Z M 36.382812 57.644531 " clip-rule="nonzero"/></clipPath><clipPath id="clip-11"><path d="M 36.382812 57.644531 L 67.109375 0.0859375 L 85.636719 9.972656 L 54.90625 67.535156 Z M 36.382812 57.644531 " clip-rule="nonzero"/></clipPath><clipPath id="clip-12"><path d="M 63 16 L 69 16 L 69 27 L 63 27 Z M 63 16 " clip-rule="nonzero"/></clipPath><clipPath id="clip-13"><path d="M 36.382812 57.644531 L 67.109375 0.0859375 L 85.636719 9.972656 L 54.90625 67.535156 Z M 36.382812 57.644531 " clip-rule="nonzero"/></clipPath><clipPath id="clip-14"><path d="M 36.382812 57.644531 L 67.109375 0.0859375 L 85.636719 9.972656 L 54.90625 67.535156 Z M 36.382812 57.644531 " clip-rule="nonzero"/></clipPath><clipPath id="clip-15"><path d="M 36.382812 57.644531 L 67.109375 0.0859375 L 85.636719 9.972656 L 54.90625 67.535156 Z M 36.382812 57.644531 " clip-rule="nonzero"/></clipPath><clipPath id="clip-16"><path d="M 53 56 L 57 56 L 57 60 L 53 60 Z M 53 56 " clip-rule="nonzero"/></clipPath><clipPath id="clip-17"><path d="M 36.382812 57.644531 L 67.109375 0.0859375 L 85.636719 9.972656 L 54.90625 67.535156 Z M 36.382812 57.644531 " clip-rule="nonzero"/></clipPath><clipPath id="clip-18"><path d="M 36.382812 57.644531 L 67.109375 0.0859375 L 85.636719 9.972656 L 54.90625 67.535156 Z M 36.382812 57.644531 " clip-rule="nonzero"/></clipPath><clipPath id="clip-19"><path d="M 36.382812 57.644531 L 67.109375 0.0859375 L 85.636719 9.972656 L 54.90625 67.535156 Z M 36.382812 57.644531 " clip-rule="nonzero"/></clipPath><clipPath id="clip-20"><path d="M 55 47 L 60 47 L 60 51 L 55 51 Z M 55 47 " clip-rule="nonzero"/></clipPath><clipPath id="clip-21"><path d="M 36.382812 57.644531 L 67.109375 0.0859375 L 85.636719 9.972656 L 54.90625 67.535156 Z M 36.382812 57.644531 " clip-rule="nonzero"/></clipPath><clipPath id="clip-22"><path d="M 36.382812 57.644531 L 67.109375 0.0859375 L 85.636719 9.972656 L 54.90625 67.535156 Z M 36.382812 57.644531 " clip-rule="nonzero"/></clipPath><clipPath id="clip-23"><path d="M 36.382812 57.644531 L 67.109375 0.0859375 L 85.636719 9.972656 L 54.90625 67.535156 Z M 36.382812 57.644531 " clip-rule="nonzero"/></clipPath><clipPath id="clip-24"><path d="M 52 61 L 56 61 L 56 65 L 52 65 Z M 52 61 " clip-rule="nonzero"/></clipPath><clipPath id="clip-25"><path d="M 36.382812 57.644531 L 67.109375 0.0859375 L 85.636719 9.972656 L 54.90625 67.535156 Z M 36.382812 57.644531 " clip-rule="nonzero"/></clipPath><clipPath id="clip-26"><path d="M 36.382812 57.644531 L 67.109375 0.0859375 L 85.636719 9.972656 L 54.90625 67.535156 Z M 36.382812 57.644531 " clip-rule="nonzero"/></clipPath><clipPath id="clip-27"><path d="M 36.382812 57.644531 L 67.109375 0.0859375 L 85.636719 9.972656 L 54.90625 67.535156 Z M 36.382812 57.644531 " clip-rule="nonzero"/></clipPath><clipPath id="clip-28"><path d="M 51 52 L 56 52 L 56 56 L 51 56 Z M 51 52 " clip-rule="nonzero"/></clipPath><clipPath id="clip-29"><path d="M 36.382812 57.644531 L 67.109375 0.0859375 L 85.636719 9.972656 L 54.90625 67.535156 Z M 36.382812 57.644531 " clip-rule="nonzero"/></clipPath><clipPath id="clip-30"><path d="M 36.382812 57.644531 L 67.109375 0.0859375 L 85.636719 9.972656 L 54.90625 67.535156 Z M 36.382812 57.644531 " clip-rule="nonzero"/></clipPath><clipPath id="clip-31"><path d="M 36.382812 57.644531 L 67.109375 0.0859375 L 85.636719 9.972656 L 54.90625 67.535156 Z M 36.382812 57.644531 " clip-rule="nonzero"/></clipPath><clipPath id="clip-32"><path d="M 54 42 L 59 42 L 59 46 L 54 46 Z M 54 42 " clip-rule="nonzero"/></clipPath><clipPath id="clip-33"><path d="M 36.382812 57.644531 L 67.109375 0.0859375 L 85.636719 9.972656 L 54.90625 67.535156 Z M 36.382812 57.644531 " clip-rule="nonzero"/></clipPath><clipPath id="clip-34"><path d="M 36.382812 57.644531 L 67.109375 0.0859375 L 85.636719 9.972656 L 54.90625 67.535156 Z M 36.382812 57.644531 " clip-rule="nonzero"/></clipPath><clipPath id="clip-35"><path d="M 36.382812 57.644531 L 67.109375 0.0859375 L 85.636719 9.972656 L 54.90625 67.535156 Z M 36.382812 57.644531 " clip-rule="nonzero"/></clipPath><clipPath id="clip-36"><path d="M 53 35 L 59 35 L 59 40 L 53 40 Z M 53 35 " clip-rule="nonzero"/></clipPath><clipPath id="clip-37"><path d="M 36.382812 57.644531 L 67.109375 0.0859375 L 85.636719 9.972656 L 54.90625 67.535156 Z M 36.382812 57.644531 " clip-rule="nonzero"/></clipPath><clipPath id="clip-38"><path d="M 36.382812 57.644531 L 67.109375 0.0859375 L 85.636719 9.972656 L 54.90625 67.535156 Z M 36.382812 57.644531 " clip-rule="nonzero"/></clipPath><clipPath id="clip-39"><path d="M 36.382812 57.644531 L 67.109375 0.0859375 L 85.636719 9.972656 L 54.90625 67.535156 Z M 36.382812 57.644531 " clip-rule="nonzero"/></clipPath><clipPath id="clip-40"><path d="M 68 12 L 78 12 L 78 22 L 68 22 Z M 68 12 " clip-rule="nonzero"/></clipPath><clipPath id="clip-41"><path d="M 36.382812 57.644531 L 67.109375 0.0859375 L 85.636719 9.972656 L 54.90625 67.535156 Z M 36.382812 57.644531 " clip-rule="nonzero"/></clipPath><clipPath id="clip-42"><path d="M 36.382812 57.644531 L 67.109375 0.0859375 L 85.636719 9.972656 L 54.90625 67.535156 Z M 36.382812 57.644531 " clip-rule="nonzero"/></clipPath><clipPath id="clip-43"><path d="M 36.382812 57.644531 L 67.109375 0.0859375 L 85.636719 9.972656 L 54.90625 67.535156 Z M 36.382812 57.644531 " clip-rule="nonzero"/></clipPath><clipPath id="clip-44"><path d="M 52 25 L 60 25 L 60 35 L 52 35 Z M 52 25 " clip-rule="nonzero"/></clipPath><clipPath id="clip-45"><path d="M 36.382812 57.644531 L 67.109375 0.0859375 L 85.636719 9.972656 L 54.90625 67.535156 Z M 36.382812 57.644531 " clip-rule="nonzero"/></clipPath><clipPath id="clip-46"><path d="M 36.382812 57.644531 L 67.109375 0.0859375 L 85.636719 9.972656 L 54.90625 67.535156 Z M 36.382812 57.644531 " clip-rule="nonzero"/></clipPath><clipPath id="clip-47"><path d="M 36.382812 57.644531 L 67.109375 0.0859375 L 85.636719 9.972656 L 54.90625 67.535156 Z M 36.382812 57.644531 " clip-rule="nonzero"/></clipPath><clipPath id="clip-48"><path d="M 50 62 L 55 62 L 55 68 L 50 68 Z M 50 62 " clip-rule="nonzero"/></clipPath><clipPath id="clip-49"><path d="M 36.382812 57.644531 L 67.109375 0.0859375 L 85.636719 9.972656 L 54.90625 67.535156 Z M 36.382812 57.644531 " clip-rule="nonzero"/></clipPath><clipPath id="clip-50"><path d="M 36.382812 57.644531 L 67.109375 0.0859375 L 85.636719 9.972656 L 54.90625 67.535156 Z M 36.382812 57.644531 " clip-rule="nonzero"/></clipPath><clipPath id="clip-51"><path d="M 36.382812 57.644531 L 67.109375 0.0859375 L 85.636719 9.972656 L 54.90625 67.535156 Z M 36.382812 57.644531 " clip-rule="nonzero"/></clipPath><clipPath id="clip-52"><path d="M 62 25 L 68 25 L 68 33 L 62 33 Z M 62 25 " clip-rule="nonzero"/></clipPath><clipPath id="clip-53"><path d="M 36.382812 57.644531 L 67.109375 0.0859375 L 85.636719 9.972656 L 54.90625 67.535156 Z M 36.382812 57.644531 " clip-rule="nonzero"/></clipPath><clipPath id="clip-54"><path d="M 36.382812 57.644531 L 67.109375 0.0859375 L 85.636719 9.972656 L 54.90625 67.535156 Z M 36.382812 57.644531 " clip-rule="nonzero"/></clipPath><clipPath id="clip-55"><path d="M 36.382812 57.644531 L 67.109375 0.0859375 L 85.636719 9.972656 L 54.90625 67.535156 Z M 36.382812 57.644531 " clip-rule="nonzero"/></clipPath><clipPath id="clip-56"><path d="M 53 48 L 57 48 L 57 52 L 53 52 Z M 53 48 " clip-rule="nonzero"/></clipPath><clipPath id="clip-57"><path d="M 36.382812 57.644531 L 67.109375 0.0859375 L 85.636719 9.972656 L 54.90625 67.535156 Z M 36.382812 57.644531 " clip-rule="nonzero"/></clipPath><clipPath id="clip-58"><path d="M 36.382812 57.644531 L 67.109375 0.0859375 L 85.636719 9.972656 L 54.90625 67.535156 Z M 36.382812 57.644531 " clip-rule="nonzero"/></clipPath><clipPath id="clip-59"><path d="M 36.382812 57.644531 L 67.109375 0.0859375 L 85.636719 9.972656 L 54.90625 67.535156 Z M 36.382812 57.644531 " clip-rule="nonzero"/></clipPath><clipPath id="clip-60"><path d="M 67 5 L 84 5 L 84 15 L 67 15 Z M 67 5 " clip-rule="nonzero"/></clipPath><clipPath id="clip-61"><path d="M 36.382812 57.644531 L 67.109375 0.0859375 L 85.636719 9.972656 L 54.90625 67.535156 Z M 36.382812 57.644531 " clip-rule="nonzero"/></clipPath><clipPath id="clip-62"><path d="M 36.382812 57.644531 L 67.109375 0.0859375 L 85.636719 9.972656 L 54.90625 67.535156 Z M 36.382812 57.644531 " clip-rule="nonzero"/></clipPath><clipPath id="clip-63"><path d="M 36.382812 57.644531 L 67.109375 0.0859375 L 85.636719 9.972656 L 54.90625 67.535156 Z M 36.382812 57.644531 " clip-rule="nonzero"/></clipPath><clipPath id="clip-64"><path d="M 26.59375 37.492188 L 76.84375 37.492188 L 76.84375 112 L 26.59375 112 Z M 26.59375 37.492188 " clip-rule="nonzero"/></clipPath><clipPath id="clip-65"><path d="M 37 37.492188 L 76.84375 37.492188 L 76.84375 67 L 37 67 Z M 37 37.492188 " clip-rule="nonzero"/></clipPath><clipPath id="clip-66"><path d="M 26.59375 53 L 76 53 L 76 112 L 26.59375 112 Z M 26.59375 53 " clip-rule="nonzero"/></clipPath></defs><g clip-path="url(#clip-0)"><g clip-path="url(#clip-1)"><g clip-path="url(#clip-2)"><g clip-path="url(#clip-3)"><path fill="rgb(0%, 0%, 0%)" d="M 84.1875 9.28125 C 82.042969 16.710938 79.066406 21.652344 75.734375 25.128906 C 75.078125 26.269531 74.394531 27.273438 73.667969 28.1875 C 73.128906 29.332031 72.539062 30.359375 71.917969 31.25 C 71.460938 32.382812 70.964844 33.375 70.417969 34.253906 C 68.898438 38.59375 66.507812 40.867188 63.867188 42.074219 C 61.308594 43.246094 58.445312 43.445312 55.847656 43.671875 C 52.925781 43.921875 50.355469 44.140625 49.15625 45.597656 C 49.148438 45.609375 49.136719 45.625 49.125 45.632812 C 49.453125 46.117188 49.816406 46.613281 50.195312 47.132812 C 52.066406 49.730469 54.3125 52.832031 55.273438 56.472656 C 56.101562 59.621094 55.941406 63.105469 53.816406 66.832031 L 53.566406 66.699219 C 55.675781 63.007812 55.925781 59.585938 55.097656 56.464844 C 54.140625 52.847656 51.914062 49.765625 50.050781 47.1875 C 49.6875 46.695312 49.339844 46.222656 49.019531 45.765625 C 48.898438 45.925781 48.796875 46.070312 48.699219 46.222656 C 49.113281 46.84375 49.605469 47.507812 50.121094 48.214844 C 51.824219 50.519531 53.832031 53.253906 54.554688 56.574219 C 55.171875 59.417969 54.820312 62.617188 52.542969 66.15625 L 52.285156 66.015625 C 54.550781 62.507812 54.996094 59.378906 54.378906 56.558594 C 53.660156 53.269531 51.667969 50.5625 49.976562 48.28125 C 49.480469 47.609375 49.015625 46.96875 48.609375 46.371094 C 48.515625 46.53125 48.433594 46.699219 48.371094 46.855469 C 48.796875 47.617188 49.402344 48.410156 50.050781 49.277344 C 51.574219 51.308594 53.363281 53.679688 53.84375 56.65625 C 54.257812 59.207031 53.695312 62.132812 51.277344 65.476562 L 51.054688 65.359375 C 53.464844 62.039062 54.082031 59.167969 53.671875 56.640625 C 53.191406 53.691406 51.421875 51.34375 49.910156 49.335938 C 49.296875 48.523438 48.726562 47.773438 48.296875 47.050781 C 48.242188 47.21875 48.199219 47.386719 48.175781 47.542969 C 48.523438 48.433594 49.21875 49.324219 49.976562 50.316406 C 51.332031 52.0625 52.890625 54.089844 53.132812 56.742188 C 53.339844 59.003906 52.585938 61.652344 50.019531 64.808594 L 49.78125 64.679688 C 52.335938 61.554688 53.164062 58.957031 52.960938 56.722656 C 52.71875 54.101562 51.175781 52.101562 49.835938 50.375 C 49.160156 49.496094 48.535156 48.6875 48.148438 47.894531 C 48.132812 49.105469 48.96875 50.148438 49.902344 51.328125 C 51.085938 52.816406 52.421875 54.496094 52.421875 56.824219 C 52.425781 58.800781 51.472656 61.183594 48.773438 64.140625 L 48.550781 64.023438 C 51.25 61.082031 52.246094 58.761719 52.246094 56.808594 C 52.25 54.503906 50.933594 52.851562 49.769531 51.386719 C 48.71875 50.066406 47.785156 48.90625 47.980469 47.511719 C 47.785156 47.011719 47.703125 46.503906 47.769531 45.988281 C 47.570312 45.453125 47.480469 44.941406 47.550781 44.417969 C 47.347656 43.863281 47.257812 43.332031 47.328125 42.820312 C 46.867188 41.582031 47.359375 39.96875 48.535156 38.933594 C 52.503906 35.445312 59.84375 34.292969 64.972656 32.054688 C 67.183594 31.089844 69.398438 29.933594 71.507812 28.433594 C 71.910156 25.492188 72.082031 21.878906 71.949219 17.402344 C 71.824219 13.214844 71.269531 8.078125 70.488281 1.96875 L 70.988281 2.234375 C 71.691406 8.164062 72.070312 13.09375 72.191406 17.222656 C 72.324219 21.679688 72.164062 25.289062 71.773438 28.242188 C 72.148438 27.96875 72.511719 27.699219 72.875 27.40625 C 73.523438 24.769531 73.972656 21.550781 74.167969 17.582031 C 74.355469 13.832031 74.167969 9.175781 73.808594 3.742188 L 74.261719 3.984375 C 74.574219 9.25 74.617188 13.648438 74.4375 17.351562 C 74.246094 21.292969 73.808594 24.511719 73.191406 27.144531 C 73.539062 26.855469 73.882812 26.558594 74.226562 26.242188 C 75.113281 23.925781 75.847656 21.105469 76.371094 17.671875 C 76.867188 14.378906 77.089844 10.246094 77.148438 5.523438 L 77.535156 5.730469 C 77.457031 10.289062 77.148438 14.125 76.671875 17.363281 C 76.171875 20.753906 75.480469 23.539062 74.632812 25.867188 C 74.929688 25.585938 75.226562 25.289062 75.527344 24.96875 C 77.777344 21.019531 79.480469 15.363281 80.464844 7.292969 L 80.835938 7.492188 C 79.894531 15 78.269531 20.3125 76.238281 24.203125 C 79.273438 20.789062 81.796875 15.933594 83.765625 9.058594 Z M 74.984375 25.882812 C 74.800781 26.054688 74.621094 26.222656 74.433594 26.394531 C 74.332031 26.65625 74.226562 26.914062 74.121094 27.167969 C 74.417969 26.753906 74.707031 26.324219 74.984375 25.882812 Z M 47.625 44.0625 C 47.65625 43.953125 47.699219 43.839844 47.738281 43.738281 C 47.65625 43.574219 47.578125 43.410156 47.503906 43.253906 C 47.507812 43.515625 47.550781 43.785156 47.625 44.0625 Z M 72.976562 29.019531 C 72.832031 29.179688 72.691406 29.332031 72.546875 29.492188 C 72.472656 29.726562 72.394531 29.957031 72.316406 30.183594 C 72.546875 29.804688 72.761719 29.421875 72.976562 29.019531 Z M 72.152344 29.910156 C 71.898438 30.164062 71.640625 30.410156 71.382812 30.648438 C 71.285156 31.109375 71.1875 31.546875 71.082031 31.96875 C 71.296875 31.695312 71.503906 31.414062 71.703125 31.121094 C 71.863281 30.730469 72.007812 30.335938 72.152344 29.910156 Z M 71.082031 30.921875 C 68.984375 32.769531 66.703125 34.121094 64.371094 35.097656 C 62.101562 36.042969 59.753906 36.644531 57.550781 37.28125 C 55.703125 37.808594 53.929688 38.332031 52.359375 38.949219 C 50.824219 39.558594 49.472656 40.285156 48.429688 41.261719 C 47.898438 41.769531 47.617188 42.304688 47.53125 42.863281 C 47.613281 43.085938 47.714844 43.308594 47.832031 43.542969 C 47.988281 43.234375 48.214844 42.917969 48.523438 42.59375 C 49.402344 41.710938 50.601562 41.097656 52 40.613281 C 53.417969 40.125 55.039062 39.757812 56.746094 39.382812 C 59.070312 38.859375 61.554688 38.304688 63.929688 37.316406 C 66.367188 36.308594 68.722656 34.820312 70.726562 32.414062 C 70.855469 31.9375 70.976562 31.4375 71.082031 30.921875 Z M 47.753906 44.460938 C 47.832031 44.667969 47.929688 44.886719 48.042969 45.101562 C 48.113281 44.957031 48.191406 44.8125 48.292969 44.660156 C 48.140625 44.425781 48 44.203125 47.875 43.972656 C 47.820312 44.132812 47.78125 44.296875 47.753906 44.460938 Z M 48.164062 45.34375 C 48.289062 45.566406 48.425781 45.792969 48.578125 46.03125 C 48.671875 45.886719 48.777344 45.746094 48.898438 45.585938 C 48.730469 45.339844 48.566406 45.09375 48.410156 44.863281 C 48.3125 45.023438 48.230469 45.183594 48.164062 45.34375 Z M 48.488281 46.175781 C 48.34375 45.953125 48.210938 45.742188 48.089844 45.535156 C 48.035156 45.695312 47.996094 45.855469 47.972656 46.019531 C 48.050781 46.21875 48.140625 46.417969 48.246094 46.625 C 48.3125 46.480469 48.394531 46.328125 48.488281 46.175781 Z M 47.957031 45.300781 C 47.871094 45.144531 47.796875 44.996094 47.726562 44.847656 C 47.730469 45.105469 47.765625 45.371094 47.84375 45.632812 C 47.871094 45.523438 47.910156 45.410156 47.957031 45.300781 Z M 47.402344 42.46875 C 47.539062 42 47.816406 41.550781 48.273438 41.117188 C 49.328125 40.125 50.6875 39.394531 52.234375 38.773438 C 53.816406 38.140625 55.59375 37.621094 57.457031 37.085938 C 59.695312 36.4375 62.058594 35.753906 64.363281 34.769531 C 66.726562 33.765625 69.054688 32.445312 71.164062 30.511719 C 71.273438 29.960938 71.367188 29.386719 71.457031 28.777344 C 69.371094 30.230469 67.222656 31.457031 65.035156 32.402344 C 59.964844 34.601562 52.601562 35.652344 48.691406 39.089844 C 47.789062 39.886719 47.113281 41.429688 47.402344 42.46875 Z M 71.453125 30.246094 C 71.75 29.960938 72.042969 29.667969 72.335938 29.351562 C 72.492188 28.859375 72.640625 28.335938 72.777344 27.800781 C 72.433594 28.066406 72.082031 28.328125 71.730469 28.582031 C 71.640625 29.167969 71.550781 29.722656 71.453125 30.246094 Z M 72.722656 28.925781 C 72.972656 28.644531 73.21875 28.351562 73.449219 28.058594 C 73.640625 27.652344 73.835938 27.214844 74.015625 26.769531 C 73.710938 27.039062 73.402344 27.304688 73.089844 27.554688 C 72.976562 28.023438 72.851562 28.488281 72.722656 28.925781 Z M 71.277344 32.125 C 71.164062 32.269531 71.050781 32.40625 70.9375 32.546875 C 70.886719 32.746094 70.828125 32.945312 70.773438 33.140625 C 70.949219 32.816406 71.109375 32.484375 71.277344 32.125 Z M 70.582031 32.953125 C 68.578125 35.214844 66.296875 36.707031 63.90625 37.667969 C 61.578125 38.601562 59.109375 39.058594 56.828125 39.574219 C 55.132812 39.949219 53.523438 40.304688 52.121094 40.785156 C 50.734375 41.261719 49.546875 41.875 48.683594 42.730469 C 48.347656 43.085938 48.109375 43.433594 47.957031 43.777344 C 48.085938 44.019531 48.234375 44.261719 48.386719 44.519531 C 48.496094 44.367188 48.625 44.199219 48.765625 44.042969 C 49.5 43.242188 50.566406 42.722656 51.84375 42.351562 C 53.125 41.980469 54.628906 41.746094 56.214844 41.496094 C 58.59375 41.125 61.179688 40.722656 63.585938 39.734375 C 66.050781 38.726562 68.386719 37.0625 70.21875 34.113281 C 70.34375 33.746094 70.464844 33.359375 70.582031 32.953125 Z M 48.164062 46.820312 C 48.085938 46.675781 48.011719 46.527344 47.941406 46.390625 C 47.945312 46.648438 47.980469 46.910156 48.050781 47.160156 C 48.082031 47.050781 48.121094 46.929688 48.164062 46.820312 Z M 69.832031 35.128906 C 67.992188 37.691406 65.796875 39.230469 63.425781 40.140625 C 61.105469 41.027344 58.570312 41.324219 56.292969 41.683594 C 54.722656 41.921875 53.230469 42.160156 51.960938 42.523438 C 50.703125 42.882812 49.644531 43.394531 48.921875 44.179688 C 48.765625 44.359375 48.625 44.539062 48.507812 44.710938 C 48.664062 44.953125 48.828125 45.203125 49.003906 45.457031 C 50.238281 43.964844 52.828125 43.75 55.785156 43.492188 C 58.257812 43.273438 60.988281 43.027344 63.449219 41.976562 C 65.972656 40.894531 68.269531 38.945312 69.832031 35.128906 Z M 69.832031 35.128906 " fill-opacity="1" fill-rule="nonzero"/></g></g></g></g><g clip-path="url(#clip-4)"><g clip-path="url(#clip-5)"><g clip-path="url(#clip-6)"><g clip-path="url(#clip-7)"><path fill="rgb(0%, 0%, 0%)" d="M 55.753906 62.929688 C 55.773438 62.894531 55.789062 62.851562 55.808594 62.8125 C 55.792969 62.789062 55.773438 62.78125 55.753906 62.761719 C 55.542969 62.535156 55.460938 62.277344 55.585938 62.171875 C 55.617188 62.144531 55.65625 62.128906 55.703125 62.128906 C 55.703125 62.128906 55.710938 62.125 55.710938 62.125 C 55.710938 62.125 55.707031 62.121094 55.707031 62.121094 C 54.964844 61.636719 54.347656 61.234375 53.59375 60.734375 C 53.585938 60.730469 53.589844 60.722656 53.589844 60.722656 C 53.601562 60.703125 53.605469 60.679688 53.613281 60.65625 C 53.617188 60.652344 53.613281 60.65625 53.621094 60.660156 C 54.445312 61.207031 55.128906 61.65625 55.941406 62.1875 C 55.976562 62.214844 56.011719 62.234375 56.042969 62.253906 C 56.0625 62.214844 56.085938 62.160156 56.105469 62.113281 L 56.109375 62.117188 C 56.152344 62.140625 56.195312 62.171875 56.238281 62.195312 C 56.238281 62.199219 56.238281 62.203125 56.238281 62.203125 C 56.222656 62.253906 56.195312 62.308594 56.167969 62.363281 C 56.183594 62.375 56.199219 62.386719 56.21875 62.402344 C 56.429688 62.632812 56.5 62.890625 56.382812 62.992188 C 56.289062 63.070312 56.109375 63.027344 55.929688 62.910156 C 55.914062 62.945312 55.894531 62.984375 55.882812 63.015625 C 55.882812 63.015625 55.878906 63.019531 55.875 63.019531 C 55.839844 62.992188 55.796875 62.96875 55.757812 62.9375 C 55.753906 62.9375 55.753906 62.929688 55.753906 62.929688 Z M 55.753906 62.929688 " fill-opacity="1" fill-rule="nonzero"/></g></g></g></g><g clip-path="url(#clip-8)"><g clip-path="url(#clip-9)"><g clip-path="url(#clip-10)"><g clip-path="url(#clip-11)"><path fill="rgb(0%, 0%, 0%)" d="M 55.550781 60.925781 C 55.421875 61.019531 55.140625 60.910156 54.933594 60.683594 C 54.742188 60.449219 54.683594 60.195312 54.8125 60.101562 C 54.851562 60.070312 54.894531 60.066406 54.949219 60.066406 C 54.238281 59.558594 53.511719 59.054688 52.78125 58.535156 C 52.78125 58.535156 52.777344 58.535156 52.777344 58.535156 C 52.785156 58.511719 52.796875 58.488281 52.8125 58.464844 C 52.8125 58.464844 52.8125 58.464844 52.816406 58.46875 C 53.53125 58.882812 54.148438 58.757812 54.710938 59.328125 C 54.765625 59.382812 54.859375 59.492188 54.929688 59.59375 C 54.9375 59.601562 54.933594 59.605469 54.929688 59.601562 C 54.921875 59.605469 54.910156 59.605469 54.898438 59.589844 C 54.820312 59.507812 54.730469 59.40625 54.671875 59.359375 C 54.558594 59.261719 54.460938 59.191406 54.371094 59.140625 C 53.984375 58.933594 53.832031 59.09375 53.582031 59.007812 C 54.121094 59.382812 54.644531 59.761719 55.175781 60.132812 C 55.277344 60.210938 55.347656 60.25 55.4375 60.351562 C 55.628906 60.582031 55.6875 60.832031 55.550781 60.925781 Z M 55.550781 60.925781 " fill-opacity="1" fill-rule="nonzero"/></g></g></g></g><g clip-path="url(#clip-12)"><g clip-path="url(#clip-13)"><g clip-path="url(#clip-14)"><g clip-path="url(#clip-15)"><path fill="rgb(0%, 0%, 0%)" d="M 67.820312 26.035156 C 67.144531 26.351562 66.425781 25.921875 66.222656 25.089844 C 66.023438 24.269531 66.390625 23.347656 67.054688 23.023438 C 67.238281 22.933594 67.429688 22.898438 67.613281 22.910156 C 66.910156 21.96875 66.195312 21 65.472656 20.039062 C 64.746094 19.066406 64.003906 18.0625 63.265625 17.039062 C 63.253906 17.027344 63.261719 17.019531 63.265625 17.015625 C 63.351562 16.9375 63.433594 16.855469 63.523438 16.769531 C 63.527344 16.765625 63.535156 16.757812 63.539062 16.773438 C 64.371094 17.601562 65.421875 17.90625 66.359375 18.273438 C 67.296875 18.644531 68.117188 19.085938 68.460938 20.167969 C 68.53125 20.394531 68.621094 20.792969 68.628906 21.183594 C 68.628906 21.214844 68.609375 21.25 68.578125 21.242188 C 68.546875 21.253906 68.519531 21.222656 68.507812 21.199219 C 68.414062 20.867188 68.320312 20.488281 68.230469 20.304688 C 68.042969 19.929688 67.859375 19.648438 67.648438 19.457031 C 66.738281 18.644531 65.796875 19.238281 65.097656 18.902344 C 66.167969 20.351562 67.222656 21.777344 68.257812 23.175781 C 68.460938 23.449219 68.597656 23.613281 68.679688 23.996094 C 68.863281 24.820312 68.480469 25.71875 67.820312 26.035156 Z M 67.820312 26.035156 " fill-opacity="1" fill-rule="nonzero"/></g></g></g></g><g clip-path="url(#clip-16)"><g clip-path="url(#clip-17)"><g clip-path="url(#clip-18)"><g clip-path="url(#clip-19)"><path fill="rgb(0%, 0%, 0%)" d="M 53.523438 56.972656 C 53.679688 56.785156 54 56.828125 54.222656 57.0625 C 54.441406 57.292969 54.492188 57.613281 54.34375 57.785156 C 54.300781 57.835938 54.25 57.867188 54.195312 57.886719 C 54.191406 57.886719 54.191406 57.886719 54.195312 57.886719 C 54.195312 57.886719 54.195312 57.886719 54.199219 57.886719 C 54.980469 58.28125 55.761719 58.660156 56.542969 59.039062 C 56.546875 59.039062 56.542969 59.046875 56.542969 59.046875 C 56.527344 59.082031 56.515625 59.113281 56.503906 59.140625 C 56.5 59.148438 56.5 59.144531 56.496094 59.144531 C 55.644531 58.726562 54.789062 58.308594 53.933594 57.882812 C 53.820312 57.824219 53.742188 57.796875 53.644531 57.695312 C 53.429688 57.46875 53.375 57.144531 53.523438 56.972656 Z M 53.523438 56.972656 " fill-opacity="1" fill-rule="nonzero"/></g></g></g></g><g clip-path="url(#clip-20)"><g clip-path="url(#clip-21)"><g clip-path="url(#clip-22)"><g clip-path="url(#clip-23)"><path fill="rgb(0%, 0%, 0%)" d="M 59.097656 50.230469 C 58.925781 50.433594 58.59375 50.394531 58.371094 50.148438 C 58.15625 49.90625 58.117188 49.554688 58.285156 49.359375 C 58.332031 49.304688 58.386719 49.269531 58.457031 49.246094 C 57.636719 48.835938 56.824219 48.417969 56 48 C 55.996094 48 55.996094 47.988281 55.996094 47.988281 C 56.003906 47.972656 56.011719 47.953125 56.023438 47.929688 C 56.03125 47.914062 56.035156 47.898438 56.042969 47.882812 C 56.644531 47.925781 57.171875 47.574219 57.671875 47.980469 C 57.730469 48.03125 57.828125 48.117188 57.902344 48.210938 C 57.910156 48.21875 57.902344 48.234375 57.898438 48.238281 C 57.886719 48.246094 57.878906 48.242188 57.867188 48.234375 C 57.785156 48.160156 57.691406 48.082031 57.636719 48.046875 C 57.519531 47.984375 57.421875 47.9375 57.332031 47.921875 C 56.957031 47.851562 56.816406 48.132812 56.574219 48.152344 C 56.6875 48.214844 56.800781 48.269531 56.914062 48.320312 C 56.933594 48.332031 56.949219 48.34375 56.972656 48.347656 C 57.570312 48.398438 58.097656 48.050781 58.597656 48.453125 C 58.65625 48.496094 58.75 48.582031 58.820312 48.679688 C 58.828125 48.691406 58.828125 48.699219 58.816406 48.707031 C 58.808594 48.710938 58.800781 48.707031 58.792969 48.699219 C 58.707031 48.632812 58.617188 48.546875 58.558594 48.519531 C 58.441406 48.457031 58.34375 48.410156 58.261719 48.390625 C 57.878906 48.324219 57.738281 48.605469 57.496094 48.625 C 57.863281 48.808594 58.226562 48.992188 58.589844 49.175781 C 58.632812 49.203125 58.675781 49.226562 58.71875 49.246094 C 58.839844 49.304688 58.917969 49.339844 59.015625 49.449219 C 59.230469 49.691406 59.269531 50.042969 59.097656 50.230469 Z M 59.097656 50.230469 " fill-opacity="1" fill-rule="nonzero"/></g></g></g></g><g clip-path="url(#clip-24)"><g clip-path="url(#clip-25)"><g clip-path="url(#clip-26)"><g clip-path="url(#clip-27)"><path fill="rgb(0%, 0%, 0%)" d="M 55.511719 64.027344 C 55.316406 64.144531 55.015625 64.058594 54.847656 63.835938 C 54.6875 63.613281 54.714844 63.335938 54.90625 63.21875 C 54.953125 63.1875 55.015625 63.171875 55.070312 63.164062 C 55.078125 63.164062 55.078125 63.160156 55.078125 63.160156 C 55.074219 63.160156 55.078125 63.15625 55.074219 63.152344 C 54.386719 62.703125 53.691406 62.25 52.996094 61.789062 C 52.996094 61.785156 52.992188 61.785156 52.996094 61.78125 C 53.015625 61.761719 53.035156 61.734375 53.054688 61.710938 C 53.054688 61.710938 53.0625 61.707031 53.0625 61.707031 C 53.824219 62.210938 54.582031 62.710938 55.332031 63.203125 C 55.433594 63.273438 55.5 63.3125 55.574219 63.410156 C 55.734375 63.628906 55.707031 63.90625 55.511719 64.027344 Z M 55.398438 63.949219 C 55.542969 63.847656 55.5625 63.601562 55.449219 63.417969 C 55.332031 63.238281 55.167969 63.191406 55.019531 63.296875 C 54.875 63.398438 54.851562 63.648438 54.972656 63.824219 C 55.09375 64 55.253906 64.050781 55.398438 63.949219 Z M 55.398438 63.949219 " fill-opacity="1" fill-rule="nonzero"/></g></g></g></g><g clip-path="url(#clip-28)"><g clip-path="url(#clip-29)"><g clip-path="url(#clip-30)"><g clip-path="url(#clip-31)"><path fill="rgb(0%, 0%, 0%)" d="M 55.542969 54.816406 C 55.507812 55.117188 55.183594 55.210938 54.839844 55.023438 C 54.496094 54.847656 54.253906 54.464844 54.285156 54.175781 C 54.292969 54.089844 54.320312 54.03125 54.367188 53.976562 C 53.390625 53.859375 52.417969 53.742188 51.449219 53.617188 C 51.449219 53.617188 51.445312 53.613281 51.441406 53.613281 C 51.433594 53.5625 51.429688 53.519531 51.417969 53.46875 C 51.417969 53.46875 51.421875 53.464844 51.425781 53.464844 C 52.308594 53.433594 52.699219 52.570312 53.59375 52.964844 C 53.683594 53.003906 53.84375 53.082031 53.976562 53.191406 C 53.988281 53.199219 53.996094 53.210938 53.988281 53.21875 C 53.980469 53.230469 53.964844 53.238281 53.953125 53.230469 C 53.820312 53.171875 53.671875 53.09375 53.589844 53.066406 C 53.421875 53.019531 53.289062 52.996094 53.179688 53.003906 C 52.710938 53.046875 52.710938 53.480469 52.445312 53.589844 C 53.164062 53.679688 53.878906 53.769531 54.601562 53.859375 C 54.742188 53.875 54.832031 53.882812 54.988281 53.96875 C 55.332031 54.148438 55.574219 54.53125 55.542969 54.816406 Z M 55.542969 54.816406 " fill-opacity="1" fill-rule="nonzero"/></g></g></g></g><g clip-path="url(#clip-32)"><g clip-path="url(#clip-33)"><g clip-path="url(#clip-34)"><g clip-path="url(#clip-35)"><path fill="rgb(0%, 0%, 0%)" d="M 58.894531 45.628906 C 58.734375 45.984375 58.292969 46.023438 57.925781 45.714844 C 57.5625 45.417969 57.394531 44.894531 57.542969 44.546875 C 57.582031 44.453125 57.640625 44.382812 57.710938 44.335938 C 57.714844 44.332031 57.714844 44.335938 57.710938 44.332031 C 57.710938 44.324219 57.710938 44.320312 57.707031 44.320312 C 56.519531 43.945312 55.332031 43.5625 54.144531 43.175781 C 54.140625 43.175781 54.136719 43.171875 54.140625 43.167969 C 54.148438 43.109375 54.152344 43.050781 54.15625 42.992188 C 54.15625 42.992188 54.160156 42.988281 54.164062 42.988281 C 55.464844 43.410156 56.765625 43.824219 58.0625 44.242188 C 58.238281 44.300781 58.347656 44.332031 58.511719 44.464844 C 58.875 44.765625 59.042969 45.289062 58.894531 45.628906 Z M 58.894531 45.628906 " fill-opacity="1" fill-rule="nonzero"/></g></g></g></g><g clip-path="url(#clip-36)"><g clip-path="url(#clip-37)"><g clip-path="url(#clip-38)"><g clip-path="url(#clip-39)"><path fill="rgb(0%, 0%, 0%)" d="M 53.570312 35.34375 C 53.828125 34.945312 54.363281 34.992188 54.742188 35.441406 C 55.109375 35.878906 55.199219 36.527344 54.945312 36.902344 C 54.878906 37.007812 54.785156 37.085938 54.683594 37.125 C 56.003906 37.8125 57.316406 38.488281 58.617188 39.167969 C 58.621094 39.167969 58.625 39.171875 58.621094 39.179688 C 58.59375 39.246094 58.570312 39.308594 58.546875 39.371094 C 58.546875 39.371094 58.542969 39.375 58.539062 39.371094 C 57.253906 38.925781 56.054688 39.804688 55.078125 38.839844 C 54.972656 38.738281 54.8125 38.554688 54.691406 38.347656 C 54.679688 38.332031 54.683594 38.308594 54.699219 38.296875 C 54.710938 38.292969 54.734375 38.296875 54.75 38.308594 C 54.898438 38.453125 55.058594 38.632812 55.15625 38.707031 C 55.363281 38.855469 55.539062 38.953125 55.703125 39 C 56.394531 39.195312 56.714844 38.652344 57.171875 38.660156 C 56.207031 38.160156 55.238281 37.65625 54.265625 37.144531 C 54.074219 37.046875 53.945312 36.988281 53.78125 36.804688 C 53.414062 36.375 53.320312 35.722656 53.570312 35.34375 Z M 53.570312 35.34375 " fill-opacity="1" fill-rule="nonzero"/></g></g></g></g><g clip-path="url(#clip-40)"><g clip-path="url(#clip-41)"><g clip-path="url(#clip-42)"><g clip-path="url(#clip-43)"><path fill="rgb(0%, 0%, 0%)" d="M 76.734375 20.679688 C 76.15625 21.351562 75.230469 21.242188 74.695312 20.429688 C 74.164062 19.621094 74.183594 18.417969 74.75 17.734375 C 74.902344 17.550781 75.078125 17.417969 75.261719 17.335938 C 75.265625 17.335938 75.269531 17.339844 75.269531 17.332031 C 75.269531 17.328125 75.265625 17.3125 75.261719 17.308594 C 74.15625 16.605469 73.03125 15.890625 71.894531 15.167969 C 70.746094 14.4375 69.574219 13.699219 68.386719 12.953125 C 68.378906 12.949219 68.375 12.9375 68.378906 12.933594 C 68.4375 12.796875 68.492188 12.660156 68.546875 12.515625 C 68.550781 12.507812 68.5625 12.511719 68.570312 12.515625 C 69.867188 13.347656 71.144531 14.171875 72.402344 14.960938 C 73.644531 15.742188 74.867188 16.527344 76.070312 17.292969 C 76.390625 17.5 76.601562 17.625 76.835938 17.996094 C 77.355469 18.820312 77.304688 20.011719 76.734375 20.679688 Z M 76.734375 20.679688 " fill-opacity="1" fill-rule="nonzero"/></g></g></g></g><g clip-path="url(#clip-44)"><g clip-path="url(#clip-45)"><g clip-path="url(#clip-46)"><g clip-path="url(#clip-47)"><path fill="rgb(0%, 0%, 0%)" d="M 57.730469 33.773438 C 57.445312 34.160156 56.890625 34.097656 56.515625 33.632812 C 56.152344 33.171875 56.082031 32.480469 56.367188 32.078125 C 56.445312 31.972656 56.535156 31.898438 56.636719 31.855469 C 56.640625 31.851562 56.640625 31.847656 56.640625 31.84375 C 56.640625 31.839844 56.636719 31.839844 56.632812 31.839844 C 55.832031 31.386719 55.023438 30.933594 54.210938 30.46875 C 53.96875 30.328125 53.726562 30.191406 53.476562 30.050781 C 53.355469 29.980469 53.234375 29.910156 53.109375 29.839844 C 52.898438 29.722656 52.6875 29.605469 52.476562 29.488281 C 52.4375 29.46875 52.402344 29.449219 52.367188 29.425781 C 52.835938 27.996094 53.3125 26.527344 53.804688 25.011719 C 53.847656 25.03125 53.882812 25.054688 53.921875 25.074219 C 54.136719 25.207031 54.355469 25.332031 54.574219 25.457031 C 54.703125 25.527344 54.828125 25.605469 54.957031 25.679688 C 55.210938 25.828125 55.464844 25.976562 55.722656 26.113281 C 56.695312 26.683594 57.667969 27.246094 58.632812 27.804688 C 58.839844 27.921875 58.976562 27.988281 59.148438 28.210938 C 59.519531 28.710938 59.574219 29.449219 59.261719 29.878906 C 58.953125 30.308594 58.382812 30.242188 58 29.742188 C 57.621094 29.253906 57.566406 28.503906 57.863281 28.078125 C 57.941406 27.960938 58.039062 27.882812 58.144531 27.832031 C 58.152344 27.828125 58.152344 27.828125 58.152344 27.824219 C 58.152344 27.820312 58.148438 27.820312 58.144531 27.816406 C 57.3125 27.335938 56.476562 26.851562 55.632812 26.363281 C 55.171875 27.695312 54.730469 28.976562 54.292969 30.234375 C 55.230469 30.769531 56.167969 31.304688 57.101562 31.828125 C 57.300781 31.941406 57.4375 32 57.597656 32.214844 C 57.964844 32.6875 58.023438 33.371094 57.730469 33.773438 Z M 54.871094 25.929688 C 54.746094 25.851562 54.617188 25.78125 54.492188 25.703125 C 54.039062 27.054688 53.609375 28.34375 53.183594 29.609375 C 53.308594 29.679688 53.429688 29.753906 53.554688 29.820312 C 53.984375 28.554688 54.417969 27.269531 54.871094 25.929688 Z M 54.871094 25.929688 " fill-opacity="1" fill-rule="nonzero"/></g></g></g></g><g clip-path="url(#clip-48)"><g clip-path="url(#clip-49)"><g clip-path="url(#clip-50)"><g clip-path="url(#clip-51)"><path fill="rgb(0%, 0%, 0%)" d="M 50.882812 64.816406 C 50.75 64.867188 50.617188 64.730469 50.535156 64.554688 C 50.390625 64.242188 50.472656 63.914062 50.667969 63.714844 C 50.960938 63.414062 51.640625 63.585938 52.257812 64.054688 C 53.425781 64.949219 53.964844 66.078125 54.066406 67.011719 C 54.089844 67.015625 54.109375 67.023438 54.132812 67.027344 C 54.171875 66.082031 53.644531 64.371094 52.625 63.703125 C 51.769531 63.140625 50.976562 63.132812 50.550781 63.648438 C 50.164062 64.113281 50.320312 64.78125 50.910156 65.136719 C 51.285156 65.371094 51.703125 65.367188 51.847656 65.15625 C 51.945312 65.007812 52 64.800781 51.695312 64.59375 C 51.445312 64.421875 51.222656 64.386719 51.070312 64.53125 C 50.980469 64.613281 51.046875 64.765625 50.882812 64.816406 Z M 53.148438 63.488281 C 53.226562 63.386719 53.417969 63.386719 53.574219 63.488281 C 53.730469 63.582031 53.789062 63.746094 53.714844 63.84375 C 53.632812 63.945312 53.445312 63.941406 53.289062 63.84375 C 53.136719 63.742188 53.070312 63.585938 53.148438 63.488281 Z M 51.921875 62.71875 C 52.003906 62.613281 52.191406 62.617188 52.347656 62.71875 C 52.507812 62.8125 52.570312 62.976562 52.492188 63.074219 C 52.414062 63.175781 52.226562 63.175781 52.070312 63.074219 C 51.910156 62.976562 51.84375 62.820312 51.921875 62.71875 Z M 51.921875 62.71875 " fill-opacity="1" fill-rule="evenodd"/></g></g></g></g><g clip-path="url(#clip-52)"><g clip-path="url(#clip-53)"><g clip-path="url(#clip-54)"><g clip-path="url(#clip-55)"><path fill="rgb(0%, 0%, 0%)" d="M 66.433594 32.152344 C 65.910156 32.445312 65.296875 32.152344 65.082031 31.527344 C 64.871094 30.90625 65.109375 30.171875 65.625 29.875 C 65.761719 29.796875 65.902344 29.761719 66.042969 29.753906 C 66.050781 29.75 66.050781 29.746094 66.050781 29.742188 C 66.054688 29.742188 66.050781 29.734375 66.050781 29.734375 C 64.800781 28.378906 63.535156 27.003906 62.246094 25.605469 C 62.242188 25.601562 62.242188 25.59375 62.246094 25.589844 C 62.308594 25.523438 62.375 25.457031 62.4375 25.386719 C 62.441406 25.382812 62.449219 25.386719 62.449219 25.390625 C 63.855469 26.925781 65.238281 28.433594 66.597656 29.917969 C 66.777344 30.109375 66.90625 30.222656 66.996094 30.507812 C 67.195312 31.140625 66.949219 31.871094 66.433594 32.152344 Z M 66.433594 32.152344 " fill-opacity="1" fill-rule="nonzero"/></g></g></g></g><g clip-path="url(#clip-56)"><g clip-path="url(#clip-57)"><g clip-path="url(#clip-58)"><g clip-path="url(#clip-59)"><path fill="rgb(0%, 0%, 0%)" d="M 55.933594 51.664062 C 55.710938 51.824219 55.371094 51.726562 55.1875 51.445312 C 55.007812 51.167969 55.03125 50.824219 55.25 50.667969 C 55.308594 50.617188 55.371094 50.597656 55.4375 50.589844 C 55.4375 50.589844 55.441406 50.585938 55.441406 50.585938 C 55.441406 50.585938 55.441406 50.585938 55.4375 50.582031 C 54.664062 50.035156 53.878906 49.484375 53.09375 48.929688 C 53.089844 48.925781 53.089844 48.925781 53.09375 48.917969 C 53.117188 48.886719 53.140625 48.855469 53.164062 48.820312 C 53.164062 48.820312 53.167969 48.820312 53.167969 48.820312 C 54.027344 49.429688 54.882812 50.035156 55.730469 50.632812 C 55.84375 50.714844 55.921875 50.761719 56 50.882812 C 56.179688 51.160156 56.152344 51.503906 55.933594 51.664062 Z M 55.804688 51.566406 C 55.964844 51.4375 55.996094 51.113281 55.863281 50.890625 C 55.726562 50.675781 55.542969 50.625 55.382812 50.753906 C 55.21875 50.890625 55.191406 51.207031 55.328125 51.429688 C 55.457031 51.652344 55.640625 51.699219 55.804688 51.566406 Z M 55.804688 51.566406 " fill-opacity="1" fill-rule="nonzero"/></g></g></g></g><g clip-path="url(#clip-60)"><g clip-path="url(#clip-61)"><g clip-path="url(#clip-62)"><g clip-path="url(#clip-63)"><path fill="rgb(0%, 0%, 0%)" d="M 80.332031 12.898438 C 80.578125 12.429688 81.242188 12.128906 81.734375 12.332031 C 82.230469 12.53125 82.402344 13.097656 82.125 13.609375 C 82.285156 13.695312 82.71875 13.347656 82.921875 12.960938 C 83.554688 11.765625 82.785156 11.011719 81.714844 10.835938 C 81.105469 10.734375 80.496094 10.628906 79.886719 10.527344 C 79.8125 10.832031 79.671875 11.164062 79.515625 11.460938 C 78.609375 13.1875 76.574219 13.96875 74.585938 13.253906 C 73.632812 12.910156 72.898438 11.855469 72.566406 11.152344 C 72.441406 10.890625 71.886719 9.421875 71.792969 9.15625 C 70.902344 9.09375 69.585938 8.6875 68.558594 8.027344 C 67.671875 7.453125 67.097656 6.484375 67.289062 5.980469 C 67.367188 5.78125 67.992188 5.617188 68.695312 5.632812 C 69.347656 5.652344 70.089844 5.859375 70.464844 6.023438 C 72.027344 6.765625 72.863281 7.6875 73.3125 9.101562 C 73.898438 9.195312 74.480469 9.292969 75.0625 9.386719 C 75.101562 9.25 75.148438 9.113281 75.226562 8.964844 C 75.84375 7.726562 77.320312 7.253906 78.574219 7.765625 C 79.785156 8.257812 80.117188 9.210938 79.953125 10.195312 C 80.527344 10.285156 81.082031 10.390625 81.648438 10.476562 C 83.257812 10.726562 83.925781 11.773438 83.207031 13.148438 C 82.707031 14.0625 81.53125 14.796875 80.550781 14.058594 C 80.542969 14.058594 80.523438 14.050781 80.511719 14.046875 C 80.511719 14.046875 80.511719 14.046875 80.507812 14.042969 C 80.203125 13.773438 80.082031 13.367188 80.332031 12.898438 Z M 79.648438 10.488281 C 78.464844 10.296875 77.292969 10.105469 76.128906 9.890625 C 76.007812 10.535156 76.285156 11.136719 76.753906 11.328125 C 77.335938 11.566406 77.90625 11.457031 78.292969 11.070312 C 78.402344 10.957031 78.515625 11.03125 78.429688 11.148438 C 77.949219 11.8125 76.960938 12.097656 76.214844 11.785156 C 75.429688 11.460938 74.914062 10.601562 75.011719 9.695312 C 74.476562 9.621094 73.945312 9.519531 73.417969 9.421875 C 73.828125 10.824219 74.191406 12.292969 75.699219 12.941406 C 77.015625 13.507812 78.625 12.683594 79.300781 11.40625 C 79.46875 11.085938 79.574219 10.792969 79.648438 10.488281 Z M 76.238281 9.578125 C 77.386719 9.757812 78.53125 9.964844 79.703125 10.125 C 79.699219 9.460938 79.363281 8.863281 78.535156 8.539062 C 77.808594 8.25 76.664062 8.722656 76.28125 9.492188 C 76.269531 9.515625 76.25 9.558594 76.238281 9.578125 Z M 71.71875 8.773438 C 70.574219 8.71875 68.320312 7.378906 68.792969 6.375 C 69.15625 5.605469 70.226562 6.464844 70.496094 6.742188 C 71.058594 7.257812 71.613281 8.328125 71.71875 8.773438 Z M 71.71875 8.773438 " fill-opacity="1" fill-rule="evenodd"/></g></g></g></g><g clip-path="url(#clip-64)"><path fill="rgb(84.709167%, 5.879211%, 8.628845%)" d="M 41.082031 56.492188 C 39.140625 56.257812 38.761719 55.855469 38.417969 53.738281 C 38.023438 51.277344 37.558594 48.828125 37.414062 46.339844 C 37.335938 44.925781 37.277344 43.503906 37.480469 42.089844 C 37.59375 41.296875 37.960938 40.742188 38.769531 40.476562 C 40.105469 40.039062 41.488281 39.867188 42.867188 39.6875 C 45.550781 39.335938 48.234375 38.988281 50.9375 38.792969 C 53.226562 38.628906 55.515625 38.453125 57.804688 38.292969 C 60.996094 38.074219 64.183594 37.824219 67.378906 37.664062 C 69.425781 37.5625 71.480469 37.492188 73.53125 37.648438 C 74.175781 37.695312 74.621094 37.953125 74.910156 38.613281 C 75.765625 40.59375 76.175781 42.664062 76.453125 44.792969 C 76.792969 47.402344 76.667969 50.003906 76.652344 52.609375 C 76.648438 53.035156 76.507812 53.277344 76.148438 53.457031 C 75.726562 53.671875 75.28125 53.8125 74.816406 53.898438 C 73.648438 54.082031 72.480469 54.269531 71.3125 54.449219 C 68.730469 54.84375 66.132812 55.082031 63.539062 55.386719 C 60.832031 55.703125 58.125 55.976562 55.40625 56.160156 C 52.273438 56.371094 49.140625 56.59375 45.996094 56.589844 C 44.359375 56.585938 42.722656 56.527344 41.082031 56.492188 Z M 42.132812 66.464844 C 44.144531 66.675781 45.992188 66.3125 47.515625 64.867188 C 47.714844 64.675781 47.84375 64.789062 47.992188 64.921875 C 49.703125 66.445312 53.113281 66.476562 54.820312 64.855469 C 55.179688 64.515625 55.40625 64.59375 55.757812 64.867188 C 56.515625 65.460938 57.386719 65.632812 58.355469 65.503906 C 59.761719 65.316406 60.960938 64.691406 62.074219 63.859375 C 62.242188 63.734375 62.328125 63.667969 62.53125 63.835938 C 63.644531 64.734375 64.953125 64.8125 66.28125 64.613281 C 67.707031 64.398438 68.792969 63.550781 69.746094 62.527344 C 70.042969 62.210938 70.242188 62.125 70.609375 62.421875 C 71.164062 62.863281 71.800781 63.085938 72.539062 63.097656 C 73.617188 63.121094 74.5625 62.75 75.492188 62.289062 C 75.566406 62.121094 75.511719 61.960938 75.472656 61.796875 C 75.039062 61.96875 74.601562 62.144531 74.164062 62.3125 C 72.988281 62.765625 71.859375 62.792969 70.808594 61.957031 C 70.574219 61.769531 70.457031 61.621094 70.582031 61.300781 C 70.734375 60.910156 70.75 60.488281 70.605469 60.082031 C 70.480469 59.75 70.238281 59.523438 69.875 59.589844 C 69.542969 59.648438 69.394531 59.90625 69.378906 60.253906 C 69.363281 60.625 69.414062 60.984375 69.625 61.28125 C 69.847656 61.601562 69.75 61.828125 69.519531 62.066406 C 68.867188 62.753906 68.160156 63.390625 67.285156 63.773438 C 65.84375 64.40625 64.410156 64.410156 63.015625 63.582031 C 62.734375 63.414062 62.640625 63.25 62.867188 62.957031 C 63.148438 62.597656 63.207031 62.171875 63.183594 61.722656 C 63.152344 61.179688 62.839844 60.804688 62.390625 60.804688 C 61.949219 60.800781 61.605469 61.1875 61.589844 61.726562 C 61.578125 62.109375 61.675781 62.484375 61.835938 62.820312 C 62.007812 63.175781 61.898438 63.363281 61.617188 63.574219 C 60.699219 64.261719 59.683594 64.761719 58.5625 64.964844 C 57.683594 65.125 56.796875 65.070312 56.035156 64.46875 C 55.746094 64.242188 55.582031 64.035156 55.855469 63.683594 C 56.046875 63.4375 56.101562 63.121094 56.117188 62.828125 C 56.132812 62.445312 56.0625 62.042969 55.59375 61.941406 C 55.113281 61.839844 54.796875 62.058594 54.636719 62.523438 C 54.484375 62.96875 54.625 63.386719 54.804688 63.78125 C 54.914062 64.015625 54.867188 64.132812 54.6875 64.304688 C 53.011719 65.894531 50.175781 66.023438 48.351562 64.578125 C 48.09375 64.378906 47.953125 64.183594 48.097656 63.8125 C 48.238281 63.449219 48.316406 63.046875 48.171875 62.648438 C 48.058594 62.324219 47.871094 62.039062 47.496094 62.082031 C 47.117188 62.125 46.929688 62.421875 46.882812 62.792969 C 46.84375 63.078125 46.902344 63.355469 47.007812 63.625 C 47.339844 64.472656 47.335938 64.488281 46.585938 64.988281 C 46.367188 65.132812 46.132812 65.257812 45.90625 65.398438 C 44.730469 66.128906 43.425781 66.058594 42.125 66.015625 C 42.082031 66.167969 42.085938 66.316406 42.132812 66.464844 Z M 62.140625 61.625 C 62.148438 61.464844 62.195312 61.308594 62.382812 61.308594 C 62.546875 61.308594 62.65625 61.441406 62.6875 61.589844 C 62.78125 61.992188 62.6875 62.363281 62.378906 62.738281 C 62.128906 62.359375 62.121094 61.992188 62.140625 61.625 Z M 55.144531 62.667969 C 55.152344 62.527344 55.230469 62.410156 55.386719 62.421875 C 55.550781 62.433594 55.582031 62.570312 55.589844 62.707031 C 55.613281 63.035156 55.546875 63.332031 55.300781 63.578125 C 55.0625 63.300781 55.128906 62.976562 55.144531 62.667969 Z M 70.066406 61.03125 C 69.910156 60.773438 69.773438 60.511719 69.898438 60.199219 C 69.910156 60.175781 70.015625 60.160156 70.039062 60.179688 C 70.308594 60.441406 70.140625 60.746094 70.1875 61.050781 C 70.097656 61.035156 70.070312 61.039062 70.066406 61.03125 Z M 47.441406 62.710938 C 47.460938 62.679688 47.5625 62.648438 47.574219 62.664062 C 47.792969 62.941406 47.648438 63.25 47.667969 63.644531 C 47.386719 63.296875 47.246094 63.03125 47.441406 62.710938 Z M 75.492188 62.289062 C 75.980469 67.039062 75.917969 71.804688 75.8125 76.566406 C 75.757812 78.921875 75.574219 81.265625 74.898438 83.566406 C 74.066406 86.414062 72.523438 88.808594 70.605469 90.996094 C 67.300781 94.769531 63.671875 98.207031 59.988281 101.59375 C 57.820312 103.582031 55.71875 105.652344 53.335938 107.394531 C 50.625 109.378906 47.746094 111.078125 44.378906 111.613281 C 38.871094 112.488281 33.90625 111.308594 29.972656 107.128906 C 27.503906 104.511719 26.636719 101.28125 27.042969 97.707031 C 27.53125 93.382812 29.652344 89.886719 32.570312 86.804688 C 34.105469 85.1875 35.800781 83.730469 37.222656 82.011719 C 39.300781 79.5 40.996094 76.785156 41.625 73.515625 C 42.078125 71.183594 42.179688 68.828125 42.132812 66.464844 C 44.144531 66.675781 45.992188 66.3125 47.515625 64.867188 C 47.714844 64.675781 47.84375 64.789062 47.992188 64.921875 C 49.703125 66.445312 53.113281 66.476562 54.820312 64.855469 C 55.179688 64.515625 55.40625 64.59375 55.757812 64.867188 C 56.515625 65.460938 57.386719 65.632812 58.355469 65.503906 C 59.761719 65.316406 60.960938 64.691406 62.074219 63.859375 C 62.242188 63.734375 62.328125 63.667969 62.53125 63.835938 C 63.644531 64.734375 64.953125 64.8125 66.28125 64.613281 C 67.707031 64.398438 68.792969 63.550781 69.746094 62.527344 C 70.042969 62.210938 70.242188 62.125 70.609375 62.421875 C 71.164062 62.863281 71.800781 63.085938 72.539062 63.097656 C 73.617188 63.121094 74.5625 62.75 75.492188 62.289062 Z M 41.8125 63.21875 C 41.914062 64.152344 42.023438 65.085938 42.125 66.015625 C 43.425781 66.058594 44.730469 66.128906 45.90625 65.398438 C 46.132812 65.257812 46.367188 65.132812 46.585938 64.988281 C 47.335938 64.488281 47.339844 64.472656 47.007812 63.625 C 46.902344 63.355469 46.84375 63.078125 46.882812 62.792969 C 46.929688 62.421875 47.117188 62.125 47.496094 62.082031 C 47.871094 62.039062 48.058594 62.324219 48.171875 62.648438 C 48.316406 63.046875 48.238281 63.449219 48.097656 63.8125 C 47.953125 64.183594 48.09375 64.378906 48.351562 64.578125 C 50.175781 66.023438 53.011719 65.894531 54.6875 64.304688 C 54.867188 64.132812 54.914062 64.015625 54.804688 63.78125 C 54.625 63.386719 54.484375 62.96875 54.636719 62.523438 C 54.796875 62.058594 55.113281 61.839844 55.59375 61.941406 C 56.0625 62.042969 56.132812 62.445312 56.117188 62.828125 C 56.101562 63.121094 56.046875 63.4375 55.855469 63.683594 C 55.582031 64.035156 55.746094 64.242188 56.035156 64.46875 C 56.796875 65.070312 57.683594 65.125 58.5625 64.964844 C 59.683594 64.761719 60.699219 64.261719 61.617188 63.574219 C 61.898438 63.363281 62.007812 63.175781 61.835938 62.820312 C 61.675781 62.484375 61.578125 62.109375 61.589844 61.726562 C 61.605469 61.1875 61.949219 60.800781 62.390625 60.804688 C 62.839844 60.804688 63.152344 61.179688 63.183594 61.722656 C 63.207031 62.171875 63.148438 62.597656 62.867188 62.957031 C 62.640625 63.25 62.734375 63.414062 63.015625 63.582031 C 64.410156 64.410156 65.84375 64.40625 67.285156 63.773438 C 68.160156 63.390625 68.867188 62.753906 69.519531 62.066406 C 69.75 61.828125 69.847656 61.601562 69.625 61.28125 C 69.414062 60.984375 69.363281 60.625 69.378906 60.253906 C 69.394531 59.90625 69.542969 59.648438 69.875 59.589844 C 70.238281 59.523438 70.480469 59.75 70.605469 60.082031 C 70.75 60.488281 70.734375 60.910156 70.582031 61.300781 C 70.457031 61.621094 70.574219 61.769531 70.808594 61.957031 C 71.859375 62.792969 72.988281 62.765625 74.164062 62.3125 C 74.601562 62.144531 75.039062 61.96875 75.472656 61.796875 C 75.476562 61.722656 75.488281 61.644531 75.480469 61.570312 C 75.261719 59.011719 75.039062 56.457031 74.816406 53.898438 C 73.648438 54.082031 72.480469 54.269531 71.3125 54.449219 C 68.730469 54.84375 66.128906 55.082031 63.539062 55.386719 C 60.832031 55.703125 58.125 55.976562 55.40625 56.160156 C 52.273438 56.371094 49.140625 56.59375 45.996094 56.589844 C 44.359375 56.585938 42.722656 56.527344 41.082031 56.492188 C 41.328125 58.734375 41.570312 60.976562 41.8125 63.21875 Z M 62.6875 61.589844 C 62.65625 61.441406 62.546875 61.308594 62.382812 61.308594 C 62.195312 61.308594 62.148438 61.464844 62.140625 61.625 C 62.121094 61.992188 62.128906 62.359375 62.378906 62.738281 C 62.6875 62.363281 62.78125 61.992188 62.6875 61.589844 Z M 55.589844 62.707031 C 55.582031 62.570312 55.550781 62.433594 55.386719 62.421875 C 55.230469 62.410156 55.152344 62.527344 55.144531 62.667969 C 55.128906 62.976562 55.0625 63.300781 55.300781 63.578125 C 55.546875 63.332031 55.613281 63.035156 55.589844 62.707031 Z M 70.039062 60.179688 C 70.015625 60.160156 69.910156 60.175781 69.898438 60.199219 C 69.773438 60.511719 69.910156 60.773438 70.066406 61.03125 C 70.070312 61.039062 70.097656 61.035156 70.1875 61.050781 C 70.140625 60.746094 70.308594 60.441406 70.039062 60.179688 Z M 47.574219 62.664062 C 47.5625 62.648438 47.460938 62.679688 47.441406 62.710938 C 47.246094 63.03125 47.386719 63.296875 47.667969 63.644531 C 47.648438 63.25 47.792969 62.941406 47.574219 62.664062 Z M 47.574219 62.664062 " fill-opacity="1" fill-rule="nonzero"/></g><g clip-path="url(#clip-65)"><path fill="rgb(52.549744%, 76.858521%, 39.219666%)" d="M 41.082031 56.492188 C 39.140625 56.257812 38.761719 55.855469 38.417969 53.738281 C 38.023438 51.277344 37.558594 48.828125 37.414062 46.339844 C 37.335938 44.925781 37.277344 43.503906 37.480469 42.089844 C 37.59375 41.296875 37.960938 40.742188 38.769531 40.476562 C 40.105469 40.039062 41.488281 39.867188 42.867188 39.6875 C 45.550781 39.335938 48.234375 38.988281 50.9375 38.792969 C 53.226562 38.628906 55.515625 38.453125 57.804688 38.292969 C 60.996094 38.074219 64.183594 37.824219 67.378906 37.664062 C 69.425781 37.5625 71.480469 37.492188 73.53125 37.648438 C 74.175781 37.695312 74.621094 37.953125 74.910156 38.613281 C 75.765625 40.59375 76.175781 42.664062 76.453125 44.792969 C 76.792969 47.402344 76.667969 50.003906 76.652344 52.609375 C 76.648438 53.035156 76.507812 53.277344 76.148438 53.457031 C 75.726562 53.671875 75.28125 53.8125 74.816406 53.898438 C 73.648438 54.082031 72.480469 54.269531 71.3125 54.449219 C 68.730469 54.84375 66.132812 55.082031 63.539062 55.386719 C 60.832031 55.703125 58.125 55.976562 55.40625 56.160156 C 52.273438 56.371094 49.140625 56.59375 45.996094 56.589844 C 44.359375 56.585938 42.722656 56.527344 41.082031 56.492188 Z M 42.132812 66.464844 C 44.144531 66.675781 45.992188 66.3125 47.515625 64.867188 C 47.714844 64.675781 47.84375 64.789062 47.992188 64.921875 C 49.703125 66.445312 53.113281 66.476562 54.820312 64.855469 C 55.179688 64.515625 55.40625 64.59375 55.757812 64.867188 C 56.515625 65.460938 57.386719 65.632812 58.355469 65.503906 C 59.761719 65.316406 60.960938 64.691406 62.074219 63.859375 C 62.242188 63.734375 62.328125 63.667969 62.53125 63.835938 C 63.644531 64.734375 64.953125 64.8125 66.28125 64.613281 C 67.707031 64.398438 68.792969 63.550781 69.746094 62.527344 C 70.042969 62.210938 70.242188 62.125 70.609375 62.421875 C 71.164062 62.863281 71.800781 63.085938 72.539062 63.097656 C 73.617188 63.121094 74.5625 62.75 75.492188 62.289062 C 75.566406 62.121094 75.511719 61.960938 75.472656 61.796875 C 75.039062 61.96875 74.601562 62.144531 74.164062 62.3125 C 72.988281 62.765625 71.859375 62.792969 70.808594 61.957031 C 70.574219 61.769531 70.457031 61.621094 70.582031 61.300781 C 70.734375 60.910156 70.75 60.488281 70.605469 60.082031 C 70.480469 59.75 70.238281 59.523438 69.875 59.589844 C 69.542969 59.648438 69.394531 59.90625 69.378906 60.253906 C 69.363281 60.625 69.414062 60.984375 69.625 61.28125 C 69.847656 61.601562 69.75 61.828125 69.519531 62.066406 C 68.867188 62.753906 68.160156 63.390625 67.285156 63.773438 C 65.84375 64.40625 64.410156 64.410156 63.015625 63.582031 C 62.734375 63.414062 62.640625 63.25 62.867188 62.957031 C 63.148438 62.597656 63.207031 62.171875 63.183594 61.722656 C 63.152344 61.179688 62.839844 60.804688 62.390625 60.804688 C 61.949219 60.800781 61.605469 61.1875 61.589844 61.726562 C 61.578125 62.109375 61.675781 62.484375 61.835938 62.820312 C 62.007812 63.175781 61.898438 63.363281 61.617188 63.574219 C 60.699219 64.261719 59.683594 64.761719 58.5625 64.964844 C 57.683594 65.125 56.796875 65.070312 56.035156 64.46875 C 55.746094 64.242188 55.582031 64.035156 55.855469 63.683594 C 56.046875 63.4375 56.101562 63.121094 56.117188 62.828125 C 56.132812 62.445312 56.0625 62.042969 55.59375 61.941406 C 55.113281 61.839844 54.796875 62.058594 54.636719 62.523438 C 54.484375 62.96875 54.625 63.386719 54.804688 63.78125 C 54.914062 64.015625 54.867188 64.132812 54.6875 64.304688 C 53.011719 65.894531 50.175781 66.023438 48.351562 64.578125 C 48.09375 64.378906 47.953125 64.183594 48.097656 63.8125 C 48.238281 63.449219 48.316406 63.046875 48.171875 62.648438 C 48.058594 62.324219 47.871094 62.039062 47.496094 62.082031 C 47.117188 62.125 46.929688 62.421875 46.882812 62.792969 C 46.84375 63.078125 46.902344 63.355469 47.007812 63.625 C 47.339844 64.472656 47.335938 64.488281 46.585938 64.988281 C 46.367188 65.132812 46.132812 65.257812 45.90625 65.398438 C 44.730469 66.128906 43.425781 66.058594 42.125 66.015625 C 42.082031 66.167969 42.085938 66.316406 42.132812 66.464844 Z M 62.140625 61.625 C 62.148438 61.464844 62.195312 61.308594 62.382812 61.308594 C 62.546875 61.308594 62.65625 61.441406 62.6875 61.589844 C 62.78125 61.992188 62.6875 62.363281 62.378906 62.738281 C 62.128906 62.359375 62.121094 61.992188 62.140625 61.625 Z M 55.144531 62.667969 C 55.152344 62.527344 55.230469 62.410156 55.386719 62.421875 C 55.550781 62.433594 55.582031 62.570312 55.589844 62.707031 C 55.613281 63.035156 55.546875 63.332031 55.300781 63.578125 C 55.0625 63.300781 55.128906 62.976562 55.144531 62.667969 Z M 70.066406 61.03125 C 69.910156 60.773438 69.773438 60.511719 69.898438 60.199219 C 69.910156 60.175781 70.015625 60.160156 70.039062 60.179688 C 70.308594 60.441406 70.140625 60.746094 70.1875 61.050781 C 70.097656 61.035156 70.070312 61.039062 70.066406 61.03125 Z M 47.441406 62.710938 C 47.460938 62.679688 47.5625 62.648438 47.574219 62.664062 C 47.792969 62.941406 47.648438 63.25 47.667969 63.644531 C 47.386719 63.296875 47.246094 63.03125 47.441406 62.710938 Z M 47.441406 62.710938 " fill-opacity="1" fill-rule="nonzero"/></g><g clip-path="url(#clip-66)"><path fill="rgb(84.709167%, 5.879211%, 8.628845%)" d="M 75.492188 62.289062 C 75.980469 67.039062 75.917969 71.804688 75.8125 76.566406 C 75.757812 78.921875 75.574219 81.265625 74.898438 83.566406 C 74.066406 86.414062 72.523438 88.808594 70.605469 90.996094 C 67.300781 94.769531 63.671875 98.207031 59.988281 101.59375 C 57.820312 103.582031 55.71875 105.652344 53.335938 107.394531 C 50.625 109.378906 47.746094 111.078125 44.378906 111.613281 C 38.871094 112.488281 33.90625 111.308594 29.972656 107.128906 C 27.503906 104.511719 26.636719 101.28125 27.042969 97.707031 C 27.53125 93.382812 29.652344 89.886719 32.570312 86.804688 C 34.105469 85.1875 35.800781 83.730469 37.222656 82.011719 C 39.300781 79.5 40.996094 76.785156 41.625 73.515625 C 42.078125 71.183594 42.179688 68.828125 42.132812 66.464844 C 44.144531 66.675781 45.992188 66.3125 47.515625 64.867188 C 47.714844 64.675781 47.84375 64.789062 47.992188 64.921875 C 49.703125 66.445312 53.113281 66.476562 54.820312 64.855469 C 55.179688 64.515625 55.40625 64.59375 55.757812 64.867188 C 56.515625 65.460938 57.386719 65.632812 58.355469 65.503906 C 59.761719 65.316406 60.960938 64.691406 62.074219 63.859375 C 62.242188 63.734375 62.328125 63.667969 62.53125 63.835938 C 63.644531 64.734375 64.953125 64.8125 66.28125 64.613281 C 67.707031 64.398438 68.792969 63.550781 69.746094 62.527344 C 70.042969 62.210938 70.242188 62.125 70.609375 62.421875 C 71.164062 62.863281 71.800781 63.085938 72.539062 63.097656 C 73.617188 63.121094 74.5625 62.75 75.492188 62.289062 Z M 41.8125 63.21875 C 41.914062 64.152344 42.023438 65.085938 42.125 66.015625 C 43.425781 66.058594 44.730469 66.128906 45.90625 65.398438 C 46.132812 65.257812 46.367188 65.132812 46.585938 64.988281 C 47.335938 64.488281 47.339844 64.472656 47.007812 63.625 C 46.902344 63.355469 46.84375 63.078125 46.882812 62.792969 C 46.929688 62.421875 47.117188 62.125 47.496094 62.082031 C 47.871094 62.039062 48.058594 62.324219 48.171875 62.648438 C 48.316406 63.046875 48.238281 63.449219 48.097656 63.8125 C 47.953125 64.183594 48.09375 64.378906 48.351562 64.578125 C 50.175781 66.023438 53.011719 65.894531 54.6875 64.304688 C 54.867188 64.132812 54.914062 64.015625 54.804688 63.78125 C 54.625 63.386719 54.484375 62.96875 54.636719 62.523438 C 54.796875 62.058594 55.113281 61.839844 55.59375 61.941406 C 56.0625 62.042969 56.132812 62.445312 56.117188 62.828125 C 56.101562 63.121094 56.046875 63.4375 55.855469 63.683594 C 55.582031 64.035156 55.746094 64.242188 56.035156 64.46875 C 56.796875 65.070312 57.683594 65.125 58.5625 64.964844 C 59.683594 64.761719 60.699219 64.261719 61.617188 63.574219 C 61.898438 63.363281 62.007812 63.175781 61.835938 62.820312 C 61.675781 62.484375 61.578125 62.109375 61.589844 61.726562 C 61.605469 61.1875 61.949219 60.800781 62.390625 60.804688 C 62.839844 60.804688 63.152344 61.179688 63.183594 61.722656 C 63.207031 62.171875 63.148438 62.597656 62.867188 62.957031 C 62.640625 63.25 62.734375 63.414062 63.015625 63.582031 C 64.410156 64.410156 65.84375 64.40625 67.285156 63.773438 C 68.160156 63.390625 68.867188 62.753906 69.519531 62.066406 C 69.75 61.828125 69.847656 61.601562 69.625 61.28125 C 69.414062 60.984375 69.363281 60.625 69.378906 60.253906 C 69.394531 59.90625 69.542969 59.648438 69.875 59.589844 C 70.238281 59.523438 70.480469 59.75 70.605469 60.082031 C 70.75 60.488281 70.734375 60.910156 70.582031 61.300781 C 70.457031 61.621094 70.574219 61.769531 70.808594 61.957031 C 71.859375 62.792969 72.988281 62.765625 74.164062 62.3125 C 74.601562 62.144531 75.039062 61.96875 75.472656 61.796875 C 75.476562 61.722656 75.488281 61.644531 75.480469 61.570312 C 75.261719 59.011719 75.039062 56.457031 74.816406 53.898438 C 73.648438 54.082031 72.480469 54.269531 71.3125 54.449219 C 68.730469 54.84375 66.128906 55.082031 63.539062 55.386719 C 60.832031 55.703125 58.125 55.976562 55.40625 56.160156 C 52.273438 56.371094 49.140625 56.59375 45.996094 56.589844 C 44.359375 56.585938 42.722656 56.527344 41.082031 56.492188 C 41.328125 58.734375 41.570312 60.976562 41.8125 63.21875 Z M 62.6875 61.589844 C 62.65625 61.441406 62.546875 61.308594 62.382812 61.308594 C 62.195312 61.308594 62.148438 61.464844 62.140625 61.625 C 62.121094 61.992188 62.128906 62.359375 62.378906 62.738281 C 62.6875 62.363281 62.78125 61.992188 62.6875 61.589844 Z M 55.589844 62.707031 C 55.582031 62.570312 55.550781 62.433594 55.386719 62.421875 C 55.230469 62.410156 55.152344 62.527344 55.144531 62.667969 C 55.128906 62.976562 55.0625 63.300781 55.300781 63.578125 C 55.546875 63.332031 55.613281 63.035156 55.589844 62.707031 Z M 70.039062 60.179688 C 70.015625 60.160156 69.910156 60.175781 69.898438 60.199219 C 69.773438 60.511719 69.910156 60.773438 70.066406 61.03125 C 70.070312 61.039062 70.097656 61.035156 70.1875 61.050781 C 70.140625 60.746094 70.308594 60.441406 70.039062 60.179688 Z M 47.574219 62.664062 C 47.5625 62.648438 47.460938 62.679688 47.441406 62.710938 C 47.246094 63.03125 47.386719 63.296875 47.667969 63.644531 C 47.648438 63.25 47.792969 62.941406 47.574219 62.664062 Z M 47.574219 62.664062 " fill-opacity="1" fill-rule="nonzero"/></g></svg>