<?xml version="1.0" encoding="UTF-8"?><svg xmlns="http://www.w3.org/2000/svg" xmlns:xlink="http://www.w3.org/1999/xlink" contentScriptType="text/ecmascript" width="112.5" zoomAndPan="magnify" contentStyleType="text/css" viewBox="0 0 112.5 112.499997" height="112.499997" preserveAspectRatio="xMidYMid meet" version="1.0"><defs><clipPath id="clip-0"><path d="M 20.5 39.246094 L 112.003906 39.246094 L 112.003906 99.246094 L 20.5 99.246094 Z M 20.5 39.246094 " clip-rule="nonzero"/></clipPath><clipPath id="clip-1"><path d="M 32 81 L 101 81 L 101 99.246094 L 32 99.246094 Z M 32 81 " clip-rule="nonzero"/></clipPath><clipPath id="clip-2"><path d="M 0.0585938 50 L 12 50 L 12 59 L 0.0585938 59 Z M 0.0585938 50 " clip-rule="nonzero"/></clipPath><clipPath id="clip-3"><path d="M 0.0585938 55 L 13 55 L 13 64 L 0.0585938 64 Z M 0.0585938 55 " clip-rule="nonzero"/></clipPath></defs><g clip-path="url(#clip-0)"><path fill="rgb(26.269531%, 26.269531%, 30.979919%)" d="M 112.734375 47.472656 L 112.734375 90.988281 C 112.734375 95.523438 109.046875 99.210938 104.511719 99.210938 L 28.742188 99.210938 C 24.207031 99.246094 20.519531 95.558594 20.519531 90.988281 L 20.519531 47.472656 C 20.519531 42.933594 24.207031 39.246094 28.742188 39.246094 L 104.472656 39.246094 C 109.046875 39.246094 112.734375 42.933594 112.734375 47.472656 Z M 112.734375 47.472656 " fill-opacity="1" fill-rule="nonzero"/></g><path fill="rgb(0%, 0%, 0%)" d="M 105.578125 51.234375 L 105.578125 74.796875 C 105.578125 75.71875 105.320312 76.566406 104.878906 77.304688 C 104.65625 77.675781 104.398438 78.007812 104.066406 78.339844 C 103.21875 79.148438 102.039062 79.664062 100.746094 79.664062 L 32.507812 79.664062 C 31.214844 79.664062 30.035156 79.148438 29.1875 78.339844 C 28.855469 78.042969 28.597656 77.710938 28.375 77.304688 C 27.933594 76.566406 27.675781 75.71875 27.675781 74.796875 L 27.675781 51.234375 C 27.675781 50.3125 27.933594 49.460938 28.375 48.761719 C 29.222656 47.359375 30.773438 46.402344 32.507812 46.402344 L 100.746094 46.402344 C 102.519531 46.402344 104.03125 47.324219 104.878906 48.761719 C 105.320312 49.460938 105.578125 50.3125 105.578125 51.234375 Z M 105.578125 51.234375 " fill-opacity="0.149" fill-rule="nonzero"/><g clip-path="url(#clip-1)"><path fill="rgb(0%, 0%, 0%)" d="M 100.488281 99.246094 L 32.765625 99.246094 L 34.535156 86.929688 C 34.535156 84.164062 36.785156 81.953125 39.515625 81.953125 L 93.738281 81.953125 C 96.503906 81.953125 98.71875 84.203125 98.71875 86.929688 Z M 100.488281 99.246094 " fill-opacity="0.149" fill-rule="nonzero"/></g><path fill="rgb(0%, 0%, 0%)" d="M 28.523438 92.71875 C 28.523438 93.003906 28.46875 93.277344 28.359375 93.539062 C 28.25 93.800781 28.097656 94.03125 27.894531 94.234375 C 27.695312 94.433594 27.464844 94.585938 27.203125 94.695312 C 26.941406 94.804688 26.667969 94.859375 26.382812 94.859375 C 26.097656 94.859375 25.828125 94.804688 25.5625 94.695312 C 25.300781 94.585938 25.070312 94.433594 24.871094 94.234375 C 24.667969 94.03125 24.515625 93.800781 24.40625 93.539062 C 24.296875 93.277344 24.242188 93.003906 24.242188 92.71875 C 24.242188 92.4375 24.296875 92.164062 24.40625 91.902344 C 24.515625 91.640625 24.667969 91.410156 24.871094 91.207031 C 25.070312 91.007812 25.300781 90.851562 25.5625 90.746094 C 25.828125 90.636719 26.097656 90.582031 26.382812 90.582031 C 26.667969 90.582031 26.941406 90.636719 27.203125 90.746094 C 27.464844 90.851562 27.695312 91.007812 27.894531 91.207031 C 28.097656 91.410156 28.25 91.640625 28.359375 91.902344 C 28.46875 92.164062 28.523438 92.4375 28.523438 92.71875 Z M 28.523438 92.71875 " fill-opacity="0.149" fill-rule="nonzero"/><path fill="rgb(0%, 0%, 0%)" d="M 68.765625 86.378906 C 68.765625 86.660156 68.710938 86.933594 68.601562 87.195312 C 68.496094 87.457031 68.339844 87.6875 68.140625 87.890625 C 67.9375 88.089844 67.707031 88.246094 67.445312 88.351562 C 67.183594 88.460938 66.910156 88.515625 66.625 88.515625 C 66.34375 88.515625 66.070312 88.460938 65.808594 88.351562 C 65.546875 88.246094 65.316406 88.089844 65.113281 87.890625 C 64.914062 87.6875 64.757812 87.457031 64.648438 87.195312 C 64.542969 86.933594 64.488281 86.660156 64.488281 86.378906 C 64.488281 86.09375 64.542969 85.820312 64.648438 85.558594 C 64.757812 85.296875 64.914062 85.066406 65.113281 84.863281 C 65.316406 84.664062 65.546875 84.507812 65.808594 84.402344 C 66.070312 84.292969 66.34375 84.238281 66.625 84.238281 C 66.910156 84.238281 67.183594 84.292969 67.445312 84.402344 C 67.707031 84.507812 67.9375 84.664062 68.140625 84.863281 C 68.339844 85.066406 68.496094 85.296875 68.601562 85.558594 C 68.710938 85.820312 68.765625 86.09375 68.765625 86.378906 Z M 68.765625 86.378906 " fill-opacity="0.149" fill-rule="nonzero"/><path fill="rgb(0%, 0%, 0%)" d="M 109.195312 92.71875 C 109.195312 93.003906 109.140625 93.277344 109.03125 93.539062 C 108.921875 93.800781 108.769531 94.03125 108.566406 94.234375 C 108.367188 94.433594 108.136719 94.585938 107.875 94.695312 C 107.613281 94.804688 107.339844 94.859375 107.054688 94.859375 C 106.769531 94.859375 106.5 94.804688 106.234375 94.695312 C 105.972656 94.585938 105.742188 94.433594 105.542969 94.234375 C 105.339844 94.03125 105.1875 93.800781 105.078125 93.539062 C 104.96875 93.277344 104.914062 93.003906 104.914062 92.71875 C 104.914062 92.4375 104.96875 92.164062 105.078125 91.902344 C 105.1875 91.640625 105.339844 91.410156 105.542969 91.207031 C 105.742188 91.007812 105.972656 90.851562 106.234375 90.746094 C 106.5 90.636719 106.769531 90.582031 107.054688 90.582031 C 107.339844 90.582031 107.613281 90.636719 107.875 90.746094 C 108.136719 90.851562 108.367188 91.007812 108.566406 91.207031 C 108.769531 91.410156 108.921875 91.640625 109.03125 91.902344 C 109.140625 92.164062 109.195312 92.4375 109.195312 92.71875 Z M 109.195312 92.71875 " fill-opacity="0.149" fill-rule="nonzero"/><path fill="rgb(0%, 0%, 0%)" d="M 28.523438 44.261719 C 28.523438 44.546875 28.46875 44.820312 28.359375 45.082031 C 28.25 45.34375 28.097656 45.574219 27.894531 45.777344 C 27.695312 45.976562 27.464844 46.128906 27.203125 46.238281 C 26.941406 46.347656 26.667969 46.402344 26.382812 46.402344 C 26.097656 46.402344 25.828125 46.347656 25.5625 46.238281 C 25.300781 46.128906 25.070312 45.976562 24.871094 45.777344 C 24.667969 45.574219 24.515625 45.34375 24.40625 45.082031 C 24.296875 44.820312 24.242188 44.546875 24.242188 44.261719 C 24.242188 43.980469 24.296875 43.707031 24.40625 43.445312 C 24.515625 43.183594 24.667969 42.949219 24.871094 42.75 C 25.070312 42.550781 25.300781 42.394531 25.5625 42.285156 C 25.828125 42.179688 26.097656 42.125 26.382812 42.125 C 26.667969 42.125 26.941406 42.179688 27.203125 42.285156 C 27.464844 42.394531 27.695312 42.550781 27.894531 42.75 C 28.097656 42.949219 28.25 43.183594 28.359375 43.445312 C 28.46875 43.707031 28.523438 43.980469 28.523438 44.261719 Z M 28.523438 44.261719 " fill-opacity="0.149" fill-rule="nonzero"/><path fill="rgb(0%, 0%, 0%)" d="M 109.195312 44.261719 C 109.195312 44.546875 109.140625 44.820312 109.03125 45.082031 C 108.921875 45.34375 108.769531 45.574219 108.566406 45.777344 C 108.367188 45.976562 108.136719 46.128906 107.875 46.238281 C 107.613281 46.347656 107.339844 46.402344 107.054688 46.402344 C 106.769531 46.402344 106.5 46.347656 106.234375 46.238281 C 105.972656 46.128906 105.742188 45.976562 105.542969 45.777344 C 105.339844 45.574219 105.1875 45.34375 105.078125 45.082031 C 104.96875 44.820312 104.914062 44.546875 104.914062 44.261719 C 104.914062 43.980469 104.96875 43.707031 105.078125 43.445312 C 105.1875 43.183594 105.339844 42.949219 105.542969 42.75 C 105.742188 42.550781 105.972656 42.394531 106.234375 42.285156 C 106.5 42.179688 106.769531 42.125 107.054688 42.125 C 107.339844 42.125 107.613281 42.179688 107.875 42.285156 C 108.136719 42.394531 108.367188 42.550781 108.566406 42.75 C 108.769531 42.949219 108.921875 43.183594 109.03125 43.445312 C 109.140625 43.707031 109.195312 43.980469 109.195312 44.261719 Z M 109.195312 44.261719 " fill-opacity="0.149" fill-rule="nonzero"/><path fill="rgb(100%, 100%, 100%)" d="M 44.9375 92.71875 C 44.9375 93.003906 44.882812 93.277344 44.773438 93.539062 C 44.664062 93.800781 44.511719 94.03125 44.308594 94.234375 C 44.109375 94.433594 43.878906 94.585938 43.617188 94.695312 C 43.355469 94.804688 43.082031 94.859375 42.796875 94.859375 C 42.515625 94.859375 42.242188 94.804688 41.980469 94.695312 C 41.71875 94.585938 41.484375 94.433594 41.285156 94.234375 C 41.085938 94.03125 40.929688 93.800781 40.820312 93.539062 C 40.710938 93.277344 40.65625 93.003906 40.65625 92.71875 C 40.65625 92.4375 40.710938 92.164062 40.820312 91.902344 C 40.929688 91.640625 41.085938 91.410156 41.285156 91.207031 C 41.484375 91.007812 41.71875 90.851562 41.980469 90.746094 C 42.242188 90.636719 42.515625 90.582031 42.796875 90.582031 C 43.082031 90.582031 43.355469 90.636719 43.617188 90.746094 C 43.878906 90.851562 44.109375 91.007812 44.308594 91.207031 C 44.511719 91.410156 44.664062 91.640625 44.773438 91.902344 C 44.882812 92.164062 44.9375 92.4375 44.9375 92.71875 Z M 44.9375 92.71875 " fill-opacity="1" fill-rule="nonzero"/><path fill="rgb(100%, 100%, 100%)" d="M 53.164062 89.546875 C 53.164062 89.832031 53.109375 90.105469 53 90.367188 C 52.890625 90.628906 52.738281 90.859375 52.535156 91.0625 C 52.335938 91.261719 52.105469 91.417969 51.84375 91.523438 C 51.582031 91.632812 51.308594 91.6875 51.023438 91.6875 C 50.738281 91.6875 50.46875 91.632812 50.203125 91.523438 C 49.941406 91.417969 49.710938 91.261719 49.511719 91.0625 C 49.308594 90.859375 49.15625 90.628906 49.046875 90.367188 C 48.9375 90.105469 48.882812 89.832031 48.882812 89.546875 C 48.882812 89.265625 48.9375 88.992188 49.046875 88.730469 C 49.15625 88.46875 49.308594 88.238281 49.511719 88.035156 C 49.710938 87.835938 49.941406 87.679688 50.203125 87.574219 C 50.46875 87.464844 50.738281 87.410156 51.023438 87.410156 C 51.308594 87.410156 51.582031 87.464844 51.84375 87.574219 C 52.105469 87.679688 52.335938 87.835938 52.535156 88.035156 C 52.738281 88.238281 52.890625 88.46875 53 88.730469 C 53.109375 88.992188 53.164062 89.265625 53.164062 89.546875 Z M 53.164062 89.546875 " fill-opacity="1" fill-rule="nonzero"/><path fill="rgb(100%, 100%, 100%)" d="M 92.59375 92.71875 C 92.59375 93.003906 92.539062 93.277344 92.433594 93.539062 C 92.324219 93.800781 92.167969 94.03125 91.96875 94.234375 C 91.769531 94.433594 91.535156 94.585938 91.273438 94.695312 C 91.011719 94.804688 90.738281 94.859375 90.457031 94.859375 C 90.171875 94.859375 89.898438 94.804688 89.636719 94.695312 C 89.375 94.585938 89.144531 94.433594 88.941406 94.234375 C 88.742188 94.03125 88.585938 93.800781 88.480469 93.539062 C 88.371094 93.277344 88.316406 93.003906 88.316406 92.71875 C 88.316406 92.4375 88.371094 92.164062 88.480469 91.902344 C 88.585938 91.640625 88.742188 91.410156 88.941406 91.207031 C 89.144531 91.007812 89.375 90.851562 89.636719 90.746094 C 89.898438 90.636719 90.171875 90.582031 90.457031 90.582031 C 90.738281 90.582031 91.011719 90.636719 91.273438 90.746094 C 91.535156 90.851562 91.769531 91.007812 91.96875 91.207031 C 92.167969 91.410156 92.324219 91.640625 92.433594 91.902344 C 92.539062 92.164062 92.59375 92.4375 92.59375 92.71875 Z M 92.59375 92.71875 " fill-opacity="1" fill-rule="nonzero"/><path fill="rgb(94.119263%, 30.589294%, 24.308777%)" d="M 105.578125 67.789062 L 105.578125 74.796875 C 105.578125 75.71875 105.320312 76.566406 104.878906 77.304688 L 28.375 77.304688 C 27.933594 76.566406 27.675781 75.71875 27.675781 74.796875 L 27.675781 67.789062 Z M 105.578125 67.789062 " fill-opacity="1" fill-rule="nonzero"/><path fill="rgb(98.81897%, 79.219055%, 39.219666%)" d="M 27.675781 58.277344 L 105.578125 58.277344 L 105.578125 67.789062 L 27.675781 67.789062 Z M 27.675781 58.277344 " fill-opacity="1" fill-rule="nonzero"/><path fill="rgb(26.269531%, 67.83905%, 64.709473%)" d="M 105.578125 51.234375 L 105.578125 58.277344 L 27.675781 58.277344 L 27.675781 51.234375 C 27.675781 50.3125 27.933594 49.460938 28.375 48.761719 L 104.914062 48.761719 C 105.320312 49.460938 105.578125 50.3125 105.578125 51.234375 Z M 105.578125 51.234375 " fill-opacity="1" fill-rule="nonzero"/><path fill="rgb(100%, 100%, 100%)" d="M 84.371094 89.546875 C 84.371094 89.832031 84.316406 90.105469 84.207031 90.367188 C 84.097656 90.628906 83.945312 90.859375 83.742188 91.0625 C 83.542969 91.261719 83.3125 91.417969 83.046875 91.523438 C 82.785156 91.632812 82.515625 91.6875 82.230469 91.6875 C 81.945312 91.6875 81.671875 91.632812 81.410156 91.523438 C 81.148438 91.417969 80.917969 91.261719 80.71875 91.0625 C 80.515625 90.859375 80.363281 90.628906 80.253906 90.367188 C 80.144531 90.105469 80.089844 89.832031 80.089844 89.546875 C 80.089844 89.265625 80.144531 88.992188 80.253906 88.730469 C 80.363281 88.46875 80.515625 88.238281 80.71875 88.035156 C 80.917969 87.835938 81.148438 87.679688 81.410156 87.574219 C 81.671875 87.464844 81.945312 87.410156 82.230469 87.410156 C 82.515625 87.410156 82.785156 87.464844 83.046875 87.574219 C 83.3125 87.679688 83.542969 87.835938 83.742188 88.035156 C 83.945312 88.238281 84.097656 88.46875 84.207031 88.730469 C 84.316406 88.992188 84.371094 89.265625 84.371094 89.546875 Z M 84.371094 89.546875 " fill-opacity="1" fill-rule="nonzero"/><path fill="rgb(26.269531%, 26.269531%, 30.979919%)" d="M 89.089844 72.917969 L 44.164062 72.917969 C 42.058594 72.917969 40.398438 71.21875 40.398438 69.15625 L 40.398438 57.023438 C 40.398438 54.921875 42.097656 53.261719 44.164062 53.261719 L 89.089844 53.261719 C 91.195312 53.261719 92.851562 54.957031 92.851562 57.023438 L 92.851562 69.15625 C 92.851562 71.21875 91.195312 72.917969 89.089844 72.917969 Z M 89.089844 72.917969 " fill-opacity="1" fill-rule="nonzero"/><path fill="rgb(100%, 100%, 100%)" d="M 76.882812 60.527344 L 76.882812 65.355469 C 76.882812 66.464844 75.996094 67.347656 74.890625 67.347656 L 58.328125 67.347656 C 57.21875 67.347656 56.335938 66.464844 56.335938 65.355469 L 56.335938 60.527344 C 56.335938 59.417969 57.21875 58.535156 58.328125 58.535156 L 74.890625 58.535156 C 75.996094 58.535156 76.882812 59.417969 76.882812 60.527344 Z M 76.882812 60.527344 " fill-opacity="1" fill-rule="nonzero"/><path fill="rgb(26.269531%, 26.269531%, 30.979919%)" d="M 63.640625 63.070312 C 63.640625 64.582031 63.417969 65.984375 63.011719 67.347656 L 58.363281 67.347656 C 57.257812 67.347656 56.371094 66.464844 56.371094 65.355469 L 56.371094 60.527344 C 56.371094 59.417969 57.257812 58.535156 58.363281 58.535156 L 62.902344 58.535156 C 63.378906 59.972656 63.640625 61.484375 63.640625 63.070312 Z M 63.640625 63.070312 " fill-opacity="1" fill-rule="nonzero"/><path fill="rgb(0%, 0%, 0%)" d="M 88.945312 63.070312 C 88.945312 63.386719 88.914062 63.703125 88.851562 64.011719 C 88.789062 64.324219 88.695312 64.625 88.574219 64.917969 C 88.453125 65.210938 88.304688 65.492188 88.128906 65.753906 C 87.953125 66.019531 87.753906 66.261719 87.527344 66.488281 C 87.304688 66.710938 87.058594 66.910156 86.796875 67.085938 C 86.53125 67.261719 86.253906 67.414062 85.960938 67.535156 C 85.667969 67.65625 85.363281 67.746094 85.054688 67.808594 C 84.742188 67.871094 84.429688 67.902344 84.109375 67.902344 C 83.792969 67.902344 83.480469 67.871094 83.167969 67.808594 C 82.855469 67.746094 82.554688 67.65625 82.261719 67.535156 C 81.96875 67.414062 81.691406 67.261719 81.425781 67.085938 C 81.164062 66.910156 80.917969 66.710938 80.695312 66.488281 C 80.46875 66.261719 80.269531 66.019531 80.09375 65.753906 C 79.917969 65.492188 79.769531 65.210938 79.648438 64.917969 C 79.527344 64.625 79.433594 64.324219 79.371094 64.011719 C 79.308594 63.703125 79.277344 63.386719 79.277344 63.070312 C 79.277344 62.753906 79.308594 62.4375 79.371094 62.128906 C 79.433594 61.816406 79.527344 61.515625 79.648438 61.222656 C 79.769531 60.929688 79.917969 60.648438 80.09375 60.386719 C 80.269531 60.121094 80.46875 59.878906 80.695312 59.65625 C 80.917969 59.429688 81.164062 59.230469 81.425781 59.054688 C 81.691406 58.878906 81.96875 58.730469 82.261719 58.605469 C 82.554688 58.484375 82.855469 58.394531 83.167969 58.332031 C 83.480469 58.269531 83.792969 58.238281 84.109375 58.238281 C 84.429688 58.238281 84.742188 58.269531 85.054688 58.332031 C 85.363281 58.394531 85.667969 58.484375 85.960938 58.605469 C 86.253906 58.730469 86.53125 58.878906 86.796875 59.054688 C 87.058594 59.230469 87.304688 59.429688 87.527344 59.65625 C 87.753906 59.878906 87.953125 60.121094 88.128906 60.386719 C 88.304688 60.648438 88.453125 60.929688 88.574219 61.222656 C 88.695312 61.515625 88.789062 61.816406 88.851562 62.128906 C 88.914062 62.4375 88.945312 62.753906 88.945312 63.070312 Z M 88.945312 63.070312 " fill-opacity="0.2" fill-rule="nonzero"/><path fill="rgb(100%, 100%, 100%)" d="M 87.652344 63.070312 C 87.652344 63.539062 87.5625 63.992188 87.382812 64.425781 C 87.203125 64.859375 86.949219 65.242188 86.613281 65.574219 C 86.28125 65.90625 85.898438 66.160156 85.464844 66.339844 C 85.03125 66.519531 84.582031 66.609375 84.109375 66.609375 C 83.640625 66.609375 83.191406 66.519531 82.757812 66.339844 C 82.320312 66.160156 81.9375 65.90625 81.605469 65.574219 C 81.273438 65.242188 81.019531 64.859375 80.839844 64.425781 C 80.660156 63.992188 80.570312 63.539062 80.570312 63.070312 C 80.570312 62.601562 80.660156 62.148438 80.839844 61.714844 C 81.019531 61.28125 81.273438 60.898438 81.605469 60.566406 C 81.9375 60.234375 82.320312 59.980469 82.757812 59.800781 C 83.191406 59.621094 83.640625 59.53125 84.109375 59.53125 C 84.582031 59.53125 85.03125 59.621094 85.464844 59.800781 C 85.898438 59.980469 86.28125 60.234375 86.613281 60.566406 C 86.949219 60.898438 87.203125 61.28125 87.382812 61.714844 C 87.5625 62.148438 87.652344 62.601562 87.652344 63.070312 Z M 87.652344 63.070312 " fill-opacity="1" fill-rule="nonzero"/><path fill="rgb(0%, 0%, 0%)" d="M 53.972656 63.070312 C 53.972656 63.386719 53.945312 63.703125 53.882812 64.011719 C 53.820312 64.324219 53.726562 64.625 53.605469 64.917969 C 53.484375 65.210938 53.335938 65.492188 53.160156 65.753906 C 52.984375 66.019531 52.785156 66.261719 52.558594 66.488281 C 52.335938 66.710938 52.089844 66.910156 51.828125 67.085938 C 51.5625 67.261719 51.285156 67.414062 50.992188 67.535156 C 50.699219 67.65625 50.394531 67.746094 50.085938 67.808594 C 49.773438 67.871094 49.460938 67.902344 49.140625 67.902344 C 48.824219 67.902344 48.511719 67.871094 48.199219 67.808594 C 47.886719 67.746094 47.585938 67.65625 47.292969 67.535156 C 47 67.414062 46.722656 67.261719 46.457031 67.085938 C 46.195312 66.910156 45.949219 66.710938 45.726562 66.488281 C 45.5 66.261719 45.300781 66.019531 45.125 65.753906 C 44.949219 65.492188 44.800781 65.210938 44.679688 64.917969 C 44.554688 64.625 44.464844 64.324219 44.402344 64.011719 C 44.339844 63.703125 44.308594 63.386719 44.308594 63.070312 C 44.308594 62.753906 44.339844 62.4375 44.402344 62.128906 C 44.464844 61.816406 44.554688 61.515625 44.679688 61.222656 C 44.800781 60.929688 44.949219 60.648438 45.125 60.386719 C 45.300781 60.121094 45.5 59.878906 45.726562 59.65625 C 45.949219 59.429688 46.195312 59.230469 46.457031 59.054688 C 46.722656 58.878906 47 58.730469 47.292969 58.605469 C 47.585938 58.484375 47.886719 58.394531 48.199219 58.332031 C 48.511719 58.269531 48.824219 58.238281 49.140625 58.238281 C 49.460938 58.238281 49.773438 58.269531 50.085938 58.332031 C 50.394531 58.394531 50.699219 58.484375 50.992188 58.605469 C 51.285156 58.730469 51.5625 58.878906 51.828125 59.054688 C 52.089844 59.230469 52.335938 59.429688 52.558594 59.65625 C 52.785156 59.878906 52.984375 60.121094 53.160156 60.386719 C 53.335938 60.648438 53.484375 60.929688 53.605469 61.222656 C 53.726562 61.515625 53.820312 61.816406 53.882812 62.128906 C 53.945312 62.4375 53.972656 62.753906 53.972656 63.070312 Z M 53.972656 63.070312 " fill-opacity="0.2" fill-rule="nonzero"/><path fill="rgb(100%, 100%, 100%)" d="M 52.683594 63.070312 C 52.683594 63.539062 52.59375 63.992188 52.414062 64.425781 C 52.234375 64.859375 51.976562 65.242188 51.644531 65.574219 C 51.3125 65.90625 50.929688 66.160156 50.496094 66.339844 C 50.0625 66.519531 49.613281 66.609375 49.140625 66.609375 C 48.671875 66.609375 48.222656 66.519531 47.785156 66.339844 C 47.351562 66.160156 46.96875 65.90625 46.636719 65.574219 C 46.304688 65.242188 46.050781 64.859375 45.871094 64.425781 C 45.691406 63.992188 45.601562 63.539062 45.601562 63.070312 C 45.601562 62.601562 45.691406 62.148438 45.871094 61.714844 C 46.050781 61.28125 46.304688 60.898438 46.636719 60.566406 C 46.96875 60.234375 47.351562 59.980469 47.785156 59.800781 C 48.222656 59.621094 48.671875 59.53125 49.140625 59.53125 C 49.613281 59.53125 50.0625 59.621094 50.496094 59.800781 C 50.929688 59.980469 51.3125 60.234375 51.644531 60.566406 C 51.976562 60.898438 52.234375 61.28125 52.414062 61.714844 C 52.59375 62.148438 52.683594 62.601562 52.683594 63.070312 Z M 52.683594 63.070312 " fill-opacity="1" fill-rule="nonzero"/><path fill="rgb(26.269531%, 26.269531%, 30.979919%)" d="M 76.882812 60.527344 L 76.882812 65.355469 C 76.882812 66.464844 75.996094 67.347656 74.890625 67.347656 L 73.230469 67.347656 C 72.714844 66.019531 72.417969 64.582031 72.417969 63.070312 C 72.417969 61.449219 72.75 59.9375 73.339844 58.535156 L 74.890625 58.535156 C 75.996094 58.535156 76.882812 59.417969 76.882812 60.527344 Z M 76.882812 60.527344 " fill-opacity="1" fill-rule="nonzero"/><path fill="rgb(0%, 0%, 0%)" d="M 63.640625 63.070312 C 63.640625 64.582031 63.417969 65.984375 63.011719 67.347656 L 58.363281 67.347656 C 57.257812 67.347656 56.371094 66.464844 56.371094 65.355469 L 56.371094 60.527344 C 56.371094 59.417969 57.257812 58.535156 58.363281 58.535156 L 62.902344 58.535156 C 63.378906 59.972656 63.640625 61.484375 63.640625 63.070312 Z M 63.640625 63.070312 " fill-opacity="0.2" fill-rule="nonzero"/><path fill="rgb(0%, 0%, 0%)" d="M 76.882812 60.527344 L 76.882812 65.355469 C 76.882812 66.464844 75.996094 67.347656 74.890625 67.347656 L 73.230469 67.347656 C 72.714844 66.019531 72.417969 64.582031 72.417969 63.070312 C 72.417969 61.449219 72.75 59.9375 73.339844 58.535156 L 74.890625 58.535156 C 75.996094 58.535156 76.882812 59.417969 76.882812 60.527344 Z M 76.882812 60.527344 " fill-opacity="0.2" fill-rule="nonzero"/><path fill="rgb(100%, 100%, 100%)" d="M 36.378906 66.277344 L 31.621094 66.277344 C 30.808594 66.277344 30.144531 65.613281 30.144531 64.804688 L 30.144531 62.039062 C 30.144531 61.226562 30.808594 60.5625 31.621094 60.5625 L 36.378906 60.5625 C 37.191406 60.5625 37.855469 61.226562 37.855469 62.039062 L 37.855469 64.804688 C 37.855469 65.613281 37.191406 66.277344 36.378906 66.277344 Z M 36.378906 66.277344 " fill-opacity="1" fill-rule="nonzero"/><path fill="rgb(93.728638%, 16.468811%, 27.839661%)" d="M 6.691406 44.914062 C 6.898438 42.554688 6.882812 40.023438 7.417969 37.675781 C 7.71875 36.304688 8.488281 34.992188 8.875 33.613281 C 9.21875 32.351562 9.464844 31.105469 9.820312 29.867188 C 10.707031 26.699219 13.695312 25.644531 16.222656 24.226562 C 17.3125 23.644531 18.457031 22.933594 19.453125 22.1875 C 21.394531 20.746094 23.097656 18.960938 24.757812 17.222656 C 28.449219 13.40625 32.550781 14.289062 37.207031 15.070312 C 39.195312 15.402344 41.070312 16.003906 43.097656 16.296875 C 43.351562 16.328125 43.601562 16.351562 43.835938 16.398438 C 43.957031 16.410156 44.089844 16.425781 44.21875 16.441406 C 44.605469 16.496094 45.089844 16.542969 45.441406 16.578125 C 45.484375 16.578125 45.535156 16.589844 45.589844 16.597656 C 45.675781 16.601562 45.742188 16.613281 45.800781 16.621094 C 45.90625 16.628906 46.007812 16.648438 46.121094 16.65625 C 46.605469 16.699219 47.917969 16.828125 48.585938 16.871094 C 48.828125 16.890625 49.03125 16.941406 49.257812 16.972656 C 49.296875 16.980469 49.335938 16.992188 49.371094 16.992188 L 49.382812 16.992188 L 49.410156 17 C 53.175781 17.574219 55.4375 19.933594 58.621094 21.949219 C 60.828125 23.34375 63.355469 24.238281 65.542969 25.699219 C 65.84375 25.898438 66.167969 26.117188 66.5 26.324219 C 66.957031 26.621094 67.421875 26.90625 67.859375 27.128906 C 67.9375 27.160156 68.039062 27.214844 68.140625 27.253906 C 68.871094 27.550781 69.816406 27.730469 70.367188 28.207031 C 70.390625 28.234375 70.417969 28.253906 70.429688 28.277344 C 69.5625 28.183594 68.601562 28.464844 67.6875 28.808594 C 67.09375 29.019531 66.53125 29.261719 66.007812 29.445312 C 63.671875 30.25 61.472656 31.332031 59.253906 32.28125 C 57.617188 33.003906 55.886719 33.800781 54.242188 34.621094 C 52.90625 35.328125 51.511719 35.847656 50.140625 36.484375 C 48.097656 37.425781 46.140625 38.601562 44.0625 39.5625 C 43.160156 39.964844 42.234375 40.4375 41.289062 40.855469 C 40.648438 41.148438 40 41.414062 39.347656 41.628906 C 36.863281 42.425781 34.667969 43.730469 32.394531 45 C 32.183594 45.121094 31.960938 45.238281 31.742188 45.359375 C 30.675781 45.953125 29.460938 46.429688 28.441406 47.175781 C 27.625 47.769531 26.890625 48.566406 25.980469 48.890625 C 25.132812 49.183594 24.390625 49.332031 23.667969 49.644531 C 23.371094 49.765625 23.089844 49.921875 22.804688 50.128906 C 22.480469 50.363281 22.113281 50.671875 21.710938 50.953125 L 21.695312 50.953125 C 21.410156 51.140625 21.121094 51.308594 20.808594 51.421875 L 20.792969 51.429688 C 20.640625 51.476562 20.441406 51.519531 20.28125 51.519531 L 20.28125 51.507812 C 20.0625 50.574219 19.964844 49.722656 20.03125 48.890625 L 20.03125 48.886719 C 20.109375 47.835938 20.46875 46.816406 21.195312 45.667969 C 21.484375 45.203125 21.839844 44.722656 22.269531 44.210938 L 22.269531 44.203125 C 22.335938 44.128906 22.402344 44.046875 22.460938 43.960938 C 22.34375 43.890625 22.25 43.808594 22.164062 43.722656 L 22.152344 43.714844 C 21.914062 43.507812 21.796875 43.269531 21.710938 42.984375 L 21.710938 42.976562 C 21.660156 42.855469 21.632812 42.726562 21.597656 42.589844 L 21.59375 42.554688 L 21.59375 42.539062 C 21.570312 42.476562 21.566406 42.398438 21.554688 42.332031 C 21.527344 42.34375 21.523438 42.347656 21.523438 42.359375 C 21.375 42.488281 21.238281 42.617188 21.113281 42.742188 C 19.277344 44.53125 17.390625 46.414062 15.332031 48.027344 L 15.324219 48.035156 L 15.304688 48.035156 L 15.304688 48.042969 C 15.28125 48.070312 15.253906 48.085938 15.226562 48.109375 L 15.21875 48.109375 C 15 48.289062 14.789062 48.457031 14.5625 48.621094 C 12.617188 50.035156 10.53125 51.207031 8.214844 51.765625 L 8.199219 51.777344 L 8.191406 51.777344 C 7.640625 51.910156 7.085938 52.007812 6.511719 52.074219 L 6.496094 52.074219 C 6.382812 52.082031 6.265625 52.101562 6.152344 52.109375 L 6.144531 52.109375 C 6.128906 52.011719 6.109375 51.894531 6.101562 51.792969 L 6.09375 51.777344 C 6.066406 51.601562 6.058594 51.4375 6.050781 51.269531 C 5.894531 49.253906 6.523438 46.84375 6.691406 44.914062 " fill-opacity="1" fill-rule="nonzero"/><path fill="rgb(85.488892%, 83.918762%, 84.709167%)" d="M 6.347656 52.265625 C 6.363281 52.265625 6.378906 52.265625 6.394531 52.261719 C 6.738281 52.253906 7.414062 52.085938 8.160156 51.859375 C 9.402344 51.476562 10.824219 50.953125 11.046875 50.847656 C 12.550781 50.125 13.925781 49.167969 15.226562 48.109375 L 15.21875 48.109375 C 15 48.289062 14.789062 48.457031 14.5625 48.621094 C 12.617188 50.035156 10.53125 51.207031 8.214844 51.765625 L 8.199219 51.777344 L 8.191406 51.777344 C 7.640625 51.910156 7.085938 52.007812 6.511719 52.074219 L 6.496094 52.074219 C 6.382812 52.082031 6.265625 52.101562 6.152344 52.109375 L 6.148438 52.109375 C 6.148438 52.136719 6.160156 52.167969 6.164062 52.191406 C 6.179688 52.238281 6.242188 52.265625 6.347656 52.265625 M 6.113281 51.882812 C 6.109375 51.851562 6.105469 51.820312 6.101562 51.792969 L 6.09375 51.777344 L 6.097656 51.792969 C 6.101562 51.824219 6.105469 51.851562 6.113281 51.882812 M 20.179688 51.738281 C 20.195312 51.683594 20.222656 51.628906 20.238281 51.582031 C 20.25 51.566406 20.269531 51.539062 20.28125 51.519531 L 20.28125 51.507812 C 20.0625 50.574219 19.964844 49.722656 20.03125 48.890625 L 20.03125 48.886719 C 20.109375 47.835938 20.46875 46.820312 21.195312 45.671875 C 21.011719 45.855469 20.847656 46.019531 20.722656 46.164062 C 20.175781 46.796875 19.78125 47.402344 19.632812 48.207031 C 19.613281 48.289062 19.59375 48.371094 19.585938 48.453125 C 19.578125 48.527344 19.570312 48.589844 19.574219 48.660156 L 19.570312 48.6875 C 19.511719 49.707031 19.90625 50.722656 20.164062 51.703125 L 20.179688 51.738281 M 6.066406 51.527344 C 6.058594 51.441406 6.054688 51.355469 6.050781 51.269531 C 6.042969 51.164062 6.035156 51.054688 6.03125 50.945312 C 6.035156 51.140625 6.046875 51.335938 6.066406 51.527344 M 15.238281 48.101562 C 15.265625 48.082031 15.289062 48.066406 15.308594 48.042969 L 15.316406 48.035156 L 15.304688 48.035156 L 15.304688 48.042969 C 15.28125 48.066406 15.261719 48.082031 15.238281 48.101562 M 22.265625 44.214844 C 22.265625 44.214844 22.265625 44.214844 22.269531 44.210938 L 22.269531 44.203125 C 22.335938 44.128906 22.402344 44.046875 22.460938 43.960938 C 22.34375 43.890625 22.25 43.808594 22.164062 43.722656 L 22.160156 43.71875 C 22.164062 43.722656 22.164062 43.722656 22.164062 43.726562 C 22.230469 43.914062 22.277344 44.082031 22.265625 44.210938 C 22.265625 44.214844 22.265625 44.214844 22.265625 44.214844 M 21.710938 42.980469 L 21.710938 42.976562 C 21.660156 42.855469 21.632812 42.726562 21.597656 42.589844 L 21.59375 42.554688 L 21.59375 42.539062 C 21.570312 42.476562 21.566406 42.398438 21.554688 42.332031 C 21.527344 42.34375 21.523438 42.347656 21.523438 42.359375 C 21.375 42.488281 21.238281 42.617188 21.113281 42.742188 C 21.113281 42.742188 21.113281 42.742188 21.109375 42.742188 C 21.175781 42.730469 21.246094 42.714844 21.304688 42.714844 C 21.308594 42.714844 21.3125 42.714844 21.3125 42.714844 C 21.429688 42.722656 21.570312 42.820312 21.703125 42.96875 C 21.707031 42.972656 21.707031 42.976562 21.710938 42.980469 " fill-opacity="1" fill-rule="nonzero"/><path fill="rgb(82.749939%, 16.859436%, 27.449036%)" d="M 6.148438 52.109375 L 6.152344 52.109375 C 6.265625 52.101562 6.382812 52.082031 6.496094 52.074219 L 6.511719 52.074219 C 7.085938 52.007812 7.640625 51.910156 8.191406 51.777344 L 8.199219 51.777344 L 8.214844 51.765625 C 10.53125 51.207031 12.617188 50.035156 14.5625 48.621094 C 14.789062 48.457031 15 48.289062 15.21875 48.109375 L 15.226562 48.109375 C 15.230469 48.105469 15.234375 48.105469 15.238281 48.101562 C 15.261719 48.082031 15.28125 48.066406 15.304688 48.042969 L 15.304688 48.035156 L 15.316406 48.035156 L 15.328125 48.027344 C 16.710938 46.902344 18 45.664062 19.300781 44.4375 C 19.644531 44.105469 20.542969 42.96875 21.109375 42.742188 C 21.113281 42.742188 21.113281 42.742188 21.113281 42.742188 C 21.238281 42.617188 21.375 42.488281 21.523438 42.359375 C 21.523438 42.347656 21.527344 42.34375 21.554688 42.332031 C 21.566406 42.398438 21.570312 42.476562 21.59375 42.539062 L 21.59375 42.554688 L 21.597656 42.589844 C 21.632812 42.726562 21.660156 42.855469 21.710938 42.976562 L 21.710938 42.980469 C 21.882812 43.179688 22.046875 43.460938 22.160156 43.71875 L 22.164062 43.722656 C 22.25 43.808594 22.34375 43.890625 22.460938 43.960938 C 22.402344 44.046875 22.335938 44.128906 22.269531 44.203125 L 22.269531 44.210938 C 22.265625 44.214844 22.265625 44.214844 22.265625 44.214844 C 22.261719 44.230469 22.265625 44.246094 22.261719 44.261719 C 22.140625 44.714844 21.636719 45.230469 21.199219 45.664062 C 21.199219 45.667969 21.195312 45.667969 21.195312 45.671875 C 20.46875 46.820312 20.109375 47.835938 20.03125 48.886719 L 20.03125 48.890625 C 19.964844 49.722656 20.0625 50.574219 20.28125 51.507812 L 20.28125 51.519531 C 20.28125 51.515625 20.285156 51.515625 20.285156 51.511719 C 20.324219 51.425781 20.386719 51.335938 20.441406 51.261719 L 20.464844 51.242188 C 20.871094 50.71875 21.527344 50.363281 21.960938 49.847656 L 21.984375 49.835938 C 22.351562 49.390625 22.445312 48.914062 22.847656 48.527344 C 23.140625 48.234375 23.566406 48 23.882812 47.699219 C 24.300781 47.328125 24.589844 46.890625 24.84375 46.445312 C 24.941406 46.257812 25.03125 46.078125 25.125 45.894531 C 25.375 45.378906 25.621094 44.851562 25.957031 44.367188 C 26.691406 43.34375 27.203125 42.355469 28.140625 41.503906 C 28.761719 40.925781 31.894531 39.6875 31.753906 38.871094 L 31.753906 38.851562 C 31.0625 36.015625 35.101562 32.03125 36.070312 30.058594 C 35.960938 29.972656 35.847656 29.890625 35.75 29.800781 C 33.648438 31.386719 25.546875 39.039062 24.671875 39.367188 C 24.4375 39.453125 24.222656 39.492188 24.03125 39.492188 C 23.121094 39.492188 22.65625 38.613281 22.566406 37.648438 C 22.410156 36.117188 22.558594 34.746094 22.699219 33.386719 C 22.8125 32.207031 23.148438 27.867188 22.382812 27.867188 C 22.273438 27.867188 22.144531 27.953125 21.988281 28.144531 C 18.847656 32.054688 19.488281 35.988281 15.621094 40.632812 C 13.242188 43.488281 11.648438 44.691406 6.703125 45 C 6.554688 46.800781 5.988281 49.007812 6.03125 50.945312 C 6.035156 51.054688 6.042969 51.164062 6.050781 51.269531 C 6.054688 51.355469 6.058594 51.441406 6.066406 51.527344 C 6.074219 51.609375 6.082031 51.695312 6.09375 51.777344 L 6.101562 51.792969 C 6.105469 51.820312 6.109375 51.851562 6.113281 51.882812 C 6.125 51.960938 6.136719 52.035156 6.148438 52.109375 " fill-opacity="1" fill-rule="nonzero"/><path fill="rgb(91.369629%, 90.19928%, 90.19928%)" d="M 25.953125 59.222656 C 26.816406 58.9375 27.941406 57.582031 28.585938 56.976562 C 29.15625 56.449219 29.660156 55.945312 30.15625 55.394531 C 31.179688 54.257812 32.054688 53.332031 33.339844 52.367188 C 35.199219 50.960938 37.566406 49.96875 39.582031 48.699219 C 41.554688 47.449219 43.433594 45.832031 45.660156 44.992188 C 46.792969 44.570312 47.878906 44.320312 48.933594 43.757812 C 49.761719 43.320312 50.355469 42.875 51.199219 42.527344 C 51.257812 42.5 51.308594 42.476562 51.367188 42.453125 C 52.976562 41.84375 54.390625 41.328125 56.035156 40.953125 C 59.96875 40.0625 64.039062 38.789062 67.792969 38.960938 C 67.996094 38.96875 68.199219 38.988281 68.414062 39.011719 C 71.007812 39.304688 74.28125 40.582031 77.160156 39.949219 L 77.179688 39.949219 C 77.253906 39.9375 77.335938 39.914062 77.417969 39.894531 C 77.839844 39.789062 78.246094 39.636719 78.644531 39.433594 C 80.316406 38.570312 79.601562 35.839844 79.613281 34.539062 C 79.621094 32.828125 79.828125 30.984375 79.636719 29.320312 C 79.335938 26.640625 75.933594 26.074219 72.984375 26.011719 C 72.402344 25.996094 71.84375 25.996094 71.324219 26.015625 C 70.457031 26.046875 69.597656 26.082031 68.734375 26.132812 C 66.34375 26.28125 63.953125 26.578125 61.410156 27.265625 C 59.492188 27.78125 57.554688 28.179688 55.632812 28.671875 C 53.664062 29.183594 51.753906 30.089844 49.792969 30.695312 C 45.65625 31.992188 41.925781 33.613281 38 35.425781 C 36.546875 36.101562 35.070312 36.765625 33.625 37.5 C 32.964844 37.832031 32.3125 38.277344 31.664062 38.664062 C 31.308594 38.875 30.949219 39.0625 30.589844 39.210938 C 30.589844 39.210938 27.230469 41.25 26.257812 42.09375 C 25.128906 43.074219 23.925781 44.273438 23.011719 45.421875 C 22.875 45.59375 22.75 45.761719 22.625 45.929688 C 22.363281 46.292969 22.09375 46.664062 21.839844 47.046875 C 21.769531 47.160156 21.695312 47.277344 21.621094 47.390625 C 21.546875 47.519531 21.460938 47.65625 21.394531 47.792969 C 21.332031 47.890625 21.273438 47.996094 21.234375 48.097656 L 21.226562 48.097656 C 21.171875 48.195312 21.128906 48.300781 21.085938 48.394531 C 20.875 48.878906 20.734375 49.359375 20.710938 49.832031 C 20.644531 51.308594 20.976562 52.804688 21.535156 54.035156 C 22.117188 55.347656 23.367188 60.066406 25.953125 59.222656 " fill-opacity="1" fill-rule="nonzero"/><path fill="rgb(81.568909%, 80.778503%, 85.488892%)" d="M 17.8125 59.613281 C 18.601562 60.816406 20.453125 65.113281 23.078125 64.40625 C 23.097656 64.402344 23.113281 64.398438 23.140625 64.390625 C 23.203125 64.367188 23.28125 64.339844 23.347656 64.3125 C 24.273438 63.945312 25.351562 62.488281 25.996094 61.8125 C 26.558594 61.234375 27.046875 60.6875 27.527344 60.09375 C 28.527344 58.863281 29.378906 57.851562 30.675781 56.765625 C 32.574219 55.183594 35.058594 53.949219 37.132812 52.492188 C 39.167969 51.054688 41.042969 49.253906 43.402344 48.203125 C 44.601562 47.667969 45.789062 47.300781 46.878906 46.640625 C 47.097656 46.515625 47.292969 46.386719 47.484375 46.253906 C 48.113281 45.835938 48.660156 45.445312 49.410156 45.105469 C 51.125 44.324219 52.613281 43.675781 54.402344 43.132812 C 58.640625 41.847656 62.976562 40.179688 67.164062 39.957031 C 70.085938 39.808594 74.144531 40.949219 77.484375 40.039062 C 77.902344 39.929688 78.3125 39.789062 78.703125 39.59375 L 78.710938 39.585938 C 78.890625 39.507812 79.0625 39.417969 79.234375 39.320312 C 79.054688 39.410156 78.886719 39.484375 78.703125 39.558594 L 78.6875 39.566406 C 78.285156 39.722656 77.863281 39.835938 77.421875 39.910156 C 77.34375 39.925781 77.253906 39.9375 77.179688 39.949219 L 77.15625 39.953125 C 74.273438 40.351562 70.898438 39.273438 68.414062 39.011719 C 68.199219 38.988281 67.996094 38.96875 67.792969 38.960938 C 64.039062 38.789062 59.96875 40.0625 56.035156 40.953125 C 54.390625 41.328125 52.976562 41.84375 51.367188 42.453125 C 51.308594 42.476562 51.257812 42.5 51.199219 42.527344 C 50.773438 42.703125 50.402344 42.902344 50.039062 43.117188 C 49.859375 43.222656 49.6875 43.328125 49.507812 43.4375 C 49.320312 43.546875 49.136719 43.65625 48.933594 43.757812 C 47.878906 44.320312 46.792969 44.570312 45.660156 44.992188 C 43.433594 45.832031 41.554688 47.449219 39.582031 48.699219 C 37.566406 49.96875 35.199219 50.960938 33.339844 52.367188 C 32.054688 53.332031 31.179688 54.257812 30.15625 55.394531 C 29.660156 55.945312 29.15625 56.449219 28.585938 56.976562 C 27.941406 57.582031 26.816406 58.9375 25.953125 59.222656 C 23.367188 60.066406 22.117188 55.347656 21.535156 54.035156 C 20.976562 52.804688 20.644531 51.308594 20.710938 49.832031 C 20.71875 49.695312 20.738281 49.566406 20.761719 49.433594 C 20.835938 48.984375 20.996094 48.546875 21.226562 48.097656 L 21.234375 48.097656 L 21.253906 48.050781 C 21.292969 47.96875 21.339844 47.875 21.394531 47.792969 C 21.527344 47.539062 21.679688 47.292969 21.839844 47.046875 C 21.730469 47.136719 21.640625 47.222656 21.566406 47.296875 C 20.914062 47.917969 20.257812 48.609375 19.652344 49.316406 L 19.636719 49.332031 C 19.5625 49.421875 19.480469 49.523438 19.410156 49.605469 C 19.378906 49.636719 19.355469 49.671875 19.324219 49.707031 C 19.183594 49.871094 19.0625 50.03125 18.933594 50.199219 C 18.59375 50.628906 18.285156 51.0625 18.023438 51.476562 C 17.957031 51.570312 17.898438 51.671875 17.832031 51.769531 C 17.820312 51.792969 17.804688 51.816406 17.792969 51.839844 C 17.042969 53.03125 16.300781 54.339844 16.382812 55.53125 C 16.492188 57.003906 17.042969 58.457031 17.8125 59.613281 " fill-opacity="1" fill-rule="nonzero"/><path fill="rgb(56.469727%, 16.468811%, 20.388794%)" d="M 22.46875 43.960938 C 23.269531 42.753906 24.234375 40.957031 25.320312 39.992188 C 26.511719 38.917969 27.941406 38.484375 29.515625 37.59375 L 22.46875 43.960938 " fill-opacity="1" fill-rule="nonzero"/><path fill="rgb(56.469727%, 16.468811%, 20.388794%)" d="M 21.21875 33.859375 C 19.378906 36.878906 21.222656 40.765625 21.597656 42.714844 L 21.21875 33.859375 " fill-opacity="1" fill-rule="nonzero"/><path fill="rgb(84.709167%, 12.159729%, 16.079712%)" d="M 49.441406 16.980469 C 47.5625 16.917969 45.617188 16.542969 43.832031 16.398438 C 43.246094 16.34375 41.667969 17.105469 40.980469 17.507812 C 39.160156 18.59375 36.128906 18.917969 35.261719 20.839844 C 35.261719 20.839844 38.707031 19 42.027344 18.394531 C 43.882812 18.054688 49.441406 16.980469 49.441406 16.980469 " fill-opacity="1" fill-rule="nonzero"/><g clip-path="url(#clip-2)"><path fill="rgb(91.369629%, 90.19928%, 90.19928%)" d="M 2.351562 57.09375 C 2.914062 57.519531 3.65625 57.871094 4.289062 58.191406 C 5.277344 58.6875 6.617188 58.664062 7.691406 58.320312 C 8.96875 57.910156 10.375 57.109375 11.339844 56.011719 C 11.0625 55.738281 10.824219 55.527344 10.738281 55.429688 C 10.9375 55.261719 12.027344 54.871094 11.867188 54.601562 C 11.011719 53.140625 9.601562 53.179688 9.484375 52.992188 C 9.339844 52.738281 10.484375 51.738281 10.484375 51.738281 C 10.484375 51.738281 8.574219 51.863281 7.992188 52.257812 C 8.128906 51.726562 8.59375 51.339844 8.667969 50.78125 C 8.273438 50.609375 7.390625 51.023438 7.101562 51.257812 C 6.78125 51.515625 6.457031 52.148438 6.261719 52.515625 L 6.175781 52.507812 C 6.050781 51.996094 5.003906 51.550781 4.578125 51.332031 C 4.066406 51.078125 3.355469 51.449219 2.824219 51.539062 C 3.113281 51.789062 4.140625 52.679688 4.203125 52.984375 C 3.644531 52.863281 2.941406 53.128906 2.367188 53.253906 C 1.660156 53.40625 1.085938 53.980469 0.90625 54.722656 C 1.15625 54.652344 1.417969 54.578125 1.667969 54.550781 C 1.957031 54.515625 2.121094 54.601562 2.40625 54.675781 C 2.261719 54.878906 1.492188 55.335938 1.152344 55.679688 C 1.574219 55.851562 2.03125 56.851562 2.351562 57.09375 " fill-opacity="1" fill-rule="nonzero"/></g><g clip-path="url(#clip-3)"><path fill="rgb(81.568909%, 80.778503%, 85.488892%)" d="M 7.691406 58.320312 C 6.617188 58.664062 5.277344 58.6875 4.289062 58.191406 C 3.65625 57.871094 2.914062 57.519531 2.351562 57.09375 C 2.03125 56.851562 1.574219 55.851562 1.152344 55.679688 C 1.113281 55.722656 1.078125 55.765625 1.046875 55.804688 C 0.695312 56.328125 0.160156 57.261719 0.125 57.882812 C 0.496094 57.8125 0.796875 57.519531 1.164062 57.484375 C 1.28125 57.699219 0.761719 58.289062 0.644531 58.484375 C 0.421875 58.851562 0.210938 59.15625 0.125 59.570312 C 0.0703125 59.855469 0.148438 60.5 0.148438 60.5 C 0.148438 60.5 0.976562 60.089844 1.140625 60.003906 C 1.808594 59.652344 1.492188 61.867188 1.710938 62.542969 C 1.878906 63.058594 2.0625 62.925781 2.441406 62.613281 C 2.683594 62.410156 2.824219 62.21875 3.019531 61.972656 C 3.28125 62.011719 3.5625 62.5625 3.746094 62.769531 C 4.054688 63.101562 4.402344 63.332031 4.734375 63.617188 C 5.054688 63.878906 5.140625 63.980469 5.390625 63.613281 C 5.640625 63.261719 6.082031 62.542969 6.089844 62.085938 C 6.238281 62.101562 6.828125 62.695312 7.113281 62.753906 C 7.539062 62.832031 7.703125 62.769531 7.980469 62.398438 C 8.179688 62.125 8.703125 61.105469 8.703125 61.105469 C 8.703125 61.105469 9.355469 61.394531 9.6875 61.324219 C 9.960938 61.257812 10.246094 61.21875 10.511719 61.140625 C 10.886719 61.027344 10.914062 60.792969 10.953125 60.421875 C 11.015625 59.671875 11.015625 58.90625 11.074219 58.199219 C 11.453125 58.101562 12.542969 58.144531 12.46875 57.71875 C 12.351562 57.121094 11.796875 56.476562 11.339844 56.011719 C 10.375 57.109375 8.96875 57.910156 7.691406 58.320312 " fill-opacity="1" fill-rule="nonzero"/></g></svg>