<?xml version="1.0" encoding="UTF-8"?><svg xmlns="http://www.w3.org/2000/svg" xmlns:xlink="http://www.w3.org/1999/xlink" contentScriptType="text/ecmascript" width="112.5" zoomAndPan="magnify" contentStyleType="text/css" viewBox="0 0 112.5 112.499997" height="112.499997" preserveAspectRatio="xMidYMid meet" version="1.0"><defs><clipPath id="clip-0"><path d="M 47 24 L 78 24 L 78 92 L 47 92 Z M 47 24 " clip-rule="nonzero"/></clipPath><clipPath id="clip-1"><path d="M 28.285156 68.074219 L 73.894531 22.46875 L 107.304688 55.878906 L 61.695312 101.488281 Z M 28.285156 68.074219 " clip-rule="nonzero"/></clipPath><clipPath id="clip-2"><path d="M 28.285156 68.074219 L 73.894531 22.46875 L 107.304688 55.878906 L 61.695312 101.488281 Z M 28.285156 68.074219 " clip-rule="nonzero"/></clipPath><clipPath id="clip-3"><path d="M 28.285156 68.074219 L 73.894531 22.46875 L 107.304688 55.878906 L 61.695312 101.488281 Z M 28.285156 68.074219 " clip-rule="nonzero"/></clipPath><clipPath id="clip-4"><path d="M 29 29.457031 L 69 29.457031 L 69 66.207031 L 29 66.207031 Z M 29 29.457031 " clip-rule="nonzero"/></clipPath><clipPath id="clip-5"><path d="M 59 58 L 77 58 L 77 112.003906 L 59 112.003906 Z M 59 58 " clip-rule="nonzero"/></clipPath><clipPath id="clip-6"><path d="M 69 58 L 73 58 L 73 112.003906 L 69 112.003906 Z M 69 58 " clip-rule="nonzero"/></clipPath><clipPath id="clip-7"><path d="M 61 15 L 79.285156 15 L 79.285156 26 L 61 26 Z M 61 15 " clip-rule="nonzero"/></clipPath><clipPath id="clip-8"><path d="M 31 58 L 64 58 L 64 112.003906 L 31 112.003906 Z M 31 58 " clip-rule="nonzero"/></clipPath><clipPath id="clip-9"><path d="M 43 58 L 51 58 L 51 112.003906 L 43 112.003906 Z M 43 58 " clip-rule="nonzero"/></clipPath><clipPath id="clip-10"><path d="M 28.285156 15 L 66 15 L 66 26 L 28.285156 26 Z M 28.285156 15 " clip-rule="nonzero"/></clipPath></defs><g clip-path="url(#clip-0)"><g clip-path="url(#clip-1)"><g clip-path="url(#clip-2)"><g clip-path="url(#clip-3)"><path fill="rgb(0%, 0%, 0%)" d="M 74.632812 24.347656 C 73.804688 24.132812 72.125 24.238281 71.789062 24.855469 L 71.199219 27.796875 L 70.847656 27.703125 L 70.835938 27.753906 C 70.777344 27.71875 70.71875 27.691406 70.648438 27.671875 C 70.335938 27.589844 70.023438 27.746094 69.957031 28.019531 C 69.886719 28.292969 70.085938 28.582031 70.402344 28.664062 C 70.710938 28.746094 71.015625 28.597656 71.089844 28.332031 L 70.773438 29.914062 L 70.429688 29.824219 L 70.417969 29.875 C 70.359375 29.839844 70.296875 29.808594 70.226562 29.792969 C 69.910156 29.710938 69.601562 29.867188 69.53125 30.140625 C 69.464844 30.414062 69.664062 30.699219 69.976562 30.78125 C 70.285156 30.863281 70.589844 30.714844 70.664062 30.449219 L 70.371094 31.929688 L 70.03125 31.839844 L 70.015625 31.894531 C 69.957031 31.859375 69.894531 31.828125 69.820312 31.808594 C 69.507812 31.726562 69.195312 31.882812 69.128906 32.15625 C 69.058594 32.429688 69.257812 32.71875 69.574219 32.800781 C 69.886719 32.882812 70.195312 32.726562 70.265625 32.453125 L 69.929688 34.128906 L 70.082031 34.386719 L 70.246094 34.859375 L 70.207031 35.011719 L 73.5 35.875 L 73.535156 35.722656 L 73.902344 35.386719 L 74.15625 35.238281 L 74.652344 33.601562 C 74.582031 33.875 74.78125 34.164062 75.09375 34.246094 C 75.410156 34.328125 75.71875 34.175781 75.789062 33.902344 C 75.855469 33.625 75.65625 33.339844 75.34375 33.257812 C 75.273438 33.238281 75.199219 33.230469 75.132812 33.234375 L 75.144531 33.179688 L 74.804688 33.09375 L 75.242188 31.648438 C 75.183594 31.917969 75.378906 32.199219 75.6875 32.28125 C 76.003906 32.363281 76.3125 32.207031 76.382812 31.933594 C 76.449219 31.660156 76.25 31.371094 75.9375 31.289062 C 75.867188 31.269531 75.796875 31.265625 75.730469 31.269531 L 75.746094 31.214844 L 75.398438 31.125 L 75.867188 29.582031 C 75.808594 29.851562 76.003906 30.132812 76.3125 30.214844 C 76.628906 30.296875 76.9375 30.140625 77.007812 29.867188 C 77.074219 29.59375 76.875 29.304688 76.5625 29.222656 C 76.492188 29.203125 76.425781 29.199219 76.363281 29.199219 L 76.375 29.152344 L 76.023438 29.058594 L 76.890625 26.191406 C 76.882812 25.484375 75.460938 24.566406 74.632812 24.347656 Z M 72.371094 27.023438 C 72.550781 27.0625 72.699219 27.21875 72.648438 27.472656 L 72.519531 28.140625 L 71.742188 27.9375 L 71.859375 27.363281 C 71.917969 27.082031 72.167969 26.976562 72.371094 27.023438 Z M 75.324219 27.796875 C 75.539062 27.839844 75.734375 28.0625 75.648438 28.355469 L 75.480469 28.917969 L 74.703125 28.714844 L 74.90625 28.0625 C 74.976562 27.832031 75.15625 27.761719 75.324219 27.796875 Z M 71.636719 28.460938 L 72.417969 28.664062 L 72.109375 30.265625 L 71.308594 30.054688 Z M 74.546875 29.222656 L 75.328125 29.425781 L 74.863281 30.984375 L 74.066406 30.777344 Z M 71.203125 30.578125 L 72.007812 30.789062 L 71.71875 32.285156 L 70.898438 32.070312 Z M 73.90625 31.285156 L 74.710938 31.496094 L 74.277344 32.953125 L 73.457031 32.738281 Z M 70.789062 32.589844 L 71.621094 32.808594 L 71.589844 32.953125 C 71.464844 33.621094 70.605469 33.5 70.742188 32.816406 Z M 73.296875 33.25 L 74.128906 33.464844 L 74.0625 33.683594 C 73.863281 34.351562 73.054688 34.039062 73.253906 33.390625 Z M 70.101562 35.394531 L 64.269531 56.960938 C 58.695312 56.03125 56.335938 58.105469 55.460938 60.621094 C 54.625 63.011719 55.519531 66.117188 55.085938 67.496094 C 54.210938 70.273438 48.953125 71.421875 47.566406 78.0625 C 45.957031 85.742188 52.210938 88.820312 58.09375 90.363281 C 63.980469 91.90625 70.910156 92.28125 73.113281 84.753906 C 75.015625 78.25 70.945312 74.660156 71.484375 71.792969 C 71.753906 70.371094 73.996094 68.089844 74.390625 65.582031 C 74.800781 62.945312 73.710938 59.964844 68.386719 58.039062 L 73.410156 36.257812 L 73.300781 36.71875 L 69.984375 35.847656 Z M 69.105469 39.1875 L 72.503906 40.078125 L 72.378906 40.582031 L 68.976562 39.6875 Z M 68.019531 43.175781 L 71.578125 44.109375 L 71.457031 44.613281 L 67.890625 43.679688 Z M 67.023438 46.839844 L 70.730469 47.808594 L 70.605469 48.3125 L 66.894531 47.34375 Z M 66.171875 49.980469 L 70 50.984375 L 69.878906 51.488281 L 66.042969 50.484375 Z M 65.371094 52.925781 L 69.316406 53.960938 L 69.195312 54.464844 L 65.242188 53.429688 Z M 64.648438 55.578125 L 68.703125 56.640625 L 68.578125 57.144531 L 64.519531 56.078125 Z M 64.027344 57.863281 L 68.171875 58.949219 L 68.050781 59.453125 L 63.898438 58.367188 Z M 63.457031 59.960938 L 67.6875 61.066406 L 67.5625 61.570312 L 63.328125 60.460938 Z M 62.953125 61.8125 L 67.257812 62.941406 L 67.132812 63.445312 L 62.824219 62.316406 Z M 62.511719 63.441406 L 66.878906 64.585938 L 66.757812 65.089844 L 62.382812 63.941406 Z M 66.648438 65.566406 C 67.605469 66.589844 68.039062 68.058594 67.679688 69.503906 C 67.113281 71.753906 64.828125 73.097656 62.570312 72.507812 C 60.308594 71.914062 58.9375 69.609375 59.5 67.359375 C 59.863281 65.914062 60.933594 64.84375 62.253906 64.417969 L 61.964844 65.484375 C 61.183594 65.90625 60.574219 66.644531 60.339844 67.578125 C 59.894531 69.367188 60.984375 71.199219 62.777344 71.667969 C 64.574219 72.140625 66.390625 71.070312 66.835938 69.28125 C 67.070312 68.347656 66.886719 67.402344 66.398438 66.644531 Z M 64.328125 65.480469 C 64.355469 65.488281 64.382812 65.496094 64.410156 65.503906 C 64.4375 65.511719 64.464844 65.519531 64.492188 65.527344 C 64.519531 65.535156 64.546875 65.542969 64.574219 65.554688 C 64.625 65.570312 64.675781 65.59375 64.730469 65.613281 L 64.804688 65.644531 C 64.855469 65.667969 64.90625 65.691406 64.953125 65.71875 C 65.152344 65.816406 65.332031 65.9375 65.5 66.074219 C 65.582031 66.140625 65.664062 66.214844 65.738281 66.289062 C 65.851562 66.402344 65.953125 66.527344 66.046875 66.65625 C 66.078125 66.699219 66.109375 66.742188 66.140625 66.789062 C 66.195312 66.875 66.25 66.96875 66.300781 67.0625 C 66.628906 67.703125 66.734375 68.457031 66.546875 69.203125 C 66.140625 70.835938 64.484375 71.808594 62.847656 71.382812 C 61.210938 70.953125 60.21875 69.285156 60.625 67.652344 C 60.8125 66.90625 61.261719 66.296875 61.851562 65.898438 C 61.894531 65.867188 61.941406 65.839844 61.984375 65.8125 C 62.03125 65.785156 62.074219 65.757812 62.121094 65.734375 C 62.308594 65.632812 62.503906 65.554688 62.707031 65.496094 C 62.757812 65.480469 62.808594 65.46875 62.859375 65.457031 C 62.910156 65.445312 62.957031 65.433594 63.003906 65.425781 L 63.035156 65.417969 C 63.082031 65.410156 63.128906 65.40625 63.175781 65.398438 C 63.332031 65.378906 63.492188 65.371094 63.652344 65.378906 L 63.671875 65.378906 C 63.722656 65.378906 63.777344 65.382812 63.828125 65.390625 C 63.855469 65.390625 63.882812 65.394531 63.910156 65.398438 L 63.992188 65.410156 L 64.070312 65.421875 C 64.101562 65.425781 64.128906 65.433594 64.160156 65.4375 C 64.1875 65.445312 64.214844 65.449219 64.242188 65.457031 C 64.269531 65.464844 64.296875 65.46875 64.324219 65.476562 Z M 55.046875 77.175781 L 66.96875 80.300781 C 67.140625 80.34375 67.230469 80.589844 67.164062 80.847656 L 66.824219 82.203125 C 66.757812 82.460938 66.570312 82.632812 66.394531 82.589844 L 54.472656 79.464844 C 54.300781 79.417969 54.210938 79.175781 54.277344 78.914062 L 54.617188 77.5625 C 54.679688 77.300781 54.871094 77.128906 55.046875 77.175781 Z M 55.046875 77.175781 " fill-opacity="1" fill-rule="nonzero"/></g></g></g></g><g clip-path="url(#clip-4)"><path fill="rgb(0%, 0%, 0%)" d="M 59.59375 29.507812 C 59.601562 29.507812 59.859375 29.546875 59.867188 29.546875 C 59.871094 29.59375 59.875 29.640625 59.882812 29.6875 C 60.433594 29.460938 60.4375 30.003906 60.453125 30.332031 C 66.933594 30.007812 66.261719 31.28125 61.953125 31.984375 C 61.445312 32.070312 60.933594 32.132812 60.421875 32.191406 C 60.457031 32.367188 60.566406 32.304688 60.597656 33 C 60.636719 32.976562 60.675781 32.945312 60.722656 32.941406 C 60.773438 32.972656 60.765625 32.996094 60.554688 33.542969 C 60.558594 33.75 60.574219 33.960938 60.582031 34.167969 C 60.546875 34.175781 60.515625 34.1875 60.480469 34.195312 C 60.539062 35.828125 60.597656 37.464844 60.652344 39.097656 C 61.214844 39.117188 61.476562 39.027344 61.484375 39.46875 C 61.867188 39.4375 62.253906 39.425781 62.636719 39.414062 C 63.085938 39.398438 63.53125 39.390625 63.980469 39.382812 C 63.980469 39.316406 63.980469 39.25 63.980469 39.183594 C 64.019531 39.167969 64.054688 39.15625 64.09375 39.140625 C 64.097656 39.101562 64.105469 39.066406 64.109375 39.027344 C 64.085938 39.007812 64.0625 38.988281 64.039062 38.972656 C 64.050781 38.953125 64.066406 38.933594 64.078125 38.914062 C 64.066406 38.886719 64.050781 38.855469 64.039062 38.828125 C 64.054688 38.816406 64.074219 38.800781 64.09375 38.789062 C 64.058594 38.746094 64.039062 38.695312 64.03125 38.640625 C 63.964844 38.644531 63.898438 38.671875 63.839844 38.699219 C 63.773438 38.929688 63.511719 39.085938 63.566406 38.699219 C 63.597656 38.519531 63.71875 38.203125 63.746094 38.171875 C 63.773438 38.144531 63.824219 38.128906 63.851562 38.160156 C 63.941406 38.257812 63.824219 38.453125 64.050781 38.421875 C 64.078125 38.191406 64.039062 38.183594 64.222656 38.171875 C 64.339844 34.957031 64.421875 34.941406 64.378906 38.1875 C 64.445312 38.195312 64.507812 38.214844 64.566406 38.246094 C 64.542969 38.257812 64.519531 38.273438 64.496094 38.289062 C 64.597656 38.445312 64.476562 38.71875 64.515625 38.855469 C 64.464844 38.875 64.40625 38.894531 64.386719 38.953125 C 64.433594 38.96875 64.480469 38.980469 64.53125 38.996094 C 64.507812 39.007812 64.488281 39.019531 64.464844 39.03125 C 64.460938 39.066406 64.457031 39.105469 64.453125 39.140625 C 64.484375 39.167969 64.519531 39.199219 64.550781 39.226562 C 64.546875 39.289062 64.542969 39.347656 64.535156 39.410156 C 69.675781 39.617188 70.039062 40.964844 64.867188 40.890625 C 64.863281 40.976562 64.867188 41.058594 64.863281 41.144531 C 64.722656 41.300781 64.789062 41.253906 64.671875 41.289062 C 64.628906 41.339844 64.570312 41.363281 64.507812 41.375 C 64.484375 41.519531 64.480469 41.667969 64.464844 41.8125 C 64.4375 41.824219 64.410156 41.832031 64.378906 41.84375 C 64.332031 43.726562 64.285156 45.609375 64.238281 47.496094 C 64.277344 47.503906 64.335938 47.5 64.359375 47.542969 C 64.375 47.617188 64.371094 47.691406 64.378906 47.765625 C 64.488281 47.785156 64.609375 47.789062 64.699219 47.863281 C 64.683594 48.011719 64.6875 48.160156 64.679688 48.308594 C 64.578125 48.328125 64.480469 48.34375 64.378906 48.363281 C 64.382812 48.527344 64.382812 48.691406 64.335938 48.847656 C 64.324219 48.894531 64.300781 48.933594 64.265625 48.96875 C 64.234375 50.226562 64.210938 51.484375 64.179688 52.742188 C 64.496094 52.789062 64.566406 52.835938 64.542969 52.984375 C 64.632812 53.050781 65.464844 55.480469 65.492188 55.5625 C 65.558594 55.59375 65.628906 55.59375 65.539062 55.8125 C 65.550781 55.832031 66.367188 57.71875 66.464844 58.453125 C 66.660156 58.515625 66.605469 58.515625 66.691406 58.804688 C 66.675781 58.816406 66.664062 58.828125 66.652344 58.839844 C 66.65625 58.859375 66.664062 58.878906 66.671875 58.898438 C 66.664062 58.902344 66.652344 58.917969 66.644531 58.925781 C 66.65625 58.945312 66.671875 58.96875 66.683594 58.992188 C 66.664062 59.042969 66.703125 59.078125 66.734375 59.113281 C 66.742188 59.175781 66.769531 59.246094 66.738281 59.308594 C 66.589844 59.554688 65.8125 59.476562 66.078125 59.148438 C 66.085938 59.117188 66.058594 59.09375 66.042969 59.070312 C 66.066406 59.046875 66.074219 59.015625 66.058594 58.984375 C 66.070312 58.972656 66.085938 58.960938 66.097656 58.949219 C 66.078125 58.886719 65.949219 58.820312 66.179688 58.664062 C 66.152344 58.183594 65.464844 56.410156 65.292969 55.96875 C 65.246094 55.980469 65.199219 55.996094 65.152344 56.011719 C 65.441406 57.363281 65.730469 58.71875 66.023438 60.074219 C 67.464844 60.941406 67.722656 61.015625 67.90625 61.363281 C 68.164062 61.292969 68.71875 62.042969 68.6875 62.070312 C 68.363281 62.402344 67.898438 62.542969 67.796875 62.101562 C 67.785156 62.085938 67.769531 62.074219 67.753906 62.058594 C 67.761719 62.054688 67.777344 62.039062 67.785156 62.03125 C 67.753906 62.007812 67.71875 61.988281 67.683594 61.976562 C 67.695312 61.960938 67.703125 61.949219 67.710938 61.933594 C 67.6875 61.898438 67.546875 61.867188 67.605469 61.664062 C 67.359375 61.34375 66.503906 60.855469 66.152344 60.65625 C 66.179688 60.832031 66.207031 61.003906 66.234375 61.179688 C 66.4375 61.226562 66.40625 61.359375 66.433594 61.546875 C 66.417969 61.566406 66.394531 61.582031 66.386719 61.609375 C 66.386719 61.652344 66.429688 61.671875 66.457031 61.691406 C 66.441406 61.710938 66.40625 61.71875 66.410156 61.746094 C 66.425781 61.773438 66.449219 61.789062 66.472656 61.808594 C 66.457031 61.816406 66.445312 61.828125 66.429688 61.835938 C 66.449219 61.882812 66.484375 61.921875 66.519531 61.953125 C 66.53125 62.011719 66.550781 62.070312 66.558594 62.132812 C 66.53125 62.230469 66.238281 62.242188 66.136719 62.246094 C 65.921875 62.160156 65.800781 62.046875 65.847656 61.800781 C 65.90625 61.777344 65.894531 61.71875 65.871094 61.675781 C 65.925781 61.644531 65.886719 61.589844 65.867188 61.550781 C 65.882812 61.542969 65.894531 61.53125 65.910156 61.523438 C 65.894531 61.484375 65.867188 61.457031 65.832031 61.433594 C 65.824219 61.308594 65.855469 61.253906 65.992188 61.179688 C 65.964844 60.953125 65.9375 60.726562 65.90625 60.5 C 65.542969 60.292969 65.175781 60.085938 64.808594 59.875 C 64.792969 60 64.78125 60.121094 64.765625 60.246094 C 63.660156 60.535156 64.058594 60.441406 63.296875 60.492188 C 63.234375 60.527344 61.878906 61.484375 61.636719 61.652344 C 61.632812 61.691406 61.628906 61.726562 61.625 61.765625 C 61.472656 61.785156 61.320312 61.800781 61.171875 61.824219 C 61.085938 61.941406 60.972656 61.964844 60.769531 61.953125 C 60.761719 61.972656 60.730469 62.167969 60.632812 62.097656 C 60.617188 62.074219 60.609375 62.046875 60.59375 62.023438 C 60.542969 62.011719 60.523438 62.082031 60.480469 62.097656 C 60.441406 62.09375 60.414062 62.0625 60.382812 62.039062 C 60.417969 61.914062 60.300781 61.816406 60.210938 61.75 C 59.992188 62.804688 59.773438 63.859375 59.554688 64.914062 C 59.679688 65.011719 59.671875 65.179688 59.652344 65.355469 C 59.585938 65.410156 59.578125 65.390625 59.605469 65.511719 C 59.59375 65.523438 59.582031 65.535156 59.574219 65.546875 C 59.570312 65.578125 59.59375 65.601562 59.605469 65.628906 C 59.539062 65.695312 59.53125 65.683594 59.609375 65.777344 C 59.589844 65.878906 59.609375 66.003906 59.527344 66.078125 L 59.523438 66.085938 L 59.5 66.085938 C 59.273438 65.972656 58.871094 66.207031 59.050781 65.636719 C 59.078125 65.625 59.117188 65.621094 59.128906 65.589844 C 59.132812 65.558594 59.113281 65.535156 59.101562 65.507812 C 59.121094 65.496094 59.140625 65.488281 59.15625 65.476562 C 59.171875 65.441406 59.144531 65.410156 59.132812 65.378906 C 59.152344 65.371094 59.179688 65.367188 59.195312 65.347656 C 59.210938 65.304688 59.183594 65.265625 59.167969 65.230469 C 59.199219 65.042969 59.175781 64.929688 59.382812 64.890625 C 59.605469 63.820312 59.828125 62.75 60.054688 61.679688 C 60.011719 61.660156 59.96875 61.644531 59.925781 61.625 C 59.929688 61.550781 59.933594 61.480469 59.9375 61.410156 C 59.609375 61.070312 59.285156 60.730469 58.953125 60.390625 C 58.769531 60.414062 58.484375 60.375 58.300781 60.34375 C 58.347656 60.433594 58.4375 60.863281 57.8125 60.699219 C 57.859375 60.28125 57.710938 60.597656 57.882812 59.734375 C 57.710938 59.628906 57.640625 59.382812 57.597656 59.179688 C 54.804688 60.726562 54.972656 60.566406 54.800781 60.835938 C 54.949219 60.964844 54.636719 61.453125 54.414062 61.46875 C 54.421875 61.554688 54.433594 61.636719 54.441406 61.722656 C 54.472656 61.722656 54.507812 61.722656 54.542969 61.722656 C 54.566406 61.875 54.589844 62.023438 54.613281 62.175781 C 54.742188 62.1875 54.765625 62.1875 54.804688 62.304688 C 54.824219 62.296875 54.847656 62.285156 54.871094 62.277344 C 55.058594 61.148438 55.496094 62.917969 55.117188 62.851562 C 55.101562 62.839844 54.867188 62.519531 54.859375 62.507812 C 54.78125 62.683594 54.714844 62.640625 54.5 62.71875 C 54.519531 62.875 54.535156 63.03125 54.554688 63.183594 C 54.582031 63.1875 54.609375 63.183594 54.636719 63.191406 C 54.75 63.277344 55.226562 64.585938 54.953125 64.765625 C 54.105469 65.328125 53.941406 64.195312 54.214844 63.242188 C 54.238281 63.238281 54.261719 63.234375 54.285156 63.230469 C 54.253906 63.074219 54.226562 62.917969 54.199219 62.761719 C 54.144531 62.757812 54.09375 62.75 54.042969 62.746094 C 53.992188 62.445312 53.945312 62.140625 53.898438 61.835938 C 53.925781 61.816406 53.957031 61.800781 53.984375 61.78125 C 53.894531 61.175781 53.804688 60.566406 53.714844 59.960938 C 53.6875 59.945312 53.664062 59.933594 53.640625 59.917969 C 53.628906 59.804688 53.613281 59.691406 53.597656 59.578125 C 53.554688 59.621094 53.511719 59.664062 53.46875 59.707031 C 53.421875 59.675781 53.375 59.648438 53.328125 59.621094 C 52.921875 60.183594 52.519531 60.746094 52.113281 61.3125 C 52.125 61.328125 52.132812 61.347656 52.140625 61.367188 C 51.957031 61.601562 51.53125 62.238281 51.285156 61.953125 C 50.453125 62.8125 49.226562 63.484375 48.105469 63.855469 C 48.140625 64.25 47.351562 64.378906 47.3125 63.996094 C 46.125 64.285156 44.777344 64.109375 43.6875 63.671875 C 43.667969 63.699219 43.652344 63.726562 43.632812 63.753906 C 43.5 63.753906 43.363281 63.753906 43.230469 63.753906 C 43.128906 63.648438 43.023438 63.539062 42.917969 63.429688 C 42.917969 63.386719 42.917969 63.34375 42.917969 63.300781 C 41.789062 62.785156 40.761719 61.859375 40.117188 60.957031 C 40.085938 60.976562 40.050781 60.996094 40.019531 61.011719 C 39.671875 60.878906 39.476562 60.5625 39.691406 60.332031 C 39.507812 60.066406 39.378906 59.769531 39.246094 59.476562 C 39.121094 59.898438 38.992188 60.320312 38.863281 60.742188 C 38.890625 60.746094 38.917969 60.753906 38.949219 60.757812 C 38.886719 61.046875 38.824219 61.335938 38.761719 61.625 C 38.679688 61.625 38.601562 61.625 38.519531 61.625 C 38.476562 61.765625 38.433594 61.90625 38.394531 62.046875 C 38.632812 62.167969 38.34375 64.539062 37.480469 63.34375 C 37.453125 63.300781 37.425781 63.242188 37.4375 63.191406 C 37.601562 62.949219 37.871094 62.007812 38.121094 61.949219 C 38.160156 61.8125 38.195312 61.675781 38.234375 61.539062 C 38.015625 61.425781 38.226562 61.570312 37.675781 61.054688 C 37.6875 61.035156 37.695312 61.015625 37.707031 61 C 37.84375 61.035156 37.980469 61.074219 38.121094 61.113281 C 38.246094 60.996094 38.191406 61.125 38.347656 60.601562 C 38.382812 60.597656 38.414062 60.589844 38.449219 60.585938 C 38.566406 60.179688 38.6875 59.769531 38.804688 59.363281 C 38.328125 59.585938 38.167969 59.640625 37.191406 60.273438 C 37.1875 60.3125 37.183594 60.351562 37.175781 60.386719 C 36.433594 60.359375 36.625 60.527344 36.207031 60.472656 C 36.101562 60.539062 35.992188 60.605469 35.863281 60.617188 C 35.863281 60.589844 35.863281 60.558594 35.863281 60.53125 C 35.835938 60.542969 35.804688 60.558594 35.777344 60.570312 C 35.753906 60.5625 35.730469 60.554688 35.707031 60.542969 C 35.703125 60.507812 35.695312 60.46875 35.691406 60.429688 C 35.28125 60.234375 34.875 60.042969 34.464844 59.847656 C 32.730469 62.808594 32.871094 62.488281 32.59375 63.230469 C 32.789062 63.730469 32.558594 63.40625 32.601562 63.679688 C 32.566406 63.714844 32.550781 63.695312 32.601562 63.789062 C 32.542969 63.824219 32.605469 64.320312 32.265625 64.183594 C 31.957031 64.078125 31.789062 64.0625 31.785156 63.914062 C 31.789062 63.84375 31.824219 63.78125 31.851562 63.71875 C 31.9375 63.695312 31.9375 63.714844 31.957031 63.578125 C 31.972656 63.566406 31.996094 63.558594 32.007812 63.542969 C 32.011719 63.515625 32.003906 63.488281 32 63.460938 C 32.050781 63.414062 32.0625 63.4375 32.023438 63.328125 C 32.148438 63.09375 32.164062 63 32.378906 63.027344 C 32.710938 62.238281 32.367188 62.902344 34.234375 59.648438 C 34.191406 59.542969 34.191406 59.449219 34.320312 59.347656 C 34.34375 59.359375 34.367188 59.367188 34.394531 59.378906 C 34.570312 59.066406 34.746094 58.753906 34.921875 58.441406 C 34.675781 58.054688 34.460938 58.117188 34.234375 57.6875 C 32.578125 58.941406 32.652344 58.871094 32.613281 58.945312 C 32.589844 59 32.574219 59.070312 32.609375 59.125 C 32.632812 59.160156 32.640625 59.214844 32.605469 59.25 C 32.539062 59.328125 32.527344 59.4375 32.542969 59.539062 C 32.566406 59.625 32.195312 59.675781 32.105469 59.609375 C 31.988281 59.527344 31.929688 59.394531 31.855469 59.273438 C 31.734375 59.09375 34.871094 56.355469 35.921875 56.390625 C 35.910156 55.035156 35.902344 53.675781 35.890625 52.316406 C 35.441406 52.226562 34.617188 52.027344 34.449219 51.601562 C 34.1875 56.1875 34.46875 55.3125 33.574219 56.375 C 33.511719 56.449219 33.449219 56.527344 33.378906 56.59375 C 33.007812 56.953125 33.027344 57.308594 33.078125 57.816406 C 32.933594 57.953125 32.804688 57.894531 32.652344 57.761719 C 32.765625 57.636719 32.777344 57.460938 32.792969 57.304688 C 32.816406 57.289062 32.839844 57.273438 32.867188 57.261719 C 32.878906 57.171875 32.886719 57.085938 32.902344 56.996094 C 32.9375 56.851562 33.019531 56.726562 33.117188 56.617188 C 33.21875 56.503906 33.316406 56.386719 33.414062 56.273438 C 34.824219 54.703125 33.808594 52.769531 34.304688 51.191406 C 33.90625 51.007812 34.011719 50.976562 34.0625 50.542969 C 33.960938 50.417969 34.019531 50.320312 34.121094 50.183594 C 34.121094 50.117188 34.121094 50.050781 34.121094 49.980469 C 33.964844 49.953125 33.957031 49.976562 33.917969 50.082031 C 33.835938 50.070312 33.757812 50.054688 33.675781 50.042969 C 33.652344 49.867188 33.691406 49.691406 33.765625 49.53125 C 33.84375 49.539062 33.925781 49.546875 34.007812 49.558594 C 34.007812 49.605469 34.007812 49.65625 34.007812 49.703125 C 34.496094 49.800781 34.359375 49.679688 34.480469 45.835938 C 34.402344 45.832031 34.324219 45.824219 34.25 45.820312 C 34.179688 45.660156 34.15625 45.464844 34.246094 45.308594 C 34.324219 45.308594 34.402344 45.308594 34.476562 45.308594 C 34.488281 45.042969 34.496094 44.777344 34.507812 44.511719 C 34.527344 44.5 34.546875 44.484375 34.5625 44.46875 C 34.585938 44.058594 34.617188 44.125 34.492188 44.039062 C 34.472656 43.929688 34.492188 43.808594 34.574219 43.730469 C 34.601562 43.613281 34.582031 43.617188 34.710938 43.644531 C 34.734375 43.625 34.753906 43.609375 34.777344 43.589844 C 34.808594 43.4375 34.601562 43.082031 35.992188 42.992188 C 36.027344 38.863281 36.171875 39.898438 35.59375 38.492188 C 35.328125 38.484375 35.152344 37.917969 35.261719 37.71875 C 34.5 35.929688 34.628906 35.769531 33.90625 35.925781 C 33.808594 35.921875 33.71875 35.835938 33.730469 35.734375 C 33.894531 35.632812 34.015625 35.511719 34.132812 35.566406 C 34.15625 35.550781 34.183594 35.53125 34.210938 35.515625 C 34.1875 35.136719 33.84375 35.457031 31.574219 34 C 25.070312 29.800781 34.125 30.597656 39.367188 34.375 C 42.769531 36.78125 40.199219 37.660156 34.921875 35.660156 C 34.945312 35.734375 34.96875 35.8125 34.992188 35.886719 C 34.953125 35.914062 34.917969 35.945312 34.878906 35.972656 C 35.117188 36.496094 35.355469 37.023438 35.59375 37.546875 C 36.105469 37.40625 36.617188 37.316406 36.621094 37.847656 C 36.664062 37.84375 36.707031 37.839844 36.75 37.832031 C 36.796875 37.691406 36.84375 37.550781 36.890625 37.40625 C 36.941406 37.417969 36.988281 37.425781 37.035156 37.4375 C 37.121094 38.210938 37.125 38.011719 37.019531 38.542969 C 36.988281 38.53125 36.953125 38.515625 36.921875 38.5 C 36.867188 38.382812 36.816406 38.265625 36.761719 38.144531 C 36.714844 38.152344 36.667969 38.15625 36.621094 38.160156 C 36.617188 38.277344 36.601562 38.425781 36.476562 38.480469 C 36.472656 38.6875 36.46875 38.890625 36.464844 39.097656 C 36.429688 39.117188 36.398438 39.136719 36.363281 39.15625 C 36.367188 39.652344 37.136719 41.046875 37.328125 41.492188 C 37.339844 41.570312 37.292969 41.804688 36.921875 41.6875 C 36.527344 40.726562 37.035156 41.664062 36.378906 40.398438 C 36.367188 41.253906 36.359375 42.109375 36.347656 42.964844 C 36.59375 42.90625 37.007812 42.914062 37.261719 42.921875 C 37.152344 42.675781 37.664062 41.503906 37.789062 41.414062 C 38.03125 41.445312 38.277344 41.472656 38.519531 41.5 C 38.660156 41.296875 38.621094 41.28125 38.761719 41.1875 C 38.984375 41.230469 39.105469 41.160156 39.007812 41.601562 C 39.367188 41.652344 39.460938 41.6875 39.476562 41.613281 C 39.445312 41.527344 39.351562 41.496094 39.578125 41.414062 C 39.65625 41.183594 39.601562 41.160156 39.484375 41.15625 C 39.308594 40.9375 40.304688 40.707031 40.023438 41.0625 C 39.960938 41.117188 39.789062 41.1875 39.816406 41.484375 C 39.945312 41.492188 40.078125 41.496094 40.207031 41.5 C 40.269531 41.382812 40.25 41.144531 40.421875 41.222656 C 40.570312 40.695312 40.515625 40.988281 40.730469 40.011719 C 40.664062 39.84375 40.699219 39.804688 40.800781 39.734375 C 40.832031 39.554688 40.847656 39.589844 40.917969 39.589844 C 41.082031 39.4375 41.296875 39.363281 41.5 39.285156 C 41.503906 39.132812 41.496094 39.09375 41.664062 39.152344 C 42.5625 38.417969 44.46875 38.671875 45.605469 38.90625 C 45.894531 38.964844 46.179688 39.03125 46.464844 39.105469 C 46.972656 39.234375 47.46875 39.402344 47.9375 39.632812 C 48.210938 39.765625 48.476562 39.925781 48.703125 40.132812 C 49.144531 40.550781 49.035156 40.742188 49 41.074219 C 49.25 41.367188 49 41.488281 48.929688 41.925781 C 48.894531 41.921875 48.863281 41.917969 48.828125 41.914062 C 48.800781 42.050781 48.773438 42.1875 48.742188 42.324219 C 48.761719 42.347656 48.78125 42.371094 48.800781 42.394531 C 48.761719 42.589844 48.726562 42.785156 48.6875 42.976562 C 48.78125 43.007812 48.878906 43.03125 48.96875 43.066406 C 49.101562 43.195312 48.941406 43.46875 48.816406 43.617188 C 48.738281 43.597656 48.664062 43.578125 48.585938 43.5625 C 48.496094 44.082031 48.40625 44.601562 48.316406 45.121094 C 48.34375 45.164062 48.371094 45.210938 48.363281 45.265625 C 48.359375 45.316406 48.324219 45.359375 48.289062 45.394531 C 48.316406 45.472656 48.339844 45.554688 48.316406 45.636719 C 48.300781 45.6875 48.265625 45.730469 48.230469 45.765625 C 48.21875 45.878906 48.199219 45.988281 48.136719 46.085938 C 48.105469 46.136719 48.117188 46.203125 48.078125 46.25 C 48.050781 46.28125 48.011719 46.257812 47.984375 46.25 C 47.113281 46.683594 45.921875 46.640625 44.960938 46.515625 C 44.28125 46.425781 43.605469 46.285156 42.945312 46.089844 C 42.894531 47.398438 42.84375 48.703125 42.789062 50.007812 C 42.90625 49.84375 43.378906 49.621094 43.53125 49.613281 C 44.082031 48.992188 44.871094 48.492188 45.617188 48.152344 C 45.601562 48.09375 45.589844 48.035156 45.574219 47.980469 C 45.839844 47.785156 46.011719 47.800781 46.132812 47.851562 C 46.148438 47.84375 46.167969 47.835938 46.183594 47.824219 C 46.21875 47.683594 46.316406 47.65625 46.5 47.597656 C 46.675781 47.359375 47.046875 47.464844 47.078125 47.652344 C 48.195312 47.382812 49.5 47.496094 50.570312 47.878906 C 50.785156 47.601562 51.347656 47.890625 51.257812 48.195312 C 52.28125 48.640625 53.25 49.496094 53.910156 50.363281 C 54.097656 50.304688 54.375 50.554688 54.386719 50.578125 C 54.421875 50.640625 54.414062 50.710938 54.40625 50.777344 C 54.398438 50.832031 54.4375 50.886719 54.414062 50.9375 C 54.398438 50.984375 54.351562 51.003906 54.316406 51.027344 C 54.847656 51.996094 55.289062 53.265625 55.242188 54.347656 C 55.285156 54.347656 55.328125 54.347656 55.371094 54.347656 C 55.632812 54.9375 55.363281 55.1875 55.171875 55.175781 C 55.195312 55.820312 54.785156 56.816406 54.511719 57.402344 C 55.722656 56.753906 55.25 56.980469 55.910156 56.695312 C 55.886719 56.640625 55.875 56.574219 55.914062 56.523438 C 56.023438 56.453125 56.078125 56.59375 56.101562 56.648438 C 56.671875 56.480469 56.28125 56.542969 56.796875 56.4375 C 56.828125 55.738281 56.855469 55.035156 56.882812 54.335938 C 56.679688 54.148438 56.882812 53.847656 56.667969 53.476562 C 56.382812 53.824219 56.113281 53.359375 56.058594 53.1875 C 56.261719 53.175781 56.160156 53.3125 56.59375 53.253906 C 56.617188 53.078125 56.796875 53.09375 56.984375 53.109375 C 57.003906 52.320312 57.019531 51.527344 57.039062 50.738281 C 56.9375 50.734375 56.832031 50.730469 56.726562 50.722656 C 56.472656 51.945312 56.3125 51.746094 56.285156 51.054688 C 56.132812 50.980469 56.21875 50.921875 56.191406 50.828125 C 56.148438 50.757812 56.058594 50.75 55.984375 50.734375 C 55.984375 50.640625 56 50.546875 55.996094 50.453125 C 55.9375 50.269531 55.804688 50.21875 55.941406 50.0625 C 55.851562 49.609375 55.585938 49.726562 55.183594 48.675781 C 53.378906 48.363281 53.398438 48.410156 53.542969 47.839844 C 53.15625 47.753906 53.136719 47.714844 53.167969 47.910156 C 53.246094 47.941406 53.320312 47.976562 53.398438 48.007812 C 53.152344 48.039062 53.097656 48.101562 52.488281 47.769531 C 52.441406 47.832031 52.363281 47.839844 52.292969 47.851562 C 52.164062 47.992188 52.011719 47.871094 51.605469 47.671875 C 51.617188 47.667969 51.640625 47.65625 51.65625 47.652344 C 51.632812 47.613281 51.59375 47.589844 51.558594 47.566406 C 51.480469 46.863281 51.363281 46.707031 51.96875 46.417969 C 51.507812 46.355469 51.042969 46.285156 50.617188 46.105469 C 50.292969 45.960938 49.945312 45.710938 50.070312 45.378906 C 49.953125 45.136719 49.976562 45.277344 49.972656 45.039062 C 49.9375 45.007812 49.90625 44.972656 49.871094 44.941406 C 49.871094 44.855469 49.871094 44.769531 49.871094 44.683594 C 49.894531 44.679688 49.917969 44.675781 49.945312 44.667969 C 49.945312 44.667969 49.898438 44.28125 49.914062 42.394531 C 49.824219 42.386719 49.734375 42.375 49.640625 42.367188 C 49.539062 42.183594 49.585938 41.957031 49.6875 41.785156 C 49.761719 41.789062 49.839844 41.792969 49.914062 41.800781 C 49.921875 41.589844 49.925781 41.382812 49.929688 41.171875 C 49.953125 41.171875 49.976562 41.171875 50 41.171875 C 50 41.050781 50 40.925781 50 40.804688 C 49.957031 40.785156 49.914062 40.765625 49.871094 40.746094 C 49.878906 40.65625 49.882812 40.566406 49.886719 40.476562 C 49.917969 40.472656 49.953125 40.46875 49.988281 40.460938 C 49.992188 40.402344 49.996094 40.339844 50 40.277344 C 50.035156 40.28125 50.066406 40.289062 50.097656 40.292969 C 50.65625 38.910156 57.179688 38.867188 57.328125 41.097656 C 57.410156 41.203125 57.425781 41.25 57.3125 41.359375 C 57.304688 41.582031 57.304688 41.804688 57.296875 42.027344 C 57.335938 42.0625 57.375 42.101562 57.414062 42.140625 C 57.628906 42.105469 57.492188 42.109375 57.910156 42.125 C 57.917969 42.0625 57.921875 42.003906 57.925781 41.941406 C 57.753906 41.832031 57.667969 41.8125 57.695312 41.726562 C 57.738281 41.6875 57.804688 41.730469 57.953125 41.769531 C 58.042969 41.730469 58.140625 41.707031 58.191406 41.804688 C 58.195312 41.832031 58.1875 41.859375 58.183594 41.882812 C 58.527344 42.125 58.484375 42.191406 58.167969 42.082031 C 58.160156 42.125 58.148438 42.167969 58.140625 42.207031 C 58.1875 42.277344 58.199219 42.359375 58.199219 42.4375 L 58.636719 42.4375 C 58.667969 42.117188 58.78125 42.082031 59.109375 42.167969 C 59.117188 42.242188 59.121094 42.320312 59.125 42.394531 C 59.449219 42.410156 59.871094 42.417969 59.933594 42.429688 C 60.074219 42.519531 60.179688 43.109375 60.210938 43.273438 C 60.625 43.585938 60.136719 44.035156 60.09375 44.441406 C 60.277344 44.484375 60.457031 44.542969 60.628906 44.609375 C 60.640625 44.574219 60.664062 44.546875 60.695312 44.523438 C 60.726562 44.535156 60.761719 44.546875 60.796875 44.554688 C 60.792969 44.234375 60.785156 43.914062 60.78125 43.589844 C 60.671875 43.65625 60.53125 43.644531 60.425781 43.578125 C 60.390625 42.480469 60.359375 41.386719 60.324219 40.292969 C 60.003906 40.160156 59.84375 40.058594 60.054688 39.878906 C 60.015625 39.59375 60.011719 39.234375 60.28125 39.121094 C 60.230469 37.480469 60.175781 35.839844 60.125 34.195312 C 60.101562 34.191406 60.078125 34.1875 60.054688 34.179688 C 60.042969 33.941406 60.035156 33.699219 60.023438 33.457031 C 59.992188 33.453125 59.957031 33.445312 59.925781 33.441406 C 59.753906 33.070312 59.710938 32.636719 59.839844 32.25 C 58.820312 32.320312 55.921875 32.523438 55 32.0625 C 54.925781 32.019531 54.839844 31.96875 54.816406 31.878906 C 54.804688 31.773438 54.882812 31.679688 54.960938 31.613281 C 55.683594 31.023438 58.441406 30.589844 59.367188 30.457031 C 59.210938 29.71875 59.476562 29.816406 59.640625 29.777344 C 59.625 29.6875 59.613281 29.59375 59.597656 29.503906 M 41.03125 39.976562 C 41.003906 40.019531 40.945312 40.019531 40.902344 40.023438 C 40.859375 40.074219 40.835938 40.140625 40.859375 40.207031 C 41.011719 40.21875 41.09375 40.230469 41.050781 40.378906 C 41.09375 40.414062 41.140625 40.453125 41.1875 40.492188 C 41.230469 40.335938 41.265625 40.179688 41.304688 40.023438 C 41.246094 39.96875 41.175781 39.921875 41.144531 39.847656 C 41.082031 39.863281 41.0625 39.929688 41.03125 39.976562 M 61.296875 40.578125 C 61.285156 40.648438 61.277344 40.71875 61.265625 40.789062 C 61.234375 40.8125 61.199219 40.835938 61.167969 40.859375 C 61.199219 44.414062 61.191406 44.171875 61.203125 44.320312 C 61.214844 44.183594 61.261719 44.027344 61.398438 44.042969 C 61.441406 44.058594 61.46875 44.097656 61.507812 44.128906 C 61.507812 44.128906 61.4375 45.054688 61.4375 45.054688 C 61.460938 45.082031 61.484375 45.109375 61.511719 45.136719 C 61.503906 45.285156 61.5 45.433594 61.496094 45.578125 C 61.457031 45.589844 61.421875 45.597656 61.382812 45.605469 C 61.425781 45.796875 61.390625 45.800781 61.324219 45.824219 C 61.328125 45.875 61.335938 45.925781 61.339844 45.976562 C 61.589844 45.972656 61.917969 45.992188 62.125 46.132812 C 62.132812 46.355469 62.144531 46.578125 62.152344 46.800781 C 62.636719 46.769531 62.160156 46.972656 61.882812 47.144531 C 61.871094 47.179688 61.863281 47.21875 61.851562 47.253906 C 61.644531 47.273438 61.441406 47.316406 61.238281 47.355469 C 61.234375 47.652344 61.230469 47.953125 61.222656 48.25 C 61.542969 48.300781 61.5 48.859375 61.398438 48.9375 C 61.382812 49.152344 61.382812 49.375 61.28125 49.570312 C 61.273438 49.925781 61.269531 50.28125 61.261719 50.636719 C 61.234375 52.230469 61.207031 53.820312 61.183594 55.414062 C 62.570312 53.332031 62.863281 53.167969 62.863281 53.167969 C 62.871094 52.902344 62.765625 52.464844 63.109375 52.96875 C 63.183594 52.847656 63.335938 52.828125 63.464844 52.835938 C 63.539062 52.808594 63.617188 52.785156 63.695312 52.769531 C 63.71875 51.515625 63.742188 50.257812 63.765625 49.003906 C 63.769531 48.953125 63.738281 48.910156 63.734375 48.863281 C 63.714844 48.695312 63.726562 48.53125 63.738281 48.363281 C 63.675781 48.34375 63.613281 48.328125 63.550781 48.308594 C 63.527344 47.546875 63.476562 47.523438 63.894531 47.46875 C 63.949219 45.589844 64 43.707031 64.050781 41.828125 C 64.027344 41.816406 64.003906 41.808594 63.980469 41.800781 C 63.949219 41.859375 63.941406 41.933594 63.679688 41.828125 C 63.679688 41.789062 63.679688 41.753906 63.679688 41.714844 C 63.816406 41.644531 63.792969 41.632812 63.851562 41.402344 C 63.808594 41.386719 63.765625 41.371094 63.722656 41.359375 C 63.726562 41.324219 63.734375 41.292969 63.738281 41.257812 C 63.691406 41.191406 63.640625 41.125 63.59375 41.058594 C 63.605469 40.988281 63.613281 40.917969 63.625 40.847656 C 62.84375 40.808594 62.0625 40.726562 61.296875 40.578125 M 50.128906 41.839844 C 50.1875 41.839844 50.242188 41.839844 50.300781 41.839844 C 50.292969 41.714844 50.28125 41.585938 50.273438 41.457031 C 50.226562 41.421875 50.175781 41.382812 50.132812 41.34375 C 50.125 41.511719 50.128906 41.675781 50.128906 41.839844 M 56.894531 41.996094 C 56.984375 41.992188 57.070312 41.988281 57.15625 41.980469 C 57.011719 41.808594 56.960938 41.84375 56.894531 41.996094 M 56.511719 41.957031 C 56.511719 42.085938 56.511719 42.21875 56.511719 42.351562 C 56.558594 42.335938 56.605469 42.316406 56.65625 42.296875 C 56.65625 42.257812 56.65625 42.21875 56.65625 42.183594 C 56.636719 42.171875 56.617188 42.164062 56.597656 42.152344 C 56.601562 42.074219 56.609375 41.992188 56.613281 41.914062 C 56.578125 41.925781 56.546875 41.941406 56.511719 41.957031 M 38.335938 42.140625 C 38.335938 42.171875 38.335938 42.207031 38.335938 42.238281 C 38.535156 42.417969 38.589844 42.652344 38.421875 42.90625 C 39.027344 42.890625 39.632812 42.917969 40.234375 43.007812 C 40.222656 42.960938 40.214844 42.914062 40.207031 42.867188 C 40.023438 42.820312 40.027344 42.664062 40.0625 42.480469 C 39.851562 42.453125 39.640625 42.425781 39.429688 42.394531 C 39.371094 42.332031 39.324219 42.246094 39.34375 42.152344 C 39.230469 42.144531 39.113281 42.136719 38.996094 42.125 C 38.996094 42.28125 38.804688 42.234375 38.519531 42.210938 C 38.519531 42.175781 38.519531 42.144531 38.519531 42.113281 C 38.460938 42.128906 38.398438 42.136719 38.335938 42.140625 M 50.128906 42.410156 C 50.074219 44.683594 50.0625 44.363281 50.113281 44.640625 C 50.167969 44.59375 50.21875 44.546875 50.273438 44.5 C 50.28125 43.820312 50.289062 43.144531 50.300781 42.464844 C 50.242188 42.449219 50.1875 42.429688 50.128906 42.410156 M 58.210938 42.949219 C 58.253906 43.324219 58.203125 43.246094 57.398438 43.25 C 57.34375 43.363281 57.289062 43.5 57.167969 43.566406 C 57.167969 43.65625 57.167969 43.75 57.167969 43.84375 C 57.144531 43.855469 57.121094 43.863281 57.097656 43.875 C 57.09375 43.894531 57.09375 43.914062 57.089844 43.933594 C 57.074219 43.800781 57 43.53125 56.828125 43.460938 C 56.824219 43.675781 56.828125 43.894531 56.828125 44.113281 C 57.359375 44.136719 57.894531 44.160156 58.425781 44.203125 C 58.710938 44.222656 59 44.242188 59.28125 44.300781 C 59.28125 44.277344 59.28125 44.253906 59.28125 44.230469 C 59.140625 44.105469 59.039062 43.925781 59.046875 43.730469 C 59.054688 43.570312 59.136719 43.425781 59.238281 43.304688 C 59.238281 43.242188 59.238281 43.179688 59.238281 43.117188 C 59.207031 43.101562 59.167969 43.074219 59.128906 43.085938 C 59.113281 43.097656 59.101562 43.109375 59.089844 43.121094 C 58.933594 43.117188 58.78125 43.109375 58.625 43.105469 C 58.597656 43.0625 58.574219 43.011719 58.605469 42.964844 C 58.476562 42.957031 58.34375 42.957031 58.210938 42.949219 M 56.527344 43.15625 C 56.511719 43.472656 56.5 43.785156 56.484375 44.101562 C 56.535156 44.109375 56.589844 44.121094 56.640625 44.128906 C 56.605469 43.195312 56.636719 43.378906 56.527344 43.15625 M 34.664062 44.101562 C 34.65625 44.222656 34.644531 44.347656 34.636719 44.46875 C 34.695312 44.554688 34.675781 44.414062 34.691406 45.308594 C 34.742188 45.3125 34.816406 45.328125 34.835938 45.265625 C 34.824219 45.191406 34.726562 44.949219 34.847656 44.835938 C 34.863281 44.628906 34.867188 44.421875 34.878906 44.214844 C 34.808594 44.175781 34.734375 44.140625 34.664062 44.101562 M 56.511719 44.300781 C 56.511719 44.371094 56.511719 44.441406 56.511719 44.511719 C 56.558594 44.542969 56.605469 44.570312 56.65625 44.597656 C 56.652344 44.5 56.644531 44.398438 56.640625 44.300781 C 56.597656 44.300781 56.554688 44.300781 56.511719 44.300781 M 34.652344 45.835938 C 34.617188 47.226562 34.585938 48.621094 34.550781 50.015625 C 34.757812 50.132812 34.683594 50.277344 34.820312 45.820312 C 34.765625 45.824219 34.707031 45.828125 34.652344 45.835938 M 51.644531 47.15625 C 51.59375 47.257812 51.59375 47.59375 51.773438 47.472656 C 51.765625 47.414062 51.761719 47.355469 51.757812 47.300781 C 51.601562 47.207031 51.664062 47.203125 51.714844 47.152344 C 51.691406 47.140625 51.660156 47.128906 51.644531 47.15625 M 51.941406 47.410156 C 51.894531 47.527344 51.902344 47.574219 52.042969 47.613281 C 52.042969 47.566406 52.042969 47.515625 52.042969 47.46875 C 52.007812 47.449219 51.976562 47.429688 51.941406 47.410156 M 52.414062 47.457031 C 52.429688 47.53125 52.441406 47.605469 52.457031 47.683594 C 52.757812 47.660156 52.617188 47.652344 52.984375 47.839844 C 53.035156 47.472656 53.179688 47.480469 52.414062 47.457031 M 52.214844 47.539062 C 52.21875 47.582031 52.222656 47.625 52.226562 47.671875 C 52.371094 47.753906 52.371094 47.609375 52.328125 47.511719 C 52.289062 47.519531 52.253906 47.53125 52.214844 47.539062 M 60.476562 47.632812 C 60.3125 47.703125 60.140625 47.746094 59.96875 47.78125 C 59.964844 47.828125 59.957031 47.875 59.953125 47.925781 C 60.007812 47.917969 60.058594 47.914062 60.113281 47.910156 C 60.191406 47.835938 60.082031 47.871094 60.695312 47.753906 C 60.695312 47.671875 60.695312 47.59375 60.695312 47.511719 C 60.617188 47.542969 60.554688 47.605469 60.476562 47.632812 M 53.925781 47.894531 C 53.832031 48.003906 53.867188 48.164062 53.886719 48.292969 C 54.050781 48.316406 54.214844 48.339844 54.378906 48.367188 C 54.40625 48.394531 54.445312 48.414062 54.484375 48.414062 C 55.941406 48.363281 53.726562 48.164062 55.742188 48.394531 C 55.722656 48.285156 55.703125 48.175781 55.683594 48.066406 C 55.453125 48.058594 55.507812 48.128906 53.925781 47.894531 M 58.125 48.054688 C 57.503906 48.09375 56.878906 48.09375 56.253906 48.082031 C 56.5625 48.660156 57.585938 48.296875 59.4375 47.925781 C 59.003906 47.984375 58.566406 48.03125 58.125 48.054688 M 60.140625 48.066406 C 60.1875 48.222656 60.28125 48.488281 60.410156 48.382812 C 60.382812 48.222656 60.53125 48.199219 60.695312 48.191406 C 60.691406 48.117188 60.6875 48.042969 60.683594 47.964844 C 60.5 48 60.320312 48.03125 60.140625 48.066406 M 55.839844 48.082031 C 55.863281 48.195312 55.886719 48.308594 55.914062 48.421875 C 55.992188 48.429688 56.074219 48.441406 56.15625 48.449219 C 56.089844 48.328125 56.023438 48.203125 55.957031 48.082031 C 55.917969 48.078125 55.878906 48.078125 55.839844 48.082031 M 59.496094 48.238281 C 59.25 48.28125 59.003906 48.332031 58.753906 48.378906 C 58.648438 48.519531 57.671875 49.800781 57.558594 49.957031 C 57.550781 50.054688 57.523438 50.964844 57.453125 53.152344 C 57.800781 53.15625 57.703125 53.582031 57.699219 53.722656 C 57.667969 53.742188 57.640625 53.761719 57.613281 53.78125 C 57.59375 53.941406 57.574219 54.101562 57.554688 54.261719 C 57.527344 54.285156 57.496094 54.308594 57.46875 54.332031 C 57.460938 55.023438 57.449219 55.71875 57.441406 56.410156 C 57.46875 56.441406 57.496094 56.472656 57.527344 56.507812 C 58.109375 56.550781 59.601562 57.515625 59.667969 57.628906 C 59.949219 57.226562 60.234375 56.828125 60.507812 56.421875 C 60.515625 56.226562 60.59375 49.65625 60.597656 49.558594 C 60.597656 49.558594 60.394531 48.621094 60.394531 48.621094 C 60.363281 48.621094 60.328125 48.617188 60.296875 48.625 C 60.214844 48.664062 60.179688 48.914062 60.167969 49.003906 C 60.121094 49.003906 60.070312 49.003906 60.023438 49.003906 C 59.9375 48.753906 59.925781 48.484375 59.925781 48.222656 C 59.792969 48.296875 59.636719 48.269531 59.496094 48.238281 M 57.667969 48.621094 C 57.714844 48.875 57.691406 48.8125 57.597656 49.316406 C 57.621094 49.332031 57.644531 49.34375 57.667969 49.359375 C 57.90625 49.054688 58.144531 48.753906 58.382812 48.449219 C 58.144531 48.507812 57.90625 48.5625 57.667969 48.621094 M 55.425781 48.691406 C 55.503906 48.859375 55.671875 49.34375 55.828125 49.351562 C 55.742188 49.164062 55.761719 48.945312 55.796875 48.75 C 55.675781 48.730469 55.550781 48.710938 55.425781 48.691406 M 55.882812 48.746094 C 55.769531 49.144531 55.9375 49.464844 56 49.523438 C 56.203125 49.609375 56.230469 49.839844 56.257812 50.058594 C 56.285156 49.890625 56.320312 49.714844 56.292969 49.542969 C 56.238281 49.425781 56.25 49.425781 56.296875 48.847656 C 56.238281 48.851562 56.171875 48.851562 56.121094 48.808594 C 55.914062 48.792969 56.023438 48.773438 55.882812 48.746094 M 56.984375 49.429688 C 57.03125 49.671875 56.945312 49.691406 56.855469 49.628906 C 56.835938 49.566406 56.816406 49.507812 56.796875 49.445312 C 56.769531 49.445312 56.742188 49.445312 56.710938 49.445312 C 56.621094 49.589844 56.644531 49.371094 56.625 50.3125 C 56.722656 50.316406 56.816406 50.320312 56.910156 50.324219 C 56.972656 50.25 57.035156 50.175781 57.097656 50.097656 C 57.101562 49.890625 57.105469 49.683594 57.113281 49.472656 C 57.070312 49.457031 57.027344 49.445312 56.984375 49.429688 M 36.535156 52.429688 C 36.539062 53.722656 36.542969 55.015625 36.550781 56.308594 C 36.808594 56.324219 37.324219 56.367188 37.527344 56.535156 C 37.417969 56.582031 37.359375 56.535156 37.261719 56.59375 C 37.316406 56.667969 37.527344 56.699219 37.734375 56.734375 C 37.847656 55.347656 37.960938 53.960938 38.078125 52.570312 C 37.949219 52.578125 37.820312 52.5625 37.695312 52.554688 C 37.308594 52.515625 36.921875 52.472656 36.535156 52.429688 M 38.707031 52.613281 C 38.566406 52.609375 38.429688 52.582031 38.292969 52.585938 C 38.152344 53.980469 38.015625 55.378906 37.878906 56.777344 C 38.039062 56.832031 38.351562 56.9375 38.476562 57.042969 C 38.4375 56.9375 38.402344 56.828125 38.363281 56.722656 C 38.410156 56.59375 38.457031 56.464844 38.503906 56.335938 C 38.542969 56.335938 38.582031 56.335938 38.621094 56.335938 C 38.683594 55.6875 38.8125 55.042969 39 54.417969 C 39.175781 53.855469 39.40625 53.308594 39.75 52.828125 C 39.714844 52.792969 39.679688 52.761719 39.648438 52.726562 C 39.652344 52.675781 39.65625 52.621094 39.664062 52.570312 C 39.347656 52.636719 39.027344 52.628906 38.707031 52.613281 M 63.226562 53.410156 C 63.222656 53.484375 63.226562 53.558594 63.226562 53.636719 C 63.1875 53.652344 63.148438 53.664062 63.109375 53.679688 C 63.085938 53.652344 63.0625 53.621094 63.039062 53.59375 C 62.589844 53.984375 62.800781 53.75 61.269531 56.039062 C 61.292969 56.039062 63.375 56.199219 63.582031 56.097656 C 63.617188 55.199219 63.65625 54.304688 63.695312 53.410156 C 63.558594 53.417969 63.410156 53.410156 63.296875 53.324219 C 63.273438 53.351562 63.25 53.378906 63.226562 53.410156 M 64.152344 53.765625 C 64.132812 54.539062 64.117188 55.316406 64.09375 56.09375 C 64.09375 56.09375 64.316406 56.078125 64.882812 55.867188 C 64.480469 54.058594 64.574219 54.101562 64.152344 53.765625 M 64.933594 55.074219 C 64.988281 55.320312 65.050781 55.566406 65.105469 55.8125 C 65.121094 55.742188 65.15625 55.675781 65.195312 55.609375 C 65.097656 55.367188 64.996094 55.128906 64.898438 54.882812 C 64.898438 54.949219 64.921875 55.011719 64.933594 55.074219 M 64.765625 56.25 C 64.773438 56.425781 64.777344 56.601562 64.78125 56.777344 C 64.898438 56.796875 65.015625 56.828125 65.109375 56.902344 C 65.050781 56.660156 64.996094 56.410156 64.9375 56.167969 C 64.882812 56.195312 64.824219 56.222656 64.765625 56.25 M 61.726562 56.390625 C 61.546875 56.433594 61.359375 56.402344 61.183594 56.363281 C 61.175781 56.746094 61.171875 57.128906 61.167969 57.511719 C 61.234375 57.523438 61.273438 57.585938 61.300781 57.644531 C 61.546875 57.609375 62.488281 57.953125 62.753906 58.085938 C 62.796875 57.550781 62.839844 57.015625 62.882812 56.480469 C 61.480469 56.308594 61.925781 56.355469 61.726562 56.390625 M 35.304688 56.960938 C 34.988281 57.113281 34.714844 57.339844 34.464844 57.585938 C 34.507812 57.644531 34.539062 57.710938 34.589844 57.761719 C 34.875 57.882812 34.972656 58.023438 35.054688 58.21875 C 35.230469 57.933594 35.402344 57.648438 35.578125 57.359375 C 35.542969 57.203125 35.589844 57.039062 35.679688 56.902344 C 35.671875 56.878906 35.667969 56.855469 35.664062 56.835938 C 35.542969 56.871094 35.417969 56.902344 35.304688 56.960938 M 64.085938 56.882812 C 64.027344 56.914062 64.027344 56.988281 64 57.042969 C 64.121094 57.113281 64.035156 57.324219 63.984375 57.472656 C 64.023438 57.535156 64.0625 57.589844 63.925781 57.769531 C 63.972656 57.824219 64.023438 57.863281 63.925781 58.097656 C 63.972656 58.164062 63.945312 58.246094 63.910156 58.3125 C 64.125 58.316406 64.253906 58.277344 64.199219 58.523438 C 64.199219 58.523438 64.023438 58.585938 63.625 58.597656 C 63.929688 58.785156 64.234375 58.976562 64.539062 59.164062 C 64.539062 58.476562 64.539062 57.792969 64.539062 57.105469 C 64.414062 57.015625 64.292969 56.925781 64.167969 56.835938 C 64.140625 56.851562 64.113281 56.867188 64.085938 56.882812 M 63.140625 56.917969 C 63.109375 57.304688 63.082031 57.6875 63.054688 58.070312 C 63.203125 58.0625 63.355469 58.050781 63.507812 58.042969 C 63.457031 57.917969 63.503906 57.777344 63.582031 57.671875 C 63.503906 57.566406 63.539062 57.425781 63.59375 57.316406 C 63.570312 57.246094 63.574219 57.167969 63.59375 57.09375 C 63.761719 57.085938 63.621094 56.925781 63.566406 56.878906 C 63.421875 56.839844 63.28125 56.902344 63.140625 56.917969 M 57.5625 57.011719 C 57.542969 57.046875 57.441406 57.222656 57.398438 57.273438 C 57.65625 57.5 57.59375 57.378906 57.683594 58.269531 C 58.476562 57.671875 58.597656 57.386719 58.597656 57.386719 C 58.148438 56.941406 57.625 56.957031 57.5625 57.011719 M 36.710938 57.003906 C 36.675781 57.109375 36.6875 57.074219 36.550781 57.160156 C 36.574219 58.054688 36.597656 58.953125 36.621094 59.847656 C 36.773438 59.855469 36.925781 59.867188 37.078125 59.875 C 37.183594 59.796875 37.269531 59.472656 37.265625 59.308594 C 37.285156 59.289062 37.304688 59.269531 37.320312 59.25 C 37.398438 58.402344 37.527344 57.960938 37.722656 57.132812 C 37.292969 57.152344 37.390625 57.003906 36.710938 57.003906 M 56.253906 57.019531 C 56.210938 57.105469 56.207031 57.210938 56.226562 57.304688 C 56.074219 57.570312 55.988281 57.160156 55.96875 57.097656 C 55.808594 57.089844 55.277344 57.425781 55.128906 57.515625 C 55.480469 57.667969 55.640625 57.683594 56.421875 58.238281 C 56.484375 58.203125 56.515625 58.167969 56.769531 58.269531 C 56.78125 57.914062 56.789062 57.558594 56.800781 57.203125 C 56.628906 57.207031 56.570312 57.328125 56.382812 57.003906 C 56.339844 57.007812 56.296875 57.015625 56.253906 57.019531 M 64.765625 57.144531 C 64.757812 57.855469 64.75 58.566406 64.738281 59.277344 C 65.082031 59.480469 65.421875 59.6875 65.765625 59.890625 C 65.585938 59.042969 65.40625 58.195312 65.222656 57.347656 C 65.039062 57.199219 64.886719 57.105469 64.765625 57.144531 M 35.75 57.472656 C 35.757812 57.683594 35.765625 57.582031 35.234375 58.511719 C 35.46875 58.902344 35.703125 59.296875 35.9375 59.691406 C 35.929688 58.871094 35.925781 58.050781 35.921875 57.230469 C 35.832031 57.277344 35.746094 57.363281 35.75 57.472656 M 37.847656 57.230469 C 37.257812 59.976562 37.597656 58.773438 37.519531 59.648438 C 37.988281 59.390625 38.453125 59.136719 38.921875 58.882812 C 38.964844 58.433594 38.976562 59.007812 38.71875 57.660156 C 38.109375 57.316406 37.992188 57.242188 37.847656 57.230469 M 58.734375 57.699219 C 58.378906 58.160156 58.648438 57.84375 57.839844 58.570312 C 57.910156 58.539062 59.230469 57.800781 59.253906 57.785156 C 59.140625 57.710938 59.027344 57.636719 58.910156 57.558594 C 58.851562 57.605469 58.78125 57.636719 58.734375 57.699219 M 54.140625 58.085938 C 54.15625 58.101562 54.167969 58.121094 54.183594 58.140625 C 54.308594 58.121094 55.078125 59.132812 54.171875 58.683594 C 54.195312 58.917969 54.199219 59.0625 54.128906 59.15625 C 54.171875 59.367188 54.214844 59.578125 54.257812 59.789062 C 54.234375 59.824219 54.207031 59.855469 54.183594 59.890625 C 54.207031 60.113281 54.234375 60.335938 54.257812 60.558594 C 54.351562 60.523438 54.453125 60.507812 54.546875 60.464844 C 54.972656 60.113281 54.988281 60.125 56.96875 59.023438 C 56.96875 58.984375 56.96875 58.945312 56.96875 58.910156 C 56.96875 58.910156 56.289062 58.691406 56.289062 58.691406 C 56.246094 58.648438 56.253906 58.582031 56.253906 58.523438 C 55.738281 58.148438 54.855469 57.675781 54.855469 57.675781 C 54.617188 57.808594 54.378906 57.949219 54.140625 58.085938 M 61.527344 58.132812 C 61.445312 58.140625 61.363281 58.148438 61.28125 58.15625 C 61.277344 58.199219 61.273438 58.242188 61.269531 58.285156 C 61.480469 58.316406 61.871094 58.359375 62.074219 58.285156 C 62.019531 58.265625 61.585938 58.125 61.527344 58.132812 M 58.136719 58.863281 C 58.050781 58.917969 57.957031 58.96875 57.882812 59.035156 C 58.015625 59.125 58.359375 59.339844 58.484375 59.460938 C 58.53125 59.410156 58.578125 59.339844 58.65625 59.34375 C 58.917969 58.734375 59.242188 58.253906 59.242188 58.253906 C 58.871094 58.453125 58.5 58.652344 58.136719 58.863281 M 59.621094 58.460938 C 59.476562 58.628906 59.171875 59.277344 59.058594 59.515625 C 59.160156 59.582031 59.101562 59.898438 59.070312 60.074219 C 59.382812 60.398438 59.695312 60.714844 60.007812 61.039062 C 60.007812 60.949219 60.0625 60.875 60.125 60.8125 C 60.15625 60.824219 60.191406 60.832031 60.226562 60.84375 C 60.476562 59.625 60.414062 60.140625 60.484375 58.484375 C 60.464844 58.472656 60.445312 58.464844 60.425781 58.453125 C 60.164062 58.703125 59.917969 58.601562 59.753906 58.285156 C 59.707031 58.34375 59.664062 58.402344 59.621094 58.460938 M 53.214844 58.679688 C 53.1875 58.84375 53.167969 59.011719 53.101562 59.164062 C 53.277344 59.136719 53.453125 59.109375 53.628906 59.078125 C 53.628906 59.003906 53.628906 58.929688 53.628906 58.855469 C 53.570312 58.855469 53.523438 58.816406 53.496094 58.769531 C 53.441406 58.773438 53.382812 58.777344 53.328125 58.78125 C 53.324219 58.683594 53.339844 58.585938 53.316406 58.488281 C 53.242188 58.523438 53.222656 58.609375 53.214844 58.679688 M 62.21875 58.699219 C 62.378906 58.789062 62.546875 58.878906 62.710938 58.964844 C 62.71875 58.851562 62.730469 58.738281 62.738281 58.625 C 62.566406 58.652344 62.390625 58.667969 62.21875 58.699219 M 61.140625 58.710938 C 61.140625 58.738281 61.140625 58.765625 61.140625 58.796875 C 61.640625 59.15625 62.140625 59.515625 62.636719 59.875 C 62.664062 59.617188 62.6875 59.355469 62.710938 59.09375 C 62.496094 58.964844 62.285156 58.828125 62.066406 58.699219 C 61.757812 58.699219 61.449219 58.707031 61.140625 58.710938 M 62.996094 58.753906 C 62.984375 58.867188 62.976562 58.980469 62.96875 59.09375 C 63.261719 59.261719 63.558594 59.425781 63.851562 59.589844 C 63.933594 59.535156 64.015625 59.476562 64.09375 59.421875 C 63.730469 59.199219 63.363281 58.976562 62.996094 58.753906 M 34.664062 59.507812 C 34.671875 59.535156 34.683594 59.5625 34.691406 59.589844 C 35.039062 59.738281 35.386719 59.886719 35.734375 60.03125 C 35.714844 59.78125 35.882812 60.117188 35.09375 58.765625 C 34.949219 59.011719 34.808594 59.261719 34.664062 59.507812 M 61.125 58.882812 C 61.097656 59.664062 61.078125 60.445312 61.050781 61.226562 C 61.429688 61.496094 61.726562 61.140625 62.808594 60.402344 C 62.433594 60.113281 62.324219 60.089844 62.535156 59.945312 C 62.066406 59.589844 61.59375 59.234375 61.125 58.882812 M 62.964844 59.222656 C 62.945312 59.488281 62.925781 59.753906 62.90625 60.019531 C 63.050781 60.015625 63.195312 60.023438 63.335938 60.015625 C 63.769531 59.796875 63.6875 59.78125 63.777344 59.664062 C 63.507812 59.515625 63.238281 59.367188 62.964844 59.222656 M 52.964844 59.488281 C 52.777344 59.910156 52.335938 60.597656 52.011719 61.132812 C 52.171875 60.972656 53.039062 59.683594 53.167969 59.492188 C 53.136719 59.464844 53.101562 59.433594 53.070312 59.40625 C 53.035156 59.433594 52.992188 59.453125 52.964844 59.488281 M 57.996094 59.53125 C 58.007812 59.585938 58.023438 59.636719 58.039062 59.6875 C 58.195312 59.714844 58.222656 59.832031 58.210938 59.988281 C 58.128906 60.070312 58.15625 60.0625 58.203125 60.089844 C 58.144531 60.167969 58.179688 60.148438 58.207031 60.175781 C 58.277344 60.109375 58.433594 60.003906 58.367188 59.9375 C 58.371094 59.894531 58.386719 59.851562 58.375 59.808594 C 58.296875 59.667969 58.15625 59.5625 57.996094 59.53125 M 64.109375 59.832031 C 64.070312 59.875 64.027344 59.914062 63.996094 59.960938 C 63.980469 60.015625 63.976562 60.074219 63.964844 60.132812 C 64.136719 60.109375 64.308594 60.085938 64.480469 60.058594 C 64.488281 60.042969 64.496094 60.023438 64.507812 60.003906 C 64.375 59.945312 64.242188 59.890625 64.109375 59.832031 Z M 64.109375 59.832031 " fill-opacity="1" fill-rule="nonzero"/></g><path fill="rgb(97.648621%, 70.979309%, 23.139954%)" d="M 61.449219 6.707031 C 57.273438 7.832031 57.359375 13.441406 51.289062 15.769531 L 58.023438 15.769531 C 61.496094 13.722656 65.183594 9.339844 65.753906 7.832031 C 66.136719 6.828125 65.464844 6.273438 63.945312 6.296875 C 63.269531 6.308594 62.28125 6.480469 61.449219 6.707031 " fill-opacity="1" fill-rule="evenodd"/><path fill="rgb(97.648621%, 70.979309%, 23.139954%)" d="M 45.910156 6.707031 C 50.941406 8.058594 50.941406 14.222656 56.070312 15.769531 L 49.335938 15.769531 C 45.867188 13.722656 42.175781 9.339844 41.605469 7.832031 C 41.226562 6.828125 41.894531 6.273438 43.414062 6.296875 C 44.089844 6.308594 45.078125 6.480469 45.910156 6.707031 " fill-opacity="1" fill-rule="evenodd"/><path fill="rgb(98.81897%, 85.488892%, 32.939148%)" d="M 50.523438 15.769531 L 57.011719 15.769531 C 57.339844 14.632812 57.414062 13.5 57.324219 12.367188 C 57.214844 11.003906 56.175781 9.90625 54.824219 9.722656 C 54.132812 9.632812 53.4375 9.632812 52.746094 9.722656 C 51.390625 9.90625 50.34375 11.015625 50.242188 12.382812 C 50.164062 13.511719 50.222656 14.640625 50.523438 15.769531 " fill-opacity="1" fill-rule="evenodd"/><g clip-path="url(#clip-5)"><path fill="rgb(31.369019%, 31.369019%, 31.369019%)" d="M 76.480469 60.492188 C 76.480469 60.082031 76.320312 59.6875 76.03125 59.398438 C 75.738281 59.105469 75.347656 58.941406 74.9375 58.941406 C 71.648438 58.941406 63.984375 58.941406 60.695312 58.941406 C 60.289062 58.941406 59.894531 59.105469 59.605469 59.398438 C 59.316406 59.6875 59.152344 60.082031 59.152344 60.492188 C 59.152344 65.691406 59.152344 105.714844 59.152344 110.914062 C 59.152344 111.324219 59.316406 111.71875 59.605469 112.011719 C 59.894531 112.300781 60.289062 112.464844 60.695312 112.464844 C 63.984375 112.464844 71.648438 112.464844 74.9375 112.464844 C 75.347656 112.464844 75.738281 112.300781 76.03125 112.011719 C 76.320312 111.71875 76.480469 111.324219 76.480469 110.914062 C 76.480469 105.714844 76.480469 65.691406 76.480469 60.492188 " fill-opacity="1" fill-rule="evenodd"/></g><g clip-path="url(#clip-6)"><path fill="rgb(96.469116%, 76.858521%, 18.818665%)" d="M 72.382812 58.941406 L 69.261719 58.941406 L 69.261719 112.464844 L 72.382812 112.464844 L 72.382812 58.941406 " fill-opacity="1" fill-rule="evenodd"/></g><g clip-path="url(#clip-7)"><path fill="rgb(31.369019%, 31.369019%, 31.369019%)" d="M 79.28125 17.316406 C 79.28125 16.90625 79.117188 16.511719 78.828125 16.222656 C 78.539062 15.929688 78.144531 15.769531 77.734375 15.769531 C 74.320312 15.769531 66.167969 15.769531 62.753906 15.769531 C 62.347656 15.769531 61.953125 15.929688 61.664062 16.222656 C 61.375 16.511719 61.210938 16.90625 61.210938 17.316406 C 61.210938 19.109375 61.210938 22.046875 61.210938 23.839844 C 61.210938 24.25 61.375 24.644531 61.664062 24.933594 C 61.953125 25.222656 62.347656 25.386719 62.753906 25.386719 C 66.167969 25.386719 74.320312 25.386719 77.734375 25.386719 C 78.144531 25.386719 78.539062 25.222656 78.828125 24.933594 C 79.117188 24.644531 79.28125 24.25 79.28125 23.839844 C 79.28125 22.046875 79.28125 19.109375 79.28125 17.316406 " fill-opacity="1" fill-rule="evenodd"/></g><path fill="rgb(96.469116%, 76.858521%, 18.818665%)" d="M 74.785156 15.769531 L 69.929688 15.769531 L 69.929688 25.386719 L 74.785156 25.386719 L 74.785156 15.769531 " fill-opacity="1" fill-rule="evenodd"/><g clip-path="url(#clip-8)"><path fill="rgb(39.99939%, 39.99939%, 39.99939%)" d="M 63.839844 60.492188 C 63.839844 60.082031 63.679688 59.6875 63.390625 59.398438 C 63.101562 59.105469 62.707031 58.941406 62.296875 58.941406 C 56.789062 58.941406 38.140625 58.941406 32.632812 58.941406 C 32.222656 58.941406 31.832031 59.105469 31.539062 59.398438 C 31.25 59.6875 31.089844 60.082031 31.089844 60.492188 C 31.089844 65.691406 31.089844 105.714844 31.089844 110.914062 C 31.089844 111.324219 31.25 111.71875 31.539062 112.011719 C 31.832031 112.300781 32.222656 112.464844 32.632812 112.464844 C 38.140625 112.464844 56.789062 112.464844 62.296875 112.464844 C 62.707031 112.464844 63.101562 112.300781 63.390625 112.011719 C 63.679688 111.71875 63.839844 111.324219 63.839844 110.914062 C 63.839844 105.714844 63.839844 65.691406 63.839844 60.492188 " fill-opacity="1" fill-rule="evenodd"/></g><g clip-path="url(#clip-9)"><path fill="rgb(98.81897%, 85.488892%, 32.939148%)" d="M 50.941406 58.941406 L 43.988281 58.941406 L 43.988281 112.464844 L 50.941406 112.464844 L 50.941406 58.941406 " fill-opacity="1" fill-rule="evenodd"/></g><g clip-path="url(#clip-10)"><path fill="rgb(39.99939%, 39.99939%, 39.99939%)" d="M 65.082031 17.316406 C 65.082031 16.90625 64.917969 16.511719 64.628906 16.222656 C 64.339844 15.929688 63.945312 15.769531 63.535156 15.769531 C 57.539062 15.769531 35.832031 15.769531 29.835938 15.769531 C 29.425781 15.769531 29.03125 15.929688 28.742188 16.222656 C 28.453125 16.511719 28.289062 16.90625 28.289062 17.316406 C 28.289062 19.109375 28.289062 22.046875 28.289062 23.839844 C 28.289062 24.25 28.453125 24.644531 28.742188 24.933594 C 29.03125 25.222656 29.425781 25.386719 29.835938 25.386719 C 35.832031 25.386719 57.539062 25.386719 63.535156 25.386719 C 63.945312 25.386719 64.339844 25.222656 64.628906 24.933594 C 64.917969 24.644531 65.082031 24.25 65.082031 23.839844 C 65.082031 22.046875 65.082031 19.109375 65.082031 17.316406 " fill-opacity="1" fill-rule="evenodd"/></g><path fill="rgb(98.81897%, 85.488892%, 32.939148%)" d="M 51.667969 15.769531 L 41.703125 15.769531 L 41.703125 25.386719 L 51.667969 25.386719 L 51.667969 15.769531 " fill-opacity="1" fill-rule="evenodd"/><path fill="rgb(98.81897%, 85.488892%, 32.939148%)" d="M 45.910156 6.707031 C 45.910156 6.707031 42.476562 5.773438 42.578125 8.050781 C 42.675781 10.332031 52.550781 15.769531 52.550781 15.769531 L 45.910156 15.769531 C 45.910156 15.769531 34.84375 11.46875 37.296875 8.050781 C 39.746094 4.632812 45.910156 6.707031 45.910156 6.707031 " fill-opacity="1" fill-rule="evenodd"/><path fill="rgb(98.81897%, 85.488892%, 32.939148%)" d="M 61.449219 6.707031 C 61.449219 6.707031 64.882812 5.773438 64.785156 8.050781 C 64.6875 10.332031 54.808594 15.769531 54.808594 15.769531 L 61.449219 15.769531 C 61.449219 15.769531 72.519531 11.46875 70.066406 8.050781 C 67.613281 4.632812 61.449219 6.707031 61.449219 6.707031 " fill-opacity="1" fill-rule="evenodd"/><path fill="rgb(97.648621%, 70.979309%, 23.139954%)" d="M 56.328125 15.769531 C 58.5625 13.171875 72.859375 13.40625 72.371094 19.910156 C 71.507812 19.109375 70.273438 18.484375 68.511719 18.109375 C 68.230469 19.066406 67.6875 19.910156 66.191406 21.640625 C 64.417969 17.628906 60.707031 15.769531 56.328125 15.769531 " fill-opacity="1" fill-rule="evenodd"/><path fill="rgb(97.648621%, 70.979309%, 23.139954%)" d="M 51.289062 15.769531 C 49.058594 13.171875 34.761719 13.40625 35.25 19.910156 C 36.109375 19.109375 37.34375 18.484375 39.109375 18.109375 C 39.390625 19.066406 39.933594 19.910156 41.429688 21.640625 C 43.203125 17.628906 46.914062 15.769531 51.289062 15.769531 " fill-opacity="1" fill-rule="evenodd"/></svg>