<?xml version="1.0" encoding="UTF-8"?><svg xmlns="http://www.w3.org/2000/svg" xmlns:xlink="http://www.w3.org/1999/xlink" contentScriptType="text/ecmascript" width="112.5" zoomAndPan="magnify" contentStyleType="text/css" viewBox="0 0 112.5 112.499997" height="112.499997" preserveAspectRatio="xMidYMid meet" version="1.0"><defs><clipPath id="clip-0"><path d="M 35.445312 28 L 93.054688 28 L 93.054688 112.003906 L 35.445312 112.003906 Z M 35.445312 28 " clip-rule="nonzero"/></clipPath><clipPath id="clip-1"><path d="M 48.574219 10.125 L 61.324219 10.125 L 61.324219 27.375 L 48.574219 27.375 Z M 48.574219 10.125 " clip-rule="nonzero"/></clipPath></defs><path fill="rgb(93.328857%, 11.759949%, 26.269531%)" d="M 22.160156 53.851562 C 22.382812 53.863281 27.261719 55.953125 28.191406 57.003906 C 32.960938 49.699219 36.742188 35.257812 36.742188 35.257812 C 36.988281 36.527344 38.074219 37.800781 39.269531 38.863281 C 42.921875 35.496094 48.71875 34.363281 48.71875 34.363281 L 51.488281 33.757812 C 61.851562 29.402344 69.121094 31.460938 69.121094 31.460938 L 70.53125 31.808594 C 78.851562 31.660156 86.039062 35.335938 87.632812 36.226562 C 87.765625 36.300781 87.835938 36.34375 87.851562 36.351562 L 87.5625 35.800781 L 86.871094 34.476562 C 87.007812 34.523438 87.46875 34.46875 87.640625 34.53125 C 85.984375 26.574219 76.554688 0.00390625 48.671875 8.136719 C 13.5625 18.375 27.347656 41.417969 22.160156 53.851562 " fill-opacity="1" fill-rule="nonzero"/><path fill="rgb(100%, 100%, 100%)" d="M 29.792969 53.910156 C 29.667969 53.660156 29.582031 53.519531 29.582031 53.519531 C 29.472656 53.375 29.363281 53.242188 29.253906 53.109375 C 29.183594 53.023438 29.109375 52.941406 29.039062 52.859375 C 28.109375 51.808594 27.160156 51.105469 26.222656 50.667969 C 25.71875 50.4375 25.21875 50.28125 24.726562 50.191406 C 24.5 50.152344 24.273438 50.121094 24.050781 50.109375 C 24.023438 50.105469 23.992188 50.105469 23.960938 50.101562 C 19.453125 49.855469 15.644531 54.621094 15.644531 54.621094 C 16.433594 54.382812 16.960938 54.398438 16.960938 54.398438 C 16.230469 55.390625 15.863281 56.460938 15.726562 57.523438 C 15.726562 57.53125 15.726562 57.550781 15.71875 57.582031 C 15.71875 57.597656 15.71875 57.613281 15.714844 57.628906 C 15.714844 57.640625 15.710938 57.648438 15.710938 57.65625 C 15.648438 58.125 15.464844 59.65625 15.550781 60.476562 L 16.199219 59.753906 C 16.199219 59.753906 16.21875 63.203125 16.835938 64.378906 C 16.839844 64.386719 16.84375 64.394531 16.847656 64.402344 L 16.851562 64.40625 C 17.960938 64.628906 18.914062 63.875 18.964844 63.835938 L 18.203125 65.28125 C 21.667969 65.210938 24.8125 63.53125 24.90625 63.492188 C 24.652344 64.097656 24.214844 64.636719 24.214844 64.636719 C 27.074219 64.152344 29.328125 60.824219 29.328125 60.824219 C 29.589844 61.542969 29.28125 62.089844 29.265625 62.117188 C 32.289062 59.734375 30.582031 55.5 29.859375 54.035156 C 29.835938 53.992188 29.8125 53.949219 29.792969 53.910156 " fill-opacity="1" fill-rule="nonzero"/><g clip-path="url(#clip-0)"><path fill="rgb(100%, 100%, 100%)" d="M 63.945312 85.332031 C 60.421875 85.332031 57.796875 84.875 55.648438 83.992188 C 56.28125 83.816406 56.890625 83.570312 57.445312 83.230469 C 61.652344 80.667969 62.941406 80.101562 63.945312 80.101562 C 64.949219 80.101562 66.238281 80.667969 70.445312 83.230469 C 71 83.570312 71.609375 83.816406 72.242188 83.992188 C 70.089844 84.875 67.46875 85.332031 63.945312 85.332031 Z M 63.378906 43.5 L 62.1875 44.804688 C 70.511719 43.8125 77.816406 45.84375 77.816406 45.84375 L 77.054688 46.882812 C 82.535156 47.238281 85.125 48.34375 86.316406 49.453125 C 85.789062 51.640625 85.355469 54.355469 85.355469 57.398438 C 85.355469 64.96875 85.71875 69.75 81.554688 75.433594 C 77.410156 76.472656 72.8125 73.71875 70.191406 73.035156 C 66.304688 72.023438 63.945312 74.804688 63.945312 74.804688 C 63.945312 74.804688 61.585938 72.023438 57.699219 73.035156 C 55.074219 73.71875 50.476562 76.472656 46.335938 75.433594 C 42.171875 69.75 42.53125 64.96875 42.53125 57.398438 C 42.53125 54.96875 42.257812 52.75 41.878906 50.839844 C 43.484375 49.457031 45.472656 48.089844 47.773438 47.183594 L 47.402344 48.484375 C 47.402344 48.484375 55.613281 43.664062 63.378906 43.5 Z M 91.148438 70.007812 C 87.894531 64.785156 89.523438 56.875 89.523438 56.875 C 90.5 57.507812 91.148438 57.664062 91.148438 57.664062 C 89.617188 54.113281 89.785156 51.367188 90.238281 49.621094 C 91.9375 47.648438 93.441406 44.648438 92.964844 40.539062 C 92.179688 33.730469 86.5625 32.613281 86.5625 32.613281 L 87.460938 34.359375 C 87.460938 34.359375 79.289062 29.054688 68.402344 28.09375 L 69.46875 29.464844 C 69.46875 29.464844 53.484375 28.09375 46.191406 32.167969 L 47.890625 33.175781 C 47.890625 33.175781 37.425781 36.019531 35.902344 41.972656 L 37.15625 41.214844 C 37.15625 41.214844 34.902344 46.78125 35.710938 50.117188 L 36.460938 48.964844 C 36.460938 48.964844 36.253906 53.0625 37.320312 55.90625 C 37.320312 55.90625 37.359375 55.847656 37.433594 55.738281 C 37.253906 56.351562 37.03125 56.992188 36.738281 57.664062 C 36.738281 57.664062 37.390625 57.507812 38.367188 56.875 C 38.367188 56.875 39.992188 64.785156 36.738281 70.007812 C 36.738281 70.007812 37.835938 69.914062 39.078125 69.089844 C 39.078125 69.089844 38.660156 79.582031 35.539062 83.933594 C 35.617188 83.902344 38.160156 82.820312 38.363281 81.964844 C 38.328125 82.21875 37.238281 89.863281 39.667969 95.777344 C 39.667969 95.777344 39.730469 94.140625 40.515625 92.242188 C 40.515625 92.242188 42.957031 99.445312 47.445312 103.796875 C 47.445312 103.796875 47.347656 101.816406 48.03125 100.867188 C 48.03125 100.867188 51.546875 107.199219 56.523438 109.890625 C 56.523438 109.890625 56.035156 108.226562 55.839844 107.59375 C 55.839844 107.59375 60.039062 110.917969 63.945312 112.5 C 67.851562 110.917969 72.046875 107.59375 72.046875 107.59375 C 71.851562 108.226562 71.367188 109.890625 71.367188 109.890625 C 76.34375 107.199219 79.859375 100.867188 79.859375 100.867188 C 80.542969 101.816406 80.445312 103.796875 80.445312 103.796875 C 84.933594 99.445312 87.375 92.242188 87.375 92.242188 C 88.15625 94.140625 88.222656 95.777344 88.222656 95.777344 C 90.652344 89.863281 89.558594 82.21875 89.523438 81.964844 C 89.730469 82.820312 92.273438 83.902344 92.351562 83.933594 C 89.230469 79.582031 88.8125 69.089844 88.8125 69.089844 C 90.054688 69.914062 91.148438 70.007812 91.148438 70.007812 " fill-opacity="1" fill-rule="nonzero"/></g><path fill="rgb(93.328857%, 11.759949%, 26.269531%)" d="M 68.214844 52.367188 C 68.808594 51.304688 72.613281 50.667969 78.390625 50.667969 C 79.132812 50.667969 79.898438 50.679688 80.675781 50.699219 C 85.738281 50.835938 86.417969 52.507812 86.421875 52.519531 C 86.90625 54.046875 87 56.027344 86.707031 58.570312 C 86.355469 61.613281 85.367188 64.789062 80.679688 65.300781 C 79.910156 65.382812 79.148438 65.425781 78.417969 65.425781 C 74.75 65.425781 71.8125 64.359375 70.351562 62.5 C 69.535156 61.457031 68.742188 59.394531 68.289062 57.117188 C 67.859375 54.96875 67.828125 53.058594 68.214844 52.367188 Z M 41.464844 52.523438 C 41.472656 52.507812 42.15625 50.835938 47.214844 50.699219 C 47.988281 50.679688 48.757812 50.667969 49.5 50.667969 C 55.277344 50.667969 59.082031 51.304688 59.675781 52.367188 C 60.0625 53.058594 60.03125 54.96875 59.601562 57.117188 C 59.148438 59.394531 58.355469 61.457031 57.539062 62.5 C 56.078125 64.359375 53.136719 65.425781 49.472656 65.425781 C 48.742188 65.425781 47.980469 65.382812 47.210938 65.300781 C 42.523438 64.789062 41.53125 61.613281 41.183594 58.570312 C 40.890625 56.03125 40.984375 54.050781 41.464844 52.523438 Z M 38.890625 53.523438 C 38.910156 53.59375 38.945312 53.6875 39.046875 53.75 C 39.085938 53.800781 39.230469 54.03125 39.253906 54.675781 C 39.257812 54.722656 39.257812 54.789062 39.261719 54.867188 L 39.261719 54.886719 C 39.277344 55.730469 39.328125 58.289062 40.03125 60.753906 C 40.945312 63.957031 42.59375 65.847656 44.929688 66.375 C 46.550781 66.742188 48.269531 66.933594 49.898438 66.933594 C 54.363281 66.933594 57.742188 65.5625 59.164062 63.175781 C 59.8125 62.082031 60.347656 60.703125 60.859375 59.367188 C 61.785156 56.960938 62.660156 54.691406 63.945312 54.691406 C 65.226562 54.691406 66.101562 56.960938 67.027344 59.367188 C 67.542969 60.703125 68.074219 62.082031 68.726562 63.175781 C 70.148438 65.5625 73.523438 66.933594 77.992188 66.933594 C 79.621094 66.933594 81.339844 66.742188 82.960938 66.375 C 85.289062 65.847656 86.9375 63.960938 87.851562 60.765625 C 88.558594 58.304688 88.613281 55.738281 88.628906 54.898438 L 88.628906 54.882812 C 88.632812 54.796875 88.632812 54.726562 88.636719 54.675781 C 88.660156 54.03125 88.804688 53.800781 88.84375 53.75 C 88.945312 53.6875 88.980469 53.59375 89 53.523438 C 89.390625 51.957031 89.015625 50.300781 89 50.230469 C 88.96875 50.097656 88.871094 49.988281 88.738281 49.949219 C 88.6875 49.933594 83.726562 48.441406 77.527344 48.441406 C 75.722656 48.441406 73.96875 48.570312 72.3125 48.816406 C 66.714844 49.660156 64.886719 49.785156 64.292969 49.785156 L 63.59375 49.785156 C 63.003906 49.785156 61.175781 49.660156 55.574219 48.816406 C 53.917969 48.570312 52.164062 48.441406 50.359375 48.441406 C 44.164062 48.441406 39.203125 49.933594 39.152344 49.949219 C 39.019531 49.988281 38.921875 50.097656 38.890625 50.230469 C 38.875 50.300781 38.5 51.960938 38.890625 53.523438 " fill-opacity="1" fill-rule="nonzero"/><g clip-path="url(#clip-1)"><path fill="rgb(0%, 0%, 0%)" d="M 57.117188 19.988281 C 56.941406 20.671875 56.132812 20.980469 55.550781 20.589844 C 55.144531 20.316406 55.101562 19.890625 55.101562 19.453125 C 55.234375 19.410156 55.375 19.378906 55.515625 19.351562 C 55.828125 19.292969 55.976562 19.261719 56.171875 18.96875 C 56.527344 18.433594 56.425781 17.726562 55.917969 17.332031 C 55.671875 17.144531 55.390625 17.070312 55.101562 17.054688 C 55.105469 16.753906 55.117188 16.449219 55.105469 16.148438 C 55.15625 15.792969 55.289062 15.476562 55.632812 15.289062 C 56.171875 14.992188 56.875 15.257812 57.085938 15.84375 C 57.160156 16.050781 57.144531 16.265625 57.144531 16.476562 C 57.144531 17.148438 57.144531 17.816406 57.144531 18.488281 C 57.152344 18.953125 57.238281 19.527344 57.117188 19.988281 Z M 54.355469 17.097656 C 53.929688 17.144531 53.492188 17.242188 53.066406 17.390625 C 53.066406 17.117188 53.066406 16.84375 53.066406 16.570312 C 53.066406 16.097656 53 15.582031 53.464844 15.292969 C 53.789062 15.09375 54.214844 15.140625 54.484375 15.414062 C 54.679688 15.617188 54.722656 15.871094 54.726562 16.136719 C 54.726562 16.148438 54.726562 16.160156 54.726562 16.171875 C 54.707031 16.46875 54.71875 16.765625 54.722656 17.066406 C 54.597656 17.066406 54.472656 17.082031 54.355469 17.097656 Z M 57.527344 16.480469 C 57.527344 16.144531 57.519531 15.820312 57.351562 15.519531 C 57.082031 15.019531 56.523438 14.730469 55.96875 14.796875 C 55.542969 14.84375 55.175781 15.089844 54.949219 15.4375 C 54.691406 14.960938 54.136719 14.683594 53.585938 14.824219 C 52.4375 15.125 52.660156 16.589844 52.683594 17.53125 C 51.890625 17.859375 51.136719 18.347656 50.550781 18.964844 C 50.234375 17.480469 49.914062 15.996094 49.601562 14.511719 C 49.429688 13.722656 49.265625 12.933594 49.09375 12.136719 C 49.023438 11.800781 48.910156 11.46875 49.035156 11.132812 C 49.164062 10.769531 49.496094 10.523438 49.878906 10.511719 C 50.230469 10.507812 50.621094 10.699219 50.738281 11.035156 C 50.8125 11.25 50.855469 11.488281 50.910156 11.710938 C 51.089844 12.433594 51.273438 13.15625 51.453125 13.878906 C 51.578125 14.386719 51.707031 14.890625 51.832031 15.390625 C 51.890625 15.628906 52.253906 15.527344 52.195312 15.289062 C 51.863281 13.964844 51.53125 12.640625 51.195312 11.316406 C 51.15625 11.15625 51.136719 10.964844 51.070312 10.816406 C 50.886719 10.378906 50.320312 10.125 49.882812 10.132812 C 49.347656 10.140625 48.882812 10.484375 48.691406 10.984375 C 48.589844 11.25 48.582031 11.515625 48.636719 11.792969 C 48.730469 12.265625 48.835938 12.734375 48.9375 13.203125 C 49.367188 15.207031 49.792969 17.210938 50.21875 19.207031 C 50.226562 19.246094 50.242188 19.273438 50.265625 19.292969 C 49.617188 20.101562 49.253906 21.09375 49.394531 22.203125 C 49.605469 23.828125 50.730469 25.171875 52.042969 26.050781 C 52.042969 26.410156 52.042969 26.765625 52.042969 27.125 C 52.042969 27.371094 52.421875 27.371094 52.421875 27.125 C 52.421875 26.761719 52.441406 26.394531 52.421875 26.035156 C 52.40625 25.808594 52.316406 25.78125 52.121094 25.648438 C 51.769531 25.40625 51.445312 25.136719 51.148438 24.828125 C 50.148438 23.796875 49.4375 22.277344 49.859375 20.816406 C 50.222656 19.5625 51.367188 18.574219 52.496094 18.015625 C 53.148438 17.695312 53.863281 17.507812 54.585938 17.457031 C 54.6875 17.449219 54.796875 17.4375 54.902344 17.4375 C 54.914062 17.4375 54.921875 17.4375 54.929688 17.4375 C 55.101562 17.429688 55.269531 17.4375 55.425781 17.492188 C 55.851562 17.640625 56.113281 18.082031 55.972656 18.53125 C 55.933594 18.644531 55.875 18.757812 55.792969 18.84375 C 55.695312 18.941406 55.726562 18.910156 55.609375 18.953125 C 55.484375 19 55.332031 19 55.199219 19.035156 C 54.800781 19.128906 54.410156 19.289062 54.058594 19.492188 C 53.371094 19.894531 52.8125 20.488281 52.433594 21.195312 C 52.359375 21.335938 52.457031 21.460938 52.597656 21.484375 C 54.175781 21.695312 55.410156 23.027344 55.523438 24.632812 C 55.542969 24.878906 55.921875 24.878906 55.902344 24.632812 C 55.773438 22.902344 54.539062 21.507812 52.894531 21.152344 C 53.28125 20.53125 53.824219 20.023438 54.488281 19.695312 C 54.566406 19.65625 54.648438 19.621094 54.730469 19.585938 C 54.742188 19.960938 54.792969 20.3125 55.042969 20.625 C 55.394531 21.066406 56 21.257812 56.539062 21.089844 C 57.085938 20.921875 57.488281 20.417969 57.53125 19.835938 C 57.550781 19.589844 57.535156 19.339844 57.535156 19.09375 C 57.527344 18.21875 57.527344 17.351562 57.527344 16.480469 Z M 58.351562 25.890625 C 58.355469 25.890625 58.355469 25.890625 58.351562 25.890625 Z M 58.1875 25.992188 C 58.183594 26 58.179688 26.003906 58.179688 26.011719 C 58.179688 26.007812 58.179688 26.003906 58.183594 26 C 58.199219 25.941406 58.195312 25.976562 58.1875 25.992188 Z M 60.695312 12.074219 C 60.175781 11.617188 59.371094 11.664062 58.890625 12.152344 C 58.554688 12.496094 58.476562 12.996094 58.34375 13.445312 C 58.164062 14.023438 57.988281 14.601562 57.808594 15.183594 C 57.738281 15.417969 58.101562 15.519531 58.171875 15.285156 C 58.304688 14.851562 58.4375 14.414062 58.574219 13.984375 C 58.703125 13.546875 58.792969 12.949219 59.042969 12.566406 C 59.539062 11.820312 60.714844 12.136719 60.78125 13.035156 C 60.808594 13.425781 60.601562 13.902344 60.503906 14.277344 C 60.382812 14.730469 60.265625 15.1875 60.144531 15.640625 C 60.035156 16.070312 59.921875 16.496094 59.808594 16.925781 C 59.757812 17.121094 59.707031 17.308594 59.660156 17.5 C 59.601562 17.738281 59.628906 17.960938 59.632812 18.207031 C 59.671875 19.707031 59.625 21.238281 59.382812 22.722656 C 59.25 23.539062 59.0625 24.40625 58.574219 25.085938 C 58.457031 25.25 58.320312 25.398438 58.175781 25.539062 C 58.011719 25.699219 57.835938 25.777344 57.804688 26.003906 C 57.753906 26.363281 57.804688 26.761719 57.804688 27.128906 C 57.804688 27.375 58.179688 27.375 58.179688 27.128906 C 58.179688 26.980469 58.179688 26.832031 58.179688 26.683594 C 58.179688 26.492188 58.125 26.210938 58.175781 26.019531 C 58.179688 26.050781 58.34375 25.90625 58.351562 25.890625 C 58.46875 25.785156 58.578125 25.671875 58.679688 25.550781 C 58.777344 25.441406 58.863281 25.324219 58.945312 25.203125 C 59.5 24.367188 59.6875 23.308594 59.816406 22.332031 C 59.925781 21.519531 59.980469 20.703125 60.007812 19.886719 C 60.019531 19.488281 60.023438 19.089844 60.019531 18.691406 C 60.015625 18.457031 60.003906 18.222656 60.007812 17.988281 C 60.007812 17.648438 60.09375 17.351562 60.175781 17.03125 C 60.4375 16.027344 60.699219 15.023438 60.964844 14.019531 C 61.144531 13.308594 61.316406 12.621094 60.695312 12.074219 " fill-opacity="1" fill-rule="nonzero"/></g></svg>