<?xml version="1.0" encoding="UTF-8"?><svg xmlns="http://www.w3.org/2000/svg" xmlns:xlink="http://www.w3.org/1999/xlink" contentScriptType="text/ecmascript" width="112.5" zoomAndPan="magnify" contentStyleType="text/css" viewBox="0 0 112.5 112.499997" height="112.499997" preserveAspectRatio="xMidYMid meet" version="1.0"><defs><clipPath id="clip-0"><path d="M 35.839844 104.09375 L 48.292969 104.09375 L 48.292969 112.003906 L 35.839844 112.003906 Z M 35.839844 104.09375 " clip-rule="nonzero"/></clipPath><clipPath id="clip-1"><path d="M 40.0625 104.09375 L 48.292969 104.09375 L 48.292969 112.003906 L 40.0625 112.003906 Z M 40.0625 104.09375 " clip-rule="nonzero"/></clipPath><clipPath id="clip-2"><path d="M 43 104 L 47 104 L 47 112.003906 L 43 112.003906 Z M 43 104 " clip-rule="nonzero"/></clipPath><clipPath id="clip-3"><path d="M 60 103 L 74 103 L 74 112.003906 L 60 112.003906 Z M 60 103 " clip-rule="nonzero"/></clipPath><clipPath id="clip-4"><path d="M 64 103 L 74 103 L 74 112.003906 L 64 112.003906 Z M 64 103 " clip-rule="nonzero"/></clipPath><clipPath id="clip-5"><path d="M 76.085938 88.644531 L 87.148438 88.644531 L 87.148438 109.550781 L 76.085938 109.550781 Z M 76.085938 88.644531 " clip-rule="nonzero"/></clipPath><clipPath id="clip-6"><path d="M 21 21.171875 L 38 21.171875 L 38 42 L 21 42 Z M 21 21.171875 " clip-rule="nonzero"/></clipPath><clipPath id="clip-7"><path d="M 27 9.195312 L 80 9.195312 L 80 56.445312 L 27 56.445312 Z M 27 9.195312 " clip-rule="nonzero"/></clipPath><clipPath id="clip-8"><path d="M 23.734375 40 L 27 40 L 27 51 L 23.734375 51 Z M 23.734375 40 " clip-rule="nonzero"/></clipPath><clipPath id="clip-9"><path d="M 80 40 L 83.734375 40 L 83.734375 51 L 80 51 Z M 80 40 " clip-rule="nonzero"/></clipPath></defs><g clip-path="url(#clip-0)"><path fill="rgb(43.528748%, 26.269531%, 13.729858%)" d="M 48.234375 109.613281 C 48.25 110.199219 48.242188 110.707031 48.210938 111.132812 C 46 112.308594 43.261719 112.089844 43.261719 112.089844 C 42.894531 111.65625 42.417969 109.421875 42.417969 109.421875 C 42.371094 110.230469 41.753906 112.214844 41.753906 112.214844 C 38.179688 112.472656 35.875 111.132812 35.875 111.132812 C 35.851562 110.535156 35.855469 109.746094 35.894531 108.804688 C 35.949219 107.484375 36.0625 105.875 36.253906 104.09375 L 36.328125 104.101562 C 38.804688 104.78125 45.964844 104.976562 47.863281 104.179688 C 48.066406 106.234375 48.207031 108.148438 48.234375 109.613281 " fill-opacity="1" fill-rule="nonzero"/></g><g clip-path="url(#clip-1)"><path fill="rgb(35.289001%, 19.219971%, 7.839966%)" d="M 48.234375 109.613281 C 48.207031 108.148438 48.066406 106.234375 47.863281 104.179688 C 46.691406 104.667969 43.527344 104.785156 40.6875 104.640625 C 40.621094 107.171875 40.527344 109.722656 40.160156 112.230469 C 40.65625 112.257812 41.191406 112.257812 41.753906 112.214844 C 41.753906 112.214844 42.371094 110.230469 42.417969 109.421875 C 42.417969 109.421875 42.894531 111.65625 43.261719 112.089844 C 43.261719 112.089844 46 112.308594 48.210938 111.132812 C 48.242188 110.707031 48.25 110.199219 48.234375 109.613281 " fill-opacity="1" fill-rule="nonzero"/></g><g clip-path="url(#clip-2)"><path fill="rgb(28.62854%, 15.289307%, 9.01947%)" d="M 43.824219 112.105469 C 44.5 112.105469 45.683594 112.039062 46.898438 111.667969 C 46.890625 111.003906 46.882812 110.34375 46.867188 109.679688 C 46.84375 108.464844 46.835938 107.238281 46.753906 106.027344 C 46.71875 105.523438 46.640625 104.996094 46.632812 104.480469 C 45.824219 104.601562 44.792969 104.671875 43.683594 104.691406 C 43.695312 107.164062 43.765625 109.632812 43.824219 112.105469 " fill-opacity="1" fill-rule="nonzero"/></g><g clip-path="url(#clip-3)"><path fill="rgb(43.528748%, 26.269531%, 13.729858%)" d="M 73.046875 107.917969 C 73.0625 108.816406 73.039062 109.699219 72.984375 110.5625 C 71.484375 111.835938 67.644531 111.976562 67.644531 111.976562 C 67.082031 111.40625 66.875 109.753906 66.875 109.753906 C 66.753906 110.78125 66.222656 112.074219 66.222656 112.074219 C 62.691406 112.675781 60.554688 111.132812 60.554688 111.132812 C 60.535156 110.601562 60.535156 110.027344 60.550781 109.421875 C 60.585938 107.898438 60.71875 106.179688 60.914062 104.390625 L 61 104.398438 C 64.128906 105.117188 70.269531 104.691406 72.75 103.472656 L 72.757812 103.472656 C 72.925781 104.976562 73.027344 106.46875 73.046875 107.917969 " fill-opacity="1" fill-rule="nonzero"/></g><g clip-path="url(#clip-4)"><path fill="rgb(35.289001%, 19.219971%, 7.839966%)" d="M 73.046875 107.917969 C 73.027344 106.46875 72.925781 104.976562 72.757812 103.472656 L 72.75 103.472656 C 71.132812 104.265625 67.96875 104.722656 65.089844 104.75 C 65.054688 107.246094 64.902344 109.742188 64.570312 112.210938 C 65.082031 112.214844 65.632812 112.175781 66.222656 112.074219 C 66.222656 112.074219 66.753906 110.78125 66.875 109.753906 C 66.875 109.753906 67.082031 111.40625 67.644531 111.976562 C 67.644531 111.976562 71.484375 111.835938 72.984375 110.5625 C 73.039062 109.699219 73.0625 108.816406 73.046875 107.917969 " fill-opacity="1" fill-rule="nonzero"/></g><path fill="rgb(28.62854%, 15.289307%, 9.01947%)" d="M 68.125 111.945312 C 68.910156 111.886719 70.496094 111.707031 71.757812 111.234375 C 71.714844 108.800781 71.597656 106.363281 71.546875 103.925781 C 70.566406 104.21875 69.351562 104.4375 68.066406 104.574219 C 68.28125 107.03125 68.265625 109.488281 68.125 111.945312 " fill-opacity="1" fill-rule="nonzero"/><path fill="rgb(51.759338%, 32.548523%, 19.999695%)" d="M 81.34375 88.761719 C 80.015625 89.320312 80.859375 92.160156 80.996094 92.585938 C 80.691406 91.695312 79.441406 90.058594 78.355469 89.492188 C 79.394531 89.183594 80.949219 88.765625 81.34375 88.761719 " fill-opacity="1" fill-rule="nonzero"/><g clip-path="url(#clip-5)"><path fill="rgb(64.309692%, 45.098877%, 26.269531%)" d="M 77.332031 89.363281 C 77.414062 89.324219 77.496094 89.304688 77.589844 89.296875 C 77.824219 89.273438 78.082031 89.351562 78.355469 89.492188 C 79.441406 90.058594 80.691406 91.695312 80.996094 92.585938 C 80.859375 92.160156 80.015625 89.320312 81.34375 88.761719 C 81.34375 88.761719 81.347656 88.761719 81.351562 88.761719 C 81.492188 88.699219 81.65625 88.664062 81.851562 88.664062 C 83.9375 88.65625 86.265625 93.585938 86.808594 97.449219 C 87.351562 101.316406 87.832031 108.804688 83.304688 109.421875 C 83.121094 109.449219 82.941406 109.457031 82.765625 109.457031 C 79.660156 109.457031 77.730469 105.605469 76.667969 100.230469 C 75.582031 94.734375 76.1875 89.902344 77.332031 89.363281 " fill-opacity="1" fill-rule="nonzero"/></g><path fill="rgb(43.528748%, 26.269531%, 13.729858%)" d="M 77.589844 89.296875 C 77.496094 89.304688 77.414062 89.324219 77.332031 89.363281 C 76.1875 89.902344 75.582031 94.734375 76.667969 100.230469 C 77.730469 105.605469 79.660156 109.457031 82.765625 109.457031 L 82.765625 109.46875 C 79.546875 109.652344 74.71875 108.382812 73.046875 107.917969 C 73.027344 106.46875 72.925781 104.976562 72.757812 103.472656 C 72.320312 99.585938 71.417969 95.601562 70.261719 91.9375 C 71.417969 91.167969 76.328125 89.019531 77.589844 89.277344 L 77.589844 89.296875 " fill-opacity="1" fill-rule="nonzero"/><path fill="rgb(35.289001%, 19.219971%, 7.839966%)" d="M 76.667969 100.230469 C 76.300781 98.378906 76.128906 96.601562 76.101562 95.039062 C 74.566406 95.488281 73.027344 95.925781 71.464844 96.257812 C 72.039062 98.632812 72.484375 101.070312 72.757812 103.472656 C 72.925781 104.976562 73.027344 106.46875 73.046875 107.917969 C 74.71875 108.382812 79.546875 109.652344 82.765625 109.46875 L 82.765625 109.457031 C 79.660156 109.457031 77.730469 105.605469 76.667969 100.230469 " fill-opacity="1" fill-rule="nonzero"/><path fill="rgb(28.62854%, 15.289307%, 9.01947%)" d="M 72.964844 105.800781 C 74.914062 106.175781 76.882812 106.4375 78.851562 106.695312 C 77.898438 105.070312 77.179688 102.828125 76.667969 100.230469 C 76.640625 100.09375 76.617188 99.957031 76.59375 99.820312 C 75.175781 100.097656 73.742188 100.28125 72.296875 100.289062 C 72.480469 101.351562 72.636719 102.414062 72.757812 103.472656 C 72.84375 104.253906 72.914062 105.03125 72.964844 105.800781 " fill-opacity="1" fill-rule="nonzero"/><path fill="rgb(51.759338%, 32.548523%, 19.999695%)" d="M 29.320312 89.421875 C 29.320312 89.421875 31.09375 89.890625 31.945312 90.363281 L 31.988281 90.441406 C 30.875 90.933594 29.847656 93.183594 29.777344 93.34375 C 30.140625 92.015625 30.660156 90.144531 29.59375 89.539062 C 29.507812 89.492188 29.417969 89.457031 29.316406 89.4375 L 29.320312 89.421875 " fill-opacity="1" fill-rule="nonzero"/><path fill="rgb(64.309692%, 45.098877%, 26.269531%)" d="M 32.625 90.378906 C 32.738281 90.410156 32.855469 90.46875 32.972656 90.5625 C 34.417969 91.742188 33.882812 96.546875 32.519531 101.195312 C 31.484375 104.71875 29.515625 110.074219 25.730469 110.074219 C 22.378906 110.074219 21.324219 103.621094 23.5 96.917969 C 25.503906 90.722656 28.089844 89.160156 29.316406 89.4375 C 29.417969 89.457031 29.507812 89.492188 29.59375 89.539062 C 30.660156 90.144531 30.140625 92.015625 29.777344 93.34375 C 29.847656 93.183594 30.875 90.933594 31.988281 90.441406 C 32.195312 90.347656 32.410156 90.316406 32.625 90.378906 " fill-opacity="1" fill-rule="nonzero"/><path fill="rgb(43.528748%, 26.269531%, 13.729858%)" d="M 32.632812 90.363281 C 32.632812 90.363281 35.054688 90.714844 38.160156 92.640625 L 38.164062 92.640625 C 37.242188 96.445312 36.613281 100.589844 36.253906 104.09375 C 36.0625 105.875 35.949219 107.484375 35.894531 108.804688 L 35.855469 108.804688 C 35.121094 108.925781 26.816406 110.4375 25.730469 110.074219 C 29.515625 110.074219 31.484375 104.71875 32.519531 101.195312 C 33.882812 96.546875 34.417969 91.742188 32.972656 90.5625 C 32.855469 90.46875 32.738281 90.410156 32.625 90.378906 L 32.632812 90.363281 " fill-opacity="1" fill-rule="nonzero"/><path fill="rgb(35.289001%, 19.219971%, 7.839966%)" d="M 36.933594 95.257812 C 35.953125 94.9375 34.867188 94.597656 33.800781 94.539062 C 33.683594 96.476562 33.207031 98.855469 32.519531 101.195312 C 31.484375 104.71875 29.515625 110.074219 25.730469 110.074219 C 26.816406 110.4375 35.121094 108.925781 35.855469 108.804688 L 35.894531 108.804688 C 35.949219 107.484375 36.0625 105.875 36.253906 104.09375 C 36.527344 101.445312 36.953125 98.425781 37.542969 95.46875 C 37.335938 95.394531 37.132812 95.324219 36.933594 95.257812 " fill-opacity="1" fill-rule="nonzero"/><path fill="rgb(28.62854%, 15.289307%, 9.01947%)" d="M 32.339844 101.789062 C 31.820312 103.472656 31.101562 105.449219 30.097656 107.050781 C 32.09375 107.003906 34.078125 106.808594 36.035156 106.4375 C 36.09375 105.699219 36.164062 104.917969 36.253906 104.09375 C 36.320312 103.433594 36.398438 102.75 36.484375 102.050781 C 35.113281 101.835938 33.703125 101.796875 32.339844 101.789062 " fill-opacity="1" fill-rule="nonzero"/><path fill="rgb(28.62854%, 15.289307%, 9.01947%)" d="M 67.359375 75.230469 C 67.359375 79.761719 62.300781 81.898438 53.75 82.261719 C 45.28125 82.621094 38.859375 79.761719 38.859375 75.230469 C 38.859375 70.691406 45.238281 67.015625 53.113281 67.015625 C 60.980469 67.015625 67.359375 70.691406 67.359375 75.230469 " fill-opacity="1" fill-rule="nonzero"/><path fill="rgb(35.289001%, 19.219971%, 7.839966%)" d="M 63.144531 73.3125 C 62.453125 75.890625 58.589844 78.117188 52 78.394531 C 45.476562 78.671875 37.992188 77.371094 40.179688 73.199219 C 41.953125 69.820312 45.191406 67.746094 51.25 67.410156 C 59.125 66.972656 64.039062 69.957031 63.144531 73.3125 " fill-opacity="1" fill-rule="nonzero"/><path fill="rgb(43.528748%, 26.269531%, 13.729858%)" d="M 54.285156 70.761719 C 54.808594 72.710938 52.878906 74.214844 49.246094 75.359375 C 45.644531 76.492188 42.554688 76.003906 42.03125 74.054688 C 41.507812 72.105469 43.828125 69.785156 47.210938 68.875 C 50.59375 67.96875 53.761719 68.8125 54.285156 70.761719 " fill-opacity="1" fill-rule="nonzero"/><path fill="rgb(95.689392%, 83.529663%, 70.588684%)" d="M 46.378906 71.363281 C 46.671875 71.972656 46.101562 72.855469 45.101562 73.335938 C 44.101562 73.820312 43.054688 73.714844 42.761719 73.109375 C 42.46875 72.5 43.042969 71.617188 44.039062 71.132812 C 45.039062 70.652344 46.085938 70.753906 46.378906 71.363281 " fill-opacity="1" fill-rule="nonzero"/><path fill="rgb(43.528748%, 26.269531%, 13.729858%)" d="M 65.496094 77.085938 C 65.945312 77.589844 65.128906 78.640625 63.660156 79.402344 C 61.601562 80.476562 57.96875 81.484375 57.84375 80.945312 C 57.789062 80.695312 59.339844 80.28125 61.644531 79.117188 C 63.601562 78.128906 64.636719 76.125 65.496094 77.085938 " fill-opacity="1" fill-rule="nonzero"/><path fill="rgb(74.899292%, 57.649231%, 35.688782%)" d="M 62.640625 93.25 C 58.234375 88.601562 49.339844 89.019531 46.457031 92.953125 C 46.867188 95.75 47.46875 100.222656 47.863281 104.179688 C 48.066406 106.234375 48.207031 108.148438 48.234375 109.613281 L 48.269531 109.613281 C 52.230469 111.132812 56.382812 111.386719 60.539062 109.421875 L 60.550781 109.421875 C 60.585938 107.898438 60.71875 106.179688 60.914062 104.390625 C 61.332031 100.570312 62.023438 96.441406 62.644531 93.25 L 62.640625 93.25 " fill-opacity="1" fill-rule="nonzero"/><path fill="rgb(69.799805%, 52.159119%, 31.369019%)" d="M 60.808594 100.101562 C 59.9375 102.023438 58.738281 103.996094 56.90625 105.136719 C 54.324219 106.746094 49.972656 106.289062 47.839844 103.957031 C 47.847656 104.03125 47.855469 104.105469 47.863281 104.179688 C 48.066406 106.234375 48.207031 108.148438 48.234375 109.613281 L 48.269531 109.613281 C 52.230469 111.132812 56.382812 111.386719 60.539062 109.421875 L 60.550781 109.421875 C 60.585938 107.898438 60.71875 106.179688 60.914062 104.390625 C 61.1875 101.902344 61.574219 99.28125 61.984375 96.875 C 61.664062 97.976562 61.28125 99.058594 60.808594 100.101562 " fill-opacity="1" fill-rule="nonzero"/><path fill="rgb(74.899292%, 57.649231%, 35.688782%)" d="M 54.996094 108.679688 C 53.199219 109.242188 51.761719 108.894531 51.472656 109.285156 C 51.105469 109.777344 54.445312 110.269531 57.28125 109.667969 C 59.429688 109.210938 60.390625 107.957031 59.792969 107.332031 C 58.773438 106.269531 56.785156 108.117188 54.996094 108.679688 " fill-opacity="1" fill-rule="nonzero"/><path fill="rgb(65.098572%, 47.059631%, 27.059937%)" d="M 62.644531 93.25 L 62.640625 93.25 C 58.234375 88.601562 49.339844 89.019531 46.457031 92.953125 C 46.867188 95.75 47.46875 100.222656 47.863281 104.179688 C 45.964844 104.976562 38.804688 104.78125 36.328125 104.101562 L 36.253906 104.09375 C 36.613281 100.589844 37.242188 96.445312 38.164062 92.640625 C 38.910156 89.535156 39.855469 86.65625 41.003906 84.539062 C 43.699219 86.015625 47.457031 86.773438 52.589844 86.703125 C 59.445312 86.605469 63.839844 85.308594 66.769531 83.273438 C 68.03125 85.71875 69.246094 88.707031 70.261719 91.9375 C 71.417969 95.601562 72.320312 99.585938 72.757812 103.472656 L 72.75 103.472656 C 70.269531 104.691406 64.128906 105.117188 61 104.398438 L 60.914062 104.390625 C 61.332031 100.570312 62.023438 96.441406 62.644531 93.25 " fill-opacity="1" fill-rule="nonzero"/><path fill="rgb(55.688477%, 37.649536%, 20.388794%)" d="M 49.773438 88.15625 C 52.5 88.964844 55.371094 89.179688 58.195312 88.863281 C 61.617188 88.484375 64.933594 87.441406 68.027344 85.929688 C 67.617188 84.992188 67.199219 84.101562 66.769531 83.273438 C 63.839844 85.308594 59.445312 86.605469 52.589844 86.703125 C 48.71875 86.757812 45.632812 86.339844 43.195312 85.496094 C 45.015625 87.039062 47.519531 87.488281 49.773438 88.15625 " fill-opacity="1" fill-rule="nonzero"/><path fill="rgb(69.799805%, 52.159119%, 31.369019%)" d="M 40.875 100.808594 C 40.933594 98.03125 40.785156 95.285156 40.625 92.519531 C 40.53125 90.894531 40.671875 88.738281 39.785156 87.25 C 39.167969 88.875 38.628906 90.714844 38.164062 92.640625 C 37.242188 96.445312 36.613281 100.589844 36.253906 104.09375 L 36.328125 104.101562 C 37.28125 104.363281 38.925781 104.550781 40.699219 104.640625 C 40.785156 103.367188 40.847656 102.089844 40.875 100.808594 " fill-opacity="1" fill-rule="nonzero"/><path fill="rgb(64.309692%, 45.098877%, 26.269531%)" d="M 64.980469 48.476562 L 66.449219 51.453125 C 74.058594 55.191406 80.261719 47.03125 80.261719 47.03125 C 73.253906 42.746094 69.167969 46.304688 64.980469 48.476562 " fill-opacity="1" fill-rule="nonzero"/><path fill="rgb(51.759338%, 32.548523%, 19.999695%)" d="M 67.433594 51.277344 C 68.320312 51.488281 69.234375 51.574219 70.144531 51.601562 C 71.925781 51.660156 73.597656 51.179688 75.1875 50.390625 C 76.714844 49.636719 77.945312 48.480469 79.28125 47.445312 C 79.398438 47.351562 79.519531 47.261719 79.640625 47.171875 C 74.867188 47.375 70.332031 49.429688 65.601562 50.203125 L 65.984375 50.980469 C 66.472656 51.042969 66.949219 51.160156 67.433594 51.277344 " fill-opacity="1" fill-rule="nonzero"/><path fill="rgb(64.309692%, 45.098877%, 26.269531%)" d="M 27.261719 47.390625 C 27.261719 47.390625 33.464844 55.554688 41.074219 51.816406 L 42.546875 48.839844 C 38.359375 46.667969 34.269531 43.109375 27.261719 47.390625 " fill-opacity="1" fill-rule="nonzero"/><path fill="rgb(51.759338%, 32.548523%, 19.999695%)" d="M 30.289062 49.390625 C 31.429688 50.320312 32.648438 50.726562 34.066406 51.210938 C 36.371094 52.003906 38.78125 52.042969 41.144531 51.675781 L 41.214844 51.53125 C 39.332031 50.296875 37.257812 49.375 35.085938 48.765625 C 33.800781 48.402344 32.484375 48.097656 31.179688 47.824219 C 30.445312 47.671875 29.699219 47.539062 28.945312 47.527344 C 28.65625 47.523438 28.367188 47.542969 28.078125 47.566406 C 28.851562 48.113281 29.570312 48.800781 30.289062 49.390625 " fill-opacity="1" fill-rule="nonzero"/><path fill="rgb(74.899292%, 57.649231%, 35.688782%)" d="M 65.261719 47.625 C 63.089844 47.386719 55.605469 47.261719 53.3125 47.386719 C 51.019531 47.503906 44.378906 47.984375 41.875 48.109375 C 39.851562 51.550781 34.191406 65.089844 34.960938 73.835938 C 35.390625 78.703125 37.074219 82.386719 41.003906 84.539062 C 43.699219 86.015625 47.457031 86.773438 52.589844 86.703125 C 59.445312 86.605469 63.839844 85.308594 66.769531 83.273438 C 69.230469 81.566406 70.65625 79.339844 71.628906 76.855469 C 73.710938 71.539062 72.621094 61.328125 65.261719 47.625 Z M 53.75 82.261719 C 45.28125 82.621094 38.859375 79.761719 38.859375 75.230469 C 38.859375 70.691406 45.238281 67.015625 53.113281 67.015625 C 60.980469 67.015625 67.359375 70.691406 67.359375 75.230469 C 67.359375 79.761719 62.300781 81.898438 53.75 82.261719 " fill-opacity="1" fill-rule="nonzero"/><path fill="rgb(69.799805%, 52.159119%, 31.369019%)" d="M 65.261719 47.625 C 64.328125 47.523438 62.421875 47.441406 60.363281 47.390625 C 60.417969 47.484375 60.46875 47.578125 60.519531 47.671875 C 63.046875 52.410156 63.929688 57.914062 63.933594 63.234375 C 63.933594 65.367188 63.804688 67.507812 63.535156 69.628906 C 65.910156 71.097656 67.359375 73.066406 67.359375 75.230469 C 67.359375 79.761719 62.300781 81.898438 53.75 82.261719 C 50.269531 82.410156 47.136719 82.015625 44.652344 81.183594 C 43.457031 81.003906 42.28125 80.710938 41.136719 80.328125 C 39.898438 79.910156 38.652344 79.425781 37.609375 78.617188 C 36.691406 77.902344 35.925781 77.039062 35.269531 76.089844 C 35.992188 79.847656 37.707031 82.730469 41.003906 84.539062 C 43.699219 86.015625 47.457031 86.773438 52.589844 86.703125 C 59.445312 86.605469 63.839844 85.308594 66.769531 83.273438 C 69.230469 81.566406 70.65625 79.339844 71.628906 76.855469 C 73.710938 71.539062 72.621094 61.328125 65.261719 47.625 " fill-opacity="1" fill-rule="nonzero"/><path fill="rgb(89.019775%, 10.978699%, 14.509583%)" d="M 42.449219 37.5 C 41.476562 39.160156 40.320312 41.367188 39.210938 43.578125 C 37.234375 47.496094 35.394531 51.425781 34.960938 52.339844 C 34.441406 51.984375 33.828125 51.703125 33.152344 51.492188 C 32.824219 51.386719 32.457031 51.28125 32.074219 51.203125 C 32.453125 48.199219 33.339844 44.226562 34.453125 40.628906 C 34.992188 38.886719 35.582031 37.230469 36.195312 35.820312 C 36.699219 34.644531 37.222656 33.640625 37.738281 32.890625 C 40.15625 29.386719 42.566406 26.488281 47.515625 26.488281 C 52.410156 26.488281 63.070312 30.496094 64.253906 36.417969 C 62.488281 36.539062 60.265625 36.953125 57.65625 36.875 C 53.585938 36.753906 44.539062 36.480469 42.449219 37.5 " fill-opacity="1" fill-rule="nonzero"/><path fill="rgb(77.648926%, 10.5896%, 14.898682%)" d="M 42.464844 37.492188 C 42.621094 37.222656 43.15625 36.9375 43.378906 36.714844 C 44.246094 35.847656 45.03125 35.488281 46.144531 35.046875 C 46.773438 34.796875 47.394531 34.523438 47.941406 34.121094 C 48.058594 34.035156 48.925781 33.421875 48.347656 33.269531 C 48.035156 33.183594 47.4375 33.277344 47.144531 33.417969 C 46.453125 33.753906 46.320312 34.066406 45.507812 33.964844 C 45.207031 33.925781 45.792969 33.453125 45.847656 33.378906 C 46.730469 32.15625 48.03125 31.589844 47.652344 31.421875 C 46.691406 31.058594 46.367188 31.707031 45.707031 32.308594 C 45.140625 32.824219 44.546875 33.464844 43.789062 33.679688 C 43.714844 33.699219 43.644531 33.640625 43.644531 33.570312 C 43.632812 32.84375 44.339844 32.257812 44.316406 31.546875 C 44.296875 30.9375 43.625 31.289062 43.40625 31.542969 C 43.285156 31.683594 43.164062 31.828125 43.0625 31.988281 C 42.792969 32.414062 42.558594 32.859375 42.34375 33.316406 C 41.871094 34.320312 42.070312 35.488281 41.414062 36.382812 C 40.738281 37.304688 40.3125 38.175781 39.691406 39.191406 C 38.515625 41.113281 37.996094 43.515625 37.160156 45.613281 C 36.300781 47.773438 35.320312 49.882812 34.496094 52.054688 C 34.660156 52.144531 34.816406 52.238281 34.960938 52.339844 C 35.394531 51.425781 37.234375 47.496094 39.210938 43.578125 C 40.320312 41.367188 41.476562 39.160156 42.449219 37.5 C 42.453125 37.496094 42.457031 37.496094 42.464844 37.492188 " fill-opacity="1" fill-rule="nonzero"/><path fill="rgb(77.648926%, 10.5896%, 14.898682%)" d="M 56.582031 28.890625 C 57.285156 29.460938 57.875 30.160156 58.261719 31.0625 C 58.980469 32.753906 58.496094 34.398438 56.847656 35.265625 C 55.882812 35.769531 54.828125 36.019531 53.769531 36.246094 C 52.9375 36.421875 52.097656 36.578125 51.261719 36.75 C 53.679688 36.757812 56.054688 36.828125 57.65625 36.875 C 60.265625 36.953125 62.488281 36.539062 64.253906 36.417969 C 63.621094 33.257812 60.292969 30.644531 56.582031 28.890625 " fill-opacity="1" fill-rule="nonzero"/><path fill="rgb(89.408875%, 91.758728%, 92.549133%)" d="M 68.652344 38.84375 C 69.140625 40.191406 69.285156 41.90625 69.179688 43.390625 C 69.144531 43.917969 69.050781 44.40625 68.914062 44.855469 C 68.355469 46.683594 67.003906 47.820312 65.261719 47.625 C 63.089844 47.386719 55.605469 47.261719 53.3125 47.386719 C 51.019531 47.503906 44.378906 47.984375 41.875 48.109375 C 39.429688 48.226562 38.851562 46.265625 39.210938 43.578125 C 40.320312 41.367188 41.476562 39.160156 42.449219 37.5 C 44.539062 36.480469 53.585938 36.753906 57.65625 36.875 C 60.265625 36.953125 62.488281 36.539062 64.253906 36.417969 C 65.265625 36.347656 66.125 36.367188 66.828125 36.632812 C 67.679688 36.953125 68.269531 37.785156 68.652344 38.84375 " fill-opacity="1" fill-rule="nonzero"/><path fill="rgb(100%, 100%, 100%)" d="M 40.992188 40.957031 C 39.691406 43.589844 44.855469 43.75 45.714844 43.355469 C 46.363281 43.058594 46.972656 42.628906 47.652344 42.40625 C 49.035156 41.957031 50.332031 42.414062 51.710938 42.628906 C 53.558594 42.914062 55.402344 42.933594 57.246094 42.601562 C 58.046875 42.457031 58.894531 42.234375 59.714844 42.257812 C 60.421875 42.277344 61.09375 42.34375 61.792969 42.207031 C 62.804688 42.007812 63.8125 41.707031 64.742188 41.265625 C 65.621094 40.851562 66.613281 40.292969 67.09375 39.40625 C 67.613281 38.449219 66.757812 36.382812 64.480469 36.757812 C 62.730469 37.046875 60.492188 37.292969 57.882812 37.214844 C 53.8125 37.09375 44.765625 36.820312 42.671875 37.839844 C 42.1875 38.671875 41.039062 40.871094 40.992188 40.957031 " fill-opacity="1" fill-rule="nonzero"/><path fill="rgb(100%, 100%, 100%)" d="M 66.90625 43.304688 C 66.257812 44.132812 65.714844 44.984375 64.6875 45.210938 C 63.265625 45.519531 61.875 45.644531 60.433594 45.660156 C 58.894531 45.679688 57.335938 45.402344 55.828125 45.695312 C 55.128906 45.828125 54.421875 45.957031 53.714844 46.019531 C 52.902344 46.089844 52.113281 46.039062 51.300781 46.011719 C 49.644531 45.960938 48 46.226562 46.367188 46.503906 C 45.234375 46.691406 43.742188 47.140625 42.699219 46.429688 C 42.152344 46.058594 41.6875 45.578125 41.082031 45.292969 C 40.632812 45.078125 40.167969 44.933594 39.691406 44.820312 C 39.75 46.65625 40.488281 47.863281 42.359375 47.769531 C 44.78125 47.648438 51.203125 47.164062 53.421875 47.046875 C 55.640625 46.921875 62.878906 47.046875 64.980469 47.285156 C 66.667969 47.480469 67.976562 46.34375 68.515625 44.515625 C 68.648438 44.066406 68.738281 43.578125 68.773438 43.050781 C 68.804688 42.558594 68.8125 42.039062 68.789062 41.515625 C 67.976562 41.714844 67.398438 42.683594 66.90625 43.304688 " fill-opacity="1" fill-rule="nonzero"/><path fill="rgb(89.408875%, 91.758728%, 92.549133%)" d="M 34.960938 52.339844 C 36.488281 53.382812 37.222656 55.101562 36.410156 57.894531 C 35.324219 61.636719 30.859375 61.394531 29.894531 61.273438 C 28.925781 61.15625 24.945312 59.707031 26.632812 54.996094 C 28.023438 51.121094 30.285156 50.847656 32.074219 51.203125 C 32.457031 51.28125 32.824219 51.386719 33.152344 51.492188 C 33.828125 51.703125 34.441406 51.984375 34.960938 52.339844 " fill-opacity="1" fill-rule="nonzero"/><path fill="rgb(100%, 100%, 100%)" d="M 30.488281 51.691406 C 28.636719 51.832031 27.519531 53.714844 27.265625 55.335938 C 27.109375 56.320312 27.378906 57.277344 28.484375 57.476562 C 29.222656 57.605469 30.078125 57.539062 30.785156 57.292969 C 32.460938 56.703125 33.496094 54.949219 32.957031 53.1875 C 32.640625 52.15625 31.75 51.59375 30.488281 51.691406 " fill-opacity="1" fill-rule="nonzero"/><path fill="rgb(100%, 100%, 100%)" d="M 35.761719 53.796875 C 35.800781 54.09375 35.820312 54.890625 35.8125 55.171875 C 35.796875 56.292969 34.734375 58.457031 33.726562 59.148438 C 32.691406 59.855469 30.9375 60.332031 29.921875 60.21875 C 29.316406 60.152344 28.425781 59.675781 28.109375 59.617188 C 27.921875 59.582031 27.75 59.585938 27.589844 59.582031 C 28.425781 60.519531 29.609375 60.898438 30.066406 60.953125 C 30.953125 61.066406 35.046875 61.289062 36.042969 57.851562 C 36.566406 56.058594 36.390625 54.75 35.761719 53.796875 " fill-opacity="1" fill-rule="nonzero"/><path fill="rgb(13.729858%, 12.159729%, 12.548828%)" d="M 49.605469 52.605469 C 50.046875 52.605469 50.402344 52.964844 50.402344 53.402344 C 50.402344 53.84375 50.046875 54.199219 49.605469 54.199219 C 49.167969 54.199219 48.808594 53.84375 48.808594 53.402344 C 48.808594 52.964844 49.167969 52.605469 49.605469 52.605469 " fill-opacity="1" fill-rule="nonzero"/><path fill="rgb(100%, 100%, 100%)" d="M 49.515625 53.15625 C 49.515625 53.269531 49.425781 53.359375 49.3125 53.359375 C 49.199219 53.359375 49.105469 53.269531 49.105469 53.15625 C 49.105469 53.042969 49.199219 52.953125 49.3125 52.953125 C 49.425781 52.953125 49.515625 53.042969 49.515625 53.15625 " fill-opacity="1" fill-rule="nonzero"/><path fill="rgb(13.729858%, 12.159729%, 12.548828%)" d="M 57.171875 52.605469 C 57.613281 52.605469 57.96875 52.964844 57.96875 53.402344 C 57.96875 53.84375 57.613281 54.199219 57.171875 54.199219 C 56.734375 54.199219 56.375 53.84375 56.375 53.402344 C 56.375 52.964844 56.734375 52.605469 57.171875 52.605469 " fill-opacity="1" fill-rule="nonzero"/><path fill="rgb(100%, 100%, 100%)" d="M 57.082031 53.15625 C 57.082031 53.269531 56.992188 53.359375 56.878906 53.359375 C 56.765625 53.359375 56.671875 53.269531 56.671875 53.15625 C 56.671875 53.042969 56.765625 52.953125 56.878906 52.953125 C 56.992188 52.953125 57.082031 53.042969 57.082031 53.15625 " fill-opacity="1" fill-rule="nonzero"/><g clip-path="url(#clip-6)"><path fill="rgb(43.528748%, 26.269531%, 13.729858%)" d="M 36.472656 24.433594 C 37.800781 25.761719 38.289062 27.636719 36.746094 28.601562 C 35.207031 29.566406 33.695312 30.566406 33.757812 31.726562 C 33.820312 32.890625 36.195312 35.820312 36.195312 35.820312 C 35.582031 37.230469 34.992188 38.886719 34.453125 40.628906 C 33.636719 39.652344 33.457031 39.289062 32.609375 39.832031 C 31.765625 40.375 30.316406 42.429688 28.445312 41.707031 C 26.574219 40.980469 26.816406 39.289062 27.300781 38.507812 C 27.78125 37.71875 29.710938 37.035156 30.015625 36.382812 C 30.316406 35.726562 29.652344 34.375 28.988281 34.6875 C 28.324219 35.003906 25.335938 37.777344 23.796875 37.660156 C 22.230469 37.539062 20.660156 35.484375 21.625 34.277344 C 22.59375 33.070312 26.816406 31.558594 26.9375 30.65625 C 27.058594 29.75 26.816406 30.046875 25.609375 28.902344 C 24.402344 27.753906 21.746094 26.304688 22.109375 24.433594 C 22.46875 22.5625 23.796875 21.171875 25.003906 21.714844 C 26.214844 22.257812 29.230469 27.273438 30.253906 27.636719 C 31.285156 28 31.714844 27.03125 32.554688 25.945312 C 33.394531 24.855469 35.144531 23.105469 36.472656 24.433594 " fill-opacity="1" fill-rule="nonzero"/></g><path fill="rgb(35.289001%, 19.219971%, 7.839966%)" d="M 37.011719 25.066406 C 36.164062 25.203125 35.410156 26.0625 34.847656 26.488281 C 33.65625 27.398438 32.410156 28.640625 30.886719 28.976562 C 29.042969 29.382812 27.378906 28.226562 26.492188 26.679688 C 26.113281 26.011719 25.335938 24.417969 24.316406 24.742188 C 23.738281 24.925781 23.453125 25.6875 23.515625 26.253906 C 23.558594 26.660156 23.691406 27.039062 23.8125 27.425781 C 24.457031 27.96875 25.140625 28.457031 25.609375 28.902344 C 26.734375 29.972656 27.019531 29.78125 26.957031 30.488281 C 27.082031 30.574219 27.203125 30.6875 27.320312 30.835938 C 27.65625 31.28125 27.820312 31.765625 27.769531 32.328125 C 27.675781 33.378906 26.789062 34.3125 25.976562 34.902344 C 24.988281 35.621094 22.53125 36.546875 21.394531 35.597656 C 21.660156 36.597656 22.730469 37.578125 23.796875 37.660156 C 25.335938 37.777344 28.324219 35.003906 28.988281 34.6875 C 29.433594 34.476562 29.882812 35.019531 30.035156 35.597656 C 31.175781 36.644531 30.949219 38.832031 29.984375 39.941406 C 29.507812 40.484375 28.144531 41.160156 27.308594 40.882812 C 27.542969 41.207031 27.90625 41.496094 28.445312 41.707031 C 30.316406 42.429688 31.765625 40.375 32.609375 39.832031 C 33.457031 39.289062 33.636719 39.652344 34.453125 40.628906 C 34.8125 39.46875 35.195312 38.347656 35.589844 37.308594 C 35.328125 37.007812 35.0625 36.703125 34.84375 36.363281 C 34.316406 35.554688 33.792969 34.621094 33.558594 33.675781 C 33.40625 33.0625 33.273438 31.886719 33.789062 31.359375 C 34.019531 30.351562 35.371094 29.464844 36.746094 28.601562 C 38.054688 27.78125 37.902344 26.304688 37.011719 25.066406 " fill-opacity="1" fill-rule="nonzero"/><path fill="rgb(64.309692%, 45.098877%, 26.269531%)" d="M 24.519531 22.125 C 23.957031 22.144531 23.515625 22.496094 23.191406 22.933594 C 23 23.191406 22.757812 23.539062 22.65625 23.894531 C 22.488281 24.554688 23.085938 24.472656 23.207031 24.390625 C 23.890625 23.933594 24.359375 23.332031 24.804688 22.625 C 24.941406 22.40625 24.75 22.117188 24.519531 22.125 " fill-opacity="1" fill-rule="nonzero"/><path fill="rgb(64.309692%, 45.098877%, 26.269531%)" d="M 35.644531 24.347656 C 35.058594 24.167969 34.457031 24.445312 33.9375 24.867188 C 33.632812 25.113281 33.234375 25.457031 32.980469 25.855469 C 32.523438 26.609375 33.171875 26.71875 33.332031 26.664062 C 34.226562 26.347656 34.964844 25.773438 35.726562 25.0625 C 35.957031 24.84375 35.882812 24.421875 35.644531 24.347656 " fill-opacity="1" fill-rule="nonzero"/><path fill="rgb(64.309692%, 45.098877%, 26.269531%)" d="M 29.285156 37.671875 C 28.640625 37.746094 28.199219 38.144531 27.832031 38.683594 C 27.628906 38.984375 27.394531 39.453125 27.3125 39.867188 C 27.179688 40.640625 27.855469 40.488281 27.988281 40.386719 C 28.726562 39.800781 29.210938 39.070312 29.660156 38.214844 C 29.792969 37.957031 29.550781 37.644531 29.285156 37.671875 " fill-opacity="1" fill-rule="nonzero"/><path fill="rgb(64.309692%, 45.098877%, 26.269531%)" d="M 26.371094 32.316406 C 25.855469 32.046875 24.65625 32.605469 23.824219 33.136719 C 22.785156 33.804688 22.34375 34.085938 22.226562 34.234375 C 21.34375 35.253906 22.140625 35.328125 22.390625 35.222656 C 23.632812 34.707031 24.769531 34.066406 25.976562 33.148438 C 26.339844 32.871094 26.753906 32.515625 26.371094 32.316406 " fill-opacity="1" fill-rule="nonzero"/><path fill="rgb(43.528748%, 26.269531%, 13.729858%)" d="M 85.417969 30.785156 C 86.324219 31.679688 87.351562 33.527344 86.382812 34.6875 C 85.417969 35.847656 84.574219 36.328125 82.703125 34.941406 C 80.832031 33.554688 81.132812 33.070312 80.226562 33.734375 C 79.320312 34.398438 77.511719 35.648438 77.332031 36.382812 C 77.148438 37.113281 77.8125 37.175781 78.777344 37.601562 C 79.746094 38.019531 82.398438 39.648438 80.109375 42.246094 C 77.816406 44.847656 74.914062 41.222656 74.433594 40.800781 C 73.953125 40.375 69.605469 44.492188 68.914062 44.855469 C 69.050781 44.40625 69.144531 43.917969 69.179688 43.390625 C 69.285156 41.90625 69.140625 40.191406 68.652344 38.84375 C 69.363281 38.082031 71.960938 35.644531 72.023438 34.6875 C 72.078125 33.734375 70.511719 32.921875 70.089844 31.726562 C 69.667969 30.535156 69.542969 28.117188 70.992188 27.148438 C 72.441406 26.1875 73.652344 26.242188 74.3125 27.148438 C 74.976562 28.054688 75.644531 30.472656 76.605469 30.351562 C 77.574219 30.230469 79.019531 26.605469 80.410156 25.039062 C 81.796875 23.46875 83.972656 22.019531 85.359375 23.105469 C 86.746094 24.195312 86.082031 26.96875 85.117188 27.753906 C 84.152344 28.542969 82.21875 29.386719 82.398438 29.808594 C 82.582031 30.230469 84.515625 29.894531 85.417969 30.785156 " fill-opacity="1" fill-rule="nonzero"/><path fill="rgb(35.289001%, 19.219971%, 7.839966%)" d="M 82.398438 29.808594 C 82.21875 29.386719 84.152344 28.542969 85.117188 27.753906 C 85.894531 27.125 86.472656 25.207031 85.949219 23.914062 C 84.375 23.914062 82.605469 27.089844 81.21875 28.824219 C 80.433594 29.804688 79.835938 30.847656 78.625 31.367188 C 77.582031 31.816406 76.726562 31.296875 76.296875 30.3125 C 76.296875 30.308594 76.296875 30.304688 76.292969 30.300781 C 75.496094 29.949219 74.902344 27.953125 74.3125 27.148438 C 74.304688 27.136719 74.292969 27.125 74.285156 27.113281 C 74.234375 27.722656 73.339844 27.972656 72.5625 29.238281 C 71.011719 31.761719 74.851562 33.269531 73.535156 35.867188 C 72.832031 37.253906 69.617188 39.496094 68.921875 39.773438 C 69.191406 40.929688 69.261719 42.230469 69.179688 43.390625 C 69.144531 43.917969 69.050781 44.40625 68.914062 44.855469 C 69.605469 44.492188 73.953125 40.375 74.433594 40.800781 C 74.914062 41.222656 77.816406 44.847656 80.109375 42.246094 C 82.398438 39.648438 79.746094 38.019531 78.777344 37.601562 C 77.8125 37.175781 77.148438 37.113281 77.332031 36.382812 C 77.511719 35.648438 79.320312 34.398438 80.226562 33.734375 C 81.132812 33.070312 80.832031 33.554688 82.703125 34.941406 C 84.574219 36.328125 85.417969 35.847656 86.382812 34.6875 C 87.351562 33.527344 86.324219 31.679688 85.417969 30.785156 C 84.515625 29.894531 82.582031 30.230469 82.398438 29.808594 " fill-opacity="1" fill-rule="nonzero"/><path fill="rgb(64.309692%, 45.098877%, 26.269531%)" d="M 72.628906 26.992188 C 72.066406 27.011719 71.625 27.363281 71.300781 27.800781 C 71.109375 28.054688 70.863281 28.40625 70.765625 28.757812 C 70.597656 29.421875 71.195312 29.339844 71.316406 29.257812 C 72 28.800781 72.46875 28.199219 72.914062 27.488281 C 73.050781 27.273438 72.859375 26.984375 72.628906 26.992188 " fill-opacity="1" fill-rule="nonzero"/><path fill="rgb(64.309692%, 45.098877%, 26.269531%)" d="M 83.710938 23.316406 C 83.167969 23.214844 82.222656 24.015625 81.605469 24.695312 C 80.839844 25.542969 80.515625 25.90625 80.445312 26.066406 C 79.917969 27.183594 80.671875 27.042969 80.871094 26.886719 C 81.867188 26.113281 82.730469 25.257812 83.578125 24.148438 C 83.835938 23.808594 84.117188 23.394531 83.710938 23.316406 " fill-opacity="1" fill-rule="nonzero"/><g clip-path="url(#clip-7)"><path fill="rgb(0%, 0%, 0%)" d="M 79.59375 39.390625 C 79.769531 36.917969 80.230469 24.472656 72.671875 16.285156 C 68.210938 11.453125 61.867188 9.078125 53.816406 9.238281 C 45.773438 9.085938 39.425781 11.453125 34.964844 16.285156 C 27.597656 24.261719 27.847656 36.289062 28.027344 39.183594 C 27.921875 39.585938 27.863281 40.003906 27.863281 40.4375 L 27.863281 51.539062 C 27.863281 54.230469 30.046875 56.410156 32.738281 56.410156 L 36.121094 56.410156 C 38.8125 56.410156 40.996094 54.230469 40.996094 51.539062 L 40.996094 40.4375 C 40.996094 37.746094 38.8125 35.566406 36.121094 35.566406 L 32.738281 35.566406 C 32.371094 35.566406 32.011719 35.609375 31.667969 35.683594 C 31.851562 31.257812 32.925781 23.867188 37.664062 18.75 C 41.390625 14.722656 46.824219 12.746094 53.78125 12.894531 L 53.855469 12.894531 C 60.816406 12.753906 66.246094 14.722656 69.972656 18.75 C 74.714844 23.875 75.785156 31.277344 75.96875 35.699219 C 75.605469 35.613281 75.226562 35.566406 74.835938 35.566406 L 71.453125 35.566406 C 68.761719 35.566406 66.578125 37.746094 66.578125 40.4375 L 66.578125 51.539062 C 66.578125 54.230469 68.761719 56.410156 71.453125 56.410156 L 74.835938 56.410156 C 77.527344 56.410156 79.707031 54.230469 79.707031 51.539062 L 79.707031 40.4375 C 79.707031 40.078125 79.667969 39.726562 79.59375 39.390625 Z M 79.59375 39.390625 " fill-opacity="1" fill-rule="nonzero"/></g><g clip-path="url(#clip-8)"><path fill="rgb(0%, 0%, 0%)" d="M 26.679688 40.710938 L 23.734375 42.433594 L 23.734375 49.035156 L 26.679688 50.964844 " fill-opacity="1" fill-rule="nonzero"/></g><g clip-path="url(#clip-9)"><path fill="rgb(0%, 0%, 0%)" d="M 80.792969 40.710938 L 83.734375 42.433594 L 83.734375 49.035156 L 80.792969 50.964844 " fill-opacity="1" fill-rule="nonzero"/></g></svg>