<?xml version="1.0" encoding="UTF-8"?><svg xmlns="http://www.w3.org/2000/svg" xmlns:xlink="http://www.w3.org/1999/xlink" contentScriptType="text/ecmascript" width="112.5" zoomAndPan="magnify" contentStyleType="text/css" viewBox="0 0 112.5 112.499997" height="112.499997" preserveAspectRatio="xMidYMid meet" version="1.0"><defs><clipPath id="clip-0"><path d="M 7.613281 25.628906 L 90.863281 25.628906 L 90.863281 108.878906 L 7.613281 108.878906 Z M 7.613281 25.628906 " clip-rule="nonzero"/></clipPath><clipPath id="clip-1"><path d="M 94 39 L 105.050781 39 L 105.050781 47 L 94 47 Z M 94 39 " clip-rule="nonzero"/></clipPath></defs><g clip-path="url(#clip-0)"><path fill="rgb(12.548828%, 12.548828%, 12.548828%)" d="M 49.238281 25.628906 C 26.25 25.628906 7.613281 44.265625 7.613281 67.253906 C 7.613281 90.246094 26.25 108.878906 49.238281 108.878906 C 72.226562 108.878906 90.863281 90.246094 90.863281 67.253906 C 90.863281 44.265625 72.226562 25.628906 49.238281 25.628906 Z M 49.238281 68.984375 C 48.285156 68.984375 47.511719 68.210938 47.511719 67.253906 C 47.511719 66.300781 48.285156 65.527344 49.238281 65.527344 C 50.191406 65.527344 50.964844 66.300781 50.964844 67.253906 C 50.964844 68.210938 50.191406 68.984375 49.238281 68.984375 Z M 49.238281 68.984375 " fill-opacity="1" fill-rule="nonzero"/></g><path fill="rgb(100%, 100%, 100%)" d="M 49.238281 26.542969 C 26.753906 26.542969 8.527344 44.769531 8.527344 67.253906 C 8.527344 89.738281 26.753906 107.96875 49.238281 107.96875 C 71.722656 107.96875 89.953125 89.738281 89.953125 67.253906 C 89.953125 44.769531 71.722656 26.542969 49.238281 26.542969 Z M 49.238281 68.984375 C 48.285156 68.984375 47.511719 68.210938 47.511719 67.253906 C 47.511719 66.300781 48.285156 65.527344 49.238281 65.527344 C 50.191406 65.527344 50.964844 66.300781 50.964844 67.253906 C 50.964844 68.210938 50.191406 68.984375 49.238281 68.984375 Z M 49.238281 68.984375 " fill-opacity="0.0471" fill-rule="nonzero"/><path fill="rgb(12.548828%, 12.548828%, 12.548828%)" d="M 49.238281 46.226562 C 37.625 46.226562 28.210938 55.640625 28.210938 67.253906 C 28.210938 78.867188 37.625 88.28125 49.238281 88.28125 C 60.851562 88.28125 70.265625 78.867188 70.265625 67.253906 C 70.265625 55.640625 60.851562 46.226562 49.238281 46.226562 Z M 49.238281 68.984375 C 48.285156 68.984375 47.511719 68.210938 47.511719 67.253906 C 47.511719 66.300781 48.285156 65.527344 49.238281 65.527344 C 50.191406 65.527344 50.964844 66.300781 50.964844 67.253906 C 50.964844 68.210938 50.191406 68.984375 49.238281 68.984375 Z M 49.238281 68.984375 " fill-opacity="1" fill-rule="nonzero"/><path fill="rgb(87.838745%, 32.548523%, 21.958923%)" d="M 49.238281 54.46875 C 42.179688 54.46875 36.453125 60.195312 36.453125 67.253906 C 36.453125 74.316406 42.179688 80.039062 49.238281 80.039062 C 56.300781 80.039062 62.023438 74.316406 62.023438 67.253906 C 62.023438 60.195312 56.300781 54.46875 49.238281 54.46875 Z M 49.238281 68.984375 C 48.285156 68.984375 47.511719 68.210938 47.511719 67.253906 C 47.511719 66.300781 48.285156 65.527344 49.238281 65.527344 C 50.191406 65.527344 50.964844 66.300781 50.964844 67.253906 C 50.964844 68.210938 50.191406 68.984375 49.238281 68.984375 Z M 49.238281 68.984375 " fill-opacity="1" fill-rule="nonzero"/><path fill="rgb(100%, 100%, 100%)" d="M 49.238281 78.371094 C 43.109375 78.371094 38.121094 73.386719 38.121094 67.253906 C 38.121094 61.125 43.109375 56.140625 49.238281 56.140625 C 55.367188 56.140625 60.355469 61.125 60.355469 67.253906 C 60.355469 73.386719 55.367188 78.371094 49.238281 78.371094 Z M 49.238281 56.453125 C 43.28125 56.453125 38.4375 61.296875 38.4375 67.253906 C 38.4375 73.210938 43.28125 78.058594 49.238281 78.058594 C 55.195312 78.058594 60.042969 73.210938 60.042969 67.253906 C 60.042969 61.296875 55.195312 56.453125 49.238281 56.453125 Z M 49.238281 56.453125 " fill-opacity="1" fill-rule="nonzero"/><path fill="rgb(12.548828%, 12.548828%, 12.548828%)" d="M 49.238281 101.640625 C 40.054688 101.640625 31.417969 98.066406 24.925781 91.570312 C 18.429688 85.074219 14.851562 76.441406 14.851562 67.253906 C 14.851562 58.070312 18.429688 49.433594 24.925781 42.941406 C 31.417969 36.445312 40.054688 32.867188 49.238281 32.867188 C 58.425781 32.867188 67.058594 36.445312 73.554688 42.941406 C 80.050781 49.433594 83.625 58.070312 83.625 67.253906 C 83.625 76.441406 80.050781 85.074219 73.554688 91.570312 C 67.058594 98.066406 58.425781 101.640625 49.238281 101.640625 Z M 49.238281 33.628906 C 40.257812 33.628906 31.8125 37.125 25.460938 43.476562 C 19.109375 49.828125 15.613281 58.273438 15.613281 67.253906 C 15.613281 76.238281 19.109375 84.683594 25.460938 91.03125 C 31.8125 97.382812 40.257812 100.882812 49.238281 100.882812 C 58.222656 100.882812 66.664062 97.382812 73.015625 91.03125 C 79.367188 84.683594 82.867188 76.238281 82.867188 67.253906 C 82.867188 58.273438 79.367188 49.828125 73.015625 43.476562 C 66.664062 37.125 58.222656 33.628906 49.238281 33.628906 Z M 49.238281 33.628906 " fill-opacity="1" fill-rule="nonzero"/><path fill="rgb(12.548828%, 12.548828%, 12.548828%)" d="M 49.238281 103.894531 C 39.453125 103.894531 30.25 100.085938 23.332031 93.164062 C 16.410156 86.242188 12.597656 77.042969 12.597656 67.253906 C 12.597656 57.46875 16.410156 48.265625 23.332031 41.347656 C 30.25 34.425781 39.453125 30.613281 49.238281 30.613281 C 59.027344 30.613281 68.226562 34.425781 75.148438 41.347656 C 82.066406 48.265625 85.878906 57.46875 85.878906 67.253906 C 85.878906 77.042969 82.066406 86.242188 75.148438 93.164062 C 68.226562 100.085938 59.027344 103.894531 49.238281 103.894531 Z M 49.238281 31.375 C 39.65625 31.375 30.644531 35.109375 23.867188 41.882812 C 17.089844 48.660156 13.359375 57.671875 13.359375 67.253906 C 13.359375 76.839844 17.089844 85.847656 23.867188 92.625 C 30.644531 99.402344 39.65625 103.136719 49.238281 103.136719 C 58.824219 103.136719 67.832031 99.402344 74.609375 92.625 C 81.386719 85.851562 85.121094 76.839844 85.121094 67.253906 C 85.121094 57.671875 81.386719 48.660156 74.609375 41.882812 C 67.832031 35.109375 58.824219 31.375 49.238281 31.375 Z M 49.238281 31.375 " fill-opacity="1" fill-rule="nonzero"/><path fill="rgb(12.548828%, 12.548828%, 12.548828%)" d="M 49.238281 93.917969 C 34.539062 93.917969 22.578125 81.957031 22.578125 67.253906 C 22.578125 52.554688 34.539062 40.59375 49.238281 40.59375 C 63.941406 40.59375 75.898438 52.554688 75.898438 67.253906 C 75.898438 81.957031 63.941406 93.917969 49.238281 93.917969 Z M 49.238281 41.535156 C 35.054688 41.535156 23.519531 53.074219 23.519531 67.253906 C 23.519531 81.4375 35.054688 92.976562 49.238281 92.976562 C 63.421875 92.976562 74.960938 81.4375 74.960938 67.253906 C 74.960938 53.074219 63.421875 41.535156 49.238281 41.535156 Z M 49.238281 41.535156 " fill-opacity="1" fill-rule="nonzero"/><path fill="rgb(12.548828%, 12.548828%, 12.548828%)" d="M 49.238281 90.734375 C 36.292969 90.734375 25.761719 80.203125 25.761719 67.253906 C 25.761719 54.308594 36.292969 43.777344 49.238281 43.777344 C 62.183594 43.777344 72.71875 54.308594 72.71875 67.253906 C 72.71875 80.203125 62.183594 90.734375 49.238281 90.734375 Z M 49.238281 45.339844 C 37.15625 45.339844 27.324219 55.171875 27.324219 67.253906 C 27.324219 79.339844 37.15625 89.167969 49.238281 89.167969 C 61.324219 89.167969 71.152344 79.339844 71.152344 67.253906 C 71.152344 55.171875 61.324219 45.339844 49.238281 45.339844 Z M 49.238281 45.339844 " fill-opacity="1" fill-rule="nonzero"/><path fill="rgb(12.548828%, 12.548828%, 12.548828%)" d="M 49.238281 97.042969 C 32.8125 97.042969 19.449219 83.679688 19.449219 67.253906 C 19.449219 50.832031 32.8125 37.46875 49.238281 37.46875 C 65.664062 37.46875 79.027344 50.832031 79.027344 67.253906 C 79.027344 83.679688 65.664062 97.042969 49.238281 97.042969 Z M 49.238281 38.175781 C 33.207031 38.175781 20.160156 51.222656 20.160156 67.253906 C 20.160156 83.289062 33.207031 96.335938 49.238281 96.335938 C 65.273438 96.335938 78.316406 83.289062 78.316406 67.253906 C 78.316406 51.222656 65.273438 38.175781 49.238281 38.175781 Z M 49.238281 38.175781 " fill-opacity="1" fill-rule="nonzero"/><path fill="rgb(93.728638%, 16.468811%, 27.839661%)" d="M 99.472656 30.453125 C 99.296875 28.46875 99.308594 26.339844 98.859375 24.367188 C 98.605469 23.214844 97.960938 22.109375 97.636719 20.953125 C 97.34375 19.890625 97.136719 18.84375 96.839844 17.800781 C 96.09375 15.136719 93.582031 14.25 91.457031 13.058594 C 90.539062 12.570312 89.578125 11.972656 88.738281 11.347656 C 87.105469 10.132812 85.671875 8.632812 84.277344 7.171875 C 81.167969 3.960938 77.722656 4.703125 73.804688 5.363281 C 72.132812 5.640625 70.554688 6.148438 68.851562 6.394531 C 68.636719 6.417969 68.425781 6.4375 68.230469 6.480469 C 68.125 6.488281 68.015625 6.5 67.90625 6.515625 C 67.582031 6.558594 67.175781 6.601562 66.878906 6.628906 C 66.839844 6.628906 66.796875 6.640625 66.753906 6.644531 C 66.683594 6.652344 66.625 6.660156 66.574219 6.667969 C 66.484375 6.671875 66.402344 6.6875 66.308594 6.695312 C 65.898438 6.730469 64.796875 6.839844 64.234375 6.878906 C 64.03125 6.890625 63.859375 6.933594 63.667969 6.960938 C 63.632812 6.96875 63.601562 6.976562 63.570312 6.976562 L 63.5625 6.976562 L 63.542969 6.984375 C 60.371094 7.46875 58.46875 9.449219 55.792969 11.144531 C 53.933594 12.316406 51.808594 13.070312 49.96875 14.296875 C 49.714844 14.464844 49.445312 14.648438 49.167969 14.820312 C 48.78125 15.074219 48.386719 15.3125 48.019531 15.5 C 47.957031 15.527344 47.871094 15.574219 47.785156 15.605469 C 47.171875 15.851562 46.375 16.003906 45.914062 16.40625 C 45.890625 16.429688 45.871094 16.445312 45.859375 16.464844 C 46.589844 16.386719 47.394531 16.625 48.167969 16.914062 C 48.667969 17.089844 49.140625 17.292969 49.578125 17.445312 C 51.546875 18.125 53.394531 19.03125 55.261719 19.832031 C 56.636719 20.4375 58.09375 21.109375 59.476562 21.800781 C 60.597656 22.390625 61.773438 22.832031 62.925781 23.363281 C 64.644531 24.15625 66.289062 25.148438 68.035156 25.953125 C 68.796875 26.289062 69.578125 26.6875 70.371094 27.039062 C 70.910156 27.285156 71.453125 27.507812 72.003906 27.691406 C 74.09375 28.359375 75.941406 29.457031 77.851562 30.523438 C 78.03125 30.625 78.21875 30.726562 78.402344 30.828125 C 79.300781 31.328125 80.320312 31.726562 81.175781 32.355469 C 81.863281 32.855469 82.484375 33.523438 83.246094 33.796875 C 83.960938 34.042969 84.585938 34.167969 85.191406 34.429688 C 85.441406 34.53125 85.679688 34.660156 85.917969 34.835938 C 86.191406 35.03125 86.5 35.292969 86.835938 35.527344 L 86.851562 35.527344 C 87.089844 35.6875 87.335938 35.828125 87.597656 35.925781 L 87.609375 35.933594 C 87.738281 35.96875 87.90625 36.003906 88.039062 36.003906 L 88.039062 35.996094 C 88.222656 35.210938 88.308594 34.496094 88.25 33.796875 L 88.25 33.789062 C 88.183594 32.910156 87.882812 32.054688 87.273438 31.085938 C 87.027344 30.695312 86.730469 30.292969 86.371094 29.859375 L 86.371094 29.855469 C 86.3125 29.792969 86.257812 29.722656 86.207031 29.652344 C 86.308594 29.59375 86.382812 29.523438 86.457031 29.449219 L 86.464844 29.441406 C 86.667969 29.269531 86.765625 29.070312 86.835938 28.828125 L 86.835938 28.820312 C 86.878906 28.722656 86.90625 28.613281 86.933594 28.5 L 86.9375 28.46875 L 86.9375 28.453125 C 86.957031 28.402344 86.960938 28.339844 86.96875 28.28125 C 86.992188 28.289062 86.996094 28.296875 86.996094 28.304688 C 87.121094 28.414062 87.234375 28.523438 87.339844 28.625 C 88.886719 30.128906 90.472656 31.714844 92.203125 33.070312 L 92.210938 33.078125 L 92.226562 33.078125 L 92.226562 33.085938 C 92.246094 33.105469 92.269531 33.121094 92.292969 33.140625 L 92.296875 33.140625 C 92.484375 33.292969 92.660156 33.429688 92.851562 33.570312 C 94.488281 34.757812 96.242188 35.746094 98.1875 36.210938 L 98.203125 36.222656 L 98.210938 36.222656 C 98.671875 36.335938 99.140625 36.414062 99.625 36.472656 L 99.636719 36.472656 C 99.730469 36.480469 99.832031 36.492188 99.925781 36.503906 L 99.929688 36.503906 C 99.945312 36.421875 99.960938 36.320312 99.96875 36.234375 L 99.972656 36.222656 C 99.996094 36.074219 100.003906 35.9375 100.011719 35.796875 C 100.140625 34.101562 99.613281 32.074219 99.472656 30.453125 " fill-opacity="1" fill-rule="nonzero"/><path fill="rgb(85.488892%, 83.918762%, 84.709167%)" d="M 99.761719 36.632812 C 99.75 36.632812 99.734375 36.632812 99.722656 36.628906 C 99.429688 36.625 98.863281 36.484375 98.238281 36.292969 C 97.191406 35.96875 95.996094 35.527344 95.808594 35.441406 C 94.542969 34.832031 93.386719 34.027344 92.292969 33.140625 L 92.296875 33.140625 C 92.484375 33.292969 92.660156 33.429688 92.851562 33.570312 C 94.488281 34.757812 96.242188 35.746094 98.1875 36.210938 L 98.203125 36.222656 L 98.210938 36.222656 C 98.671875 36.335938 99.140625 36.414062 99.625 36.472656 L 99.636719 36.472656 C 99.730469 36.480469 99.832031 36.492188 99.925781 36.503906 L 99.929688 36.503906 C 99.925781 36.523438 99.917969 36.550781 99.914062 36.570312 C 99.902344 36.609375 99.851562 36.632812 99.761719 36.632812 M 99.960938 36.3125 C 99.960938 36.285156 99.964844 36.257812 99.96875 36.234375 L 99.972656 36.222656 L 99.96875 36.234375 C 99.964844 36.261719 99.964844 36.285156 99.960938 36.3125 M 88.128906 36.191406 C 88.113281 36.144531 88.089844 36.097656 88.078125 36.058594 C 88.066406 36.042969 88.050781 36.019531 88.039062 36.003906 L 88.039062 35.996094 C 88.222656 35.210938 88.308594 34.496094 88.25 33.796875 L 88.25 33.789062 C 88.183594 32.910156 87.882812 32.054688 87.273438 31.089844 C 87.425781 31.246094 87.566406 31.382812 87.667969 31.503906 C 88.128906 32.035156 88.460938 32.542969 88.585938 33.21875 C 88.605469 33.292969 88.617188 33.359375 88.625 33.429688 C 88.632812 33.488281 88.636719 33.542969 88.636719 33.601562 L 88.640625 33.625 C 88.6875 34.484375 88.359375 35.335938 88.140625 36.160156 L 88.128906 36.191406 M 99.996094 36.011719 C 100.003906 35.941406 100.007812 35.867188 100.011719 35.796875 C 100.015625 35.707031 100.023438 35.613281 100.027344 35.523438 C 100.023438 35.6875 100.011719 35.851562 99.996094 36.011719 M 92.285156 33.132812 C 92.257812 33.117188 92.242188 33.101562 92.222656 33.085938 L 92.214844 33.078125 L 92.226562 33.078125 L 92.226562 33.085938 C 92.246094 33.101562 92.265625 33.117188 92.285156 33.132812 M 86.371094 29.867188 C 86.371094 29.863281 86.371094 29.863281 86.371094 29.859375 L 86.371094 29.855469 C 86.3125 29.792969 86.257812 29.722656 86.207031 29.652344 C 86.308594 29.59375 86.382812 29.523438 86.457031 29.449219 L 86.460938 29.449219 C 86.457031 29.449219 86.457031 29.453125 86.457031 29.453125 C 86.402344 29.609375 86.363281 29.753906 86.371094 29.859375 C 86.371094 29.863281 86.371094 29.863281 86.371094 29.867188 M 86.835938 28.824219 L 86.835938 28.820312 C 86.878906 28.722656 86.90625 28.613281 86.933594 28.5 L 86.9375 28.46875 L 86.9375 28.453125 C 86.957031 28.402344 86.960938 28.339844 86.96875 28.28125 C 86.992188 28.289062 86.996094 28.296875 86.996094 28.304688 C 87.121094 28.414062 87.234375 28.523438 87.339844 28.625 C 87.34375 28.628906 87.34375 28.628906 87.34375 28.628906 C 87.289062 28.613281 87.230469 28.605469 87.179688 28.605469 C 87.175781 28.605469 87.175781 28.605469 87.171875 28.605469 C 87.074219 28.609375 86.957031 28.691406 86.84375 28.816406 C 86.84375 28.820312 86.839844 28.824219 86.835938 28.824219 " fill-opacity="1" fill-rule="nonzero"/><path fill="rgb(82.749939%, 16.859436%, 27.449036%)" d="M 99.929688 36.503906 L 99.925781 36.503906 C 99.832031 36.492188 99.730469 36.480469 99.636719 36.472656 L 99.625 36.472656 C 99.140625 36.414062 98.671875 36.335938 98.210938 36.222656 L 98.203125 36.222656 L 98.1875 36.210938 C 96.242188 35.746094 94.488281 34.757812 92.851562 33.570312 C 92.660156 33.429688 92.484375 33.292969 92.296875 33.140625 L 92.292969 33.140625 C 92.289062 33.136719 92.285156 33.132812 92.285156 33.132812 C 92.265625 33.117188 92.246094 33.101562 92.226562 33.085938 L 92.226562 33.078125 L 92.214844 33.078125 L 92.207031 33.070312 C 91.042969 32.125 89.960938 31.082031 88.867188 30.050781 C 88.574219 29.773438 87.820312 28.816406 87.34375 28.628906 C 87.34375 28.628906 87.34375 28.628906 87.339844 28.625 C 87.234375 28.523438 87.121094 28.414062 86.996094 28.304688 C 86.996094 28.296875 86.992188 28.289062 86.96875 28.28125 C 86.960938 28.339844 86.957031 28.402344 86.9375 28.453125 L 86.9375 28.46875 L 86.933594 28.5 C 86.90625 28.613281 86.878906 28.722656 86.835938 28.820312 L 86.835938 28.824219 C 86.691406 28.992188 86.554688 29.230469 86.460938 29.449219 L 86.457031 29.449219 C 86.382812 29.523438 86.308594 29.59375 86.207031 29.652344 C 86.257812 29.722656 86.3125 29.792969 86.371094 29.855469 L 86.371094 29.859375 C 86.371094 29.863281 86.371094 29.863281 86.371094 29.867188 C 86.375 29.878906 86.371094 29.890625 86.375 29.902344 C 86.476562 30.285156 86.898438 30.71875 87.269531 31.082031 C 87.269531 31.085938 87.269531 31.085938 87.273438 31.089844 C 87.882812 32.054688 88.183594 32.910156 88.25 33.789062 L 88.25 33.796875 C 88.308594 34.496094 88.222656 35.210938 88.039062 35.996094 L 88.039062 36.003906 C 88.039062 36.003906 88.039062 36 88.039062 36 C 88.003906 35.925781 87.953125 35.851562 87.90625 35.789062 L 87.886719 35.773438 C 87.546875 35.332031 86.992188 35.03125 86.625 34.597656 L 86.621094 34.597656 L 86.609375 34.589844 C 86.300781 34.21875 86.222656 33.816406 85.882812 33.492188 C 85.636719 33.242188 85.277344 33.046875 85.011719 32.792969 C 84.660156 32.480469 84.417969 32.113281 84.203125 31.738281 C 84.121094 31.582031 84.046875 31.429688 83.96875 31.273438 C 83.757812 30.84375 83.550781 30.398438 83.265625 29.992188 C 82.648438 29.132812 82.21875 28.300781 81.429688 27.585938 C 80.910156 27.097656 78.273438 26.058594 78.390625 25.371094 L 78.390625 25.355469 C 78.972656 22.972656 75.574219 19.621094 74.761719 17.960938 C 74.851562 17.890625 74.945312 17.820312 75.03125 17.746094 C 76.796875 19.078125 83.613281 25.511719 84.347656 25.789062 C 84.546875 25.859375 84.726562 25.894531 84.886719 25.894531 C 85.652344 25.894531 86.042969 25.152344 86.121094 24.34375 C 86.25 23.058594 86.125 21.90625 86.007812 20.761719 C 85.910156 19.769531 85.628906 16.117188 86.273438 16.117188 C 86.367188 16.117188 86.476562 16.191406 86.605469 16.355469 C 89.246094 19.640625 88.707031 22.949219 91.960938 26.855469 C 93.960938 29.253906 95.300781 30.261719 99.460938 30.523438 C 99.589844 32.039062 100.0625 33.894531 100.027344 35.523438 C 100.023438 35.613281 100.015625 35.707031 100.011719 35.796875 C 100.007812 35.867188 100.003906 35.941406 99.996094 36.011719 C 99.992188 36.082031 99.984375 36.152344 99.972656 36.222656 L 99.96875 36.234375 C 99.964844 36.257812 99.960938 36.285156 99.960938 36.3125 C 99.949219 36.378906 99.9375 36.441406 99.929688 36.5 C 99.929688 36.5 99.929688 36.5 99.929688 36.503906 " fill-opacity="1" fill-rule="nonzero"/><path fill="rgb(91.369629%, 90.19928%, 90.19928%)" d="M 83.269531 42.480469 C 82.542969 42.242188 81.597656 41.101562 81.054688 40.59375 C 80.574219 40.148438 80.152344 39.726562 79.734375 39.265625 C 78.875 38.308594 78.136719 37.53125 77.058594 36.71875 C 75.492188 35.539062 73.503906 34.703125 71.804688 33.636719 C 70.148438 32.585938 68.566406 31.222656 66.695312 30.519531 C 65.742188 30.164062 64.828125 29.953125 63.941406 29.480469 C 63.242188 29.113281 62.742188 28.738281 62.035156 28.445312 C 61.984375 28.421875 61.941406 28.402344 61.890625 28.382812 C 60.539062 27.871094 59.351562 27.4375 57.964844 27.121094 C 54.660156 26.371094 51.238281 25.300781 48.078125 25.445312 C 47.910156 25.457031 47.734375 25.46875 47.554688 25.488281 C 45.375 25.738281 42.621094 26.8125 40.199219 26.277344 L 40.183594 26.277344 C 40.121094 26.265625 40.050781 26.25 39.984375 26.230469 C 39.628906 26.144531 39.285156 26.015625 38.949219 25.84375 C 37.542969 25.121094 38.144531 22.824219 38.136719 21.730469 C 38.128906 20.292969 37.957031 18.742188 38.113281 17.339844 C 38.371094 15.089844 41.230469 14.613281 43.710938 14.5625 C 44.203125 14.546875 44.671875 14.550781 45.109375 14.5625 C 45.835938 14.589844 46.558594 14.621094 47.285156 14.660156 C 49.296875 14.785156 51.308594 15.039062 53.445312 15.617188 C 55.058594 16.046875 56.691406 16.382812 58.304688 16.796875 C 59.960938 17.226562 61.570312 17.988281 63.21875 18.5 C 66.695312 19.589844 69.835938 20.953125 73.136719 22.472656 C 74.359375 23.042969 75.601562 23.601562 76.816406 24.21875 C 77.371094 24.496094 77.921875 24.871094 78.464844 25.199219 C 78.765625 25.375 79.066406 25.53125 79.371094 25.65625 C 79.371094 25.65625 82.195312 27.371094 83.015625 28.082031 C 83.964844 28.902344 84.976562 29.914062 85.746094 30.878906 C 85.859375 31.023438 85.964844 31.164062 86.070312 31.308594 C 86.289062 31.609375 86.519531 31.921875 86.730469 32.246094 C 86.789062 32.339844 86.851562 32.4375 86.914062 32.535156 C 86.976562 32.640625 87.050781 32.757812 87.105469 32.871094 C 87.15625 32.957031 87.207031 33.042969 87.238281 33.128906 L 87.246094 33.128906 C 87.289062 33.210938 87.328125 33.300781 87.363281 33.378906 C 87.542969 33.785156 87.660156 34.1875 87.679688 34.585938 C 87.734375 35.828125 87.457031 37.085938 86.988281 38.121094 C 86.496094 39.222656 85.445312 43.191406 83.269531 42.480469 " fill-opacity="1" fill-rule="nonzero"/><path fill="rgb(81.568909%, 80.778503%, 85.488892%)" d="M 90.117188 42.8125 C 89.453125 43.820312 87.894531 47.433594 85.6875 46.839844 C 85.671875 46.835938 85.660156 46.832031 85.632812 46.824219 C 85.582031 46.808594 85.515625 46.785156 85.460938 46.761719 C 84.683594 46.453125 83.777344 45.226562 83.234375 44.660156 C 82.761719 44.171875 82.347656 43.710938 81.945312 43.214844 C 81.105469 42.179688 80.390625 41.328125 79.300781 40.414062 C 77.703125 39.085938 75.609375 38.046875 73.867188 36.824219 C 72.15625 35.617188 70.578125 34.101562 68.59375 33.21875 C 67.582031 32.765625 66.585938 32.460938 65.671875 31.90625 C 65.484375 31.796875 65.320312 31.691406 65.160156 31.578125 C 64.628906 31.230469 64.171875 30.898438 63.539062 30.613281 C 62.097656 29.957031 60.84375 29.410156 59.339844 28.953125 C 55.777344 27.875 52.128906 26.472656 48.609375 26.285156 C 46.152344 26.160156 42.734375 27.117188 39.925781 26.355469 C 39.574219 26.261719 39.230469 26.144531 38.902344 25.976562 L 38.894531 25.972656 C 38.742188 25.90625 38.601562 25.832031 38.457031 25.75 C 38.605469 25.824219 38.746094 25.886719 38.902344 25.949219 L 38.914062 25.957031 C 39.253906 26.085938 39.609375 26.183594 39.976562 26.246094 C 40.042969 26.257812 40.121094 26.269531 40.183594 26.277344 L 40.203125 26.28125 C 42.628906 26.617188 45.464844 25.710938 47.554688 25.488281 C 47.734375 25.46875 47.910156 25.457031 48.078125 25.445312 C 51.238281 25.300781 54.660156 26.371094 57.964844 27.121094 C 59.351562 27.4375 60.539062 27.871094 61.890625 28.382812 C 61.941406 28.402344 61.984375 28.421875 62.035156 28.445312 C 62.394531 28.59375 62.703125 28.761719 63.011719 28.941406 C 63.164062 29.03125 63.308594 29.117188 63.457031 29.210938 C 63.613281 29.300781 63.769531 29.394531 63.941406 29.480469 C 64.828125 29.953125 65.742188 30.164062 66.695312 30.519531 C 68.566406 31.222656 70.148438 32.585938 71.804688 33.636719 C 73.503906 34.703125 75.492188 35.539062 77.058594 36.71875 C 78.136719 37.53125 78.875 38.308594 79.734375 39.265625 C 80.152344 39.726562 80.574219 40.148438 81.054688 40.59375 C 81.597656 41.101562 82.542969 42.242188 83.269531 42.480469 C 85.445312 43.191406 86.496094 39.222656 86.988281 38.121094 C 87.457031 37.085938 87.734375 35.828125 87.679688 34.585938 C 87.671875 34.472656 87.65625 34.363281 87.636719 34.25 C 87.574219 33.875 87.4375 33.507812 87.246094 33.128906 L 87.238281 33.128906 L 87.222656 33.089844 C 87.1875 33.019531 87.148438 32.941406 87.105469 32.871094 C 86.992188 32.660156 86.863281 32.453125 86.730469 32.246094 C 86.820312 32.320312 86.898438 32.390625 86.960938 32.453125 C 87.507812 32.976562 88.0625 33.558594 88.570312 34.152344 L 88.582031 34.167969 C 88.644531 34.242188 88.714844 34.328125 88.773438 34.398438 C 88.796875 34.421875 88.820312 34.453125 88.84375 34.480469 C 88.960938 34.617188 89.066406 34.753906 89.175781 34.894531 C 89.457031 35.253906 89.722656 35.621094 89.941406 35.96875 C 89.996094 36.050781 90.046875 36.132812 90.101562 36.214844 C 90.109375 36.234375 90.125 36.253906 90.132812 36.273438 C 90.765625 37.277344 91.386719 38.378906 91.320312 39.378906 C 91.230469 40.617188 90.765625 41.839844 90.117188 42.8125 " fill-opacity="1" fill-rule="nonzero"/><path fill="rgb(56.469727%, 16.468811%, 20.388794%)" d="M 86.203125 29.652344 C 85.527344 28.632812 84.714844 27.128906 83.800781 26.3125 C 82.796875 25.410156 81.597656 25.046875 80.273438 24.296875 L 86.203125 29.652344 " fill-opacity="1" fill-rule="nonzero"/><path fill="rgb(56.469727%, 16.468811%, 20.388794%)" d="M 87.25 21.160156 C 88.796875 23.695312 87.25 26.964844 86.933594 28.601562 L 87.25 21.160156 " fill-opacity="1" fill-rule="nonzero"/><path fill="rgb(84.709167%, 12.159729%, 16.079712%)" d="M 63.515625 6.96875 C 65.09375 6.917969 66.730469 6.601562 68.230469 6.476562 C 68.726562 6.433594 70.050781 7.074219 70.628906 7.410156 C 72.160156 8.324219 74.710938 8.597656 75.441406 10.214844 C 75.441406 10.214844 72.542969 8.664062 69.75 8.15625 C 68.1875 7.871094 63.515625 6.96875 63.515625 6.96875 " fill-opacity="1" fill-rule="nonzero"/><path fill="rgb(91.369629%, 90.19928%, 90.19928%)" d="M 103.121094 40.691406 C 102.648438 41.050781 102.023438 41.347656 101.492188 41.613281 C 100.660156 42.03125 99.535156 42.011719 98.632812 41.722656 C 97.554688 41.378906 96.375 40.703125 95.5625 39.78125 C 95.792969 39.554688 95.996094 39.375 96.066406 39.292969 C 95.898438 39.152344 94.984375 38.824219 95.117188 38.597656 C 95.835938 37.367188 97.023438 37.402344 97.121094 37.242188 C 97.246094 37.03125 96.28125 36.191406 96.28125 36.191406 C 96.28125 36.191406 97.886719 36.296875 98.375 36.625 C 98.261719 36.179688 97.871094 35.855469 97.808594 35.382812 C 98.140625 35.242188 98.882812 35.585938 99.125 35.785156 C 99.398438 36 99.667969 36.535156 99.835938 36.84375 L 99.902344 36.835938 C 100.011719 36.40625 100.890625 36.03125 101.25 35.847656 C 101.679688 35.636719 102.277344 35.949219 102.722656 36.023438 C 102.484375 36.230469 101.617188 36.980469 101.5625 37.238281 C 102.03125 37.136719 102.625 37.359375 103.109375 37.464844 C 103.703125 37.59375 104.183594 38.074219 104.339844 38.699219 C 104.128906 38.640625 103.90625 38.574219 103.695312 38.554688 C 103.453125 38.527344 103.316406 38.597656 103.074219 38.660156 C 103.199219 38.832031 103.84375 39.214844 104.128906 39.503906 C 103.777344 39.648438 103.390625 40.488281 103.121094 40.691406 " fill-opacity="1" fill-rule="nonzero"/><g clip-path="url(#clip-1)"><path fill="rgb(81.568909%, 80.778503%, 85.488892%)" d="M 98.632812 41.722656 C 99.535156 42.011719 100.660156 42.03125 101.492188 41.613281 C 102.023438 41.347656 102.648438 41.050781 103.121094 40.691406 C 103.390625 40.488281 103.777344 39.648438 104.128906 39.503906 C 104.164062 39.539062 104.195312 39.574219 104.21875 39.605469 C 104.515625 40.046875 104.964844 40.832031 104.996094 41.355469 C 104.683594 41.296875 104.429688 41.050781 104.121094 41.023438 C 104.019531 41.199219 104.460938 41.695312 104.558594 41.863281 C 104.746094 42.167969 104.921875 42.425781 104.996094 42.773438 C 105.042969 43.011719 104.972656 43.558594 104.972656 43.558594 C 104.972656 43.558594 104.277344 43.210938 104.140625 43.140625 C 103.578125 42.84375 103.84375 44.707031 103.660156 45.273438 C 103.519531 45.707031 103.363281 45.59375 103.046875 45.332031 C 102.84375 45.160156 102.722656 45 102.558594 44.792969 C 102.339844 44.824219 102.105469 45.289062 101.949219 45.464844 C 101.6875 45.742188 101.398438 45.9375 101.117188 46.179688 C 100.847656 46.394531 100.773438 46.480469 100.5625 46.175781 C 100.355469 45.878906 99.984375 45.273438 99.976562 44.886719 C 99.851562 44.902344 99.355469 45.402344 99.113281 45.449219 C 98.757812 45.515625 98.621094 45.464844 98.386719 45.152344 C 98.21875 44.921875 97.78125 44.066406 97.78125 44.066406 C 97.78125 44.066406 97.230469 44.308594 96.949219 44.25 C 96.722656 44.191406 96.480469 44.160156 96.257812 44.09375 C 95.941406 44 95.917969 43.800781 95.886719 43.488281 C 95.835938 42.859375 95.835938 42.214844 95.785156 41.621094 C 95.46875 41.539062 94.550781 41.574219 94.613281 41.21875 C 94.710938 40.714844 95.175781 40.171875 95.5625 39.78125 C 96.375 40.703125 97.554688 41.378906 98.632812 41.722656 " fill-opacity="1" fill-rule="nonzero"/></g></svg>